<svg id="Capa_1" data-name="Capa 1" xmlns="http://www.w3.org/2000/svg" viewBox="0 0 125 53"><defs><style>.cls-1{fill:#fff;}</style></defs><path class="cls-1" d="M59.49,26a18.69,18.69,0,0,1,3.87,1.91l.14.09.14-.09A21.57,21.57,0,0,1,67.51,26a11.67,11.67,0,0,0,7.42-6.61l.07-.11-.07-.12c-1.86-2.86-2.63-4.54-2.61-7.59a12.89,12.89,0,0,1,2.14-6.82l.06-.11L72.1,0H66.22l-.07.05a6.88,6.88,0,0,1-2.63,1h0a6.71,6.71,0,0,1-2.74-1l0,0H54.9L52.48,4.61l.06.12a12.6,12.6,0,0,1,2.14,6.81c0,2.51-.34,4.11-2.61,7.6l-.07.12.07.11C54.38,24,56.85,25,59.49,26ZM55.72,11.54a13.84,13.84,0,0,0-2-6.95l1.86-3.53H60.6a6.64,6.64,0,0,0,3,1,6.85,6.85,0,0,0,2.81-1h5.1l1.84,3.53a13.56,13.56,0,0,0-2,7c0,3.22.79,5.08,2.52,7.78-2,3.86-4,4.62-6.44,5.58a22.67,22.67,0,0,0-3.86,1.81,22.67,22.67,0,0,0-3.86-1.81c-2.45-1-4.4-1.72-6.44-5.58C54.93,16.62,55.74,14.73,55.72,11.54Z"/><path class="cls-1" d="M59.56,23.29c2.31,1.28,4.72.71,5.58-.77a3.16,3.16,0,0,0-.88-4.28.57.57,0,0,0-.14-.85.49.49,0,0,0,.53-.29.53.53,0,0,0-.18-.71L70,6.71l-1.45-.82-.44.78-.76-.44-.81,1.39L66,7.3l.41-.7-1.73-1-.41.71-.55-.3.78-1.39L63.29,4l-3.43,6,1.18.66.78-1.39.53.3-.42.7,1.73,1,.42-.71.57.32-.8,1.39.76.44L63,15.55a.58.58,0,0,0-.72.2.52.52,0,0,0,0,.6.6.6,0,0,0-.81.32,3.23,3.23,0,0,0-4.15,1.45C56.52,19.65,57.26,22,59.56,23.29Zm4.84-14-.3-.15-.6,1L63,9.92l.6-1.05-.3-.15L64,7.6l.29.16.6-1,.46.25-.59,1,.3.16Zm-5.3,9.48a1.11,1.11,0,0,1,1.5-.61.5.5,0,0,1,.23.75.62.62,0,0,1-.83.25.94.94,0,0,0,.48,1,1,1,0,0,0,.79.13c0,.14.11.35.53.6a.94.94,0,0,0,1.1-.09.62.62,0,0,1-.23-.85.55.55,0,0,1,.79-.18,1.08,1.08,0,0,1,.25,1.57c-.49.84-1.68,1.6-3.41.64S58.62,19.6,59.1,18.76Z"/><path class="cls-1" d="M118.25,40.36h-2.72c-1.22,0-1.83-.69-1.83-1.48s.61-1.49,1.83-1.49h5.77a3.08,3.08,0,0,1,2.62,1.44v-5.9H110.75a5.58,5.58,0,1,0,0,11.15h2.81c1.12,0,2.48.37,2.48,1.81s-1.45,1.81-2.48,1.81h-5.44a3.19,3.19,0,0,1-2.62-1.39V53h12c4.83,0,7.5-3,7.5-6.32S122.8,40.36,118.25,40.36Z"/><path class="cls-1" d="M99.87,34.74h5.3l5.06-6.37h-7.41a2.28,2.28,0,0,1-.23,3.35Z"/><path class="cls-1" d="M100.29,32.88H88.62a1.83,1.83,0,0,1,.23,2.79l-6.1,6.69v-7a3.26,3.26,0,0,1,1.32-2.51H73.33a3.33,3.33,0,0,1,1.31,2.51v15A3.23,3.23,0,0,1,73.33,53H84.07a3.31,3.31,0,0,1-1.32-2.51V43.38l5.73,6.83A1.81,1.81,0,0,1,87.87,53h13.5L91.85,42Z"/><path class="cls-1" d="M51.58,39.43v6.41c0,4.65,2.57,7.16,7.78,7.16h12V46.77a3.14,3.14,0,0,1-2.62,1.4H63.25c-2.06,0-3.19-1.12-3.19-3.35V40.64c0-2.18,1.13-3.3,3.24-3.3h5.44a3,3,0,0,1,2.62,1.4v-5.9h-12C54.67,32.88,51.58,34.74,51.58,39.43Z"/><path class="cls-1" d="M21.9,42.31a5.07,5.07,0,0,0,2.62-4.46c0-2.51-1.73-5-5.62-5H0a3.3,3.3,0,0,1,1.31,2.5v15.1A3.23,3.23,0,0,1,0,53H18.9c3.79,0,6.28-2.51,6.28-5.48A5.56,5.56,0,0,0,21.9,42.31ZM9.24,36.78h4.87a2.1,2.1,0,1,1,0,4.19H9.24Zm5,12h-5v-4.6h5A2.2,2.2,0,0,1,16.5,46.5,2.23,2.23,0,0,1,14.21,48.82Z"/><path class="cls-1" d="M46.28,48.21H36.81V44.45H45V40.92h-8.2V37.39h9.47a3,3,0,0,1,2.62,1.39v-5.9H27.19a3.34,3.34,0,0,1,1.32,2.51v15.1A3.24,3.24,0,0,1,27.19,53H49V46.77A3.17,3.17,0,0,1,46.28,48.21Z"/></svg>