<svg xmlns="http://www.w3.org/2000/svg" width="207" height="42.125" viewBox="0 0 207 42.125"><defs><style>.a{fill:none;}.b,.c{fill:#fff;}.c,.e{fill-rule:evenodd;}.d{fill:#cf0a2c;}.e{fill:#1b1c20;}</style></defs><g transform="translate(-24.7 1.2)"><g transform="translate(77.549 -1.2)"><path class="a" d="M93.2-1.2V40.925H247.351V-1.2ZM242.721.266v37.11H93.354V.266Z" transform="translate(-93.2 1.2)"/><path d="M122.549,16.84a1.861,1.861,0,0,0-1.312-.54c-.077.077-4.243.077-4.938.077v3.7h4.938a1.821,1.821,0,0,0,1.852-1.852A1.859,1.859,0,0,0,122.549,16.84Z" transform="translate(-98.478 -2.798)"/><path d="M242.767,37.81V.7H93.4V37.81ZM236.826,2.629c2.7,0,4.012-.694,4.475-1.08l.617.617c-.231.386-1.466,2.237-5.092,2.237H220.779l1.389-1.775ZM224.713,20.914h-3.086a6.637,6.637,0,1,1,0-13.27h14.89v8.564l-.849-1.389a3.014,3.014,0,0,0-2.469-1.312h-6.327c-.926,0-1.543.463-1.543,1.234s.54,1.234,1.543,1.234h2.932c4.783,0,7.87,2.932,7.87,7.407,0,3.549-2.7,7.407-8.641,7.407H215.455v-9.1l.772,1a3,3,0,0,0,2.546,1.389h5.941c.231,0,2.237-.077,2.237-1.62C226.951,21.145,225.716,20.914,224.713,20.914ZM94.866,1.626a7.985,7.985,0,0,0,4.475,1H211.906l.849,1.234.463.54a2.15,2.15,0,0,0-.54-1l-.694-.772h10.03l-6.249,7.87h-7.021l3.7-4.012a2.324,2.324,0,0,0,.772-2.006H99.341c-3.626,0-4.861-1.852-5.092-2.237Zm101.61,28.161a1.532,1.532,0,0,0,.849-1.08V28.4a1.6,1.6,0,0,0-.386-.926s-4.321-5.246-5.478-6.635v6.558a3.207,3.207,0,0,0,1.234,2.469l1,.772h-14.35l1.08-.772a3.34,3.34,0,0,0,1.234-2.469V10.807a3.207,3.207,0,0,0-1.234-2.469l-1.08-.772h14.428l-1.08.772a3.34,3.34,0,0,0-1.234,2.469v6.558c1.775-1.929,5.941-6.558,5.941-6.558a1.7,1.7,0,0,0,.463-1.157V9.418a1.715,1.715,0,0,0-.617-1l-1.312-.772h15.2s-9.1,9.953-9.567,10.493c.463.54,10.8,12.5,10.8,12.5H196.63l-.077-.386h0ZM169.7,24.463h6.018a2.833,2.833,0,0,0,2.469-1.312l.849-1.312v8.873H165.46c-5.864,0-8.95-2.932-8.95-8.332v-7.1c0-5.015,3.086-7.638,8.95-7.638h13.5v8.41l-.849-1.389a3.014,3.014,0,0,0-2.469-1.312H169.7c-2.083,0-3.086,1.08-3.086,3.24v4.629C166.618,23.383,167.621,24.463,169.7,24.463ZM130.047,8.415l-1.08-.772h25.615V16.13l-.849-1.466a2.8,2.8,0,0,0-2.469-1.312h-9.953v3.009h9.027v4.783h-9.027v3.318h9.876a2.976,2.976,0,0,0,2.546-1.312l.849-1.312v8.873H129.044l1-.772a3.34,3.34,0,0,0,1.234-2.469V10.807A3.313,3.313,0,0,0,130.047,8.415Zm-29.7,0-1.08-.772h21.911c4.552,0,6.635,3.009,6.635,5.941a5.862,5.862,0,0,1-2.469,4.861,6.432,6.432,0,0,1,3.24,5.709c0,3.7-3.163,6.481-7.329,6.481H99.264l1.08-.772a3.34,3.34,0,0,0,1.234-2.469V10.807A3.174,3.174,0,0,0,100.344,8.415Zm-1,25.615H236.826c3.626,0,4.861,1.852,5.092,2.237l-.617.617a7.994,7.994,0,0,0-4.475-1H99.341a7.984,7.984,0,0,0-4.475,1l-.617-.617C94.48,35.882,95.715,34.03,99.341,34.03Z" transform="translate(-93.246 0.766)"/><path d="M116.3,31.266h5.015a2.022,2.022,0,0,0,2.083-2.083,2.154,2.154,0,0,0-.617-1.543,1.921,1.921,0,0,0-1.466-.54H116.3C116.3,27.794,116.3,30.649,116.3,31.266Z" transform="translate(-98.478 -5.266)"/><path d="M99.592,45.752H237.078a7.994,7.994,0,0,1,4.475,1l.617-.617c-.231-.386-1.466-2.237-5.092-2.237H99.592c-3.626,0-4.861,1.852-5.092,2.237l.617.617A7.985,7.985,0,0,1,99.592,45.752Zm0-1.466H237.078c3.395,0,4.475,1.62,4.706,2.006a8.351,8.351,0,0,0-4.706-1.08H99.592c-2.855,0-4.321.772-4.706,1.08C95.117,45.906,96.274,44.286,99.592,44.286Z" transform="translate(-93.497 -9.104)"/><path d="M102.08,31.92l-1.08.772h21.988c4.166,0,7.329-2.777,7.329-6.481a6.432,6.432,0,0,0-3.24-5.709,5.863,5.863,0,0,0,2.469-4.861c0-2.932-2.083-5.941-6.635-5.941H101l1.08.772a3.174,3.174,0,0,1,1.234,2.392V29.451A3.34,3.34,0,0,1,102.08,31.92Zm.231-21.834h20.6c4.243,0,6.172,2.777,6.172,5.555a5.722,5.722,0,0,1-2.855,4.938,6.033,6.033,0,0,1,3.626,5.709c0,3.24-2.7,6.018-6.867,6.018H102.312a3.8,3.8,0,0,0,1.466-2.777V12.863A3.564,3.564,0,0,0,102.312,10.086Z" transform="translate(-94.982 -1.29)"/><path d="M260.676,26.133h-5.941a3,3,0,0,1-2.546-1.389l-.772-1v9.1H265c5.941,0,8.641-3.858,8.641-7.407,0-4.475-3.086-7.407-7.87-7.407h-2.932c-1,0-1.543-.463-1.543-1.234s.617-1.234,1.543-1.234h6.327a3.014,3.014,0,0,1,2.469,1.312l.849,1.389V9.7h-14.89a6.637,6.637,0,1,0,0,13.27h3.086c1,0,2.237.231,2.237,1.543C262.913,26.056,260.907,26.133,260.676,26.133Zm2.7-1.7c0-1.62-1.466-2.006-2.7-2.006h-3.086a6.176,6.176,0,1,1,0-12.344h14.428v6.558a3.176,3.176,0,0,0-2.777-1.466h-6.327c-1.312,0-2.006.772-2.006,1.62s.617,1.62,2.006,1.62h2.932c5.015,0,7.407,3.163,7.407,6.944,0,3.7-2.932,6.944-8.255,6.944H251.88V24.9a3.3,3.3,0,0,0,2.855,1.543h5.941C261.756,26.442,263.376,25.979,263.376,24.436Z" transform="translate(-129.208 -1.29)"/><path d="M222.7,29.274l-6.249-7.561v7.715a3.8,3.8,0,0,0,1.466,2.777H206.189a3.564,3.564,0,0,0,1.466-2.777V12.84a3.712,3.712,0,0,0-1.389-2.7h-.077v-.077l.077.077h11.727a3.564,3.564,0,0,0-1.466,2.777v7.638l6.635-7.407a2.094,2.094,0,0,0-.309-3.086h12.73L226.4,20.17l10.416,12.113H222.005l.077.386h15.739s-10.338-11.959-10.8-12.5c.463-.54,9.567-10.493,9.567-10.493h-15.2l1.312.772a1.715,1.715,0,0,1,.617,1v.231a1.7,1.7,0,0,1-.463,1.157s-4.166,4.629-5.941,6.558V12.84a3.34,3.34,0,0,1,1.234-2.469l1.08-.772H204.8l1.08.772a3.207,3.207,0,0,1,1.234,2.469V29.428A3.34,3.34,0,0,1,205.88,31.9l-1.08.772h14.35l-1-.772a3.207,3.207,0,0,1-1.234-2.469V22.87c1.157,1.389,5.478,6.635,5.478,6.635a1.6,1.6,0,0,1,.386.926v.309a1.532,1.532,0,0,1-.849,1.08l.077.463A1.94,1.94,0,0,0,222.7,29.274Z" transform="translate(-118.698 -1.268)"/><path d="M140.58,32l-1,.772h25.537V23.9l-.849,1.312a2.976,2.976,0,0,1-2.546,1.312h-9.876V23.2h9.027V18.418h-9.027V15.409H161.8a2.8,2.8,0,0,1,2.469,1.312l.849,1.466V9.7H139.5l1.08.772a3.313,3.313,0,0,1,1.234,2.392V29.528A3.34,3.34,0,0,1,140.58,32Zm.231-21.911H164.5v6.558a3.251,3.251,0,0,0-2.855-1.543H151.3v3.935h9.027v3.858H151.3v4.166h10.338a3.491,3.491,0,0,0,2.932-1.543v6.789h-23.84a3.564,3.564,0,0,0,1.466-2.777V12.863A3.74,3.74,0,0,0,140.812,10.086Z" transform="translate(-103.778 -1.29)"/><path d="M99.592,4.755H213.469a2.57,2.57,0,0,1-.772,2.006l-3.7,4.012h7.021l6.249-7.87h-10.03l.694.772a1.843,1.843,0,0,1,.54,1l-.463-.54L212.157,2.9H99.592a7.984,7.984,0,0,1-4.475-1l-.617.617C94.731,2.9,95.966,4.755,99.592,4.755ZM221.339,3.366l-5.555,7.021H210l3.009-3.318c1.08-1.234,1.234-2.623.231-3.7h8.1Zm-121.747,0H211.926a7.24,7.24,0,0,1,.694.926H99.592c-3.318,0-4.475-1.62-4.706-2.006C95.272,2.594,96.737,3.366,99.592,3.366Z" transform="translate(-93.497 0.492)"/><path d="M123.338,18.215a2.18,2.18,0,0,0-2.315-2.315H115.7v4.629h5.324A2.224,2.224,0,0,0,123.338,18.215ZM121.1,19.989h-4.938v-3.7c.694,0,4.861,0,4.938-.077a1.847,1.847,0,0,1,1.852,1.929A1.821,1.821,0,0,1,121.1,19.989Z" transform="translate(-98.341 -2.707)"/><path d="M115.7,26.5v5.092h5.4a2.546,2.546,0,1,0,0-5.092Zm6.944,1a2.154,2.154,0,0,1,.617,1.543,2.022,2.022,0,0,1-2.083,2.083h-5.015V26.963h5.015A1.921,1.921,0,0,1,122.644,27.5Z" transform="translate(-98.341 -5.129)"/><path d="M188.393,15.409h5.941a3.014,3.014,0,0,1,2.469,1.312l.849,1.389V9.7h-13.5c-5.864,0-8.95,2.623-8.95,7.638v7.1c0,5.4,3.086,8.332,8.95,8.332h13.579V23.9l-.849,1.312a2.833,2.833,0,0,1-2.469,1.312h-6.018c-2.083,0-3.086-1.08-3.086-3.24V18.65C185.307,16.489,186.31,15.409,188.393,15.409Zm0,11.65h6.018a3.455,3.455,0,0,0,2.855-1.543v6.789H184.15c-5.632,0-8.487-2.777-8.487-7.87v-7.1c0-5.169,3.395-7.252,8.487-7.252h13.116v6.558a3.725,3.725,0,0,0-2.855-1.62H188.47c-2.315,0-3.549,1.312-3.549,3.7v4.629C184.921,25.825,186.156,27.059,188.393,27.059Z" transform="translate(-111.935 -1.29)"/><path d="M274.548,4.655c3.626,0,4.861-1.852,5.092-2.237l-.617-.617c-.463.386-1.775,1.08-4.475,1.08H259.889L258.5,4.655Zm-14.5-1.389h14.5a8.351,8.351,0,0,0,4.706-1.08c-.231.386-1.312,2.006-4.706,2.006h-15.2Z" transform="translate(-130.967 0.515)"/><path class="b" d="M222.416,32.42H237.23L226.814,20.307,236,10.2h-12.73a2.094,2.094,0,0,1,.309,3.086l-6.635,7.407V13.055a3.564,3.564,0,0,1,1.466-2.777H206.677a3.712,3.712,0,0,1,1.389,2.7V29.565a3.564,3.564,0,0,1-1.466,2.777h11.727a3.8,3.8,0,0,1-1.466-2.777V21.85l6.249,7.561a1.94,1.94,0,0,1-.694,3.009Zm-7.1-20.06h-4.861a1.5,1.5,0,0,1,.077.617V29.488a1.989,1.989,0,0,1-1.234,1.543,2.675,2.675,0,0,0,.231-1.543V12.977a2.593,2.593,0,0,0-.309-1.466h6.249A3.281,3.281,0,0,0,215.318,12.36Zm3.086,8.95,6.249-6.944a3.88,3.88,0,0,0,.926-2.777H232.6l-.772.849h-5.246a4.533,4.533,0,0,1-1.157,2.546l-5.786,6.4,5.4,6.481a4.111,4.111,0,0,1,1,3.318h-.926a3.314,3.314,0,0,0-.772-2.777Z" transform="translate(-119.109 -1.405)"/><path class="b" d="M188.607,15.138h5.941a3.725,3.725,0,0,1,2.855,1.62V10.2H184.287c-5.092,0-8.487,2.083-8.487,7.252v7.1c0,5.092,2.855,7.87,8.487,7.87H197.4V25.63a3.455,3.455,0,0,1-2.855,1.543H188.53c-2.237,0-3.472-1.234-3.472-3.7V18.841C185.058,16.449,186.293,15.138,188.607,15.138Zm-.077,13.347h6.018a3.325,3.325,0,0,0,1.312-.231,2.1,2.1,0,0,1-1.7,1.08H188.53c-2.469,0-3.935-1.234-4.321-2.855A4.8,4.8,0,0,0,188.53,28.485Zm-4.243-16.048c-4.321,0-6.018,1.775-6.018,5.015v7.1c0,2.315.463,4.321,1.852,5.632-1.929-1-2.777-2.932-2.777-5.632v-7.1c0-3.935,2.315-5.864,6.944-5.864H195.86v.849H184.287Z" transform="translate(-112.072 -1.405)"/><path class="b" d="M206.6,10.29h.077s-.077-.077-.077,0Z" transform="translate(-119.109 -1.417)"/><path class="b" d="M274.8,4.306c3.395,0,4.475-1.62,4.706-2.006A8.351,8.351,0,0,1,274.8,3.38h-14.5l-.694.926h15.2Z" transform="translate(-131.218 0.4)"/><path class="b" d="M99.706,4.406H212.735a7.24,7.24,0,0,0-.694-.926H99.706c-2.855,0-4.321-.772-4.706-1.08C95.231,2.786,96.389,4.406,99.706,4.406Z" transform="translate(-93.611 0.377)"/><path class="b" d="M141.1,32.42h23.84V25.63a3.491,3.491,0,0,1-2.932,1.543H151.67V23.007H160.7V19.15H151.67V15.215h10.338a3.251,3.251,0,0,1,2.855,1.543V10.2H141.177a3.74,3.74,0,0,1,1.389,2.777V29.642A3.564,3.564,0,0,1,141.1,32.42Zm20.985-3.935a2.846,2.846,0,0,0,1.312-.231,2.069,2.069,0,0,1-1.7,1.08H150.976l-.772-.849h11.881Zm-2.932-8.024v.849h-8.178l-.849-.849ZM143.8,11.589h19.52v.849H144.958c.077.077.077.309.077.54V29.488a1.989,1.989,0,0,1-1.234,1.543,3.582,3.582,0,0,0,.309-1.543V12.977A3.081,3.081,0,0,0,143.8,11.589Z" transform="translate(-104.144 -1.405)"/><path class="b" d="M102.7,32.42h20.677c4.166,0,6.867-2.777,6.867-6.018a6.033,6.033,0,0,0-3.626-5.709,5.722,5.722,0,0,0,2.855-4.938c0-2.777-1.929-5.555-6.172-5.555H102.7a3.564,3.564,0,0,1,1.466,2.777V29.642A3.8,3.8,0,0,1,102.7,32.42Zm15.43-2.392h-6.172l-.849-.849h7.021a3.788,3.788,0,0,0,4.089-3.858,3.749,3.749,0,0,0-.849-2.546,3.653,3.653,0,0,1,1.543,3.009C122.914,27.868,121.294,30.028,118.13,30.028Zm0-9.413a3.58,3.58,0,0,0,3.858-3.78,3.172,3.172,0,0,0-.926-2.237,3.12,3.12,0,0,1,1.62,2.777c0,2.083-1.466,4.089-4.552,4.089h-6.1l-.849-.849h6.944Zm-5.4-1.389V14.6h5.324a2.18,2.18,0,0,1,2.315,2.315,2.224,2.224,0,0,1-2.315,2.315Zm7.947,6.1a2.467,2.467,0,0,1-2.546,2.546h-5.4V22.776h5.4A2.467,2.467,0,0,1,120.677,25.322ZM123.3,11.589c3.163,0,4.089,1.775,4.321,2.392a5.948,5.948,0,0,0-4.321-1.466H106.558c0,.077.077.386.077.54V29.565c0,.772-.849,1.389-1.234,1.543a5.129,5.129,0,0,0,.231-1.62V13.055a2.759,2.759,0,0,0-.309-1.466Z" transform="translate(-95.371 -1.405)"/><path class="b" d="M254.849,26.556a3.3,3.3,0,0,1-2.855-1.543V32.42H265.11c5.324,0,8.255-3.24,8.255-6.944,0-3.78-2.392-6.944-7.407-6.944h-2.932c-1.389,0-2.006-.772-2.006-1.62s.694-1.62,2.006-1.62h6.327a3.176,3.176,0,0,1,2.777,1.466V10.2H257.7a6.176,6.176,0,1,0,0,12.344h3.086c1.234,0,2.7.386,2.7,2.006,0,1.543-1.62,2.006-2.7,2.006Zm2.932-14.119a4.031,4.031,0,0,0-3.858,4.243c0,1.62.54,3.395,1.7,4.089A4.659,4.659,0,0,1,253,16.449a4.758,4.758,0,0,1,4.783-4.861h12.807v.849H257.781ZM265.11,24.55a2.975,2.975,0,0,0-.694-2.006,2.9,2.9,0,0,1,1.466,2.315c0,3.549-3.858,3.858-5.015,3.858h-6.249v2.392h-1V27.714a3.074,3.074,0,0,0,1.312.231h5.941C261.947,27.945,265.11,27.636,265.11,24.55Z" transform="translate(-129.322 -1.405)"/><path class="b" d="M168.989,45.326h68.2a8.351,8.351,0,0,1,4.706,1.08c-.231-.386-1.312-2.006-4.706-2.006H99.706c-3.318,0-4.475,1.62-4.706,2.006.386-.309,1.852-1.08,4.706-1.08Z" transform="translate(-93.611 -9.218)"/><path class="b" d="M247.209,7.5,244.2,10.821h5.786L255.541,3.8h-8.1C248.443,4.88,248.289,6.269,247.209,7.5ZM249.6,5.112h2.855l-.694.849h-1.08c-.077.926-.309,1.7-1.852,3.549V9.432h-1.312l.849-.926C249.524,7.195,249.909,5.806,249.6,5.112Z" transform="translate(-127.7 0.058)"/><path d="M106.409,29.9a5.129,5.129,0,0,1-.231,1.62c.386-.154,1.234-.772,1.234-1.543V13.466c0-.154-.077-.463-.077-.54h16.742a5.948,5.948,0,0,1,4.321,1.466c-.231-.617-1.157-2.392-4.321-2.392H106.1a2.759,2.759,0,0,1,.309,1.466V29.9Z" transform="translate(-96.147 -1.816)"/><path d="M114.549,22.767h6.1c3.086,0,4.552-2.006,4.552-4.089a3.12,3.12,0,0,0-1.62-2.777,3.172,3.172,0,0,1,.926,2.237,3.58,3.58,0,0,1-3.858,3.78H113.7Z" transform="translate(-97.884 -2.707)"/><path d="M123.861,26.5a3.749,3.749,0,0,1,.849,2.546,3.788,3.788,0,0,1-4.089,3.858H113.6l.849.849h6.172c3.163,0,4.783-2.16,4.783-4.243A3.653,3.653,0,0,0,123.861,26.5Z" transform="translate(-97.861 -5.129)"/><path d="M248.5,9.821h1.312V9.9c1.543-1.852,1.775-2.623,1.852-3.549h1.08l.694-.849h-2.855c.309.694-.077,2.083-1.234,3.395Z" transform="translate(-128.682 -0.331)"/><path d="M228.612,31.6h.926a4.111,4.111,0,0,0-1-3.318l-5.4-6.481,5.786-6.4a4.533,4.533,0,0,0,1.157-2.546h5.246L236.1,12h-7.021a3.88,3.88,0,0,1-.926,2.777L221.9,21.721l5.941,7.1A3.314,3.314,0,0,1,228.612,31.6Z" transform="translate(-122.605 -1.816)"/><path d="M210.309,13.366V29.877a2.675,2.675,0,0,1-.231,1.543,1.989,1.989,0,0,0,1.234-1.543V13.366a1.5,1.5,0,0,0-.077-.617H216.1a3.282,3.282,0,0,1,.154-.849H210A2.593,2.593,0,0,1,210.309,13.366Z" transform="translate(-119.886 -1.793)"/><path d="M254.3,31.369v3.395h1V32.372h6.249c1.157,0,5.015-.309,5.015-3.858A2.9,2.9,0,0,0,265.1,26.2a2.975,2.975,0,0,1,.694,2.006c0,3.086-3.163,3.395-4.243,3.395h-5.941A3.074,3.074,0,0,1,254.3,31.369Z" transform="translate(-130.007 -5.06)"/><path d="M144.6,31.442a1.989,1.989,0,0,0,1.234-1.543V13.389c0-.231,0-.463-.077-.54H164.12V12H144.6a3.081,3.081,0,0,1,.309,1.389V29.9A3.582,3.582,0,0,1,144.6,31.442Z" transform="translate(-104.944 -1.816)"/><path d="M271.089,12H258.282a4.758,4.758,0,0,0-4.783,4.861,4.659,4.659,0,0,0,2.623,4.321c-1.157-.694-1.7-2.469-1.7-4.089a4.031,4.031,0,0,1,3.858-4.243h12.807V12Z" transform="translate(-129.823 -1.816)"/><path d="M153.672,34.68H164.4a2.069,2.069,0,0,0,1.7-1.08,2.846,2.846,0,0,1-1.312.231H152.9Z" transform="translate(-106.84 -6.751)"/><path d="M153.649,24.349h8.178V23.5H152.8Z" transform="translate(-106.817 -4.443)"/><path d="M196.317,12H184.744c-4.629,0-6.944,1.929-6.944,5.864v7.1c0,2.7.849,4.629,2.777,5.632-1.389-1.312-1.852-3.318-1.852-5.632v-7.1c0-3.24,1.7-5.015,6.018-5.015h11.573Z" transform="translate(-112.529 -1.816)"/><path d="M186.7,31.3c.386,1.62,1.852,2.855,4.321,2.855h5.632a2.1,2.1,0,0,0,1.7-1.08,3.325,3.325,0,0,1-1.312.231h-6.018A4.8,4.8,0,0,1,186.7,31.3Z" transform="translate(-114.562 -6.225)"/></g><path class="c" d="M44.82,1.2a9.1,9.1,0,0,1-4.012,1.466A10.306,10.306,0,0,1,36.564,1.2H29c-.231.463-2.777,5.246-3.009,5.632A18.6,18.6,0,0,1,29,16.553v.154c0,4.321-1.08,6.789-3.7,10.724,3.086,5.941,6.326,7.175,9.953,8.641a37.1,37.1,0,0,1,5.4,2.546,25.852,25.852,0,0,1,5.4-2.546c3.7-1.466,6.867-2.7,9.953-8.641-2.546-3.935-3.7-6.4-3.7-10.724v-.154a18.6,18.6,0,0,1,3.009-9.721c-.154-.386-2.7-5.246-2.932-5.632Z" transform="translate(-0.137 -0.548)"/><path class="d" d="M54.023,7.358,52.017,3.5H45.3A9.749,9.749,0,0,1,41.37,4.966,9.749,9.749,0,0,1,37.435,3.5H30.723L28.717,7.358c3.935,7.1,3.7,13.81-.617,20.677,3.78,6.635,7.715,5.864,13.347,9.027,5.632-3.163,9.567-2.469,13.347-9.027C50.32,21.091,50.088,14.456,54.023,7.358Z" transform="translate(-0.777 -1.074)"/><path class="e" d="M54.867,6.7,52.089,1.372H44.528a9.749,9.749,0,0,1-3.935,1.466A10.27,10.27,0,0,1,36.5,1.372H29.021L26.243,6.7a18.324,18.324,0,0,1,2.932,9.721c0,4.552-1.157,7.1-3.626,10.878,4.4,8.332,8.564,6.789,14.968,10.8,6.481-4.012,10.57-2.469,14.968-10.8-2.469-3.78-3.626-6.326-3.626-10.878A19.063,19.063,0,0,1,54.867,6.7ZM52.552.6l3.24,6.1c-1.7,2.855-3.086,5.709-3.086,9.721,0,4.475,1.157,6.867,3.78,10.8-4.706,9.258-9.721,7.792-15.893,11.8-6.172-4.012-11.187-2.546-15.893-11.8,2.623-3.935,3.78-6.326,3.78-10.8,0-4.012-1.389-6.867-3.086-9.721L28.635.6H36.5S38.9,2.143,40.593,2.066A9.749,9.749,0,0,0,44.528.6h8.024Z" transform="translate(0 -0.411)"/><path class="c" d="M43.993,24.314a.779.779,0,0,1,.231,1,.7.7,0,0,1-.772.386.8.8,0,0,1,.154,1.234,4.5,4.5,0,0,1,1.234,6.018c-1.157,2.083-4.552,2.932-7.792,1.08s-4.243-5.169-3.086-7.252c1.466-2.623,3.858-2.7,5.786-2.083a.909.909,0,0,1,1.157-.463.659.659,0,0,1,0-.849.782.782,0,0,1,1-.309l2.315-4.089-1.08-.617,1.08-1.929-.772-.463-.54,1L40.521,15.6l.54-1-.772-.463-1.08,2.083-1.62-.926L42.372,6.8l1.7.926L42.99,9.655l.772.463.54-1L46.693,10.5l-.54,1,.772.463L48,10.04l1.08.617.617-1.08,2.006,1.157Zm-.309-12.19-.386-.231-.926,1.543.386.231-.849,1.466.617.386.849-1.466.386.231.926-1.543-.386-.231.849-1.466-.617-.386ZM40.289,30.64a1.274,1.274,0,0,0,1.543-.154.791.791,0,0,1-.309-1.157A.759.759,0,0,1,42.6,29.1a1.536,1.536,0,0,1,.309,2.237c-.694,1.157-2.392,2.237-4.783.926-2.392-1.389-2.315-3.318-1.7-4.552.617-1.157,1.62-1.157,2.083-.849a.763.763,0,0,1,.309,1.08.82.82,0,0,1-1.157.309,1.352,1.352,0,0,0,.694,1.389,1.725,1.725,0,0,0,1.08.231C39.595,29.946,39.672,30.254,40.289,30.64Z" transform="translate(-2.01 -1.828)"/><path class="e" d="M49.012,11.286l.231.154-4.089,7.407-.231-.154Zm-9.644,4.321.231.154,4.166-7.407L43.535,8.2Zm2.006,13.579a1.083,1.083,0,0,1,1.312-.463,1,1,0,0,0-1.543.231,1.315,1.315,0,0,0,0,1.08A3.478,3.478,0,0,1,41.374,29.185Zm3.086-6.326c-.617,1.157-1.157.926-1.312.926l1,.54,7.484-13.27-.386-.231Zm-7.947,4.783a2.018,2.018,0,0,1,2.469-1.08,1.976,1.976,0,0,0-2.777.772,2.549,2.549,0,0,0-.154,2.083A2.718,2.718,0,0,1,36.514,27.642Zm3.318,6.867A4.425,4.425,0,0,0,45,32.657a3.267,3.267,0,0,0,.154-3.24,4.564,4.564,0,0,1-.386,2.855A5.081,5.081,0,0,1,39.831,34.509Zm3.7-9.027a.537.537,0,0,0,.772-.154,3.99,3.99,0,0,1-1.234-.54,4.342,4.342,0,0,1-1.08-.772c0,.154-.154.54.309.772l.617.386Zm-1,.231-.849-.463a.613.613,0,0,0-.772.154c.231.077,1,.463,1.466.694a13.184,13.184,0,0,1,1.312.849c0-.154.154-.54-.309-.772Z" transform="translate(-2.555 -2.148)"/></g></svg>