<svg width="47" height="74" viewBox="0 0 47 74" fill="none" xmlns="http://www.w3.org/2000/svg">
<path d="M44.6315 12.8607H33.0189C32.5007 10.8552 30.9186 9.27286 28.9129 8.75472V5.71587C28.9129 2.56414 26.3487 0 23.197 0C20.0453 0 17.4811 2.56414 17.4811 5.71587V8.75472C15.4756 9.27286 13.8933 10.8552 13.3751 12.8607H1.76246C0.973388 12.8607 0.333496 13.5006 0.333496 14.2897V71.7342C0.333496 72.5233 0.973388 73.1632 1.76246 73.1632H16.7666C17.5557 73.1632 18.1956 72.5233 18.1956 71.7342C18.1956 70.9451 17.5557 70.3053 16.7666 70.3053H3.19143V15.7187H13.1942V18.5766C13.1942 19.3657 13.8341 20.0056 14.6232 20.0056H31.7708C32.5599 20.0056 33.1998 19.3657 33.1998 18.5766V15.7187H43.2026V70.3053H29.6274C28.8383 70.3053 28.1984 70.9451 28.1984 71.7342C28.1984 72.5233 28.8383 73.1632 29.6274 73.1632H44.6315C45.4206 73.1632 46.0605 72.5233 46.0605 71.7342V14.2897C46.0605 13.5006 45.4207 12.8607 44.6315 12.8607ZM20.3391 5.71587C20.3391 4.14001 21.6211 2.85794 23.197 2.85794C24.7729 2.85794 26.0549 4.14001 26.0549 5.71587V8.57381H20.3391V5.71587ZM30.3418 17.1476H16.0522V14.2897C16.0522 12.7138 17.3342 11.4317 18.9101 11.4317H27.4839C29.0598 11.4317 30.3418 12.7138 30.3418 14.2897V17.1476Z" fill="white"/>
<path d="M23.197 73.1634C23.9862 73.1634 24.626 72.5236 24.626 71.7344C24.626 70.9452 23.9862 70.3054 23.197 70.3054C22.4078 70.3054 21.7681 70.9452 21.7681 71.7344C21.7681 72.5236 22.4078 73.1634 23.197 73.1634Z" fill="white"/>
<rect x="9.64307" y="32.7261" width="2.90919" height="2.90919" fill="white"/>
<rect x="17.7891" y="32.7261" width="20.3643" height="2.90919" fill="white"/>
<rect x="9.64307" y="40.8718" width="2.90919" height="2.90919" fill="white"/>
<rect x="17.7891" y="40.8718" width="20.3643" height="2.90919" fill="white"/>
<rect x="9.64307" y="49.0176" width="2.90919" height="2.90919" fill="white"/>
<rect x="17.7891" y="49.0176" width="20.3643" height="2.90919" fill="white"/>
<rect x="9.64307" y="56.5815" width="2.90919" height="2.90919" fill="white"/>
<rect x="17.7891" y="56.5815" width="20.3643" height="2.90919" fill="white"/>
</svg>
