<svg width="59" height="67" viewBox="0 0 59 67" fill="none" xmlns="http://www.w3.org/2000/svg">
<path d="M41.8155 61.0891H36.0161C35.8342 61.0891 35.6552 61.134 35.4948 61.2198C35.3345 61.3056 35.1978 61.4297 35.097 61.581L33.2156 64.4031H11.7137V63.5847L17.0979 53.893C17.1891 53.7289 17.2369 53.5443 17.237 53.3566V46.7286H15.0277V53.0703L9.64341 62.7619C9.55226 62.9261 9.50441 63.1107 9.50439 63.2984V65.5077C9.50439 65.8007 9.62078 66.0817 9.82794 66.2888C10.0351 66.496 10.3161 66.6124 10.609 66.6124H33.8068C33.9886 66.6124 34.1677 66.5675 34.328 66.4817C34.4883 66.3959 34.625 66.2718 34.7258 66.1205L36.6072 63.2984H41.8155C42.5378 63.2974 43.2521 63.1478 43.914 62.8588C44.576 62.5699 45.1714 62.1478 45.6632 61.6188L44.0435 60.1165C43.7602 60.4247 43.4158 60.6704 43.0321 60.8379C42.6485 61.0054 42.2341 61.091 41.8155 61.0891Z" fill="white"/>
<path d="M55.9 55.0136C55.8995 55.4529 55.7247 55.8741 55.4141 56.1847C55.1035 56.4954 54.6823 56.6701 54.243 56.6706H28.836C28.3967 56.6701 27.9755 56.4954 27.6649 56.1847C27.3542 55.8741 27.1795 55.4529 27.179 55.0136V38.9962H29.3883C31.1455 38.9942 32.8302 38.2952 34.0728 37.0527C35.3153 35.8102 36.0143 34.1255 36.0162 32.3682V27.9496C36.0162 27.6567 35.8998 27.3757 35.6927 27.1685C35.4855 26.9614 35.2045 26.845 34.9116 26.845H23.5368C22.4353 26.844 21.3615 27.1901 20.4679 27.8342C19.5743 28.4782 18.9063 29.3875 18.5589 30.4328L15.0844 40.8561C15.0469 40.9688 15.0278 41.0867 15.0278 41.2055V44.5194H17.2371V41.3847L20.6549 31.1315C20.856 30.5263 21.2427 29.9999 21.7601 29.627C22.2774 29.2541 22.8991 29.0537 23.5368 29.0543H33.8069V32.3682C33.8056 33.5397 33.3396 34.6628 32.5113 35.4912C31.6829 36.3196 30.5598 36.7855 29.3883 36.7868H24.9697V55.0136C24.9709 56.0387 25.3786 57.0214 26.1034 57.7462C26.8282 58.471 27.8109 58.8787 28.836 58.8799H54.243C55.268 58.8787 56.2508 58.471 56.9756 57.7462C57.7004 57.0214 58.1081 56.0387 58.1093 55.0136V9.17053H55.9V55.0136Z" fill="white"/>
<path d="M54.243 0.333252H28.836C27.811 0.3344 26.8282 0.742108 26.1034 1.46693C25.3786 2.19175 24.9709 3.17449 24.9697 4.19954V24.6356H27.179V4.19954C27.1795 3.76023 27.3543 3.33905 27.6649 3.02842C27.9755 2.71778 28.3967 2.54305 28.836 2.54256H54.243C54.6823 2.54305 55.1035 2.71778 55.4141 3.02842C55.7248 3.33905 55.8995 3.76023 55.9 4.19954V6.96117H58.1093V4.19954C58.1082 3.17449 57.7005 2.19175 56.9756 1.46693C56.2508 0.742108 55.2681 0.3344 54.243 0.333252Z" fill="white"/>
<path d="M49.2725 14.6937H51.4818V16.903H53.6911V13.589C53.6911 13.2961 53.5747 13.0151 53.3675 12.8079C53.1604 12.6008 52.8794 12.4844 52.5864 12.4844H49.2725V14.6937Z" fill="white"/>
<path d="M53.6911 37.8916V34.5776H51.4818V36.7869H49.2725V38.9962H52.5864C52.8794 38.9962 53.1604 38.8799 53.3675 38.6727C53.5747 38.4655 53.6911 38.1846 53.6911 37.8916Z" fill="white"/>
<path d="M29.3882 13.589V16.903H31.5975V14.6937H33.8068V12.4844H30.4928C30.1999 12.4844 29.9189 12.6008 29.7117 12.8079C29.5046 13.0151 29.3882 13.2961 29.3882 13.589Z" fill="white"/>
<path d="M43.7487 16.9027C43.4557 16.9027 43.1747 17.0191 42.9676 17.2263C42.7604 17.4334 42.644 17.7144 42.644 18.0074V23.5306C42.644 23.8236 42.7604 24.1046 42.9676 24.3117C43.1747 24.5189 43.4557 24.6353 43.7487 24.6353H49.272C49.5649 24.6353 49.8459 24.5189 50.0531 24.3117C50.2602 24.1046 50.3766 23.8236 50.3766 23.5306V18.0074C50.3766 17.7144 50.2602 17.4334 50.0531 17.2263C49.8459 17.0191 49.5649 16.9027 49.272 16.9027H43.7487ZM48.1673 22.426H44.8533V19.112H48.1673V22.426Z" fill="white"/>
<path d="M32.7021 18.0074V23.5306C32.7021 23.8236 32.8185 24.1046 33.0257 24.3117C33.2329 24.5189 33.5138 24.6353 33.8068 24.6353H39.3301C39.623 24.6353 39.904 24.5189 40.1112 24.3117C40.3183 24.1046 40.4347 23.8236 40.4347 23.5306V18.0074C40.4347 17.7144 40.3183 17.4334 40.1112 17.2263C39.904 17.0191 39.623 16.9027 39.3301 16.9027H33.8068C33.5138 16.9027 33.2329 17.0191 33.0257 17.2263C32.8185 17.4334 32.7021 17.7144 32.7021 18.0074ZM34.9115 19.112H38.2254V22.426H34.9115V19.112Z" fill="white"/>
<path d="M50.3766 33.4729V27.9496C50.3766 27.6567 50.2602 27.3757 50.0531 27.1685C49.8459 26.9614 49.5649 26.845 49.272 26.845H43.7487C43.4557 26.845 43.1747 26.9614 42.9676 27.1685C42.7604 27.3757 42.644 27.6567 42.644 27.9496V33.4729C42.644 33.7659 42.7604 34.0468 42.9676 34.254C43.1747 34.4612 43.4557 34.5775 43.7487 34.5775H49.272C49.5649 34.5775 49.8459 34.4612 50.0531 34.254C50.2602 34.0468 50.3766 33.7659 50.3766 33.4729ZM48.1673 32.3682H44.8533V29.0543H48.1673V32.3682Z" fill="white"/>
<path d="M40.4349 33.4729V27.9496C40.4349 27.6567 40.3185 27.3757 40.1113 27.1685C39.9042 26.9614 39.6232 26.845 39.3302 26.845H38.2256V34.5775H39.3302C39.6232 34.5775 39.9042 34.4612 40.1113 34.254C40.3185 34.0468 40.4349 33.7659 40.4349 33.4729Z" fill="white"/>
<path d="M36.0166 4.75208H47.0631V6.96138H36.0166V4.75208Z" fill="white"/>
<path d="M31.5977 4.75208H33.807V6.96138H31.5977V4.75208Z" fill="white"/>
<path d="M49.2725 4.75208H51.4818V6.96138H49.2725V4.75208Z" fill="white"/>
<path d="M33.8071 46.729C33.8071 48.2584 34.2606 49.7534 35.1103 51.025C35.96 52.2966 37.1676 53.2877 38.5806 53.873C39.9935 54.4582 41.5483 54.6114 43.0482 54.313C44.5482 54.0146 45.926 53.2782 47.0074 52.1968C48.0889 51.1154 48.8253 49.7375 49.1237 48.2376C49.422 46.7376 49.2689 45.1828 48.6836 43.7699C48.0984 42.357 47.1073 41.1493 45.8357 40.2996C44.5641 39.45 43.069 38.9965 41.5397 38.9965C39.4896 38.9988 37.5241 39.8142 36.0745 41.2638C34.6249 42.7135 33.8094 44.6789 33.8071 46.729ZM41.5397 41.2058C42.6321 41.2058 43.7 41.5297 44.6083 42.1366C45.5165 42.7435 46.2245 43.6061 46.6425 44.6154C47.0606 45.6246 47.1699 46.7352 46.9568 47.8066C46.7437 48.878 46.2177 49.8621 45.4452 50.6346C44.6728 51.407 43.6886 51.933 42.6172 52.1462C41.5458 52.3593 40.4353 52.2499 39.426 51.8318C38.4168 51.4138 37.5542 50.7059 36.9473 49.7976C36.3404 48.8893 36.0164 47.8214 36.0164 46.729C36.0181 45.2647 36.6005 43.8608 37.636 42.8253C38.6714 41.7899 40.0753 41.2074 41.5397 41.2058Z" fill="white"/>
<path d="M39.6536 49.7194C39.7562 49.822 39.878 49.9034 40.012 49.9589C40.1461 50.0144 40.2897 50.043 40.4348 50.043C40.5799 50.043 40.7235 50.0144 40.8576 49.9589C40.9916 49.9034 41.1134 49.822 41.216 49.7194L45.6346 45.3008L44.0723 43.7386L40.4348 47.3762L39.0066 45.948L37.4443 47.5101L39.6536 49.7194Z" fill="white"/>
<path d="M11.709 30.1591C11.9424 30.1592 12.1698 30.0853 12.3586 29.9479L14.653 28.2799C18.4443 25.5543 21.0338 21.4672 21.8789 16.875C21.8804 16.8664 21.8819 16.8578 21.8832 16.8494L22.7194 11.5518C22.7573 11.3118 22.715 11.066 22.599 10.8525C22.4831 10.639 22.3 10.4696 22.0781 10.3707L12.15 5.94367C12.0084 5.88053 11.8552 5.8479 11.7002 5.8479C11.5452 5.8479 11.3919 5.88053 11.2503 5.94367L1.32226 10.3707C1.10041 10.4696 0.917353 10.6389 0.80142 10.8524C0.685486 11.0658 0.643141 11.3115 0.680936 11.5515L1.50847 16.8055C1.50985 16.8141 1.51123 16.8227 1.51279 16.8312C1.67608 17.7284 1.90765 18.6117 2.2055 19.4736L4.29344 18.7514C4.03387 18.0003 3.83174 17.2305 3.6888 16.4487L2.995 12.0438L11.7001 8.16213L20.405 12.0438L19.7028 16.4919C18.9562 20.5199 16.6813 24.1033 13.3539 26.493L11.7133 27.6856L9.95589 26.3913C7.95731 24.9228 6.32245 23.0152 5.17723 20.8154L3.21389 21.8284C4.51531 24.3301 6.37363 26.4998 8.64569 28.1702L11.0538 29.9439C11.2436 30.0838 11.4732 30.1592 11.709 30.1591Z" fill="white"/>
<path d="M10.583 21.3214C10.7281 21.3216 10.8718 21.2931 11.0058 21.2376C11.1399 21.182 11.2617 21.1006 11.3641 20.9978L17.992 14.3699L16.4297 12.8077L10.583 18.6546L8.05017 16.1217L6.48779 17.6839L9.80175 20.9978C9.90423 21.1006 10.026 21.1821 10.1601 21.2376C10.2941 21.2931 10.4379 21.3216 10.583 21.3214Z" fill="white"/>
</svg>
