<svg width="141" height="86" viewBox="0 0 141 86" fill="none" xmlns="http://www.w3.org/2000/svg">
<path d="M21.2329 33.241V42.018C21.2329 42.3472 21.0135 42.5666 20.6844 42.5666C20.3552 42.5666 20.1358 42.3472 20.1358 42.018V33.241C20.1358 32.9118 20.3552 32.6924 20.6844 32.6924C20.9038 32.5827 21.2329 32.9118 21.2329 33.241ZM20.5747 25.1222C20.2455 25.1222 20.0261 25.3416 20.0261 25.6707V29.7301C20.0261 30.0593 20.2455 30.2787 20.5747 30.2787C20.9038 30.2787 21.1232 30.0593 21.1232 29.7301V25.6707C21.2329 25.4513 20.9038 25.1222 20.5747 25.1222ZM53.5983 32.5827C53.2692 32.5827 53.0498 32.8021 53.0498 33.1312V41.9083C53.0498 42.2374 53.2692 42.4569 53.5983 42.4569C53.9275 42.4569 54.1469 42.2374 54.1469 41.9083V33.1312C54.2566 32.9118 53.9275 32.5827 53.5983 32.5827ZM53.5983 25.1222C53.2692 25.1222 53.0498 25.3416 53.0498 25.6707V29.7301C53.0498 30.0593 53.2692 30.2787 53.5983 30.2787C53.9275 30.2787 54.1469 30.0593 54.1469 29.7301V25.6707C54.2566 25.4513 53.9275 25.1222 53.5983 25.1222ZM86.8414 32.5827C86.5123 32.5827 86.2929 32.8021 86.2929 33.1312V41.9083C86.2929 42.2374 86.5123 42.4569 86.8414 42.4569C87.1706 42.4569 87.39 42.2374 87.39 41.9083V33.1312C87.4997 32.9118 87.1706 32.5827 86.8414 32.5827ZM86.8414 25.1222C86.5123 25.1222 86.2929 25.3416 86.2929 25.6707V29.7301C86.2929 30.0593 86.5123 30.2787 86.8414 30.2787C87.1706 30.2787 87.39 30.0593 87.39 29.7301V25.6707C87.4997 25.4513 87.1706 25.1222 86.8414 25.1222ZM86.8414 68.4589C86.8414 68.788 87.0609 69.0075 87.39 69.0075H109.991C110.32 69.0075 110.539 68.788 110.539 68.4589C110.539 68.1298 110.32 67.9103 109.991 67.9103H87.4997C87.1706 67.9103 86.8414 68.1298 86.8414 68.4589ZM117.232 42.2374C115.915 42.6763 114.599 43.1151 113.282 43.554V68.788C113.282 69.0075 113.173 69.2269 112.953 69.3366C112.953 69.3366 110.869 70.6532 109.662 71.6406C109.552 71.7503 109.442 71.7503 109.333 71.7503H87.6094C87.4997 71.7503 87.2803 71.7503 87.2803 71.6406C86.0734 70.6532 84.0986 69.4463 83.9889 69.3366C83.7695 69.2269 83.6598 69.0075 83.6598 68.788V43.0054C82.7821 42.6763 82.3432 42.4569 82.3432 42.4569C82.2335 42.4569 82.2335 42.3472 82.1238 42.2374C81.4655 42.4569 80.8072 42.6763 80.0392 42.8957V68.788C80.0392 69.0075 79.9295 69.2269 79.7101 69.3366C79.7101 69.3366 77.6255 70.6532 76.4187 71.6406C76.309 71.7503 76.1993 71.7503 76.0895 71.7503H54.2566C54.1469 71.7503 53.9275 71.7503 53.9275 71.6406C52.7206 70.6532 50.7458 69.4463 50.6361 69.3366C50.4167 69.2269 50.3069 69.0075 50.3069 68.788V43.554C48.771 43.1151 48.3321 42.4569 47.8932 42.2374C47.7835 42.2374 47.1253 42.5666 47.0155 42.5666V68.6783C47.0155 68.8978 46.9058 69.1172 46.6864 69.2269C46.6864 69.2269 44.6019 70.5434 43.395 71.5309C43.2853 71.6406 43.1756 71.6406 43.0659 71.6406H21.2329C21.1232 71.6406 20.9038 71.6406 20.9038 71.5309C19.697 70.5434 17.7221 69.3366 17.6124 69.2269C17.393 69.1172 17.2833 68.8978 17.2833 68.6783V43.8831C14.8696 43.1151 13.4433 42.4569 13.3336 42.4569C13.0044 42.3472 12.8947 41.9083 13.1142 41.6889C13.2239 41.3597 13.6627 41.25 13.8822 41.3597C13.8822 41.3597 15.089 41.9083 17.2833 42.5666V21.2822V21.1725C17.2833 21.0628 17.393 20.9531 17.393 20.9531C17.393 20.8434 17.5027 20.8434 17.6124 20.7336H17.7221L18.2707 20.6239C19.1484 20.4045 20.1358 18.7588 20.6844 17.3325C20.7941 17.1131 21.0135 16.8937 21.2329 16.8937H30.3391L25.1826 15.1383C24.8535 15.0286 24.7438 14.6994 24.8535 14.3703C24.9632 14.0411 25.2923 13.9314 25.6215 14.0411L33.9597 16.8937C33.9597 16.8937 34.0694 16.8937 34.0694 17.0034H43.1756C43.395 17.0034 43.6144 17.1131 43.7241 17.4423C44.2727 18.8685 45.1504 20.5142 46.1378 20.7336L46.6864 20.8434H46.7961C46.9058 20.8434 46.9058 20.9531 47.0155 21.0628C47.0155 21.1725 47.1253 21.1725 47.1253 21.2822V21.3919V41.5792C47.235 41.5792 47.235 41.4694 47.3447 41.4694C47.3447 41.4694 47.3447 41.4694 47.4544 41.4694C47.6738 41.3597 47.8932 41.3597 48.003 41.25C48.3321 41.1403 49.7584 42.2374 50.5264 42.4569V21.2822V21.1725C50.5264 21.0628 50.6361 20.9531 50.6361 20.9531C50.6361 20.8434 50.7458 20.8434 50.8555 20.7336H50.9652L51.5138 20.6239C52.3915 20.4045 53.3789 18.7588 53.9275 17.3325C54.0372 17.1131 54.2566 16.8937 54.476 16.8937H63.5822L58.4257 15.1383C58.0966 15.0286 57.9869 14.6994 58.0966 14.3703C58.2063 14.0411 58.5354 13.9314 58.8646 14.0411L67.2028 16.8937C67.2028 16.8937 67.3125 16.8937 67.3125 17.0034H76.4187C76.6381 17.0034 76.8575 17.1131 76.9673 17.4423C77.5158 18.8685 78.3935 20.5142 79.381 20.7336L79.9295 20.8434H80.0392C80.1489 20.8434 80.1489 20.9531 80.2587 21.0628C80.2587 21.1725 80.3684 21.1725 80.3684 21.2822V21.3919V41.6889C80.9169 41.4694 81.4655 41.3597 82.0141 41.1403C82.2335 41.0306 83.0015 41.3597 83.1112 41.3597C83.1112 41.3597 83.4403 41.4694 83.8792 41.6889V21.2822V21.1725C83.8792 21.0628 83.9889 20.9531 83.9889 20.9531C83.9889 20.8434 84.0986 20.8434 84.2083 20.7336H84.318L84.8666 20.6239C85.7443 20.4045 86.7317 18.7588 87.2803 17.3325C87.39 17.1131 87.6094 16.8937 87.8289 16.8937H96.9351L91.7785 15.1383C91.4494 15.0286 91.3397 14.6994 91.4494 14.3703C91.5591 14.0411 91.8883 13.9314 92.2174 14.0411L100.556 16.8937C100.556 16.8937 100.665 16.8937 100.665 17.0034H109.772C109.991 17.0034 110.21 17.1131 110.32 17.4423C110.869 18.8685 111.746 20.5142 112.734 20.7336L113.282 20.8434H113.392C113.502 20.8434 113.502 20.9531 113.611 21.0628C113.611 21.1725 113.721 21.1725 113.721 21.2822V21.3919V42.3472C114.818 42.018 116.025 41.5792 117.232 41.1403C117.561 41.0306 117.89 41.1403 118 41.4694C117.671 41.7986 117.561 42.1277 117.232 42.2374ZM38.4579 43.6637C40.7619 43.2249 43.2853 42.6763 45.8087 41.7986V39.9335H39.555C39.3356 39.9335 39.1162 39.714 39.1162 39.4946C39.1162 39.2752 39.3356 39.0558 39.555 39.0558H45.8087V37.7392H41.091C40.8716 37.7392 40.6522 37.5198 40.6522 37.3003C40.6522 37.0809 40.8716 36.8615 41.091 36.8615H45.8087V34.5575C45.4796 34.9964 45.0407 35.2158 44.4921 35.2158C43.395 35.2158 42.627 34.0089 42.627 32.5827C42.627 31.1564 43.395 29.9496 44.4921 29.9496C44.931 29.9496 45.4796 30.169 45.8087 30.6078V25.8902C45.699 25.8902 45.699 25.8902 45.5893 25.8902C44.931 25.6707 44.3824 25.561 43.7241 25.561C38.8968 25.561 34.8374 32.2535 34.8374 40.482C34.8374 41.6889 34.9471 42.786 35.0568 43.8831C35.7151 43.7734 36.4831 43.7734 37.1414 43.6637C37.0316 42.6763 36.9219 41.5792 36.9219 40.482C36.9219 33.0215 40.4328 27.7553 43.6144 27.7553C43.9436 27.7553 44.3824 27.865 44.7116 27.9747C45.0407 28.0844 45.1504 28.4136 45.0407 28.7427C44.931 29.0719 44.6019 29.1816 44.2727 29.0719C44.0533 28.9621 43.8339 28.9621 43.5047 28.9621C41.3105 28.9621 38.0191 33.4604 38.0191 40.482C38.2385 41.7986 38.3482 42.786 38.4579 43.6637ZM39.4453 50.1368C38.5676 48.7105 37.9093 46.9551 37.5802 44.9803C36.8122 45.09 36.1539 45.1997 35.3859 45.1997C35.8248 47.5037 36.5928 49.5882 37.6899 51.2339L39.4453 50.1368ZM34.1791 45.4191C33.4111 45.5288 32.7528 45.5288 31.9848 45.5288C32.5334 48.3814 33.5208 51.0145 34.8374 53.2088L36.5928 52.0019C35.4957 50.2465 34.618 47.9425 34.1791 45.4191ZM44.6019 31.0467C44.163 31.0467 43.6144 31.8147 43.6144 32.8021C43.6144 33.8992 44.163 34.5575 44.6019 34.5575C45.0407 34.5575 45.5893 33.7895 45.5893 32.8021C45.5893 31.8147 45.0407 31.0467 44.6019 31.0467ZM18.5998 43.0054C21.4524 43.7734 25.6215 44.5414 30.6683 44.4317C30.5586 43.2249 30.4489 42.018 30.4489 40.7015C30.4489 40.3723 30.6683 40.1529 30.9974 40.1529C31.3266 40.1529 31.546 40.3723 31.546 40.7015C31.546 41.9083 31.6557 43.2249 31.7654 44.322C32.4237 44.322 33.1917 44.2123 33.9597 44.2123C33.85 43.0054 33.7402 41.9083 33.7402 40.7015C33.7402 31.8147 38.2385 24.6833 43.8339 24.6833C44.4921 24.6833 45.2601 24.793 45.9184 25.0125V21.9405H41.091C40.7619 21.9405 40.5425 21.7211 40.5425 21.3919C40.5425 21.0628 40.7619 20.8434 41.091 20.8434H44.2727C43.5047 19.9657 42.9562 18.8685 42.7367 18.2102H21.6718C21.4524 18.8685 20.9038 19.9657 20.1358 20.8434H34.2888C34.618 20.8434 34.8374 21.0628 34.8374 21.3919C34.8374 21.7211 34.618 21.9405 34.2888 21.9405H18.5998V43.0054ZM45.8087 43.1151C43.2853 43.8831 40.8716 44.4317 38.6773 44.8706C39.1162 46.8454 39.7745 48.6008 40.7619 50.0271C40.8716 50.1368 40.8716 50.3562 40.8716 50.4659C40.8716 50.5756 40.7619 50.7951 40.6522 50.7951L35.1665 54.5253C35.0568 54.635 34.9471 54.635 34.8374 54.635H34.7277C34.618 54.635 34.3985 54.5253 34.3985 54.4156C32.7528 52.0019 31.546 48.9299 30.9974 45.5288C30.778 45.5288 30.4488 45.5288 30.2294 45.5288C27.706 45.5288 25.5118 45.3094 23.6466 45.09C21.7815 44.8706 20.2455 44.5414 18.8192 44.1026V68.3492C19.3678 68.6783 20.7941 69.556 21.7815 70.4337H33.082H43.1756C43.8339 69.8852 44.6019 69.3366 45.2601 68.8978H23.8661C23.5369 68.8978 23.3175 68.6783 23.3175 68.3492C23.3175 68.0201 23.5369 67.8006 23.8661 67.8006H45.8087V60.779H23.8661C23.5369 60.779 23.3175 60.5596 23.3175 60.2304C23.3175 59.9013 23.5369 59.6818 23.8661 59.6818H45.8087V43.1151ZM71.4816 43.8831C73.7856 43.554 76.309 43.0054 78.8324 42.1277V40.0432H72.5787C72.3593 40.0432 72.1399 39.8237 72.1399 39.6043C72.1399 39.3849 72.3593 39.1655 72.5787 39.1655H78.8324V37.8489H74.1147C73.8953 37.8489 73.6759 37.6295 73.6759 37.4101C73.6759 37.1906 73.8953 36.9712 74.1147 36.9712H78.8324V34.6672C78.5032 35.1061 78.0644 35.3255 77.5158 35.3255C76.4187 35.3255 75.6507 34.1187 75.6507 32.6924C75.6507 31.2661 76.4187 30.0593 77.5158 30.0593C77.9547 30.0593 78.5032 30.2787 78.8324 30.7176V25.9999C78.7227 25.9999 78.7227 25.9999 78.613 25.9999C77.9547 25.7805 77.4061 25.6707 76.7478 25.6707C71.9205 25.6707 67.8611 32.3632 67.8611 40.5917C67.8611 41.7986 67.9708 43.0054 68.0805 44.1026C68.7388 43.9929 69.5068 43.9929 70.165 43.8831C70.0553 42.786 69.9456 41.6889 69.9456 40.5917C69.9456 33.1312 73.4564 27.865 76.6381 27.865C76.9673 27.865 77.4061 27.9747 77.7352 28.0844C78.0644 28.1941 78.1741 28.5233 78.0644 28.8524C77.9547 29.1816 77.6255 29.2913 77.2964 29.1816C77.077 29.0719 76.8575 29.0719 76.5284 29.0719C74.3341 29.0719 71.0427 33.5701 71.0427 40.5917C71.2622 41.7986 71.3719 42.786 71.4816 43.8831ZM72.469 50.1368C71.5913 48.7105 70.933 47.0648 70.6039 45.09C69.8359 45.1997 69.1776 45.3094 68.4096 45.3094C68.8485 47.5037 69.6165 49.5882 70.7136 51.3436L72.469 50.1368ZM67.2028 45.5288C66.4348 45.5288 65.7765 45.6385 65.0085 45.6385C65.5571 48.4911 66.5445 51.1242 67.8611 53.3185L69.6165 52.1116C68.5193 50.2465 67.6416 47.9425 67.2028 45.5288ZM77.6255 31.0467C77.1867 31.0467 76.6381 31.8147 76.6381 32.8021C76.6381 33.8992 77.1867 34.5575 77.6255 34.5575C78.0644 34.5575 78.613 33.7895 78.613 32.8021C78.613 31.8147 78.0644 31.0467 77.6255 31.0467ZM51.6235 42.786C54.3663 43.554 58.5354 44.4317 63.692 44.4317C63.5822 43.2249 63.4725 42.018 63.4725 40.7015C63.4725 40.3723 63.692 40.1529 64.0211 40.1529C64.3502 40.1529 64.5697 40.3723 64.5697 40.7015C64.5697 41.9083 64.6794 43.2249 64.7891 44.4317C65.4474 44.4317 66.2154 44.4317 66.9833 44.322C66.7639 43.1151 66.7639 41.9083 66.7639 40.7015C66.7639 31.8147 71.2622 24.6833 76.8575 24.6833C77.5158 24.6833 78.2838 24.793 78.9421 25.0125V21.9405H74.1147C73.7856 21.9405 73.5661 21.7211 73.5661 21.3919C73.5661 21.0628 73.7856 20.8434 74.1147 20.8434H77.2964C76.5284 19.9657 75.9798 18.8685 75.7604 18.2102H54.6955C54.476 18.8685 53.9275 19.9657 53.1595 20.8434H67.3125C67.6416 20.8434 67.8611 21.0628 67.8611 21.3919C67.8611 21.7211 67.6416 21.9405 67.3125 21.9405H51.6235V42.786ZM78.8324 43.3346C76.309 44.1026 74.005 44.6511 71.701 44.9803C72.1399 46.9551 72.7982 48.6008 73.6759 50.0271C73.7856 50.1368 73.7856 50.3562 73.7856 50.4659C73.7856 50.5756 73.6759 50.7951 73.5661 50.7951L70.8233 52.7699L68.0805 54.635C67.9708 54.7447 67.8611 54.7448 67.7513 54.7448H67.6416C67.5319 54.7448 67.3125 54.635 67.3125 54.5253C65.6668 52.1116 64.4599 49.0397 63.9114 45.7483C61.388 45.7483 59.1937 45.5288 57.3286 45.3094C55.1343 44.9803 53.2692 44.5414 51.7332 44.1026V68.5686C52.2818 68.8978 53.708 69.7755 54.6955 70.6532H65.9959H76.0895C76.7478 70.1046 77.5158 69.556 78.1741 69.1172H56.8897C56.5606 69.1172 56.3412 68.8978 56.3412 68.5686C56.3412 68.2395 56.5606 68.0201 56.8897 68.0201H78.8324V60.9984H56.8897C56.5606 60.9984 56.3412 60.779 56.3412 60.4498C56.3412 60.1207 56.5606 59.9013 56.8897 59.9013H78.8324V43.3346ZM104.834 44.1026C107.138 43.7734 109.552 43.3346 112.185 42.6763V40.0432H105.932C105.712 40.0432 105.493 39.8237 105.493 39.6043C105.493 39.3849 105.712 39.1655 105.932 39.1655H112.185V37.8489H107.468C107.248 37.8489 107.029 37.6295 107.029 37.4101C107.029 37.1906 107.248 36.9712 107.468 36.9712H112.185V34.6672C111.856 35.1061 111.417 35.3255 110.869 35.3255C109.772 35.3255 109.004 34.1187 109.004 32.6924C109.004 31.2661 109.772 30.0593 110.869 30.0593C111.307 30.0593 111.856 30.2787 112.185 30.7176V25.9999C112.075 25.9999 112.075 25.9999 111.966 25.9999C111.307 25.7805 110.759 25.6707 110.101 25.6707C105.273 25.6707 101.214 32.3632 101.214 40.5917C101.214 41.7986 101.324 43.0054 101.433 44.2123C102.092 44.2123 102.86 44.1026 103.628 44.1026C103.408 43.0054 103.408 41.7986 103.408 40.5917C103.408 33.1312 106.919 27.865 110.101 27.865C110.43 27.865 110.869 27.9747 111.198 28.0844C111.527 28.1941 111.637 28.5233 111.527 28.8524C111.417 29.1816 111.088 29.2913 110.759 29.1816C110.539 29.0719 110.32 29.0719 109.991 29.0719C107.797 29.0719 104.505 33.5701 104.505 40.5917C104.615 41.9083 104.615 43.0054 104.834 44.1026ZM105.712 50.1368C104.944 48.8202 104.286 47.1745 103.847 45.3094C103.079 45.4191 102.421 45.4191 101.653 45.5288C102.092 47.7231 102.86 49.6979 103.847 51.3436L105.712 50.1368ZM100.446 45.6385C99.8973 45.6385 99.3487 45.6385 98.8002 45.6385C98.5808 45.6385 98.3613 45.6385 98.2516 45.6385C98.8002 48.4911 99.7876 51.1242 101.104 53.3185L102.86 52.1116C101.762 50.2465 100.994 48.0522 100.446 45.6385ZM110.869 31.0467C110.43 31.0467 109.881 31.8147 109.881 32.8021C109.881 33.8992 110.43 34.5575 110.869 34.5575C111.307 34.5575 111.856 33.7895 111.856 32.8021C111.856 31.8147 111.307 31.0467 110.869 31.0467ZM84.8666 42.2374C87.1706 43.0054 91.4494 44.2123 96.9351 44.4317C96.8253 43.2249 96.7156 42.018 96.7156 40.8112C96.7156 40.482 96.9351 40.2626 97.2642 40.2626C97.5933 40.2626 97.8128 40.482 97.8128 40.8112C97.8128 42.018 97.9225 43.3346 98.0322 44.5414C98.6905 44.5414 99.4585 44.5414 100.226 44.5414C100.007 43.3346 100.007 42.1277 100.007 40.8112C100.007 31.9244 104.505 24.793 110.101 24.793C110.759 24.793 111.527 24.9028 112.185 25.1222V21.9405H107.358C107.029 21.9405 106.809 21.7211 106.809 21.3919C106.809 21.0628 107.029 20.8434 107.358 20.8434H110.539C109.771 19.9657 109.223 18.8685 109.004 18.2102H87.9386C87.7191 18.8685 87.1706 19.9657 86.4026 20.8434H100.556C100.885 20.8434 101.104 21.0628 101.104 21.3919C101.104 21.7211 100.994 21.9405 100.665 21.9405H84.8666V42.2374ZM112.075 43.8831C109.552 44.5414 107.248 44.9803 105.054 45.1997C105.493 47.0648 106.151 48.7105 107.029 49.9174C107.138 50.0271 107.138 50.2465 107.138 50.3562C107.138 50.4659 107.029 50.6854 106.919 50.6854L101.433 54.4156C101.324 54.5253 101.214 54.5253 101.104 54.5253H100.994C100.885 54.5253 100.665 54.4156 100.665 54.3059C99.0196 51.8922 97.8128 48.8202 97.2642 45.4191C95.5088 45.3094 93.8631 45.1997 92.4368 44.9803C89.2551 44.5414 86.7317 43.8831 84.9763 43.2249V68.2395C85.5249 68.5686 86.9512 69.4463 87.9386 70.324H99.239H109.223C110.21 69.556 111.527 68.6783 112.185 68.2395V60.5596H90.2425C89.9134 60.5596 89.694 60.3401 89.694 60.011C89.694 59.6818 89.9134 59.4624 90.2425 59.4624H112.185V43.8831H112.075Z" fill="white"/>
<path d="M5.39903 65.562C2.51202 65.562 0.163452 67.9067 0.163452 70.7889C0.163452 73.6709 2.51202 76.0158 5.39903 76.0158C8.28604 76.0158 10.6346 73.6709 10.6346 70.7889C10.6346 67.9067 8.28604 65.562 5.39903 65.562ZM5.39903 73.6928C3.79531 73.6928 2.49038 72.39 2.49038 70.7889C2.49038 69.1876 3.79531 67.8851 5.39903 67.8851C7.00298 67.8851 8.30768 69.1876 8.30768 70.7889C8.30768 72.3902 7.00274 73.6928 5.39903 73.6928Z" fill="white"/>
<path d="M132.144 0C127.654 0 124 3.6477 124 8.131C124 12.6143 127.654 16.2618 132.144 16.2618C136.635 16.2618 140.288 12.6143 140.288 8.131C140.288 3.6477 136.635 0 132.144 0ZM132.144 13.9387C128.937 13.9387 126.327 11.3334 126.327 8.131C126.327 4.92864 128.937 2.32331 132.144 2.32331C135.352 2.32331 137.962 4.92864 137.962 8.131C137.962 11.3334 135.352 13.9387 132.144 13.9387Z" fill="white"/>
<path d="M35.6489 7.48461C36.6127 7.48461 37.3941 6.70455 37.3941 5.7423C37.3941 4.78006 36.6127 4 35.6489 4C34.685 4 33.9037 4.78006 33.9037 5.7423C33.9037 6.70455 34.685 7.48461 35.6489 7.48461Z" fill="white"/>
<path d="M97.1497 10.0005C98.1136 10.0005 98.8949 9.22043 98.8949 8.25818C98.8949 7.29593 98.1136 6.51587 97.1497 6.51587C96.1859 6.51587 95.4045 7.29593 95.4045 8.25818C95.4045 9.22043 96.1859 10.0005 97.1497 10.0005Z" fill="white"/>
<path d="M130.15 60.0005C131.114 60.0005 131.895 59.2204 131.895 58.2582C131.895 57.2959 131.114 56.5159 130.15 56.5159C129.186 56.5159 128.405 57.2959 128.405 58.2582C128.405 59.2204 129.186 60.0005 130.15 60.0005Z" fill="white"/>
<path d="M34.4854 85.3077C35.4493 85.3077 36.2306 84.5277 36.2306 83.5654C36.2306 82.6032 35.4493 81.8231 34.4854 81.8231C33.5216 81.8231 32.7402 82.6032 32.7402 83.5654C32.7402 84.5277 33.5216 85.3077 34.4854 85.3077Z" fill="white"/>
<path d="M1.90864 53.9462C2.87249 53.9462 3.65384 53.1661 3.65384 52.2039C3.65384 51.2416 2.87249 50.4615 1.90864 50.4615C0.944801 50.4615 0.163452 51.2416 0.163452 52.2039C0.163452 53.1661 0.944801 53.9462 1.90864 53.9462Z" fill="white"/>
</svg>
