<svg width="24" height="29" viewBox="0 0 24 29" fill="none" xmlns="http://www.w3.org/2000/svg">
<path fill-rule="evenodd" clip-rule="evenodd" d="M3.25661 0.325195H8.95623C8.97711 0.325195 9.00843 0.335691 9.0293 0.346187C9.8331 0.787012 10.7204 1.39577 11.8478 1.43775C13.0378 1.47974 13.9669 0.787012 14.7811 0.346187C14.802 0.335691 14.8229 0.325195 14.8542 0.325195H20.5747C20.6269 0.325195 20.6791 0.356683 20.7104 0.398666C21.4933 1.8366 22.2345 3.31651 23.0174 4.75444C23.0383 4.79642 23.0383 4.8594 23.0174 4.90138C21.8065 7.00055 20.6791 9.34112 20.8148 12.6788C20.9401 15.6176 22.1614 17.9792 23.4976 19.837C23.508 19.9104 23.508 19.9734 23.508 20.0469C22.3493 22.293 20.9609 24.1088 18.8001 25.3578C16.681 26.5858 14.0608 27.1735 12.0044 28.559C11.9522 28.5905 11.8896 28.5905 11.8478 28.559C9.79134 27.1735 7.18162 26.5963 5.03121 25.3893C2.88081 24.1822 1.53419 22.2615 0.365036 20.0574C0.365036 19.9839 0.375475 19.8999 0.375475 19.837C1.74297 17.9267 2.90168 15.6386 3.05827 12.5738C3.21485 9.55104 2.05613 6.96906 0.855663 4.91188C0.834785 4.86989 0.824347 4.81741 0.855663 4.76493C1.60726 3.31651 2.37974 1.87858 3.13134 0.409162C3.15222 0.356683 3.20441 0.325195 3.25661 0.325195ZM1.54463 4.79642C1.52375 4.83841 1.52375 4.89088 1.55507 4.94336C2.76598 6.95856 3.77855 9.57203 3.64284 12.5738C3.56977 14.1902 3.32968 15.5232 2.79729 16.7617C2.29623 17.9267 1.70121 18.9448 1.06444 19.9314C1.03312 19.9734 1.03312 20.0364 1.054 20.0784C2.15008 22.146 3.45494 23.7939 5.50096 24.9169C7.50523 26.019 9.92705 26.5648 11.8582 27.8243C11.9104 27.8558 11.9731 27.8558 12.0148 27.8243C13.946 26.5648 16.3574 26.0085 18.3721 24.9169C20.4286 23.8044 21.723 22.125 22.8191 20.0469C22.8399 19.9944 22.8399 19.9419 22.8086 19.8894C21.5038 17.9792 20.3555 15.7751 20.2093 12.6473C20.0632 9.3831 21.1802 6.93757 22.3284 4.86989C22.3493 4.82791 22.3493 4.77543 22.3284 4.72295C21.8065 3.79932 21.3472 2.8442 20.8252 1.86808C20.7 1.63718 20.4494 0.996929 20.272 0.933954C19.9692 0.8185 19.3116 0.933954 18.9358 0.933954C17.9545 0.933954 17.1821 0.933954 16.253 0.933954C15.7833 0.933954 15.2718 0.849987 14.8855 0.933954C14.6872 0.975937 14.4053 1.17536 14.2174 1.29081C13.5702 1.64767 12.7977 2.0885 11.8582 2.04651C11.0544 2.01503 10.1985 1.60569 9.58257 1.29081C9.35291 1.16486 9.12325 0.975937 8.91448 0.933954C8.50736 0.860483 8.02717 0.933954 7.5783 0.933954C6.22125 0.933954 4.96858 0.933954 3.67416 0.933954C3.62197 0.933954 3.56977 0.965441 3.53845 1.00742C2.83905 2.24593 2.19184 3.51593 1.54463 4.79642Z" fill="#038259"/>
<path d="M11.9316 29L11.7542 28.874C10.6163 28.0869 9.25928 27.5516 7.94398 27.0373C6.91054 26.6279 5.84577 26.2081 4.88539 25.6728C2.49489 24.3398 1.09608 22.1252 0.0417555 20.131L0 20.0575V19.8161L0.0626333 19.7322C1.78505 17.3496 2.60972 15.135 2.74542 12.553C2.90201 9.41477 1.56583 6.73833 0.542822 4.99602L0.448872 4.83858L0.532383 4.68114C0.782916 4.19833 1.04389 3.70503 1.30486 3.22222C1.8268 2.22512 2.36962 1.19653 2.89157 0.178429L2.97508 0.0104958H9.07138L9.14445 0.0524792C9.26972 0.115454 9.39499 0.188925 9.53069 0.262396C10.2405 0.661238 10.9713 1.08107 11.869 1.12305C12.7459 1.15454 13.4766 0.734709 14.1864 0.325371C14.3535 0.230908 14.5205 0.136446 14.6771 0.0419833L14.7501 0H20.8673L20.9613 0.167933C21.3684 0.913138 21.7651 1.67933 22.1513 2.41404C22.5375 3.15925 22.9446 3.92544 23.3518 4.67065L23.4353 4.82808L23.3413 4.98552C22.2035 6.94824 21.003 9.30981 21.1387 12.658C21.2327 15.0615 22.1095 17.3601 23.8215 19.7112L23.8841 19.7951V20.0366L23.8528 20.11C22.4958 22.7655 20.9926 24.4658 18.9779 25.6308C18.0071 26.1976 16.911 26.6279 15.8567 27.0583C14.5727 27.5726 13.2365 28.1079 12.1195 28.874L11.9316 29ZM1.43013 19.9421C1.39881 19.9841 1.39881 20.047 1.43013 20.0995C2.60972 22.2827 3.92502 23.6891 5.65787 24.6442C6.5243 25.1165 7.50555 25.5049 8.44505 25.8722C9.60377 26.3236 10.8042 26.7959 11.869 27.4571C11.9212 27.4886 11.9734 27.4886 12.0256 27.4571C13.1008 26.7854 14.3117 26.3131 15.4809 25.8512C16.4099 25.4839 17.3703 25.106 18.2367 24.6442C19.9591 23.7101 21.264 22.3037 22.4645 20.0785C22.4958 20.0261 22.4853 19.9736 22.454 19.9211C21.2536 18.1368 20.0531 15.8802 19.9069 12.6685C19.7608 9.46725 20.7942 7.02172 21.9738 4.88056C21.9947 4.83858 21.9947 4.7861 21.9738 4.73362C21.6711 4.18784 21.3893 3.64206 21.097 3.07528C20.9195 2.72892 20.742 2.38256 20.5541 2.0257C20.5228 1.96272 20.4811 1.88925 20.4393 1.79479C20.3871 1.66884 20.2619 1.41694 20.1783 1.28049C20.1575 1.23851 20.1157 1.21752 20.074 1.21752C19.8965 1.19653 19.5938 1.21752 19.385 1.23851C19.218 1.249 19.0718 1.2595 18.9466 1.2595H16.2638C16.0967 1.2595 15.9297 1.249 15.7627 1.23851C15.46 1.21752 15.1781 1.20702 14.9589 1.249C14.8754 1.27 14.6979 1.37495 14.5727 1.44843C14.4996 1.49041 14.437 1.53239 14.3743 1.56388L14.3117 1.59537C13.6645 1.95223 12.8503 2.39305 11.8481 2.36156C11.0026 2.33008 10.1153 1.92074 9.43674 1.56388C9.35323 1.5219 9.26972 1.46942 9.18621 1.41694C9.06094 1.34347 8.93568 1.2595 8.85217 1.249C8.62251 1.20702 8.34066 1.21752 8.03793 1.23851C7.88135 1.249 7.71433 1.2595 7.56818 1.2595H6.19025C5.3969 1.2595 4.63486 1.2595 3.85195 1.2595C3.79975 1.2595 3.74756 1.29099 3.71624 1.33297C3.05859 2.50851 2.4427 3.71553 1.91031 4.77561C1.88944 4.81759 1.88944 4.87007 1.92075 4.91205C3.39263 7.42056 4.0816 10.0025 3.95633 12.574C3.87282 14.3268 3.60141 15.6493 3.08991 16.8668C2.59928 18.0214 2.00426 19.029 1.43013 19.9421ZM14.6249 26.8693C14.2282 27.0268 13.8419 27.2052 13.4557 27.3836C13.8419 27.2052 14.2386 27.0268 14.6249 26.8693ZM4.05028 24.3503C4.40521 24.6232 4.78101 24.8856 5.18812 25.106C5.209 25.1165 5.21944 25.127 5.24032 25.1375C4.82276 24.9066 4.42608 24.6442 4.05028 24.3503ZM3.0064 15.051C2.89157 15.5338 2.74542 15.9852 2.58884 16.4155C2.7663 15.9852 2.90201 15.5338 3.0064 15.051ZM1.17959 4.82808L1.20047 4.7861C1.19003 4.7966 1.17959 4.81759 1.17959 4.82808ZM3.36132 0.650742C3.30912 0.766196 3.24649 0.871155 3.1943 0.986609C3.22561 0.923634 3.26737 0.860659 3.29868 0.797684L3.3822 0.661238H3.36132V0.650742ZM20.3767 0.650742C20.4393 0.671734 20.4915 0.713717 20.5437 0.7557C20.5228 0.724213 20.502 0.682229 20.4811 0.650742H20.3767Z" fill="#038259"/>
<path fill-rule="evenodd" clip-rule="evenodd" d="M11.9212 3.93606C12.2552 4.10399 12.558 4.30341 12.8816 4.47135C12.9546 4.51333 12.986 4.5973 12.9442 4.67077C12.7354 5.08011 12.4953 5.46845 12.2866 5.86729C12.2552 5.93027 12.2657 6.01423 12.3283 6.05622C12.4223 6.11919 12.5266 6.16118 12.6206 6.22415C12.6832 6.26614 12.7772 6.24514 12.8189 6.18217C12.9233 6.03523 12.9964 5.8568 13.0799 5.69936C13.1217 5.63638 13.2052 5.6049 13.2678 5.63638C13.8106 5.88828 14.2804 6.20316 14.7919 6.48655C14.865 6.52853 14.8858 6.6125 14.8545 6.67547C14.7814 6.8539 14.6771 7.00084 14.5831 7.15828C14.5414 7.23175 14.5622 7.31572 14.6353 7.3577C14.7397 7.43117 14.8545 7.48365 14.9693 7.53613C15.032 7.56762 15.1155 7.54663 15.1572 7.48365C15.3973 7.1058 15.6061 6.69646 15.8358 6.29762C15.8775 6.22415 15.961 6.20316 16.0341 6.24514C16.222 6.33961 16.3786 6.45506 16.5769 6.54952C16.6396 6.58101 16.7231 6.54952 16.7648 6.48655C16.8692 6.30812 16.9632 6.12969 17.0676 5.95126C17.1093 5.88828 17.1928 5.8568 17.2555 5.88828C17.6939 6.08771 18.0801 6.3501 18.4872 6.58101C18.5603 6.62299 18.5812 6.70696 18.5499 6.78043C16.7544 10.0761 14.8963 13.2879 13.0799 16.573C13.0486 16.6255 13.0486 16.6885 13.0903 16.7305C13.3304 17.0244 13.2782 17.5911 12.9024 17.7171C12.8189 17.7486 12.7876 17.843 12.8189 17.9165C12.9024 18.0949 12.9546 18.3468 12.8607 18.5358C12.8294 18.5882 12.8398 18.6617 12.892 18.7037C13.5914 19.4174 14.2699 20.1101 14.176 21.5481C14.0507 23.4478 12.5371 24.7073 10.3658 24.5919C7.91266 24.4659 5.40733 22.4192 5.41777 19.9107C5.42821 17.8745 7.58906 16.1427 9.86473 16.9719C9.91693 16.9929 9.97956 16.9824 10.0213 16.9299C10.157 16.783 10.324 16.6255 10.5641 16.6255C10.6581 16.6255 10.7207 16.5521 10.7103 16.4576C10.6685 16.0902 10.9921 15.6809 11.3992 15.7964C11.4619 15.8173 11.5245 15.7859 11.5663 15.7334C12.1091 14.8412 12.6206 13.8966 13.1321 12.973C13.1739 12.91 13.153 12.826 13.0903 12.784C12.9338 12.6791 12.7459 12.5846 12.5684 12.4902C12.4953 12.4482 12.464 12.3642 12.5058 12.2907C12.725 11.8919 12.9442 11.5036 13.1634 11.0942C13.1947 11.0312 13.1739 10.9473 13.1217 10.8948C13.0173 10.8213 12.9024 10.7688 12.7876 10.7164C12.725 10.6849 12.6415 10.7059 12.5997 10.7688C12.5058 10.9158 12.4118 11.0837 12.3283 11.2412C12.2866 11.3146 12.203 11.3461 12.13 11.3041C11.608 11.0417 11.1278 10.7269 10.6163 10.4435C10.5433 10.4015 10.5224 10.307 10.5641 10.2336C10.6476 10.0761 10.7312 9.91869 10.8251 9.77174C10.8669 9.70877 10.8564 9.61431 10.7938 9.57232C10.6998 9.49885 10.5955 9.45687 10.4911 9.40439C10.418 9.3729 10.3449 9.39389 10.3032 9.45687C10.0735 9.83472 9.84386 10.2126 9.64552 10.6114C9.6142 10.6849 9.52025 10.7164 9.44718 10.6849C9.1027 10.5274 8.79997 10.328 8.47636 10.1496C8.40329 10.1076 8.38241 10.0236 8.42417 9.95017C9.50981 7.93497 10.6685 5.99324 11.7542 3.96755C11.7646 3.92556 11.8481 3.90457 11.9212 3.93606ZM13.3304 6.81192C13.1634 7.08481 13.0277 7.38919 12.8503 7.66208C12.8085 7.73555 12.7041 7.75654 12.6415 7.70406C12.631 7.70406 12.631 7.69357 12.6206 7.69357C12.5475 7.64109 12.4431 7.67258 12.4014 7.75654C12.2448 8.06092 12.0569 8.33382 11.9108 8.64869C11.8794 8.72216 11.9003 8.80613 11.9734 8.84811C11.9838 8.85861 12.0047 8.8691 12.0151 8.8691C12.0882 8.91109 12.1091 9.00555 12.0673 9.06852C11.9108 9.34142 11.7542 9.6248 11.5976 9.90819C11.5558 9.98166 11.5767 10.0656 11.6498 10.1076C11.7229 10.1496 11.7855 10.1916 11.8586 10.2336C11.9316 10.2755 12.0151 10.2441 12.0569 10.1706C12.2135 9.8872 12.3596 9.60381 12.5266 9.33092C12.5684 9.25745 12.6728 9.23646 12.7459 9.28894C12.8189 9.35191 12.9338 9.32042 12.9755 9.23646C13.1321 8.93208 13.32 8.65919 13.4661 8.34431C13.4975 8.27084 13.4661 8.18687 13.3931 8.14489C13.3826 8.13439 13.3722 8.13439 13.3513 8.1239C13.2782 8.08191 13.2574 7.98745 13.2991 7.92448C13.4557 7.65159 13.6123 7.3682 13.7689 7.08481C13.8106 7.01134 13.7793 6.92737 13.7167 6.88539C13.6436 6.84341 13.581 6.80142 13.5079 6.75944C13.4453 6.72795 13.3618 6.74894 13.3304 6.81192ZM9.34279 18.8926C9.24884 18.5882 8.84172 18.4308 8.49724 18.4518C7.69345 18.5148 7.14019 19.5749 7.24458 20.593C7.43248 22.3353 10.1466 23.7522 11.6393 22.5557C11.9629 22.3038 12.4431 21.7475 12.4223 21.0653C12.4118 20.7084 12.1508 19.9947 11.4619 20.1626C11.0548 20.2571 10.9817 20.8973 11.2427 21.2227C11.3053 21.2962 11.274 21.4116 11.1905 21.4431C10.6372 21.695 9.96912 21.3382 9.71859 20.8868C9.68727 20.8344 9.64552 20.8029 9.59332 20.8029C8.9148 20.7819 8.46592 20.4355 8.42417 19.8268C8.41373 19.7323 8.50768 19.6483 8.60163 19.6798C9.07138 19.7743 9.46806 19.3125 9.34279 18.8926Z" fill="#038259"/>
</svg>
