<svg width="25" height="29" viewBox="0 0 25 29" fill="none" xmlns="http://www.w3.org/2000/svg">
<path fill-rule="evenodd" clip-rule="evenodd" d="M3.2568 0.325073H8.95643C8.97731 0.325073 9.00863 0.335569 9.0295 0.346065C9.8333 0.78689 10.7206 1.39565 11.848 1.43763C13.038 1.47962 13.9671 0.78689 14.7813 0.346065C14.8022 0.335569 14.8231 0.325073 14.8544 0.325073H20.5749C20.6271 0.325073 20.6793 0.356561 20.7106 0.398544C21.4935 1.83647 22.2347 3.31639 23.0176 4.75432C23.0385 4.7963 23.0385 4.85927 23.0176 4.90126C21.8067 7.00043 20.6793 9.341 20.815 12.6787C20.9403 15.6175 22.1616 17.9791 23.4978 19.8368C23.5082 19.9103 23.5082 19.9733 23.5082 20.0468C22.3495 22.2929 20.9611 24.1086 18.8003 25.3576C16.6812 26.5857 14.061 27.1734 12.0046 28.5589C11.9524 28.5904 11.8898 28.5904 11.848 28.5589C9.79154 27.1734 7.18182 26.5962 5.03141 25.3891C2.881 24.1821 1.53439 22.2614 0.365234 20.0572C0.365234 19.9838 0.375673 19.8998 0.375673 19.8368C1.74317 17.9266 2.90188 15.6385 3.05846 12.5737C3.21505 9.55091 2.05633 6.96894 0.855862 4.91175C0.834984 4.86977 0.824545 4.81729 0.855862 4.76481C1.60746 3.31639 2.37994 1.87846 3.13154 0.40904C3.15241 0.356561 3.20461 0.325073 3.2568 0.325073ZM1.54483 4.7963C1.52395 4.83828 1.52395 4.89076 1.55527 4.94324C2.76618 6.95844 3.77875 9.57191 3.64304 12.5737C3.56997 14.1901 3.32988 15.523 2.79749 16.7616C2.29643 17.9266 1.70141 18.9447 1.06464 19.9313C1.03332 19.9733 1.03332 20.0363 1.0542 20.0782C2.15028 22.1459 3.45514 23.7938 5.50116 24.9168C7.50543 26.0189 9.92725 26.5647 11.8584 27.8242C11.9106 27.8557 11.9733 27.8557 12.015 27.8242C13.9462 26.5647 16.3576 26.0084 18.3723 24.9168C20.4288 23.8043 21.7232 22.1249 22.8193 20.0468C22.8401 19.9943 22.8401 19.9418 22.8088 19.8893C21.504 17.9791 20.3557 15.7749 20.2095 12.6472C20.0634 9.38298 21.1804 6.93745 22.3286 4.86977C22.3495 4.82779 22.3495 4.77531 22.3286 4.72283C21.8067 3.7992 21.3474 2.84407 20.8254 1.86796C20.7002 1.63705 20.4496 0.996807 20.2722 0.933832C19.9694 0.818378 19.3118 0.933832 18.936 0.933832C17.9547 0.933832 17.1823 0.933832 16.2532 0.933832C15.7835 0.933832 15.272 0.849865 14.8857 0.933832C14.6874 0.975815 14.4055 1.17524 14.2176 1.29069C13.5704 1.64755 12.7979 2.08837 11.8584 2.04639C11.0546 2.0149 10.1987 1.60557 9.58276 1.29069C9.35311 1.16474 9.12345 0.975815 8.91467 0.933832C8.50756 0.860361 8.02737 0.933832 7.5785 0.933832C6.22144 0.933832 4.96878 0.933832 3.67436 0.933832C3.62216 0.933832 3.56997 0.965319 3.53865 1.0073C2.83925 2.24581 2.19204 3.51581 1.54483 4.7963Z" fill="white"/>
<path d="M12.4756 29L12.2901 28.874C11.1004 28.0869 9.68144 27.5516 8.30617 27.0373C7.22561 26.6279 6.11229 26.2081 5.10813 25.6728C2.60864 24.3398 1.14606 22.1252 0.0436593 20.131L0 20.0575V19.8161L0.0654889 19.7322C1.86643 17.3496 2.7287 15.135 2.8706 12.553C3.03432 9.41477 1.63722 6.73833 0.56757 4.99602L0.469337 4.83858L0.556655 4.68114C0.818611 4.19833 1.09148 3.70503 1.36435 3.22222C1.91009 2.22512 2.47766 1.19653 3.0234 0.178429L3.11072 0.0104958H9.48497L9.56138 0.0524792C9.69235 0.115454 9.82333 0.188925 9.96522 0.262396C10.7074 0.661238 11.4715 1.08107 12.4101 1.12305C13.327 1.15454 14.091 0.734709 14.8332 0.325371C15.0079 0.230908 15.1825 0.136446 15.3462 0.0419833L15.4226 0H21.8187L21.9169 0.167933C22.3426 0.913138 22.7574 1.67933 23.1612 2.41404C23.5651 3.15925 23.9908 3.92544 24.4164 4.67065L24.5038 4.82808L24.4055 4.98552C23.2158 6.94824 21.9606 9.30981 22.1025 12.658C22.2007 15.0615 23.1176 17.3601 24.9076 19.7112L24.9731 19.7951V20.0366L24.9403 20.11C23.5214 22.7655 21.9497 24.4658 19.8431 25.6308C18.8281 26.1976 17.682 26.6279 16.5796 27.0583C15.2371 27.5726 13.84 28.1079 12.6721 28.874L12.4756 29ZM1.49533 19.9421C1.46258 19.9841 1.46258 20.047 1.49533 20.0995C2.7287 22.2827 4.10397 23.6891 5.91583 24.6442C6.82176 25.1165 7.84775 25.5049 8.83008 25.8722C10.0416 26.3236 11.2968 26.7959 12.4101 27.4571C12.4647 27.4886 12.5193 27.4886 12.5739 27.4571C13.6981 26.7854 14.9642 26.3131 16.1867 25.8512C17.1581 25.4839 18.1622 25.106 19.0682 24.6442C20.8691 23.7101 22.2335 22.3037 23.4887 20.0785C23.5214 20.0261 23.5105 19.9736 23.4778 19.9211C22.2226 18.1368 20.9674 15.8802 20.8145 12.6685C20.6617 9.46725 21.7423 7.02172 22.9757 4.88056C22.9975 4.83858 22.9975 4.7861 22.9757 4.73362C22.6592 4.18784 22.3645 3.64206 22.0588 3.07528C21.8733 2.72892 21.6877 2.38256 21.4913 2.0257C21.4585 1.96272 21.4149 1.88925 21.3712 1.79479C21.3166 1.66884 21.1857 1.41694 21.0983 1.28049C21.0765 1.23851 21.0328 1.21752 20.9892 1.21752C20.8036 1.19653 20.4871 1.21752 20.2688 1.23851C20.0942 1.249 19.9414 1.2595 19.8104 1.2595H17.0053C16.8306 1.2595 16.656 1.249 16.4814 1.23851C16.1648 1.21752 15.8701 1.20702 15.6409 1.249C15.5536 1.27 15.3681 1.37495 15.2371 1.44843C15.1607 1.49041 15.0952 1.53239 15.0297 1.56388L14.9642 1.59537C14.2875 1.95223 13.4361 2.39305 12.3883 2.36156C11.5042 2.33008 10.5765 1.92074 9.86699 1.56388C9.77967 1.5219 9.69235 1.46942 9.60503 1.41694C9.47406 1.34347 9.34308 1.2595 9.25576 1.249C9.01564 1.20702 8.72093 1.21752 8.40441 1.23851C8.24068 1.249 8.06605 1.2595 7.91324 1.2595H6.47248C5.64296 1.2595 4.84618 1.2595 4.02757 1.2595C3.97299 1.2595 3.91842 1.29099 3.88567 1.33297C3.19804 2.50851 2.55407 3.71553 1.99741 4.77561C1.97558 4.81759 1.97558 4.87007 2.00833 4.91205C3.54731 7.42056 4.26769 10.0025 4.13671 12.574C4.0494 14.3268 3.76561 15.6493 3.23078 16.8668C2.71779 18.0214 2.09564 19.029 1.49533 19.9421ZM15.2917 26.8693C14.8769 27.0268 14.473 27.2052 14.0692 27.3836C14.473 27.2052 14.8878 27.0268 15.2917 26.8693ZM4.23495 24.3503C4.60605 24.6232 4.99898 24.8856 5.42466 25.106C5.44649 25.1165 5.45741 25.127 5.47924 25.1375C5.04264 24.9066 4.62788 24.6442 4.23495 24.3503ZM3.14347 15.051C3.0234 15.5338 2.8706 15.9852 2.70687 16.4155C2.89243 15.9852 3.03432 15.5338 3.14347 15.051ZM1.23337 4.82808L1.2552 4.7861C1.24429 4.7966 1.23337 4.81759 1.23337 4.82808ZM3.51457 0.650742C3.46 0.766196 3.39451 0.871155 3.33993 0.986609C3.37268 0.923634 3.41634 0.860659 3.44908 0.797684L3.5364 0.661238H3.51457V0.650742ZM21.3057 0.650742C21.3712 0.671734 21.4258 0.713717 21.4804 0.7557C21.4585 0.724213 21.4367 0.682229 21.4149 0.650742H21.3057Z" fill="white"/>
<path fill-rule="evenodd" clip-rule="evenodd" d="M12.465 3.93594C12.8143 4.10387 13.1308 4.30329 13.4692 4.47122C13.5456 4.51321 13.5783 4.59717 13.5347 4.67065C13.3164 5.07998 13.0653 5.46833 12.847 5.86717C12.8143 5.93015 12.8252 6.01411 12.8907 6.0561C12.9889 6.11907 13.0981 6.16105 13.1963 6.22403C13.2618 6.26601 13.36 6.24502 13.4037 6.18205C13.5128 6.0351 13.5892 5.85668 13.6765 5.69924C13.7202 5.63626 13.8075 5.60477 13.873 5.63626C14.4406 5.88816 14.9317 6.20304 15.4666 6.48643C15.543 6.52841 15.5648 6.61238 15.5321 6.67535C15.4557 6.85378 15.3465 7.00072 15.2483 7.15816C15.2046 7.23163 15.2264 7.3156 15.3029 7.35758C15.412 7.43105 15.5321 7.48353 15.6521 7.53601C15.7176 7.5675 15.8049 7.5465 15.8486 7.48353C16.0996 7.10568 16.3179 6.69634 16.5581 6.2975C16.6017 6.22403 16.689 6.20304 16.7654 6.24502C16.9619 6.33948 17.1256 6.45494 17.333 6.5494C17.3985 6.58089 17.4858 6.5494 17.5295 6.48643C17.6386 6.308 17.7369 6.12957 17.846 5.95114C17.8897 5.88816 17.977 5.85668 18.0425 5.88816C18.5009 6.08758 18.9047 6.34998 19.3304 6.58089C19.4068 6.62287 19.4287 6.70684 19.3959 6.78031C17.5186 10.076 15.5757 13.2877 13.6765 16.5729C13.6438 16.6254 13.6438 16.6884 13.6875 16.7304C13.9385 17.0242 13.8839 17.591 13.491 17.717C13.4037 17.7485 13.3709 17.8429 13.4037 17.9164C13.491 18.0948 13.5456 18.3467 13.4473 18.5356C13.4146 18.5881 13.4255 18.6616 13.4801 18.7036C14.2114 19.4173 14.9208 20.11 14.8226 21.548C14.6916 23.4477 13.109 24.7072 10.8387 24.5917C8.27371 24.4658 5.65416 22.4191 5.66507 19.9106C5.67599 17.8744 7.93535 16.1426 10.3148 16.9718C10.3694 16.9928 10.4348 16.9823 10.4785 16.9298C10.6204 16.7828 10.795 16.6254 11.0461 16.6254C11.1443 16.6254 11.2098 16.5519 11.1989 16.4575C11.1552 16.0901 11.4936 15.6808 11.9193 15.7962C11.9847 15.8172 12.0502 15.7857 12.0939 15.7333C12.6615 14.8411 13.1963 13.8965 13.7311 12.9729C13.7748 12.9099 13.7529 12.8259 13.6875 12.7839C13.5237 12.679 13.3273 12.5845 13.1417 12.49C13.0653 12.4481 13.0326 12.3641 13.0762 12.2906C13.3054 11.8918 13.5347 11.5034 13.7639 11.0941C13.7966 11.0311 13.7748 10.9472 13.7202 10.8947C13.6111 10.8212 13.491 10.7687 13.3709 10.7162C13.3054 10.6848 13.2181 10.7058 13.1745 10.7687C13.0762 10.9157 12.978 11.0836 12.8907 11.241C12.847 11.3145 12.7597 11.346 12.6833 11.304C12.1376 11.0416 11.6355 10.7267 11.1006 10.4434C11.0242 10.4014 11.0024 10.3069 11.0461 10.2334C11.1334 10.076 11.2207 9.91856 11.3189 9.77162C11.3626 9.70865 11.3517 9.61418 11.2862 9.5722C11.188 9.49873 11.0788 9.45675 10.9697 9.40427C10.8933 9.37278 10.8169 9.39377 10.7732 9.45675C10.5331 9.8346 10.293 10.2124 10.0856 10.6113C10.0528 10.6848 9.95459 10.7162 9.87819 10.6848C9.518 10.5273 9.20147 10.3279 8.86311 10.1495C8.78671 10.1075 8.76488 10.0235 8.80854 9.95005C9.94368 7.93485 11.1552 5.99312 12.2904 3.96742C12.3013 3.92544 12.3886 3.90445 12.465 3.93594ZM13.9385 6.8118C13.7639 7.08469 13.622 7.38907 13.4364 7.66196C13.3928 7.73543 13.2836 7.75642 13.2181 7.70394C13.2072 7.70394 13.2072 7.69345 13.1963 7.69345C13.1199 7.64097 13.0107 7.67246 12.9671 7.75642C12.8034 8.0608 12.6069 8.33369 12.4541 8.64857C12.4213 8.72204 12.4432 8.80601 12.5196 8.84799C12.5305 8.85848 12.5523 8.86898 12.5632 8.86898C12.6396 8.91096 12.6615 9.00543 12.6178 9.0684C12.4541 9.34129 12.2904 9.62468 12.1266 9.90807C12.083 9.98154 12.1048 10.0655 12.1812 10.1075C12.2576 10.1495 12.3231 10.1915 12.3995 10.2334C12.4759 10.2754 12.5632 10.2439 12.6069 10.1705C12.7706 9.88708 12.9234 9.60369 13.0981 9.3308C13.1417 9.25733 13.2509 9.23633 13.3273 9.28881C13.4037 9.35179 13.5237 9.3203 13.5674 9.23633C13.7311 8.93196 13.9276 8.65906 14.0804 8.34419C14.1131 8.27072 14.0804 8.18675 14.004 8.14477C13.9931 8.13427 13.9822 8.13427 13.9603 8.12378C13.8839 8.08179 13.8621 7.98733 13.9058 7.92436C14.0695 7.65146 14.2332 7.36808 14.3969 7.08469C14.4406 7.01122 14.4078 6.92725 14.3423 6.88527C14.2659 6.84328 14.2005 6.8013 14.1241 6.75932C14.0586 6.72783 13.9712 6.74882 13.9385 6.8118ZM9.76904 18.8925C9.67081 18.5881 9.24513 18.4307 8.88494 18.4517C8.0445 18.5147 7.46602 19.5747 7.57517 20.5928C7.77163 22.3351 10.6095 23.7521 12.1703 22.5556C12.5087 22.3037 13.0107 21.7474 12.9889 21.0651C12.978 20.7083 12.7051 19.9946 11.9848 20.1625C11.5591 20.257 11.4827 20.8972 11.7555 21.2226C11.821 21.2961 11.7883 21.4115 11.701 21.443C11.1225 21.6949 10.4239 21.338 10.162 20.8867C10.1292 20.8342 10.0856 20.8027 10.031 20.8027C9.32154 20.7818 8.8522 20.4354 8.80854 19.8266C8.79762 19.7322 8.89586 19.6482 8.99409 19.6797C9.48526 19.7742 9.90002 19.3123 9.76904 18.8925Z" fill="white"/>
</svg>
