<svg width="24" height="29" viewBox="0 0 24 29" fill="none" xmlns="http://www.w3.org/2000/svg">
<path fill-rule="evenodd" clip-rule="evenodd" d="M3.25661 0.324951H8.95624C8.97712 0.324951 9.00843 0.335447 9.02931 0.345943C9.83311 0.786768 10.7204 1.39553 11.8478 1.43751C13.0378 1.47949 13.9669 0.786768 14.7811 0.345943C14.802 0.335447 14.8229 0.324951 14.8542 0.324951H20.5747C20.6269 0.324951 20.6791 0.356439 20.7104 0.398422C21.4933 1.83635 22.2345 3.31627 23.0174 4.75419C23.0383 4.79618 23.0383 4.85915 23.0174 4.90114C21.8065 7.0003 20.6791 9.34088 20.8148 12.6786C20.9401 15.6174 22.1614 17.979 23.4976 19.8367C23.508 19.9102 23.508 19.9732 23.508 20.0466C22.3493 22.2927 20.9609 24.1085 18.8001 25.3575C16.681 26.5855 14.0609 27.1733 12.0044 28.5588C11.9522 28.5902 11.8896 28.5902 11.8478 28.5588C9.79135 27.1733 7.18163 26.596 5.03122 25.389C2.88081 24.182 1.5342 22.2613 0.365044 20.0571C0.365044 19.9837 0.375483 19.8997 0.375483 19.8367C1.74298 17.9265 2.90169 15.6384 3.05827 12.5736C3.21486 9.55079 2.05614 6.96882 0.855671 4.91163C0.834793 4.86965 0.824354 4.81717 0.855671 4.76469C1.60727 3.31626 2.37975 1.87834 3.13135 0.408918C3.15222 0.356439 3.20442 0.324951 3.25661 0.324951ZM1.54464 4.79618C1.52376 4.83816 1.52376 4.89064 1.55508 4.94312C2.76599 6.95832 3.77856 9.57178 3.64285 12.5736C3.56978 14.19 3.32968 15.5229 2.7973 16.7614C2.29624 17.9265 1.70122 18.9446 1.06445 19.9312C1.03313 19.9732 1.03313 20.0361 1.05401 20.0781C2.15009 22.1458 3.45495 23.7936 5.50097 24.9167C7.50524 26.0188 9.92706 26.5645 11.8582 27.824C11.9104 27.8555 11.9731 27.8555 12.0148 27.824C13.946 26.5645 16.3574 26.0083 18.3721 24.9167C20.4286 23.8041 21.723 22.1248 22.8191 20.0466C22.8399 19.9942 22.8399 19.9417 22.8086 19.8892C21.5038 17.979 20.3555 15.7748 20.2094 12.6471C20.0632 9.38286 21.1802 6.93733 22.3284 4.86965C22.3493 4.82767 22.3493 4.77519 22.3284 4.72271C21.8065 3.79907 21.3472 2.84395 20.8252 1.86784C20.7 1.63693 20.4494 0.996685 20.272 0.93371C19.9693 0.818256 19.3116 0.93371 18.9358 0.93371C17.9546 0.93371 17.1821 0.93371 16.253 0.93371C15.7833 0.93371 15.2718 0.849743 14.8855 0.93371C14.6872 0.975693 14.4053 1.17511 14.2174 1.29057C13.5702 1.64743 12.7977 2.08825 11.8582 2.04627C11.0545 2.01478 10.1985 1.60544 9.58257 1.29057C9.35292 1.16462 9.12326 0.975693 8.91448 0.93371C8.50737 0.860239 8.02718 0.93371 7.57831 0.93371C6.22125 0.93371 4.96859 0.93371 3.67417 0.93371C3.62197 0.93371 3.56978 0.965197 3.53846 1.00718C2.83906 2.24569 2.19185 3.51569 1.54464 4.79618Z" fill="#121212"/>
<path d="M11.9316 29L11.7542 28.874C10.6163 28.0869 9.25928 27.5516 7.94398 27.0373C6.91054 26.6279 5.84577 26.2081 4.88539 25.6728C2.49489 24.3398 1.09608 22.1252 0.0417555 20.131L0 20.0575V19.8161L0.0626333 19.7322C1.78505 17.3496 2.60972 15.135 2.74542 12.553C2.90201 9.41477 1.56583 6.73833 0.542822 4.99602L0.448872 4.83858L0.532383 4.68114C0.782916 4.19833 1.04389 3.70503 1.30486 3.22222C1.8268 2.22512 2.36962 1.19653 2.89157 0.178429L2.97508 0.0104958H9.07138L9.14445 0.0524792C9.26972 0.115454 9.39499 0.188925 9.53069 0.262396C10.2405 0.661238 10.9713 1.08107 11.869 1.12305C12.7459 1.15454 13.4766 0.734709 14.1864 0.325371C14.3535 0.230908 14.5205 0.136446 14.6771 0.0419833L14.7501 0H20.8673L20.9613 0.167933C21.3684 0.913138 21.7651 1.67933 22.1513 2.41404C22.5375 3.15925 22.9446 3.92544 23.3518 4.67065L23.4353 4.82808L23.3413 4.98552C22.2035 6.94824 21.003 9.30981 21.1387 12.658C21.2327 15.0615 22.1095 17.3601 23.8215 19.7112L23.8841 19.7951V20.0366L23.8528 20.11C22.4958 22.7655 20.9926 24.4658 18.9779 25.6308C18.0071 26.1976 16.911 26.6279 15.8567 27.0583C14.5727 27.5726 13.2365 28.1079 12.1195 28.874L11.9316 29ZM1.43013 19.9421C1.39881 19.9841 1.39881 20.047 1.43013 20.0995C2.60972 22.2827 3.92502 23.6891 5.65787 24.6442C6.5243 25.1165 7.50555 25.5049 8.44505 25.8722C9.60377 26.3236 10.8042 26.7959 11.869 27.4571C11.9212 27.4886 11.9734 27.4886 12.0256 27.4571C13.1008 26.7854 14.3117 26.3131 15.4809 25.8512C16.4099 25.4839 17.3703 25.106 18.2367 24.6442C19.9591 23.7101 21.264 22.3037 22.4645 20.0785C22.4958 20.0261 22.4853 19.9736 22.454 19.9211C21.2536 18.1368 20.0531 15.8802 19.9069 12.6685C19.7608 9.46725 20.7942 7.02172 21.9738 4.88056C21.9947 4.83858 21.9947 4.7861 21.9738 4.73362C21.6711 4.18784 21.3893 3.64206 21.097 3.07528C20.9195 2.72892 20.742 2.38256 20.5541 2.0257C20.5228 1.96272 20.4811 1.88925 20.4393 1.79479C20.3871 1.66884 20.2619 1.41694 20.1783 1.28049C20.1575 1.23851 20.1157 1.21752 20.074 1.21752C19.8965 1.19653 19.5938 1.21752 19.385 1.23851C19.218 1.249 19.0718 1.2595 18.9466 1.2595H16.2638C16.0967 1.2595 15.9297 1.249 15.7627 1.23851C15.46 1.21752 15.1781 1.20702 14.9589 1.249C14.8754 1.27 14.6979 1.37495 14.5727 1.44843C14.4996 1.49041 14.437 1.53239 14.3743 1.56388L14.3117 1.59537C13.6645 1.95223 12.8503 2.39305 11.8481 2.36156C11.0026 2.33008 10.1153 1.92074 9.43674 1.56388C9.35323 1.5219 9.26972 1.46942 9.18621 1.41694C9.06094 1.34347 8.93568 1.2595 8.85217 1.249C8.62251 1.20702 8.34066 1.21752 8.03793 1.23851C7.88135 1.249 7.71433 1.2595 7.56818 1.2595H6.19025C5.3969 1.2595 4.63486 1.2595 3.85195 1.2595C3.79975 1.2595 3.74756 1.29099 3.71624 1.33297C3.05859 2.50851 2.4427 3.71553 1.91031 4.77561C1.88944 4.81759 1.88944 4.87007 1.92075 4.91205C3.39263 7.42056 4.0816 10.0025 3.95633 12.574C3.87282 14.3268 3.60141 15.6493 3.08991 16.8668C2.59928 18.0214 2.00426 19.029 1.43013 19.9421ZM14.6249 26.8693C14.2282 27.0268 13.8419 27.2052 13.4557 27.3836C13.8419 27.2052 14.2386 27.0268 14.6249 26.8693ZM4.05028 24.3503C4.40521 24.6232 4.78101 24.8856 5.18812 25.106C5.209 25.1165 5.21944 25.127 5.24032 25.1375C4.82276 24.9066 4.42608 24.6442 4.05028 24.3503ZM3.0064 15.051C2.89157 15.5338 2.74542 15.9852 2.58884 16.4155C2.7663 15.9852 2.90201 15.5338 3.0064 15.051ZM1.17959 4.82808L1.20047 4.7861C1.19003 4.7966 1.17959 4.81759 1.17959 4.82808ZM3.36132 0.650742C3.30912 0.766196 3.24649 0.871155 3.1943 0.986609C3.22561 0.923634 3.26737 0.860659 3.29868 0.797684L3.3822 0.661238H3.36132V0.650742ZM20.3767 0.650742C20.4393 0.671734 20.4915 0.713717 20.5437 0.7557C20.5228 0.724213 20.502 0.682229 20.4811 0.650742H20.3767Z" fill="#121212"/>
<path fill-rule="evenodd" clip-rule="evenodd" d="M11.9212 3.93581C12.2552 4.10375 12.558 4.30317 12.8816 4.4711C12.9546 4.51309 12.986 4.59705 12.9442 4.67052C12.7354 5.07986 12.4953 5.46821 12.2866 5.86705C12.2552 5.93002 12.2657 6.01399 12.3283 6.05597C12.4223 6.11895 12.5266 6.16093 12.6206 6.22391C12.6832 6.26589 12.7772 6.2449 12.8189 6.18192C12.9233 6.03498 12.9964 5.85655 13.0799 5.69912C13.1217 5.63614 13.2052 5.60465 13.2678 5.63614C13.8106 5.88804 14.2804 6.20292 14.7919 6.4863C14.865 6.52829 14.8858 6.61225 14.8545 6.67523C14.7814 6.85366 14.6771 7.0006 14.5831 7.15804C14.5414 7.23151 14.5622 7.31547 14.6353 7.35746C14.7397 7.43093 14.8545 7.48341 14.9693 7.53589C15.032 7.56737 15.1155 7.54638 15.1572 7.48341C15.3973 7.10556 15.6061 6.69622 15.8358 6.29738C15.8775 6.22391 15.961 6.20292 16.0341 6.2449C16.222 6.33936 16.3786 6.45482 16.5769 6.54928C16.6396 6.58077 16.7231 6.54928 16.7648 6.4863C16.8692 6.30787 16.9632 6.12944 17.0676 5.95102C17.1093 5.88804 17.1928 5.85655 17.2555 5.88804C17.6939 6.08746 18.0801 6.34986 18.4872 6.58077C18.5603 6.62275 18.5812 6.70672 18.5499 6.78019C16.7544 10.0759 14.8963 13.2876 13.0799 16.5728C13.0486 16.6253 13.0486 16.6883 13.0903 16.7302C13.3304 17.0241 13.2782 17.5909 12.9024 17.7168C12.8189 17.7483 12.7876 17.8428 12.8189 17.9163C12.9024 18.0947 12.9546 18.3466 12.8607 18.5355C12.8294 18.588 12.8398 18.6615 12.892 18.7035C13.5914 19.4172 14.2699 20.1099 14.176 21.5478C14.0507 23.4476 12.5371 24.7071 10.3658 24.5916C7.91266 24.4657 5.40733 22.419 5.41777 19.9105C5.42821 17.8743 7.58906 16.1425 9.86473 16.9716C9.91693 16.9926 9.97956 16.9821 10.0213 16.9297C10.157 16.7827 10.324 16.6253 10.5641 16.6253C10.6581 16.6253 10.7207 16.5518 10.7103 16.4573C10.6685 16.09 10.9921 15.6807 11.3992 15.7961C11.4619 15.8171 11.5245 15.7856 11.5663 15.7331C12.1091 14.841 12.6206 13.8964 13.1321 12.9727C13.1739 12.9098 13.153 12.8258 13.0903 12.7838C12.9338 12.6788 12.7459 12.5844 12.5684 12.4899C12.4953 12.4479 12.464 12.364 12.5058 12.2905C12.725 11.8917 12.9442 11.5033 13.1634 11.094C13.1947 11.031 13.1739 10.947 13.1217 10.8946C13.0173 10.8211 12.9024 10.7686 12.7876 10.7161C12.725 10.6846 12.6415 10.7056 12.5997 10.7686C12.5058 10.9155 12.4118 11.0835 12.3283 11.2409C12.2866 11.3144 12.203 11.3459 12.13 11.3039C11.608 11.0415 11.1278 10.7266 10.6163 10.4432C10.5433 10.4013 10.5224 10.3068 10.5641 10.2333C10.6476 10.0759 10.7312 9.91844 10.8251 9.7715C10.8669 9.70853 10.8564 9.61406 10.7938 9.57208C10.6998 9.49861 10.5955 9.45663 10.4911 9.40415C10.418 9.37266 10.3449 9.39365 10.3032 9.45663C10.0735 9.83448 9.84386 10.2123 9.64552 10.6112C9.6142 10.6846 9.52025 10.7161 9.44718 10.6846C9.1027 10.5272 8.79997 10.3278 8.47636 10.1494C8.40329 10.1074 8.38241 10.0234 8.42417 9.94993C9.50981 7.93473 10.6685 5.993 11.7542 3.9673C11.7646 3.92532 11.8481 3.90433 11.9212 3.93581ZM13.3304 6.81167C13.1634 7.08457 13.0277 7.38895 12.8503 7.66184C12.8085 7.73531 12.7041 7.7563 12.6415 7.70382C12.631 7.70382 12.631 7.69332 12.6206 7.69332C12.5475 7.64085 12.4431 7.67233 12.4014 7.7563C12.2448 8.06068 12.0569 8.33357 11.9108 8.64845C11.8794 8.72192 11.9003 8.80588 11.9734 8.84787C11.9838 8.85836 12.0047 8.86886 12.0151 8.86886C12.0882 8.91084 12.1091 9.0053 12.0673 9.06828C11.9108 9.34117 11.7542 9.62456 11.5976 9.90795C11.5558 9.98142 11.5767 10.0654 11.6498 10.1074C11.7229 10.1494 11.7855 10.1913 11.8586 10.2333C11.9316 10.2753 12.0151 10.2438 12.0569 10.1703C12.2135 9.88696 12.3596 9.60357 12.5266 9.33068C12.5684 9.2572 12.6728 9.23621 12.7459 9.28869C12.8189 9.35167 12.9338 9.32018 12.9755 9.23621C13.1321 8.93183 13.32 8.65894 13.4661 8.34407C13.4975 8.2706 13.4661 8.18663 13.3931 8.14465C13.3826 8.13415 13.3722 8.13415 13.3513 8.12365C13.2782 8.08167 13.2574 7.98721 13.2991 7.92423C13.4557 7.65134 13.6123 7.36795 13.7689 7.08457C13.8106 7.0111 13.7793 6.92713 13.7167 6.88515C13.6436 6.84316 13.581 6.80118 13.5079 6.7592C13.4453 6.72771 13.3618 6.7487 13.3304 6.81167ZM9.34279 18.8924C9.24884 18.588 8.84172 18.4306 8.49724 18.4516C7.69345 18.5145 7.14019 19.5746 7.24458 20.5927C7.43248 22.335 10.1466 23.752 11.6393 22.5554C11.9629 22.3035 12.4431 21.7473 12.4223 21.065C12.4118 20.7082 12.1508 19.9944 11.4619 20.1624C11.0548 20.2568 10.9817 20.8971 11.2427 21.2225C11.3053 21.2959 11.274 21.4114 11.1905 21.4429C10.6372 21.6948 9.96912 21.3379 9.71859 20.8866C9.68727 20.8341 9.64552 20.8026 9.59332 20.8026C8.9148 20.7816 8.46592 20.4353 8.42417 19.8265C8.41373 19.7321 8.50768 19.6481 8.60163 19.6796C9.07138 19.774 9.46806 19.3122 9.34279 18.8924Z" fill="#121212"/>
</svg>
