<svg width="21" height="23" viewBox="0 0 21 23" fill="none" xmlns="http://www.w3.org/2000/svg">
<path d="M19.8633 16.3477C19.0469 15.4453 17.457 14.1133 17.457 9.6875C17.457 6.37891 15.1367 3.71484 11.957 3.02734V2.125C11.957 1.39453 11.3555 0.75 10.625 0.75C9.85156 0.75 9.25 1.39453 9.25 2.125V3.02734C6.07031 3.71484 3.75 6.37891 3.75 9.6875C3.75 14.1133 2.16016 15.4453 1.34375 16.3477C1.08594 16.6055 0.957031 16.9492 1 17.25C1 17.9805 1.51562 18.625 2.375 18.625H18.832C19.6914 18.625 20.207 17.9805 20.25 17.25C20.25 16.9492 20.1211 16.6055 19.8633 16.3477ZM3.87891 16.5625C4.78125 15.4023 5.76953 13.3828 5.8125 9.73047C5.8125 9.73047 5.8125 9.73047 5.8125 9.6875C5.8125 7.06641 7.96094 4.875 10.625 4.875C13.2461 4.875 15.4375 7.06641 15.4375 9.6875C15.4375 9.73047 15.3945 9.73047 15.3945 9.73047C15.4375 13.3828 16.4258 15.4023 17.3281 16.5625H3.87891ZM10.625 22.75C12.1289 22.75 13.332 21.5469 13.332 20H7.875C7.875 21.5469 9.07812 22.75 10.625 22.75Z" fill="white"/>
</svg>
