<svg width="13" height="13" viewBox="0 0 13 13" fill="none" xmlns="http://www.w3.org/2000/svg">
<path d="M6.5 0C2.91203 0 0 2.91202 0 6.5C0 10.088 2.91203 13 6.5 13C10.088 13 13 10.088 13 6.5C13 4.62169 12.1993 2.93061 10.9242 1.7439H12.8415V1.42683H10.622H10.4634V1.58537V3.80488H10.7805V2.0362C11.9552 3.16194 12.6829 4.74365 12.6829 6.5C12.6829 9.91662 9.91661 12.6829 6.5 12.6829C3.08338 12.6829 0.317073 9.91662 0.317073 6.5C0.317073 3.08338 3.08339 0.317073 6.5 0.317073V0ZM6.02439 2.21951V6.81707V6.9013L6.0987 6.94588L9.26944 9.00686L9.43788 8.74428L6.34146 6.73285V2.21951H6.02439Z" fill="white"/>
</svg>
