<svg width="14" height="10" viewBox="0 0 14 10" fill="none" xmlns="http://www.w3.org/2000/svg">
<path d="M12.035 0.0400002H1.245C0.544687 0.0400002 0 0.610625 0 1.285V8.755C0 9.45531 0.544687 10 1.245 10H12.035C12.7094 10 13.28 9.45531 13.28 8.755V1.285C13.28 0.610625 12.7094 0.0400002 12.035 0.0400002ZM12.035 1.285V2.34844C11.4384 2.84125 10.5047 3.5675 8.53344 5.12375C8.0925 5.46094 7.23656 6.29094 6.64 6.265C6.0175 6.29094 5.16156 5.46094 4.72062 5.12375C2.74937 3.5675 1.81562 2.84125 1.245 2.34844V1.285H12.035ZM1.245 8.755V3.95656C1.81562 4.42344 2.67156 5.09781 3.9425 6.10938C4.51312 6.55031 5.52469 7.53594 6.64 7.51C7.72937 7.53594 8.715 6.55031 9.31156 6.10938C10.5825 5.09781 11.4384 4.42344 12.035 3.95656V8.755H1.245Z" fill="#9A9999"/>
</svg>
