<svg width="32" height="32" viewBox="0 0 32 32" fill="none" xmlns="http://www.w3.org/2000/svg">
<g clip-path="url(#clip0)">
<path d="M21.2798 31.9744C21.2798 27.7261 21.2798 23.4906 21.2798 19.2231C23.1701 19.2231 25.0539 19.2231 26.9634 19.2231C26.9634 17.5699 26.9634 15.9488 26.9634 14.2892C24.9963 14.2892 23.0291 14.2892 21.0876 14.2892C21.0427 14.2315 21.0171 14.2123 21.0235 14.1931C21.0683 13.1294 21.0363 12.0529 21.1773 11.0021C21.3503 9.72051 22.0808 9.08615 23.5225 8.91955C24.6951 8.77858 25.8805 8.76577 27.0659 8.70169C27.4888 8.68247 27.4953 8.69528 27.4953 8.28519C27.4953 7.00365 27.4888 5.72211 27.5017 4.44058C27.5017 4.19068 27.4504 4.07534 27.1685 4.08175C25.0539 4.10738 22.9394 4.04971 20.8377 4.31883C20.2674 4.39572 19.7035 4.51747 19.1524 4.67766C17.7107 5.10698 16.8008 6.10017 16.4612 7.5419C16.2305 8.50946 16.0896 9.51547 16.0191 10.5087C15.9294 11.7325 15.955 12.9628 15.9486 14.1931C15.9486 14.4622 15.8653 14.5391 15.6026 14.5391C14.1801 14.5263 12.764 14.5391 11.3415 14.5263C11.0403 14.5263 10.9314 14.6032 10.9378 14.9171C10.9506 16.314 10.9506 17.7173 10.9378 19.1142C10.9378 19.3961 11.0211 19.4794 11.303 19.473C12.7127 19.4602 14.1224 19.4666 15.5321 19.4666C15.6474 19.4666 15.7628 19.4666 15.9102 19.4666C15.9102 23.6444 15.9102 27.7966 15.9102 31.9936C15.7628 31.9936 15.6282 31.9936 15.4937 31.9936C11.0211 31.9936 6.54211 31.9936 2.06954 31.9936C0.768781 31.9936 0.00626583 31.2375 0.00626583 29.9304C-0.000141859 27.3865 0.00626583 24.8491 0.00626583 22.3052C0.00626583 15.5771 0.00626583 8.84907 0.00626583 2.12099C-0.000141859 1.38411 0.204904 0.711302 0.852081 0.294802C1.12761 0.115387 1.50567 0.012864 1.83887 0.012864C7.66986 -0.00635902 13.5009 4.86679e-05 19.3319 4.86679e-05C22.8561 4.86679e-05 26.3803 4.86679e-05 29.9045 4.86679e-05C31.2502 4.86679e-05 31.9999 0.74334 31.9999 2.09536C31.9999 7.30481 31.9999 12.5207 31.9999 17.7301C31.9999 21.7862 31.9999 25.8487 31.9999 29.9047C31.9999 30.4558 31.8653 30.962 31.5065 31.3913C31.1925 31.7758 30.7888 31.9936 30.289 31.9936C27.3223 31.9936 24.3491 31.9936 21.3823 31.9936C21.3631 31.9936 21.3439 31.9872 21.2798 31.9744Z" fill="white"/>
</g>
<defs>
<clipPath id="clip0">
<rect width="32" height="32" fill="white"/>
</clipPath>
</defs>
</svg>
