<svg width="164" height="167" viewBox="0 0 164 167" fill="none" xmlns="http://www.w3.org/2000/svg">
<g clip-path="url(#clip0)" filter="url(#filter0_d)">
<path d="M164.091 148.526C164.405 131.546 165.23 86.9548 165.23 86.9548C165.317 82.261 163.483 77.5317 160.252 74.1575L95.497 6.5335C92.266 3.15933 87.7749 1.14285 82.9736 1.05403C82.9736 1.05403 31.1199 0.0948321 18.3623 -0.141162C16.8533 -0.169076 15.4585 1.04802 15.4279 2.70466L15.3819 5.18961L15.387 4.9135C15.9894 2.02454 18.71 3.31777 19.9216 4.58308L42.9451 28.486C74.0435 60.9624 105.277 93.5794 136.375 126.056L159.818 149.552C160.359 149.976 160.483 150.669 160.61 151.224C160.727 152.331 159.886 153.282 158.918 153.678L156.703 154.742L157.663 154.76C161.093 154.823 164.027 151.978 164.091 148.526Z" fill="#038259"/>
<path d="M63.3463 5.10881L56.6376 11.3721L58.6138 13.4931L60.2958 11.9228L63.5393 15.4039C64.0711 15.9746 64.8338 16.7742 65.6836 16.9234C66.945 17.133 68.3077 15.754 68.3742 15.6919C68.5453 15.5323 68.698 15.3719 68.8601 15.2027C69.4126 14.6514 69.8516 14.1882 69.9355 13.3629C70.0016 12.7854 69.9112 12.2117 69.1156 11.3006C68.9567 11.111 68.7794 10.9208 68.5927 10.7394L63.3463 5.10881ZM66.6152 11.8208C66.826 12.1043 67.0367 12.3877 67.017 12.6907C67.0029 13.0951 66.5462 13.5393 66.5177 13.5659C66.2801 13.7877 66.066 13.8631 65.9172 13.9131C65.3877 14.0695 65.1028 13.8019 64.7313 13.3841L61.9308 10.3786L63.7173 8.7107L66.6152 11.8208ZM68.0189 17.8469C67.1637 18.6453 66.1362 19.6402 66.3288 20.9721C66.4551 21.8323 66.9577 22.448 67.478 23.0827C68.1769 23.8708 68.8668 24.6495 69.5847 25.4199C70.2139 26.0952 70.8621 26.7527 71.4919 27.4096C72.2402 28.0983 73.0613 28.8078 74.167 28.7359C74.8858 28.6873 75.3374 28.3902 75.8936 27.9954C76.2344 27.7128 76.5745 27.4486 76.897 27.1654C77.3993 26.7319 77.8567 26.2693 78.3236 25.7979C78.7817 25.3169 79.1738 24.8796 79.3894 24.2337C79.7305 23.1505 79.2166 22.332 79.0071 22.0118C78.9286 21.8895 78.8501 21.7671 78.7622 21.6536C77.8969 20.6296 77.0309 19.624 76.127 18.6538C75.356 17.8264 74.5558 17.0439 73.7462 16.2703C73.3169 15.9241 72.9586 15.6539 72.4217 15.4972C71.703 15.2789 71.026 15.4486 70.4058 15.8319C70.2836 15.9104 70.1613 15.989 70.048 16.0771L68.0189 17.8469ZM69.9005 22.4217C69.4163 21.8066 69.1733 21.3933 69.2513 21.0003C69.3281 20.644 69.7012 20.2245 70.2537 19.6732C70.7852 19.1948 71.1551 18.8672 71.4193 18.6739C71.4756 18.6391 71.6828 18.4991 71.8962 18.4421C71.9798 18.4174 72.128 18.3857 72.3471 18.4302C72.6669 18.4873 72.8923 18.6148 73.355 19.0542L76.0314 21.9266C76.4897 22.4947 76.8055 22.929 76.424 23.5875C76.3258 23.7681 76.2206 23.8841 76.0775 24.0356L74.6236 25.3929C74.2651 25.6565 74.0871 25.7515 73.8648 25.799C73.3087 25.9269 72.8985 25.5629 72.4528 25.1609L69.9005 22.4217ZM87.4459 35.7598C88.0547 35.1736 88.8725 34.3923 88.8685 33.4535C88.8656 32.7448 88.4985 32.1983 88.1314 31.6517C87.4243 30.8357 86.7268 30.0108 85.9912 29.2214C85.2645 28.4414 84.4903 27.7059 83.7155 26.9887C83.4736 26.8054 82.6253 26.0857 81.5386 26.1399C80.9117 26.1917 80.5265 26.4267 80.0268 26.7866C79.506 27.2194 78.986 27.6338 78.4918 28.0951C78.0167 28.5387 77.5771 29.0203 77.1469 29.4931C76.6578 30.0742 76.2916 30.5584 76.2913 31.359C76.291 32.1596 76.772 32.8666 77.253 33.5735C77.96 34.3895 78.6766 35.1967 79.4122 35.9861C80.0857 36.709 80.7877 37.4052 81.5088 38.0837C81.9918 38.4686 82.4387 38.8339 83.0884 38.9209C83.9116 39.0416 84.516 38.5841 85.1133 38.062C85.3312 37.8763 85.5397 37.6995 85.7392 37.5132L83.8338 35.4683C83.5691 35.68 83.3036 35.91 83.0092 35.9181C82.5671 35.9396 82.1145 35.4729 82.0696 35.4437L79.7743 32.9803C79.704 32.8858 79.2527 32.3824 79.2447 31.8208C79.2341 31.3327 79.6243 30.9505 79.986 30.595L80.4802 30.1337C80.9743 29.6724 81.3911 29.3188 81.6438 29.1896C82.3083 28.8538 82.8084 29.2762 82.9869 29.4296C83.0939 29.5254 83.2098 29.6306 83.3072 29.7352C83.725 30.1455 84.1156 30.5456 84.5055 30.9641C84.8778 31.3636 85.231 31.7808 85.5753 32.1885C85.8038 32.4909 86.0241 32.7655 85.9752 33.1135C85.9371 33.4158 85.785 33.5578 85.5855 33.7441L87.4459 35.7598ZM87.2232 38.4575C86.3679 39.2559 85.3404 40.2508 85.5331 41.5827C85.6594 42.4429 86.162 43.0586 86.6823 43.6933C87.3811 44.4814 88.0711 45.2601 88.7889 46.0305C89.4181 46.7058 90.0663 47.3633 90.6962 48.0202C91.4445 48.7089 92.2655 49.4184 93.3713 49.3465C94.09 49.2979 94.5417 49.0008 95.0978 48.606C95.4386 48.3234 95.7788 48.0592 96.1012 47.7759C96.6036 47.3425 97.061 46.8799 97.5279 46.4084C97.9859 45.9275 98.3781 45.4902 98.5936 44.8443C98.9347 43.7611 98.4208 42.9426 98.2113 42.6224C98.1329 42.5001 98.0544 42.3777 97.9664 42.2642C97.1011 41.2402 96.2352 40.2346 95.3312 39.2644C94.5602 38.437 93.7601 37.6545 92.9504 36.8809C92.5212 36.5346 92.1629 36.2645 91.6259 36.1078C90.9072 35.8895 90.2302 36.0591 89.6101 36.4425C89.4878 36.521 89.3656 36.5996 89.2522 36.6877L87.2232 38.4575ZM89.1048 43.0323C88.6206 42.4172 88.3775 42.0038 88.4556 41.6109C88.5323 41.2546 88.9055 40.8351 89.4579 40.2838C89.9894 39.8054 90.3594 39.4778 90.6235 39.2845C90.6799 39.2497 90.887 39.1096 91.1004 39.0527C91.184 39.028 91.3322 38.9963 91.5513 39.0408C91.8711 39.0979 92.0965 39.2254 92.5593 39.6648L95.2356 42.5372C95.6939 43.1053 96.0098 43.5396 95.6283 44.1981C95.53 44.3787 95.4249 44.4947 95.2817 44.6462L93.8278 46.0035C93.4693 46.2671 93.2913 46.3621 93.069 46.4096C92.513 46.5375 92.1027 46.1735 91.6571 45.7715L89.1048 43.0323ZM96.5463 49.7792C96.0427 50.2494 95.2831 50.9407 95.229 51.7026C95.1781 52.3727 95.5623 52.9566 95.9123 53.4657C96.7067 54.4136 97.4827 55.3609 98.3157 56.255C99.0867 57.0824 99.8869 57.8649 100.705 58.648C101.162 59.0044 101.609 59.3513 102.13 59.4522C102.322 59.4865 102.478 59.4828 102.672 59.4619C103.162 59.3961 103.647 59.1922 104.407 58.4824C105.386 57.5687 105.539 56.8562 105.467 56.2832C105.417 55.8857 105.298 55.6055 104.841 55.0006L101.226 50.8348C101.005 50.5603 100.802 50.3231 100.862 49.9295C100.865 49.856 100.908 49.6734 101.05 49.5403C101.193 49.4073 101.396 49.3775 101.461 49.3706C101.82 49.3371 102.051 49.566 102.3 49.8139C102.673 50.195 103.047 50.5577 103.41 50.9477C103.871 51.4423 104.321 51.9641 104.754 52.4853C105.202 53.0807 105.224 53.2379 104.826 53.8406L106.713 55.8848C107.32 55.3538 107.919 54.7949 107.912 53.9296C107.908 53.2577 107.559 52.7118 107.445 52.5514L107.156 52.1273C106.441 51.2833 105.735 50.4305 104.982 49.6221C104.3 48.8897 103.589 48.184 102.878 47.4782C102.289 46.9792 101.744 46.5277 100.962 46.5281C100.732 46.5292 100.501 46.5672 100.277 46.6514C99.6903 46.8795 98.9586 47.5626 98.9111 47.6069C98.2269 48.2457 97.9956 48.8174 97.9625 49.2395C97.9122 49.8912 98.2704 50.4282 98.3755 50.5791C98.4451 50.6919 98.5331 50.8054 98.6027 50.9183C98.8762 51.2499 99.1401 51.5904 99.4136 51.922C100.269 52.9549 101.182 53.9529 102.084 54.9598C102.461 55.4975 102.665 55.6978 102.588 56.0725C102.544 56.2734 102.439 56.3894 102.382 56.4426C102.154 56.6555 101.776 56.67 101.505 56.5317C101.225 56.4023 100.979 56.0808 100.917 56.0142C100.473 55.5571 100.029 55.1183 99.6126 54.6529C99.2233 54.216 98.8524 53.7798 98.4726 53.334C98.103 52.861 98.0024 52.5814 98.15 52.3013C98.2198 52.1473 98.3433 52.032 98.4953 51.89L96.5463 49.7792ZM118.663 69.2624C119.271 68.6763 120.089 67.8949 120.085 66.9562C120.082 66.2475 119.715 65.7009 119.348 65.1544C118.641 64.3384 117.943 63.5134 117.208 62.724C116.481 61.9441 115.707 61.2085 114.932 60.4914C114.69 60.3081 113.842 59.5884 112.755 59.6425C112.128 59.6943 111.743 59.9294 111.243 60.2893C110.723 60.7221 110.203 61.1365 109.708 61.5978C109.233 62.0414 108.794 62.523 108.364 62.9957C107.874 63.5769 107.508 64.0611 107.508 64.8617C107.508 65.6623 107.989 66.3692 108.47 67.0761C109.177 67.8922 109.893 68.6994 110.629 69.4888C111.302 70.2116 112.004 70.9079 112.725 71.5864C113.208 71.9713 113.655 72.3365 114.305 72.4236C115.128 72.5443 115.733 72.0868 116.33 71.5647C116.548 71.379 116.756 71.2022 116.956 71.0159L115.05 68.971C114.786 69.1826 114.52 69.4127 114.226 69.4208C113.784 69.4422 113.331 68.9755 113.286 68.9464L110.991 66.483C110.921 66.3885 110.469 65.8851 110.461 65.3234C110.451 64.8353 110.841 64.4532 111.203 64.0977L111.697 63.6364C112.191 63.1751 112.608 62.8215 112.86 62.6922C113.525 62.3565 114.025 62.7788 114.204 62.9323C114.311 63.028 114.426 63.1333 114.524 63.2379C114.942 63.6482 115.332 64.0483 115.722 64.4668C116.094 64.8662 116.448 65.2834 116.792 65.6911C117.02 65.9936 117.241 66.2681 117.192 66.6161C117.154 66.9185 117.002 67.0604 116.802 67.2467L118.663 69.2624ZM122.51 68.605L117.911 72.8988C117.508 73.3633 117.163 73.7746 116.994 74.3945C116.783 75.1969 117.051 75.9241 117.479 76.5923C117.584 76.7432 117.698 76.9037 117.803 77.0546C118.447 77.8224 119.101 78.5814 119.783 79.3137C120.377 79.951 120.981 80.561 121.584 81.1893C122.146 81.6966 122.654 82.1469 123.419 82.3575C124.512 82.6533 125.359 82.0938 125.66 81.8835C125.849 81.7612 126.019 81.6199 126.189 81.4786L130.636 77.3267L128.704 75.2532L124.656 79.0325C124.354 79.2797 123.957 79.5787 123.544 79.5551C123.288 79.5278 123.08 79.4193 122.615 79.0351L120.772 77.0567C120.08 76.3333 119.72 75.8514 119.83 75.3215C119.927 74.9108 120.242 74.5996 120.518 74.3239L124.433 70.6689L122.51 68.605ZM132.218 79.0246L125.51 85.2879L127.486 87.4089L129.168 85.8386L132.412 89.3197C132.943 89.8904 133.706 90.6899 134.556 90.8392C135.817 91.0487 137.18 89.6698 137.246 89.6077C137.417 89.448 137.57 89.2877 137.732 89.1185C138.285 88.5672 138.724 88.1039 138.808 87.2786C138.874 86.7012 138.783 86.1275 137.988 85.2163C137.829 85.0267 137.652 84.8365 137.465 84.6552L132.218 79.0246ZM135.487 85.7366C135.698 86.02 135.909 86.3034 135.889 86.6064C135.875 87.0109 135.418 87.4551 135.39 87.4817C135.152 87.7035 134.938 87.7788 134.789 87.8289C134.26 87.9853 133.975 87.7177 133.603 87.2998L130.803 84.2943L132.589 82.6265L135.487 85.7366ZM136.891 91.7627C136.036 92.5611 135.008 93.556 135.201 94.8879C135.327 95.7481 135.83 96.3638 136.35 96.9985C137.049 97.7866 137.739 98.5652 138.457 99.3356C139.086 100.011 139.734 100.668 140.364 101.325C141.112 102.014 141.933 102.724 143.039 102.652C143.758 102.603 144.21 102.306 144.766 101.911C145.107 101.629 145.447 101.364 145.769 101.081C146.272 100.648 146.729 100.185 147.196 99.7136C147.654 99.2326 148.046 98.7954 148.262 98.1495C148.603 97.0663 148.089 96.2478 147.879 95.9276C147.801 95.8052 147.722 95.6829 147.634 95.5694C146.769 94.5454 145.903 93.5397 144.999 92.5696C144.228 91.7421 143.428 90.9597 142.618 90.1861C142.189 89.8398 141.831 89.5697 141.294 89.4129C140.575 89.1946 139.898 89.3643 139.278 89.7476C139.156 89.8262 139.034 89.9048 138.92 89.9928L136.891 91.7627ZM138.773 96.3374C138.288 95.7224 138.045 95.309 138.124 94.916C138.2 94.5598 138.573 94.1403 139.126 93.589C139.657 93.1105 140.027 92.7829 140.291 92.5897C140.348 92.5548 140.555 92.4148 140.768 92.3578C140.852 92.3331 141 92.3015 141.219 92.3459C141.539 92.4031 141.764 92.5306 142.227 92.97L144.904 95.8424C145.362 96.4105 145.678 96.8448 145.296 97.5033C145.198 97.6839 145.093 97.7999 144.95 97.9513L143.496 99.3087C143.137 99.5723 142.959 99.6673 142.737 99.7148C142.181 99.8426 141.771 99.4787 141.325 99.0766L138.773 96.3374ZM146.214 103.084C145.711 103.555 144.951 104.246 144.897 105.008C144.846 105.678 145.23 106.262 145.58 106.771C146.375 107.719 147.151 108.666 147.984 109.56C148.755 110.388 149.555 111.17 150.373 111.953C150.83 112.31 151.277 112.656 151.798 112.757C151.99 112.792 152.146 112.788 152.34 112.767C152.83 112.701 153.315 112.497 154.075 111.788C155.054 110.874 155.207 110.161 155.135 109.588C155.085 109.191 154.966 108.911 154.509 108.306L150.894 104.14C150.673 103.865 150.47 103.628 150.53 103.235C150.532 103.161 150.576 102.979 150.718 102.846C150.861 102.712 151.064 102.683 151.129 102.676C151.488 102.642 151.719 102.871 151.968 103.119C152.341 103.5 152.714 103.863 153.078 104.253C153.539 104.747 153.989 105.269 154.422 105.79C154.87 106.386 154.892 106.543 154.494 107.146L156.381 109.19C156.988 108.659 157.586 108.1 157.58 107.235C157.576 106.563 157.227 106.017 157.113 105.857L156.824 105.432C156.109 104.588 155.403 103.736 154.65 102.927C153.968 102.195 153.257 101.489 152.546 100.783C151.957 100.284 151.411 99.8328 150.63 99.8332C150.4 99.8344 150.169 99.8724 149.945 99.9566C149.358 100.185 148.627 100.868 148.579 100.912C147.895 101.551 147.664 102.123 147.63 102.545C147.58 103.196 147.938 103.733 148.043 103.884C148.113 103.997 148.201 104.111 148.271 104.223C148.544 104.555 148.808 104.896 149.082 105.227C149.937 106.26 150.849 107.258 151.752 108.265C152.129 108.803 152.333 109.003 152.256 109.378C152.212 109.579 152.107 109.695 152.05 109.748C151.822 109.961 151.444 109.975 151.173 109.837C150.893 109.707 150.647 109.386 150.585 109.319C150.141 108.862 149.696 108.423 149.281 107.958C148.891 107.521 148.52 107.085 148.141 106.639C147.771 106.166 147.67 105.887 147.818 105.606C147.888 105.452 148.011 105.337 148.163 105.195L146.214 103.084Z" fill="white"/>
</g>
<defs>
<filter id="filter0_d" x="0.664795" y="-4.19434" width="170.125" height="171.071" filterUnits="userSpaceOnUse" color-interpolation-filters="sRGB">
<feFlood flood-opacity="0" result="BackgroundImageFix"/>
<feColorMatrix in="SourceAlpha" type="matrix" values="0 0 0 0 0 0 0 0 0 0 0 0 0 0 0 0 0 0 127 0"/>
<feOffset dx="-4" dy="4"/>
<feGaussianBlur stdDeviation="4"/>
<feColorMatrix type="matrix" values="0 0 0 0 0 0 0 0 0 0 0 0 0 0 0 0 0 0 0.25 0"/>
<feBlend mode="normal" in2="BackgroundImageFix" result="effect1_dropShadow"/>
<feBlend mode="normal" in="SourceGraphic" in2="effect1_dropShadow" result="shape"/>
</filter>
<clipPath id="clip0">
<rect width="152.298" height="151.334" fill="white" transform="translate(166.79 2.60449) rotate(91.0598)"/>
</clipPath>
</defs>
</svg>
