<svg width="140" height="155" viewBox="0 0 140 155" fill="none" xmlns="http://www.w3.org/2000/svg">
<path d="M149.426 148.434C149.74 130.687 150.565 84.0832 150.565 84.0832C150.652 79.1775 148.818 74.2347 145.587 70.7082L80.8322 0.0316577C77.6012 -3.49482 73.1101 -5.60233 68.3088 -5.69515C68.3088 -5.69515 16.4551 -6.69765 3.69746 -6.9443C2.1885 -6.97348 0.793717 -5.70144 0.763072 -3.97002L0.717105 -1.3729L0.722212 -1.66147C1.32455 -4.68083 4.04515 -3.32923 5.25678 -2.0068L28.2803 22.9751C59.3787 56.9175 90.6118 91.0068 121.71 124.949L145.153 149.506C145.694 149.95 145.818 150.674 145.945 151.254C146.062 152.41 145.221 153.405 144.253 153.819L142.038 154.931L142.998 154.949C146.428 155.016 149.362 152.041 149.426 148.434Z" fill="#0083E2" fill-opacity="0.7"/>
</svg>
