<svg width="299" height="302" viewBox="0 0 299 302" fill="none" xmlns="http://www.w3.org/2000/svg">
<path d="M301 289.405C301 255.728 301 167.291 301 167.291C301 157.982 297.18 148.673 290.63 142.102L159.369 10.4043C152.82 3.83318 143.814 -6.87081e-06 134.263 -7.28831e-06C134.263 -7.28831e-06 31.1097 -1.17973e-05 5.73077 -1.29066e-05C2.72894 -1.30378e-05 -1.07713e-07 2.46417 -2.51331e-07 5.74976L-4.66757e-07 10.6781L-4.42821e-07 10.1305C1.09158 4.38077 6.54944 6.84496 9.00546 9.30914L55.67 55.8549C118.708 119.102 182.019 182.624 245.057 245.871L292.54 291.596C293.632 292.417 293.905 293.786 294.178 294.881C294.451 297.072 292.813 298.988 290.903 299.81L286.537 302L288.447 302C295.269 302 301 296.25 301 289.405Z" fill="white" fill-opacity="0.7"/>
</svg>
