<svg width="11" height="11" viewBox="0 0 11 11" fill="none" xmlns="http://www.w3.org/2000/svg">
<path fill-rule="evenodd" clip-rule="evenodd" d="M0.458374 5.50004C0.458374 8.28448 2.71561 10.5417 5.50004 10.5417C8.28448 10.5417 10.5417 8.28448 10.5417 5.50004C10.5417 2.71561 8.28448 0.458374 5.50004 0.458374C2.71561 0.458374 0.458374 2.71561 0.458374 5.50004ZM9.62506 5.50005C9.62506 7.77823 7.77823 9.62506 5.50005 9.62506C3.22188 9.62506 1.37506 7.77823 1.37506 5.50005C1.37506 3.22188 3.22188 1.37506 5.50005 1.37506C7.77823 1.37506 9.62506 3.22188 9.62506 5.50005ZM5.50018 8.2493C5.75339 8.2493 5.95866 8.0441 5.95866 7.79097C5.95866 7.53784 5.75339 7.33263 5.50018 7.33263C5.24696 7.33263 5.04169 7.53784 5.04169 7.79097C5.04169 8.0441 5.24696 8.2493 5.50018 8.2493ZM5.96003 2.74927H5.04306V6.41594H5.96003V2.74927Z" fill="#01C586"/>
</svg>
