<svg width="136" height="87" viewBox="0 0 136 87" fill="none" xmlns="http://www.w3.org/2000/svg">
<path d="M79.191 86.1733V71.8186C79.191 71.3603 78.8243 70.9937 78.366 70.9937C77.9113 70.9937 77.541 71.3603 77.541 71.8186V86.1733C77.541 86.6316 77.9113 87.0001 78.366 87.0001C78.8243 86.9964 79.191 86.628 79.191 86.1733Z" fill="white"/>
<path d="M69.2336 54.9968C75.465 54.9968 80.5377 49.9259 80.5377 43.6946C80.5377 37.465 75.4668 32.396 69.2336 32.396C63.0059 32.396 57.9351 37.465 57.9351 43.6946C57.9351 49.9277 63.0041 54.9968 69.2336 54.9968ZM69.2336 34.0441C74.5538 34.0441 78.8877 38.3725 78.8877 43.6927C78.8877 49.0148 74.5575 53.3413 69.2336 53.3413C63.9134 53.3413 59.585 49.0148 59.585 43.6927C59.585 38.3762 63.9116 34.0441 69.2336 34.0441Z" fill="white"/>
<path d="M80.045 55.8709H69.2341C62.5206 55.8709 57.0592 50.4095 57.0592 43.6942V15.2232C57.0592 11.9398 54.3899 9.27051 51.1065 9.27051C47.8249 9.27051 45.1538 11.9398 45.1538 15.2232V43.6924C45.1538 47.3589 46.01 51.0384 47.6324 54.3291C48.3932 55.8746 48.7966 57.6015 48.7966 59.3248V86.1734C48.7966 86.628 49.1632 86.9965 49.6215 86.9965C50.0762 86.9965 50.4465 86.628 50.4465 86.1734V59.3267C50.4465 57.3522 49.9864 55.3741 49.1119 53.6031C47.6031 50.5379 46.8038 47.1096 46.8038 43.6942V15.2232C46.8038 12.8509 48.7342 10.9205 51.1065 10.9205C53.4788 10.9205 55.4092 12.8509 55.4092 15.2232V43.6924C55.4092 51.317 61.6131 57.519 69.2341 57.519H80.045C84.3184 57.519 87.7961 60.9949 87.7961 65.272V86.1715C87.7961 86.6298 88.1683 86.9983 88.6211 86.9983C89.0794 86.9983 89.4461 86.6298 89.4461 86.1715V65.272C89.4443 60.0893 85.2277 55.8709 80.045 55.8709Z" fill="white"/>
<path d="M5.39292 63.4121C2.41915 63.4121 0 65.8272 0 68.7961C0 71.7647 2.41915 74.1801 5.39292 74.1801C8.3667 74.1801 10.7858 71.7647 10.7858 68.7961C10.7858 65.8272 8.3667 63.4121 5.39292 63.4121ZM5.39292 71.7872C3.74101 71.7872 2.39685 70.4453 2.39685 68.7961C2.39685 67.1467 3.74101 65.805 5.39292 65.805C7.04507 65.805 8.38899 67.1467 8.38899 68.7961C8.38899 70.4455 7.04483 71.7872 5.39292 71.7872Z" fill="white"/>
<path d="M118.436 11.3306C113.811 11.3306 110.047 15.0879 110.047 19.7059C110.047 24.324 113.811 28.0811 118.436 28.0811C123.062 28.0811 126.825 24.324 126.825 19.7059C126.825 15.0879 123.062 11.3306 118.436 11.3306ZM118.436 25.6882C115.132 25.6882 112.444 23.0045 112.444 19.7059C112.444 16.4073 115.132 13.7237 118.436 13.7237C121.74 13.7237 124.428 16.4073 124.428 19.7059C124.428 23.0045 121.74 25.6882 118.436 25.6882Z" fill="white"/>
<path d="M36.552 3.58933C37.5448 3.58933 38.3497 2.78583 38.3497 1.79467C38.3497 0.8035 37.5448 0 36.552 0C35.5592 0 34.7544 0.8035 34.7544 1.79467C34.7544 2.78583 35.5592 3.58933 36.552 3.58933Z" fill="white"/>
<path d="M99.9007 6.18065C100.893 6.18065 101.698 5.37715 101.698 4.38598C101.698 3.39481 100.893 2.59131 99.9007 2.59131C98.9079 2.59131 98.103 3.39481 98.103 4.38598C98.103 5.37715 98.9079 6.18065 99.9007 6.18065Z" fill="white"/>
<path d="M133.893 57.6836C134.886 57.6836 135.69 56.8801 135.69 55.8889C135.69 54.8977 134.886 54.0942 133.893 54.0942C132.9 54.0942 132.095 54.8977 132.095 55.8889C132.095 56.8801 132.9 57.6836 133.893 57.6836Z" fill="white"/>
<path d="M35.3533 83.7519C36.3461 83.7519 37.1509 82.9484 37.1509 81.9573C37.1509 80.9661 36.3461 80.1626 35.3533 80.1626C34.3605 80.1626 33.5557 80.9661 33.5557 81.9573C33.5557 82.9484 34.3605 83.7519 35.3533 83.7519Z" fill="white"/>
<path d="M1.79764 51.4468C2.79045 51.4468 3.59528 50.6433 3.59528 49.6521C3.59528 48.6609 2.79045 47.8574 1.79764 47.8574C0.804831 47.8574 0 48.6609 0 49.6521C0 50.6433 0.804831 51.4468 1.79764 51.4468Z" fill="white"/>
</svg>
