<svg width="91" height="57" viewBox="0 0 91 57" fill="none" xmlns="http://www.w3.org/2000/svg">
<path d="M40.6701 11C35.6023 11 31.5 15.0679 31.5 20.1134V26.2382H25.6944C23.6569 26.2382 22 27.8878 22 29.9164V52.511C22 54.5396 23.6569 56.1892 25.6944 56.1892H56.3056C58.3431 56.1892 60 54.5396 60 52.511V29.9164C60 27.8878 58.3431 26.2382 56.3056 26.2382H32.5556V20.1134C32.5556 15.6319 36.1689 12.0509 40.6701 12.0509H41.3299C45.8311 12.0509 49.4444 15.6319 49.4444 20.1134C49.4435 20.183 49.4564 20.2521 49.4825 20.3167C49.5085 20.3814 49.5473 20.4402 49.5964 20.4898C49.6455 20.5393 49.704 20.5787 49.7685 20.6056C49.833 20.6325 49.9023 20.6463 49.9722 20.6463C50.0422 20.6463 50.1114 20.6325 50.1759 20.6056C50.2405 20.5787 50.299 20.5393 50.3481 20.4898C50.3972 20.4402 50.4359 20.3814 50.462 20.3167C50.4881 20.2521 50.501 20.183 50.5 20.1134C50.5 15.0679 46.3977 11 41.3299 11H40.6701ZM25.6944 27.2891H56.3056C57.7766 27.2891 58.9444 28.4518 58.9444 29.9164V52.511C58.9444 53.9756 57.7766 55.1383 56.3056 55.1383H25.6944C24.2234 55.1383 23.0556 53.9756 23.0556 52.511V29.9164C23.0556 28.4518 24.2234 27.2891 25.6944 27.2891ZM41 37.01C39.5472 37.01 38.3611 38.1909 38.3611 39.6373V42.7901C38.3611 44.2365 39.5472 45.4173 41 45.4173C42.4528 45.4173 43.6389 44.2365 43.6389 42.7901V39.6373C43.6389 38.1909 42.4528 37.01 41 37.01ZM41 38.061C41.8863 38.061 42.5833 38.7549 42.5833 39.6373V42.7901C42.5833 43.6725 41.8863 44.3664 41 44.3664C40.1137 44.3664 39.4167 43.6725 39.4167 42.7901V39.6373C39.4167 38.7549 40.1137 38.061 41 38.061Z" fill="white"/>
<path d="M5.23558 21C2.34856 21 0 23.3447 0 26.2269C0 29.1089 2.34856 31.4538 5.23558 31.4538C8.12259 31.4538 10.4712 29.1089 10.4712 26.2269C10.4712 23.3447 8.12259 21 5.23558 21ZM5.23558 29.1307C3.63186 29.1307 2.32692 27.828 2.32692 26.2269C2.32692 24.6256 3.63186 23.3231 5.23558 23.3231C6.83952 23.3231 8.14423 24.6256 8.14423 26.2269C8.14423 27.8282 6.83929 29.1307 5.23558 29.1307Z" fill="white"/>
<path d="M82.1442 37C77.6535 37 74 40.6477 74 45.131C74 49.6143 77.6535 53.2618 82.1442 53.2618C86.635 53.2618 90.2885 49.6143 90.2885 45.131C90.2885 40.6477 86.635 37 82.1442 37ZM82.1442 50.9387C78.9366 50.9387 76.3269 48.3334 76.3269 45.131C76.3269 41.9286 78.9366 39.3233 82.1442 39.3233C85.3519 39.3233 87.9615 41.9286 87.9615 45.131C87.9615 48.3334 85.3519 50.9387 82.1442 50.9387Z" fill="white"/>
<path d="M10.4854 3.48461C11.4493 3.48461 12.2306 2.70455 12.2306 1.7423C12.2306 0.780056 11.4493 0 10.4854 0C9.52158 0 8.74023 0.780056 8.74023 1.7423C8.74023 2.70455 9.52158 3.48461 10.4854 3.48461Z" fill="white"/>
<path d="M75.7452 4.48462C76.709 4.48462 77.4904 3.70456 77.4904 2.74231C77.4904 1.78006 76.709 1 75.7452 1C74.7813 1 74 1.78006 74 2.74231C74 3.70456 74.7813 4.48462 75.7452 4.48462Z" fill="white"/>
<path d="M58.7452 17.4846C59.709 17.4846 60.4904 16.7046 60.4904 15.7423C60.4904 14.7801 59.709 14 58.7452 14C57.7813 14 57 14.7801 57 15.7423C57 16.7046 57.7813 17.4846 58.7452 17.4846Z" fill="white"/>
<path d="M1.74519 51.4846C2.70903 51.4846 3.49038 50.7046 3.49038 49.7423C3.49038 48.7801 2.70903 48 1.74519 48C0.781349 48 0 48.7801 0 49.7423C0 50.7046 0.781349 51.4846 1.74519 51.4846Z" fill="white"/>
</svg>
