<svg width="98" height="44" viewBox="0 0 98 44" fill="none" xmlns="http://www.w3.org/2000/svg">
<path d="M83.2406 37.5425H82.9905C82.2249 36.9677 81.3684 36.529 80.4576 36.2447C79.8453 36.0377 79.218 35.8789 78.5814 35.7698C78.1387 35.6652 77.6894 35.5912 77.2368 35.5482C76.7683 35.5167 76.2981 35.5167 75.8296 35.5482C75.1278 35.563 74.4278 35.6264 73.7346 35.7382C72.4462 35.9425 71.1996 36.3596 70.0447 36.9727C69.5131 37.2576 69.0127 37.6375 68.4812 37.9857C67.6583 38.5759 66.9305 39.2913 66.3235 40.1065C65.917 40.6447 65.5731 41.2144 65.1666 41.8158C65.0054 41.6209 64.8276 41.4409 64.635 41.2777C63.7577 40.4417 62.6797 39.8526 61.508 39.5685C60.8303 39.3755 60.1409 39.2274 59.4442 39.1252C58.904 39.0622 58.3583 39.0622 57.8181 39.1252C56.9032 39.107 55.9895 39.2027 55.0976 39.4102C54.5973 39.4102 54.0658 39.6318 53.5654 39.7584C52.5192 40.0456 51.5189 40.4825 50.5947 41.0561C49.8443 41.5626 49.0938 42.0691 48.4059 42.6389C47.718 43.2087 47.3739 43.5568 46.8736 44L46.4672 43.3986C46.0035 42.6695 45.3968 42.0447 44.6848 41.5627C44.1408 41.1765 43.5654 40.8376 42.9649 40.5497C42.3759 40.3123 41.7696 40.1218 41.1513 39.98L39.7754 39.6633C39.3075 39.6161 38.8361 39.6161 38.3682 39.6633C37.7286 39.6795 37.0912 39.743 36.4608 39.8532C35.9665 39.8937 35.4755 39.9677 34.9911 40.0748C34.4394 40.2102 33.8965 40.3794 33.3651 40.5814C32.3311 40.9356 31.3519 41.4364 30.4569 42.0691C29.8315 42.5123 29.2687 43.0505 28.6746 43.5253C28.2681 42.8922 27.8928 42.259 27.4863 41.6576C26.8148 40.6976 25.9245 39.9159 24.8909 39.3785L23.2023 38.5555C22.7958 38.5555 22.358 38.3655 21.9515 38.2705C21.5404 38.166 21.1224 38.0919 20.7007 38.0489C20.107 38.0172 19.5121 38.0172 18.9184 38.0489C18.4352 38.079 17.9545 38.1424 17.4799 38.2388L15.635 38.682C15.0606 38.86 14.4967 39.0715 13.9464 39.3152L10.8194 40.8345H10.6631C10.4019 38.2288 9.1353 35.8328 7.13861 34.1672C5.14192 32.5016 2.57652 31.701 0 31.9395C1.34913 31.0938 2.49347 29.9523 3.34858 28.599C4.20369 27.2458 4.74781 25.7154 4.9407 24.1209C5.14595 22.513 4.96924 20.8786 4.42539 19.3536C3.88155 17.8286 2.98625 16.4569 1.81371 15.3525H3.03319C3.61288 15.3852 4.19391 15.3211 4.753 15.1626L6.03508 14.8461C6.52775 14.7052 7.00878 14.5251 7.47356 14.3078C8.16603 13.9997 8.83491 13.64 9.47479 13.2317C10.4098 12.6551 11.271 11.9639 12.0389 11.174C12.7161 10.5007 13.2952 9.73342 13.7588 8.89498C14.0411 8.27541 14.2917 7.64135 14.5093 6.99558C14.5093 6.99558 14.5093 6.67912 14.6656 6.48919L14.947 6.67911C15.3813 6.96639 15.8301 7.23054 16.2916 7.47048C16.7499 7.67738 17.2198 7.85701 17.6988 8.00855L19.106 8.42008H20.2942C20.6688 8.45121 21.0453 8.45121 21.4199 8.42008C21.9198 8.45168 22.4211 8.45168 22.9209 8.42008C23.5524 8.3717 24.1794 8.27659 24.797 8.1353C26.0181 7.87103 27.1898 7.41158 28.2681 6.77417C28.9861 6.38017 29.6487 5.89036 30.2381 5.31798C30.8026 4.73616 31.335 4.12318 31.8328 3.48195C32.0829 3.1654 32.2706 2.754 32.5207 2.40579C33.021 2.78565 33.4901 3.19712 33.9904 3.54532C34.617 4.01084 35.3294 4.3445 36.0855 4.52661C36.7422 4.71654 37.4301 4.8432 38.1181 4.96982C38.806 5.09644 39.1813 4.96982 39.7129 4.96982H41.1513L42.6523 4.74821L43.8092 4.52661L45.3414 4.08339C46.3268 3.74816 47.263 3.27964 48.1245 2.69058C49.3234 1.99884 50.3839 1.08635 51.2515 0C51.5955 0.443167 51.8768 0.94962 52.2521 1.36113C53.1107 2.31246 54.1833 3.03995 55.379 3.48195C55.8825 3.71832 56.4058 3.90897 56.9425 4.05171C57.5211 4.16951 58.1057 4.25411 58.6937 4.305C59.3703 4.3531 60.0496 4.3531 60.7263 4.305C61.4315 4.27241 62.1325 4.17699 62.8213 4.02002C63.5199 3.8854 64.2092 3.70571 64.8851 3.48195C65.8415 3.13776 66.7546 2.68093 67.6056 2.12081L69.7945 0.474705C69.7862 0.590621 69.7862 0.70714 69.7945 0.823055C70.3651 1.98881 71.1772 3.01633 72.1755 3.83571C73.1738 4.65509 74.3348 5.24708 75.5795 5.57127C76.2159 5.77651 76.8818 5.87268 77.5495 5.85605C77.8935 5.85605 78.2374 5.85605 78.5501 5.85605C79.0954 5.82584 79.6384 5.76243 80.1762 5.66613C80.7675 5.60959 81.3532 5.5038 81.9273 5.34966C83.0115 5.08523 84.0611 4.69211 85.0543 4.17845L87.462 2.97556C87.462 3.35541 87.6184 3.76691 87.7123 4.14677C87.8854 5.09667 88.2241 6.00771 88.7128 6.83734C89.0517 7.4207 89.4278 7.9812 89.8386 8.51514C90.3817 9.18285 91.0254 9.75965 91.746 10.2244C92.4619 10.6821 93.228 11.0539 94.0287 11.3323C94.5373 11.5072 95.0607 11.6345 95.5922 11.7123L98 11.9654C96.6752 12.8065 95.5526 13.9365 94.7141 15.2727C93.8756 16.6089 93.3424 18.1178 93.1532 19.6892C92.9297 21.2672 93.0796 22.8765 93.5906 24.3844C94.1017 25.8924 94.9592 27.2557 96.0926 28.3625H95.0606C94.2244 28.4042 93.3957 28.5422 92.5904 28.7741C91.9962 28.964 91.3708 29.1222 90.808 29.3438C89.8019 29.7577 88.8469 30.2889 87.9624 30.9266C86.9771 31.6084 86.0836 32.4171 85.3044 33.3324C84.7566 33.9693 84.3036 34.6839 83.9598 35.4534C83.7722 35.9282 83.5845 36.4345 83.4282 36.9094C83.3248 37.1057 83.261 37.321 83.2406 37.5425Z" fill="#E72171"/>
<path d="M23.9526 19.4573L22.7331 21.2084C22.2327 21.9276 21.7325 22.6782 21.2635 23.4599C20.7944 24.2417 20.2003 25.2109 19.7 26.0865C19.1997 26.9621 19.012 27.4623 18.668 28.1815C18.668 28.3379 18.4804 28.4317 18.2928 28.4004C17.7789 28.338 17.2747 28.2119 16.7918 28.0252C16.4114 27.8124 16.1222 27.4675 15.9788 27.0559C15.9487 26.8066 15.9487 26.5547 15.9788 26.3054C15.9632 26.0868 15.9632 25.8673 15.9788 25.6487L16.1665 24.0228C16.1665 23.4912 16.3228 22.9596 16.4166 22.428C16.5104 21.8964 16.6355 21.271 16.7293 20.6769C16.7579 20.5113 16.7579 20.342 16.7293 20.1764L16.4166 20.9582L15.3847 23.6162C15.1033 24.3667 14.8531 25.1484 14.603 25.8989C14.3528 26.6494 14.0714 27.5562 13.8212 28.4004C13.8212 28.4004 13.6649 28.4004 13.6336 28.4004L12.1639 28.1815C11.9947 28.1252 11.8384 28.0358 11.7041 27.9185C11.5699 27.8012 11.4602 27.6585 11.3817 27.4985C11.3031 27.3384 11.2572 27.1644 11.2466 26.9864C11.2359 26.8084 11.2607 26.63 11.3196 26.4617C11.3196 25.9927 11.5072 25.4612 11.6636 25.0234C12.1952 23.6788 12.6954 22.3655 13.2583 21.0834C13.8211 19.8013 14.4466 18.6442 15.072 17.4247C15.2304 17.0916 15.4079 16.7679 15.6035 16.4553C15.7048 16.3261 15.849 16.2375 16.01 16.2053C16.4779 16.1585 16.9494 16.1585 17.4172 16.2053C17.8429 16.2143 18.2646 16.2881 18.668 16.4242C18.909 16.5706 19.1004 16.7859 19.2175 17.0424C19.3346 17.2989 19.3719 17.5845 19.3247 17.8625V18.9258L19.137 20.6456C19.137 20.6456 19.137 20.802 19.137 20.8958L18.9494 22.4904C18.9341 22.615 18.9341 22.7412 18.9494 22.8658L19.4498 22.0527L21.795 18.5505C22.3579 17.7375 22.952 16.987 23.5148 16.174C23.6472 16.0252 23.8118 15.9084 23.996 15.8325C24.1802 15.7567 24.3793 15.7237 24.5781 15.7362C25.2709 15.6114 25.9803 15.6114 26.6731 15.7362L27.8614 16.0488C28.1115 16.0488 28.1741 16.2052 28.049 16.5179C27.5174 17.8 27.0171 19.082 26.5168 20.3953C26.2354 21.0833 25.9852 21.8338 25.7351 22.553L24.7657 25.3674C24.5155 26.1491 24.3279 26.9622 24.0777 27.7439C24.0777 27.7439 24.0777 28.0878 23.765 28.0565C23.1647 28.0527 22.5743 27.9024 22.0452 27.6187C21.8793 27.505 21.7459 27.3502 21.6582 27.1692C21.5704 26.9883 21.5314 26.7876 21.5449 26.5869C21.5539 25.7898 21.7241 25.0025 22.0452 24.2728C22.3579 23.4598 22.6393 22.6156 22.952 21.8338C23.2647 21.0521 23.7024 20.2077 24.109 19.426L23.9526 19.4573Z" fill="white"/>
<path d="M53.0651 26.7122C53.4091 26.7122 53.6905 27.0562 53.9719 27.15C54.4936 27.3319 55.0467 27.4064 55.5979 27.3689H55.942C55.942 27.3689 56.1296 27.5251 55.942 27.5876C55.7763 28.3549 55.3968 29.0596 54.8475 29.6203C54.5184 29.9616 54.0705 30.1632 53.5967 30.1831C53.2715 30.1818 52.9508 30.1069 52.6586 29.9642C51.72 29.5141 50.9917 28.7187 50.626 27.7441C50.5978 27.6617 50.5419 27.5917 50.4677 27.546C50.3935 27.5004 50.3058 27.482 50.2195 27.4939C49.577 27.4944 48.9429 27.3481 48.3655 27.0664C47.7881 26.7847 47.2826 26.3749 46.8875 25.8682C46.4925 25.3616 46.2183 24.7715 46.0858 24.1429C45.9534 23.5142 45.9661 22.8636 46.1232 22.2406C46.1232 21.8654 46.1232 21.4589 46.3421 21.1149C46.8329 19.289 47.8175 17.6335 49.1876 16.3305C49.9537 15.6496 50.8616 15.1477 51.8456 14.8609C52.609 14.7042 53.3962 14.7042 54.1596 14.8609C54.5509 14.9164 54.9272 15.0501 55.2657 15.2543C55.6042 15.4585 55.898 15.7287 56.1296 16.049C56.4676 16.5293 56.6983 17.0766 56.8063 17.6539C56.9142 18.2312 56.8966 18.825 56.7549 19.3949C56.7549 19.7076 56.7549 20.0205 56.7549 20.3332C56.7549 20.6459 56.5361 21.1149 56.411 21.4901C56.298 21.9281 56.1516 22.3566 55.9732 22.7721C55.6374 23.517 55.2509 24.2379 54.8162 24.9298C54.5059 25.3919 54.1497 25.8213 53.753 26.2118C53.5328 26.3907 53.3032 26.5578 53.0651 26.7122ZM53.9093 16.2366L53.0338 16.7684C52.0864 17.4924 51.3164 18.4228 50.7823 19.4888C50.2056 20.5677 49.7945 21.7272 49.5629 22.9284C49.4058 23.8285 49.4058 24.7489 49.5629 25.6489C49.5629 25.9616 49.7192 26.0554 50.0319 26.0554H50.3133C50.5947 26.0554 50.5948 26.0555 50.5635 25.7741C50.533 25.5458 50.533 25.3144 50.5635 25.0861C50.5736 24.4792 50.6791 23.8777 50.8761 23.3037C50.9638 23.0543 51.1303 22.8401 51.3502 22.6935C51.5702 22.5469 51.8318 22.4757 52.0957 22.4906C52.2833 22.4906 52.3458 22.4907 52.3458 22.7721C52.3458 23.0536 52.3458 23.3975 52.3458 23.7102V24.3043V24.6171C53.5569 21.9975 54.0944 19.1167 53.9093 16.2366Z" fill="white"/>
<path d="M87.1181 15.8304C86.9664 15.3316 86.6923 14.8787 86.321 14.5128C85.9496 14.1468 85.4926 13.8795 84.9916 13.7352C84.6613 13.6703 84.3215 13.6703 83.9911 13.7352C83.6784 13.7352 83.3656 13.7352 83.0529 13.7352C82.7402 13.7352 82.021 14.3607 81.3956 14.2356C80.6569 14.4396 79.9871 14.8393 79.4569 15.3926C78.5776 16.3016 77.868 17.3606 77.3618 18.5196C76.9743 19.396 76.7112 20.3222 76.58 21.2714C76.4626 21.8809 76.483 22.5089 76.64 23.1095C76.7969 23.7101 77.0863 24.2681 77.4869 24.7423C77.8762 25.2544 78.3842 25.6643 78.9671 25.9367C79.5499 26.209 80.1901 26.3357 80.8328 26.3058C81.7462 26.3392 82.6424 26.0515 83.3656 25.4927C83.6783 25.2738 83.8972 24.9924 84.2099 24.7423C84.7637 24.3052 85.2125 23.7495 85.5233 23.1162C85.9532 22.3035 86.3394 21.4685 86.6803 20.6146C86.8735 20.0627 87.0302 19.4987 87.1493 18.9261C87.1493 18.6447 87.1493 18.3319 87.1493 18.0505C87.3298 17.32 87.3191 16.5555 87.1181 15.8304ZM83.9911 18.9574C83.7153 20.0416 83.3166 21.0907 82.8028 22.0844C82.4176 22.9792 81.8286 23.7715 81.0829 24.3984C80.812 24.6303 80.47 24.7627 80.1135 24.7736C79.9974 24.7736 79.8861 24.7274 79.804 24.6453C79.7219 24.5632 79.6758 24.4519 79.6758 24.3358C79.6758 24.0231 79.6758 23.7104 79.6758 23.3977C79.6758 23.085 79.6758 22.8661 79.6758 22.5847C79.7123 21.7148 79.8594 20.8532 80.1135 20.0205C80.1135 19.5827 80.3324 19.1763 80.4888 18.7072L81.1767 19.2074C81.5207 19.2074 81.5833 19.2075 81.7396 19.0198C81.896 18.8322 82.2087 17.8629 82.5214 17.3C82.7433 16.8239 83.0159 16.3732 83.3343 15.9554C83.5579 15.6903 83.7981 15.4396 84.0536 15.205L84.3975 14.9861C84.3975 15.4239 84.3975 15.7991 84.3975 16.1744C84.3621 17.1082 84.2044 18.0333 83.9285 18.9261L83.9911 18.9574Z" fill="white"/>
<path d="M38.994 23.7415C38.994 24.2105 38.7125 24.6483 38.5874 25.0861L37.9308 27.275C37.9308 27.7441 37.9308 27.744 37.3054 27.6502C36.9154 27.6182 36.5285 27.5555 36.1484 27.4626C35.9019 27.374 35.6916 27.2062 35.5502 26.9857C35.4089 26.7651 35.3443 26.5041 35.3666 26.243C35.3768 25.3218 35.5904 24.4143 35.9921 23.5852C36.3986 22.4907 36.8363 21.4275 37.3054 20.4582C37.5242 19.8953 37.8369 19.3636 38.0871 18.8008C38.1181 18.7095 38.1181 18.6107 38.0871 18.5195C38.0871 17.9566 37.7119 17.3625 37.5243 16.7996C37.3367 16.2368 37.5243 16.3931 37.5243 16.1742C37.5243 15.9553 37.5243 15.7364 37.8683 15.7051H39.4318L41.1829 15.5175C41.7239 15.4704 42.2679 15.4704 42.8089 15.5175C43.2194 15.5305 43.6196 15.6498 43.9704 15.8635C44.3211 16.0772 44.6105 16.3782 44.8102 16.737C45.0345 17.1732 45.2328 17.6222 45.4043 18.0816L45.6232 18.3318C45.7837 18.4801 45.9133 18.6587 46.0045 18.8573C46.0957 19.0558 46.1469 19.2704 46.1548 19.4888C46.1679 20.0855 46.0099 20.6733 45.6996 21.1831C45.3893 21.6928 44.9397 22.1032 44.4037 22.3656C43.6219 22.8397 42.7656 23.1781 41.8708 23.3663L41.2767 23.5539C41.5226 23.7425 41.7842 23.9098 42.0585 24.0541L44.2161 24.8985H44.5913C44.8415 24.8985 44.904 25.1174 44.8414 25.3363C44.6315 26.1781 44.1475 26.9262 43.4655 27.4626C43.2895 27.6191 43.0728 27.7226 42.8405 27.7613C42.6081 27.8 42.3696 27.7724 42.1523 27.6815C41.4909 27.4024 40.9102 26.9614 40.4637 26.3994C39.9326 25.7697 39.5195 25.0494 39.2442 24.273L38.994 23.7415ZM43.5906 17.9566H42.9965L41.6206 18.2066C41.3079 18.2066 40.964 18.2068 40.8389 18.7071C40.5262 19.6452 40.151 20.552 39.807 21.4901C39.7479 21.693 39.6747 21.8915 39.5881 22.0843C40.2135 21.7403 40.7764 21.3963 41.3392 21.021C42.0263 20.5635 42.6205 19.9799 43.0903 19.3012C43.4229 18.9335 43.6019 18.4523 43.5906 17.9566Z" fill="white"/>
<path d="M60.6012 14.7671L62.4774 15.1423C62.4774 15.1423 62.7588 15.1423 62.665 15.5175C62.2272 16.7371 61.7581 17.9566 61.3516 19.2074C60.9451 20.4582 60.7263 21.1461 60.4448 22.1467C60.2702 22.7277 60.1549 23.3249 60.1008 23.9291C60.0696 24.3768 60.0696 24.8261 60.1008 25.2737C60.0977 25.3162 60.1054 25.3588 60.1233 25.3974C60.1413 25.4361 60.1687 25.4695 60.2031 25.4946C60.2376 25.5196 60.2779 25.5356 60.3202 25.5407C60.3625 25.5459 60.4054 25.54 60.4448 25.5239C60.7612 25.4184 61.0573 25.2597 61.3204 25.0548C61.8023 24.553 62.1749 23.9568 62.4148 23.3037C62.7587 22.3969 63.134 21.4901 63.4467 20.5832C63.7594 19.6764 64.1347 18.5507 64.4474 17.4562L65.1978 15.2362C65.1978 15.0486 65.1978 14.8608 65.3541 14.6732C65.3695 14.5875 65.4168 14.5109 65.4864 14.4587C65.556 14.4064 65.6428 14.3826 65.7294 14.3919H67.1679H67.7307C68.0747 14.3919 68.1059 14.7359 67.9808 15.2049C67.8557 15.674 67.7933 16.1117 67.6682 16.5808C67.5431 17.0498 67.4492 17.5501 67.3242 18.0504L67.0428 19.1761L66.6675 20.3956C66.5112 20.9272 66.3548 21.4275 66.1672 21.9278C65.9796 22.4281 65.7919 23.085 65.5418 23.6478C65.135 24.6254 64.4636 25.4699 63.603 26.0868C63.0593 26.458 62.4398 26.7036 61.7894 26.8059C61.3529 26.852 60.9126 26.852 60.476 26.8059C60.2183 26.762 59.9665 26.6887 59.7256 26.5872C59.0119 26.3325 58.3614 25.9272 57.8181 25.3989C57.459 25.0161 57.202 24.549 57.0709 24.0408C56.9397 23.5326 56.9386 22.9994 57.0676 22.4907C57.2491 21.6341 57.4788 20.7885 57.7556 19.9578C58.1621 18.8321 58.6311 17.7376 59.1315 16.6432C59.6318 15.5487 59.7256 15.3298 60.0695 14.6732C60.1633 14.8608 60.4135 14.8296 60.6012 14.7671Z" fill="white"/>
<path d="M71.8282 19.2698L72.3286 19.1135C72.7351 19.1135 73.1416 18.8945 73.5793 18.832C73.8801 18.7964 74.185 18.8285 74.4717 18.9259C74.7584 19.0232 75.0198 19.1834 75.2366 19.3948C75.5718 19.6617 75.8855 19.9545 76.1748 20.2704C76.3312 20.2704 76.1748 20.5518 76.1748 20.6144C75.3663 21.0168 74.5303 21.3617 73.6731 21.6463C73.2922 21.7753 72.8842 21.8027 72.4894 21.7259C72.0945 21.6491 71.7266 21.4708 71.4217 21.2085L70.421 24.0853H70.6088H71.2341C71.7647 24.0386 72.2983 24.0386 72.8289 24.0853C73.5085 24.0655 74.1733 24.2871 74.7051 24.7107L75.4869 25.3675C75.737 25.5863 75.6745 25.6802 75.4869 25.8053L74.4237 26.3055L72.7038 26.8371C72.2261 27.006 71.7343 27.1315 71.2341 27.2123C70.8946 27.291 70.5417 27.291 70.2022 27.2123C69.7016 27.0623 69.236 26.8135 68.8332 26.4805C68.4304 26.1475 68.0984 25.7371 67.857 25.2736C67.7345 25.0145 67.6709 24.7314 67.6709 24.4449C67.6709 24.1583 67.7345 23.8754 67.857 23.6164C68.0759 22.9597 68.2634 22.2717 68.4823 21.5837C68.7012 20.8958 68.8576 20.5832 69.0765 20.0828C69.2954 19.5825 69.7332 18.5818 70.1084 17.8313C70.4837 17.0808 70.984 16.1427 71.3592 15.2671C71.4323 15.1256 71.5453 15.0087 71.6843 14.9308C71.8233 14.853 71.9821 14.8179 72.141 14.8295C72.5629 14.7342 72.9915 14.6715 73.423 14.6419C74.1827 14.5797 74.946 14.5797 75.7057 14.6419C76.0939 14.6806 76.469 14.8044 76.8041 15.0043C77.1391 15.2043 77.4261 15.4755 77.6445 15.7989L77.9571 16.2365C78.176 16.5805 77.9571 16.7681 77.6757 16.8619L75.9872 17.2372C75.5352 17.3535 75.0753 17.4371 74.6113 17.4874H74.0797H73.3917C73.2994 17.4934 73.2118 17.5308 73.1436 17.5933C73.0754 17.6558 73.0305 17.7398 73.0165 17.8313C72.936 18.0557 72.8421 18.275 72.7351 18.488L72.3599 19.3635L71.8282 19.2698Z" fill="white"/>
<path d="M29.3315 25.3363H30.2383H30.9263H31.7705C32.5953 25.3893 33.3778 25.7199 33.9907 26.2744L34.4597 26.6809C34.4597 26.6809 34.616 26.9623 34.4597 27.0248L32.0206 27.9942C31.6141 27.9942 31.1764 28.2131 30.7699 28.3694C30.2378 28.5512 29.6665 28.5863 29.1162 28.4708C28.5659 28.3552 28.0569 28.0934 27.6429 27.7129C27.1876 27.3465 26.8147 26.8884 26.5484 26.3683C26.3927 25.8801 26.3927 25.3554 26.5484 24.8672C26.8815 23.5092 27.3531 22.1889 27.9556 20.9272C28.5497 19.5825 29.2064 18.238 29.8318 16.8934C29.8955 16.8065 29.948 16.7121 29.9881 16.6121C30.0535 16.4339 30.1732 16.2807 30.3303 16.1741C30.4874 16.0675 30.6739 16.0129 30.8637 16.0179L32.4585 15.799H33.9595C34.4805 15.7857 34.9951 15.9157 35.4473 16.1748C35.8994 16.434 36.2717 16.8123 36.5235 17.2686C36.8988 17.8315 36.8675 17.8315 36.2421 18.0504L34.9288 18.3319C34.5223 18.3319 34.1157 18.5507 33.6779 18.6132C33.2259 18.7295 32.7662 18.8132 32.3022 18.8634C31.9895 18.8634 31.7705 18.8633 31.6767 19.3637L31.0201 21.0211L32.1457 20.7084C32.5536 20.5733 32.9894 20.5454 33.4111 20.6275C33.8328 20.7097 34.2263 20.899 34.5536 21.1774L35.3978 21.9904C35.3978 21.9904 35.3978 22.2406 35.3978 22.3656L33.5216 23.1787C33.1386 23.3592 32.7248 23.4652 32.3022 23.4913C31.7358 23.5337 31.1752 23.3544 30.7387 22.9911C30.7387 22.9911 30.7386 22.9911 30.5509 22.9911C30.3633 22.9911 30.3946 22.9911 30.3633 22.9911C30.1444 23.5539 29.9568 24.1481 29.7692 24.7422L29.3315 25.3363Z" fill="white"/>
</svg>
