<svg width="132" height="90" viewBox="0 0 132 90" fill="none" xmlns="http://www.w3.org/2000/svg">
<path d="M5.23558 61.562C2.34856 61.562 0 63.9067 0 66.7889C0 69.6709 2.34856 72.0158 5.23558 72.0158C8.12259 72.0158 10.4712 69.6709 10.4712 66.7889C10.4712 63.9067 8.12259 61.562 5.23558 61.562ZM5.23558 69.6928C3.63186 69.6928 2.32692 68.39 2.32692 66.7889C2.32692 65.1876 3.63186 63.8851 5.23558 63.8851C6.83952 63.8851 8.14423 65.1876 8.14423 66.7889C8.14423 68.3902 6.83929 69.6928 5.23558 69.6928Z" fill="white"/>
<path d="M114.981 11C110.49 11 106.837 14.6477 106.837 19.131C106.837 23.6143 110.49 27.2618 114.981 27.2618C119.472 27.2618 123.125 23.6143 123.125 19.131C123.125 14.6477 119.472 11 114.981 11ZM114.981 24.9387C111.773 24.9387 109.163 22.3334 109.163 19.131C109.163 15.9286 111.773 13.3233 114.981 13.3233C118.188 13.3233 120.798 15.9286 120.798 19.131C120.798 22.3334 118.188 24.9387 114.981 24.9387Z" fill="white"/>
<path d="M35.4854 3.48461C36.4493 3.48461 37.2306 2.70455 37.2306 1.7423C37.2306 0.780056 36.4493 0 35.4854 0C34.5216 0 33.7402 0.780056 33.7402 1.7423C33.7402 2.70455 34.5216 3.48461 35.4854 3.48461Z" fill="white"/>
<path d="M96.9863 6.00049C97.9501 6.00049 98.7315 5.22043 98.7315 4.25818C98.7315 3.29593 97.9501 2.51587 96.9863 2.51587C96.0224 2.51587 95.2411 3.29593 95.2411 4.25818C95.2411 5.22043 96.0224 6.00049 96.9863 6.00049Z" fill="white"/>
<path d="M129.986 56.0005C130.95 56.0005 131.731 55.2204 131.731 54.2582C131.731 53.2959 130.95 52.5159 129.986 52.5159C129.022 52.5159 128.241 53.2959 128.241 54.2582C128.241 55.2204 129.022 56.0005 129.986 56.0005Z" fill="white"/>
<path d="M34.322 81.3076C35.2858 81.3076 36.0672 80.5276 36.0672 79.5653C36.0672 78.6031 35.2858 77.823 34.322 77.823C33.3581 77.823 32.5768 78.6031 32.5768 79.5653C32.5768 80.5276 33.3581 81.3076 34.322 81.3076Z" fill="white"/>
<path d="M1.74519 49.946C2.70903 49.946 3.49038 49.166 3.49038 48.2037C3.49038 47.2415 2.70903 46.4614 1.74519 46.4614C0.781349 46.4614 0 47.2415 0 48.2037C0 49.166 0.781349 49.946 1.74519 49.946Z" fill="white"/>
<path d="M38.4462 34.0578C36.748 33.6545 35.0387 34.7077 34.6354 36.4056L30.0293 55.8006C29.6261 57.4985 30.6794 59.2078 32.3775 59.6112C34.0757 60.0145 35.7851 58.9612 36.1883 57.2633L40.7945 37.8683C41.1977 36.1704 40.1444 34.4611 38.4462 34.0578ZM34.809 56.9358C34.5864 57.8733 33.6426 58.4545 32.7051 58.2319C31.7676 58.0092 31.186 57.0657 31.4086 56.1282L36.0147 36.7332C36.2374 35.7957 37.1812 35.2144 38.1186 35.4371C39.0561 35.6597 39.6378 36.6032 39.4152 37.5407L34.809 56.9358Z" fill="white"/>
<path d="M47.3089 36.1627C45.6107 35.7594 43.9013 36.8127 43.4981 38.5106L38.892 57.9056C38.4888 59.6035 39.542 61.3128 41.2402 61.7161C42.9384 62.1194 44.6478 61.0662 45.051 59.3683L49.6571 39.9733C50.0603 38.2754 49.0071 36.5661 47.3089 36.1627ZM43.6717 59.0407C43.4491 59.9782 42.5053 60.5595 41.5678 60.3368C40.6303 60.1142 40.0486 59.1707 40.2713 58.2332L44.8774 38.8381C45.1 37.9006 46.0438 37.3194 46.9813 37.542C47.9188 37.7647 48.5005 38.7082 48.2778 39.6457L43.6717 59.0407Z" fill="white"/>
<path d="M56.1717 38.2675C54.4735 37.8642 52.7641 38.9175 52.3609 40.6153L47.7548 60.0103C47.3515 61.7082 48.4048 63.4176 50.103 63.8209C51.8012 64.2242 53.5106 63.1709 53.9138 61.473L58.5199 42.078C58.9231 40.3802 57.8699 38.6708 56.1717 38.2675ZM52.5345 61.1455C52.3119 62.083 51.3681 62.6642 50.4306 62.4416C49.4931 62.2189 48.9114 61.2754 49.1341 60.3379L53.7402 40.9429C53.9628 40.0054 54.9066 39.4241 55.8441 39.6468C56.7816 39.8694 57.3633 40.813 57.1406 41.7504L52.5345 61.1455Z" fill="white"/>
<path d="M67.031 35.4898C67.9459 34.7978 68.4997 33.7333 68.5495 32.5691C68.5497 32.5684 68.5497 32.5684 68.5497 32.5684C68.6078 31.2155 67.8899 29.8824 66.7195 29.1726C66.3439 28.9461 65.9438 28.7778 65.525 28.699C65.7718 28.0433 65.8814 27.3422 65.845 26.6263C65.748 24.7264 64.578 23.0071 62.8643 22.2451C61.3721 21.5812 59.7183 21.6602 58.3357 22.4176C57.5445 20.0511 55.5839 18.2273 53.1102 17.6398C50.8294 17.0982 48.4791 17.6734 46.7116 19.1796C45.223 18.2953 43.2837 18.305 41.7948 19.1744C41.1439 18.2094 40.1763 17.5037 39.0464 17.1898C37.7843 16.8346 36.4461 17.002 35.2988 17.6523C34.1842 18.2848 33.3723 19.3036 33.0038 20.5287C31.3494 20.7484 29.9491 21.9412 29.493 23.5846C29.1721 24.7413 29.3029 25.8994 29.8616 26.8453C30.3078 27.6007 30.9963 28.1566 31.8593 28.4979L30.8477 32.7577L27.1937 31.8899C23.6882 31.0574 20.1311 33.3481 19.2647 36.9963L16.6006 48.2139C15.7343 51.8615 17.8817 55.5069 21.3872 56.3394L25.0412 57.2072L24.0526 61.3699C22.9873 61.4227 22.0359 62.1593 21.7773 63.248L21.1692 65.8086C20.8557 67.1286 21.6745 68.4579 22.9945 68.7714L54.3638 76.2212C55.6838 76.5347 57.0128 75.7156 57.3263 74.3955L57.9344 71.8349C58.1928 70.7469 57.6749 69.6618 56.7481 69.1353L64.5571 36.2542C65.4383 36.2952 66.3116 36.0335 67.031 35.4898ZM30.8593 23.9638C31.1962 22.749 32.3105 21.9037 33.5688 21.9094C33.9127 21.9114 34.2083 21.6657 34.2695 21.3273C34.2884 21.2223 34.3105 21.1172 34.3396 21.0125C34.5915 20.1047 35.1806 19.3496 35.9984 18.8856C36.7762 18.4443 37.6723 18.317 38.5361 18.5221C38.5798 18.5325 38.6235 18.5436 38.6672 18.5554C39.6623 18.8323 40.4814 19.5398 40.915 20.4973C41.0067 20.6998 41.1756 20.8558 41.405 20.8968C41.6221 20.9455 41.8495 20.8899 42.0192 20.746C42.8662 20.0272 43.9676 19.7616 45.0412 20.0165C45.5156 20.1292 45.9548 20.3395 46.3462 20.6417C46.6272 20.8606 47.0275 20.8347 47.2802 20.5824C48.7346 19.1306 50.7918 18.5463 52.7826 19.0191C55.0567 19.5592 56.7923 21.3972 57.2041 23.7012C57.2489 23.9516 57.4245 24.1591 57.6642 24.2445C57.9036 24.3298 58.1714 24.2796 58.364 24.114C59.4603 23.1706 60.9642 22.9543 62.2882 23.5398C63.5189 24.0875 64.3592 25.3272 64.4291 26.6985C64.4709 27.5159 64.2626 28.2747 63.8102 28.9527C63.6574 29.1825 63.6514 29.4792 63.7947 29.7145C63.9377 29.9498 64.2051 30.0788 64.4783 30.0505C65.013 29.9904 65.5201 30.1037 65.9846 30.3855C66.7189 30.8302 67.1695 31.6636 67.1333 32.5081L67.1334 32.5074C67.101 33.2596 66.761 33.9166 66.1761 34.359C65.603 34.792 64.8749 34.9457 64.1785 34.7803L32.8622 27.343C32.0553 27.1514 31.44 26.7299 31.0823 26.1242C30.7212 25.5133 30.6419 24.746 30.8593 23.9638ZM25.4568 61.5925L33.2242 28.8861L63.1613 35.9958L55.3939 68.7023L25.4568 61.5925ZM21.7147 54.9601C18.9696 54.3082 17.2942 51.4287 17.9799 48.5415L20.644 37.3239C21.3298 34.436 24.121 32.6173 26.8661 33.2692L30.5201 34.137L25.3687 55.8279L21.7147 54.9601ZM56.5551 71.5074L55.947 74.0679C55.8141 74.6276 55.2507 74.9748 54.6914 74.8419L23.3221 67.3921C22.7628 67.2592 22.4156 66.6958 22.5485 66.1362L23.1566 63.5756C23.2896 63.0159 23.853 62.6688 24.4123 62.8016L55.7816 70.2515C56.3409 70.3843 56.688 70.9477 56.5551 71.5074Z" fill="white"/>
<path d="M93.5417 45.9933C95.2399 45.59 96.9493 46.6433 97.3525 48.3411L101.959 67.7362C102.362 69.434 101.309 71.1434 99.6104 71.5467C97.9122 71.95 96.2028 70.8967 95.7996 69.1989L91.1935 49.8038C90.7902 48.106 91.8435 46.3966 93.5417 45.9933ZM97.1789 68.8713C97.4015 69.8088 98.3453 70.39 99.2828 70.1674C100.22 69.9448 100.802 69.0012 100.579 68.0637L95.9732 48.6687C95.7505 47.7312 94.8068 47.15 93.8693 47.3726C92.9318 47.5953 92.3501 48.5388 92.5728 49.4763L97.1789 68.8713Z" fill="white"/>
<path d="M84.679 48.0983C86.3772 47.695 88.0866 48.7483 88.4898 50.4461L93.0959 69.8412C93.4992 71.539 92.4459 73.2484 90.7477 73.6517C89.0495 74.055 87.3401 73.0017 86.9369 71.3039L82.3308 51.9088C81.9276 50.211 82.9808 48.5016 84.679 48.0983ZM88.3162 70.9763C88.5389 71.9138 89.4826 72.495 90.4201 72.2724C91.3576 72.0497 91.9393 71.1062 91.7166 70.1687L87.1105 50.7737C86.8879 49.8362 85.9441 49.2549 85.0066 49.4776C84.0691 49.7002 83.4874 50.6438 83.7101 51.5813L88.3162 70.9763Z" fill="white"/>
<path d="M75.8162 50.203C77.5144 49.7997 79.2238 50.853 79.627 52.5509L84.2331 71.9459C84.6364 73.6437 83.5831 75.3531 81.8849 75.7564C80.1867 76.1597 78.4773 75.1064 78.0741 73.4086L73.468 54.0136C73.0648 52.3157 74.118 50.6063 75.8162 50.203ZM79.4534 73.081C79.6761 74.0185 80.6198 74.5998 81.5573 74.3771C82.4948 74.1545 83.0765 73.2109 82.8538 72.2735L78.2477 52.8784C78.0251 51.9409 77.0813 51.3597 76.1438 51.5823C75.2063 51.805 74.6247 52.7485 74.8473 53.686L79.4534 73.081Z" fill="white"/>
<path d="M64.9569 47.4253C64.042 46.7333 63.4883 45.6689 63.4384 44.5046C63.4382 44.504 63.4382 44.504 63.4382 44.504C63.3801 43.151 64.098 41.818 65.2685 41.1082C65.644 40.8816 66.0441 40.7134 66.4629 40.6345C66.2161 39.9788 66.1066 39.2777 66.1429 38.5619C66.2399 36.662 67.4099 34.9427 69.1236 34.1807C70.6159 33.5168 72.2696 33.5958 73.6522 34.3531C74.4434 31.9867 76.404 30.1629 78.8777 29.5754C81.1585 29.0337 83.5088 29.6089 85.2763 31.1151C86.7649 30.2308 88.7042 30.2405 90.1931 31.1099C90.844 30.145 91.8116 29.4392 92.9416 29.1253C94.2037 28.7701 95.5418 28.9375 96.6891 29.5878C97.8037 30.2203 98.6156 31.2391 98.9841 32.4643C100.639 32.6839 102.039 33.8768 102.495 35.5201C102.816 36.6769 102.685 37.8349 102.126 38.7808C101.68 39.5363 100.992 40.0921 100.129 40.4334L101.14 44.6932L104.794 43.8254C108.3 42.9929 111.857 45.2836 112.723 48.9319L115.387 60.1495C116.254 63.7971 114.106 67.4425 110.601 68.275L106.947 69.1428L107.935 73.3054C109.001 73.3583 109.952 74.0949 110.211 75.1835L110.819 77.7441C111.132 79.0642 110.313 80.3934 108.993 80.7069L77.6241 88.1568C76.3041 88.4703 74.9751 87.6511 74.6616 86.3311L74.0535 83.7705C73.7951 82.6825 74.313 81.5974 75.2398 81.0708L67.4309 48.1897C66.5496 48.2307 65.6763 47.969 64.9569 47.4253ZM101.129 35.8994C100.792 34.6845 99.6774 33.8392 98.4191 33.845C98.0752 33.8469 97.7796 33.6013 97.7185 33.2629C97.6995 33.1578 97.6774 33.0528 97.6483 32.948C97.3964 32.0402 96.8073 31.2851 95.9896 30.8212C95.2117 30.3798 94.3156 30.2526 93.4519 30.4577C93.4081 30.4681 93.3645 30.4792 93.3207 30.491C92.3256 30.7679 91.5065 31.4754 91.0729 32.4328C90.9812 32.6353 90.8123 32.7914 90.583 32.8323C90.3658 32.8811 90.1384 32.8255 89.9687 32.6815C89.1218 31.9627 88.0203 31.6971 86.9467 31.9521C86.4723 32.0648 86.0331 32.2751 85.6417 32.5772C85.3607 32.7962 84.9604 32.7703 84.7077 32.518C83.2534 31.0662 81.1961 30.4819 79.2053 30.9547C76.9313 31.4947 75.1956 33.3327 74.7838 35.6368C74.739 35.8872 74.5635 36.0947 74.3237 36.1801C74.0843 36.2654 73.8166 36.2151 73.6239 36.0496C72.5276 35.1061 71.0238 34.8898 69.6997 35.4753C68.4691 36.023 67.6287 37.2628 67.5588 38.634C67.517 39.4514 67.7253 40.2102 68.1777 40.8882C68.3305 41.118 68.3365 41.4147 68.1932 41.6501C68.0503 41.8854 67.7828 42.0144 67.5096 41.986C66.9749 41.9259 66.4678 42.0392 66.0033 42.321C65.269 42.7658 64.8184 43.5992 64.8546 44.4436L64.8545 44.443C64.8869 45.1951 65.2269 45.8522 65.8118 46.2945C66.3849 46.7276 67.113 46.8812 67.8094 46.7159L99.1258 39.2785C99.9326 39.0869 100.548 38.6655 100.906 38.0597C101.267 37.4489 101.346 36.6816 101.129 35.8994ZM106.531 73.5281L98.7637 40.8216L68.8266 47.9314L76.594 80.6378L106.531 73.5281ZM110.273 66.8957C113.018 66.2438 114.694 63.3643 114.008 60.477L111.344 49.2595C110.658 46.3715 107.867 44.5528 105.122 45.2047L101.468 46.0725L106.619 67.7635L110.273 66.8957ZM75.4328 83.4429L76.0409 86.0035C76.1738 86.5632 76.7372 86.9103 77.2966 86.7775L108.666 79.3276C109.225 79.1948 109.572 78.6314 109.439 78.0717L108.831 75.5111C108.698 74.9514 108.135 74.6043 107.576 74.7371L76.2064 82.187C75.647 82.3198 75.2999 82.8832 75.4328 83.4429Z" fill="white"/>
</svg>
