<svg width="151" height="154" viewBox="0 0 151 154" fill="none" xmlns="http://www.w3.org/2000/svg">
<path d="M151.426 146.721C151.74 129.74 152.565 85.1491 152.565 85.1491C152.652 80.4553 150.818 75.726 147.587 72.3518L82.8325 4.72784C79.6015 1.35367 75.1103 -0.662814 70.3091 -0.751629C70.3091 -0.751629 18.4554 -1.71083 5.69771 -1.94683C4.18874 -1.97474 2.79397 -0.75764 2.76332 0.898994L2.71735 3.38395L2.72246 3.10784C3.32481 0.21888 6.0454 1.51211 7.25703 2.77742L30.2805 26.6803C61.379 59.1567 92.6121 91.7737 123.711 124.25L147.153 147.746C147.694 148.171 147.819 148.864 147.946 149.418C148.062 150.525 147.221 151.476 146.254 151.873L144.038 152.937L144.998 152.954C148.428 153.018 151.362 150.172 151.426 146.721Z" fill="#DB4843"/>
</svg>
