<svg width="164" height="167" viewBox="0 0 164 167" fill="none" xmlns="http://www.w3.org/2000/svg">
<g clip-path="url(#clip0)" filter="url(#filter0_d)">
<path d="M164.091 148.526C164.405 131.546 165.23 86.9548 165.23 86.9548C165.317 82.261 163.483 77.5317 160.252 74.1575L95.497 6.5335C92.266 3.15933 87.7749 1.14285 82.9736 1.05403C82.9736 1.05403 31.1199 0.0948321 18.3623 -0.141162C16.8533 -0.169076 15.4585 1.04802 15.4279 2.70466L15.3819 5.18961L15.387 4.9135C15.9894 2.02454 18.71 3.31777 19.9216 4.58308L42.9451 28.486C74.0435 60.9624 105.277 93.5794 136.375 126.056L159.818 149.552C160.359 149.976 160.483 150.669 160.61 151.224C160.727 152.331 159.886 153.282 158.918 153.678L156.703 154.742L157.663 154.76C161.093 154.823 164.027 151.978 164.091 148.526Z" fill="#DB4843"/>
<path d="M81.4267 22.5131L71.244 25.048L73.3532 27.3117L75.1443 26.8311L79.1766 31.1587L78.5642 32.9043L80.7354 35.2345L83.9169 25.1857L81.4267 22.5131ZM81.2116 25.2572L79.8923 29.0855L77.2602 26.2607L81.2116 25.2572ZM94.4619 41.156C95.1068 40.5895 95.658 40.0749 95.7818 39.159C95.8567 38.591 95.7575 38.0078 95.0277 37.053C94.5796 36.4576 94.0922 35.9345 93.5864 35.4107L92.0532 33.7653C91.8051 33.499 91.5475 33.2416 91.2993 32.9752C90.3232 31.9658 89.8522 31.4985 89.2096 31.2092C88.1053 30.7106 87.1749 31.0279 86.2507 31.6951C85.9302 31.9232 85.6363 32.1798 85.3512 32.446C85.1422 32.6412 84.9426 32.8275 84.7519 33.0233C84.0101 33.7336 82.9224 34.6068 82.6725 35.7116C82.6592 35.8308 82.6128 36.1052 82.6469 36.4469C82.7738 37.5556 83.4644 38.3159 84.1645 39.0673L87.346 42.4818C87.9043 43.081 88.5513 43.7753 89.3117 44.1147C90.226 44.5238 91.0183 44.2109 91.7645 43.6387C92.0382 43.4366 92.2941 43.2155 92.5412 42.9848C93.015 42.578 93.4528 42.1515 93.8994 41.7345L89.3271 36.8084L88.0158 38.0327L90.6479 40.8575C90.4293 41.0615 90.2114 41.2472 89.8966 41.3099C89.3792 41.3839 89.033 41.0313 88.6424 40.6312L86.2762 38.0917C85.9413 37.6752 85.6147 37.2865 85.6124 36.8263C85.6234 36.2469 86.1365 35.7678 86.2315 35.6791C86.279 35.6348 86.317 35.5993 86.3557 35.5454L87.2394 34.7204C87.9026 34.1545 88.272 33.8453 88.7292 33.9164C89.1135 33.9666 89.3984 34.2342 89.656 34.4916L92.3413 37.3735C93.1097 38.2745 93.0014 38.4824 92.5034 39.054L94.4619 41.156ZM94.1241 43.8637C93.2689 44.6621 92.2414 45.657 92.434 46.9889C92.5604 47.8491 93.0629 48.4648 93.5832 49.0995C94.2821 49.8876 94.972 50.6663 95.6899 51.4367C96.3191 52.112 96.9673 52.7695 97.5972 53.4264C98.3454 54.1151 99.1665 54.8246 100.272 54.7527C100.991 54.7041 101.443 54.407 101.999 54.0122C102.34 53.7296 102.68 53.4654 103.002 53.1821C103.505 52.7487 103.962 52.2861 104.429 51.8147C104.887 51.3337 105.279 50.8964 105.495 50.2505C105.836 49.1673 105.322 48.3488 105.112 48.0286C105.034 47.9063 104.955 47.7839 104.867 47.6704C104.002 46.6464 103.136 45.6408 102.232 44.6706C101.461 43.8432 100.661 43.0607 99.8514 42.2871C99.4222 41.9408 99.0638 41.6707 98.5269 41.514C97.8082 41.2957 97.1312 41.4653 96.5111 41.8487C96.3888 41.9272 96.2666 42.0058 96.1532 42.0939L94.1241 43.8637ZM96.0058 48.4385C95.5215 47.8234 95.2785 47.4101 95.3566 47.0171C95.4333 46.6608 95.8065 46.2413 96.3589 45.69C96.8904 45.2116 97.2603 44.884 97.5245 44.6907C97.5809 44.6559 97.788 44.5158 98.0014 44.4589C98.085 44.4342 98.2332 44.4025 98.4523 44.447C98.7721 44.5041 98.9975 44.6316 99.4602 45.071L102.137 47.9434C102.595 48.5115 102.911 48.9458 102.529 49.6043C102.431 49.7849 102.326 49.9009 102.183 50.0524L100.729 51.4097C100.37 51.6733 100.192 51.7683 99.97 51.8158C99.4139 51.9437 99.0037 51.5797 98.5581 51.1777L96.0058 48.4385ZM107.686 50.6949L106.127 52.1499L108.892 55.1174L103.742 59.9257L105.709 62.0372L110.869 57.22L113.687 60.2445L115.236 58.7984L107.686 50.6949ZM119.082 62.9262L108.9 65.4611L111.009 67.7248L112.8 67.2442L116.832 71.5718L116.22 73.3174L118.391 75.6476L121.572 65.5988L119.082 62.9262ZM118.867 65.6703L117.548 69.4986L114.916 66.6738L118.867 65.6703ZM126.035 70.3879L119.326 76.6512L125.352 83.1187C125.903 83.6717 126.392 84.1396 127.176 84.351C127.977 84.5629 128.82 84.399 130.089 83.3205C130.259 83.1792 130.412 83.0373 130.573 82.8865L131.656 81.8751C132.228 81.3061 132.829 80.6736 133.069 79.8629C133.266 79.2164 133.24 78.3689 132.343 77.2149C132.193 77.0165 132.034 76.8269 131.866 76.6462L126.035 70.3879ZM126.35 74.0062L129.487 77.3732C129.867 77.8189 130.238 78.2551 130.21 78.7971C130.184 79.2655 129.935 79.5514 129.64 79.8631L128.803 80.6438C128.11 81.2731 127.457 81.8117 126.562 81.1179C126.32 80.9347 126.152 80.7356 126.082 80.6595L122.891 77.2355L126.35 74.0062ZM138.641 83.9176L128.459 86.4526L130.568 88.7162L132.359 88.2356L136.391 92.5632L135.779 94.3088L137.95 96.639L141.132 86.5902L138.641 83.9176ZM138.426 86.6617L137.107 90.49L134.475 87.6652L138.426 86.6617Z" fill="white"/>
</g>
<defs>
<filter id="filter0_d" x="0.664551" y="-4.19434" width="170.125" height="171.071" filterUnits="userSpaceOnUse" color-interpolation-filters="sRGB">
<feFlood flood-opacity="0" result="BackgroundImageFix"/>
<feColorMatrix in="SourceAlpha" type="matrix" values="0 0 0 0 0 0 0 0 0 0 0 0 0 0 0 0 0 0 127 0"/>
<feOffset dx="-4" dy="4"/>
<feGaussianBlur stdDeviation="4"/>
<feColorMatrix type="matrix" values="0 0 0 0 0 0 0 0 0 0 0 0 0 0 0 0 0 0 0.25 0"/>
<feBlend mode="normal" in2="BackgroundImageFix" result="effect1_dropShadow"/>
<feBlend mode="normal" in="SourceGraphic" in2="effect1_dropShadow" result="shape"/>
</filter>
<clipPath id="clip0">
<rect width="152.298" height="151.334" fill="white" transform="translate(166.79 2.60449) rotate(91.0598)"/>
</clipPath>
</defs>
</svg>
