<svg width="132" height="105" viewBox="0 0 132 105" fill="none" xmlns="http://www.w3.org/2000/svg">
<path d="M103.914 18.5741C103.799 18.3444 103.455 18.3444 103.225 18.4592L47.8731 41.7713C47.6434 41.8861 47.5286 42.0009 47.5286 42.2306C47.5286 42.4603 47.6434 42.69 47.8731 42.8048L60.1607 49.006L59.242 63.7053C59.242 63.9349 59.3568 64.1646 59.5865 64.2794C59.7014 64.2794 59.7014 64.3943 59.8162 64.3943C59.931 64.3943 60.0459 64.3943 60.1607 64.2794L69.9219 56.0111L79.3386 63.5904C79.4534 63.7053 79.5683 63.7053 79.6831 63.7053H79.7979C79.9128 63.7053 80.1425 63.5904 80.1425 63.3607L103.455 20.0669L103.914 19.2631C104.029 19.0334 104.029 18.6889 103.914 18.5741ZM99.6649 21.1005L64.18 49.8099L49.4808 42.3455L99.6649 21.1005ZM60.5052 62.442L61.1942 49.5802L63.9503 50.9583L69.0032 55.0924L60.5052 62.442ZM79.4534 62.0975L65.2136 50.4989L101.617 21.1005L79.4534 62.0975Z" fill="white"/>
<path d="M53.4295 69.0583L19 103.488L19.812 104.3L54.2415 69.8703L53.4295 69.0583Z" fill="white"/>
<path d="M66.1275 71.3696L52.8916 84.6055L53.7036 85.4175L66.9395 72.1816L66.1275 71.3696Z" fill="white"/>
<path d="M51.1614 56.3975L38.4939 69.0649L39.3059 69.877L51.9734 57.2095L51.1614 56.3975Z" fill="white"/>
<path d="M5.23558 59.0464C2.34856 59.0464 0 61.3911 0 64.2733C0 67.1553 2.34856 69.5002 5.23558 69.5002C8.12259 69.5002 10.4712 67.1553 10.4712 64.2733C10.4712 61.3911 8.12259 59.0464 5.23558 59.0464ZM5.23558 67.1771C3.63186 67.1771 2.32692 65.8744 2.32692 64.2733C2.32692 62.672 3.63186 61.3695 5.23558 61.3695C6.83952 61.3695 8.14423 62.672 8.14423 64.2733C8.14423 65.8746 6.83929 67.1771 5.23558 67.1771Z" fill="white"/>
<path d="M101.144 64.4844C96.6535 64.4844 93 68.1321 93 72.6154C93 77.0987 96.6535 80.7461 101.144 80.7461C105.635 80.7461 109.288 77.0987 109.288 72.6154C109.288 68.1321 105.635 64.4844 101.144 64.4844ZM101.144 78.4231C97.9366 78.4231 95.3269 75.8177 95.3269 72.6154C95.3269 69.413 97.9366 66.8077 101.144 66.8077C104.352 66.8077 106.962 69.413 106.962 72.6154C106.962 75.8177 104.352 78.4231 101.144 78.4231Z" fill="white"/>
<path d="M34.7452 21.969C35.709 21.969 36.4904 21.1889 36.4904 20.2267C36.4904 19.2644 35.709 18.4844 34.7452 18.4844C33.7813 18.4844 33 19.2644 33 20.2267C33 21.1889 33.7813 21.969 34.7452 21.969Z" fill="white"/>
<path d="M96.9862 3.48462C97.95 3.48462 98.7314 2.70456 98.7314 1.74231C98.7314 0.780059 97.95 0 96.9862 0C96.0223 0 95.241 0.780059 95.241 1.74231C95.241 2.70456 96.0223 3.48462 96.9862 3.48462Z" fill="white"/>
<path d="M129.986 53.4846C130.95 53.4846 131.731 52.7046 131.731 51.7423C131.731 50.7801 130.95 50 129.986 50C129.022 50 128.241 50.7801 128.241 51.7423C128.241 52.7046 129.022 53.4846 129.986 53.4846Z" fill="white"/>
<path d="M34.3218 78.7918C35.2857 78.7918 36.067 78.0117 36.067 77.0494C36.067 76.0872 35.2857 75.3071 34.3218 75.3071C33.358 75.3071 32.5767 76.0872 32.5767 77.0494C32.5767 78.0117 33.358 78.7918 34.3218 78.7918Z" fill="white"/>
<path d="M1.74519 47.4304C2.70903 47.4304 3.49038 46.6504 3.49038 45.6881C3.49038 44.7259 2.70903 43.9458 1.74519 43.9458C0.781349 43.9458 0 44.7259 0 45.6881C0 46.6504 0.781349 47.4304 1.74519 47.4304Z" fill="white"/>
</svg>
