<svg width="124" height="82" viewBox="0 0 124 82" fill="none" xmlns="http://www.w3.org/2000/svg">
<path d="M62 14C48.7521 14 38 24.7521 38 38C38 51.2479 48.7521 62 62 62C75.2479 62 86 51.2479 86 38C86 31.0647 83.0434 24.8207 78.3354 20.439H85.4146V19.2683H77.2195H76.6341V19.8537V28.0488H77.8049V21.5183C82.1424 25.6749 84.8293 31.515 84.8293 38C84.8293 50.6152 74.6152 60.8293 62 60.8293C49.3848 60.8293 39.1707 50.6152 39.1707 38C39.1707 25.3848 49.3848 15.1707 62 15.1707V14ZM60.2439 22.1951V39.1707V39.4817L60.5183 39.6463L72.2256 47.2561L72.8476 46.2866L61.4146 38.8598V22.1951H60.2439Z" fill="white"/>
<path d="M18.2356 27C15.3486 27 13 29.3447 13 32.2269C13 35.1089 15.3486 37.4538 18.2356 37.4538C21.1226 37.4538 23.4712 35.1089 23.4712 32.2269C23.4712 29.3447 21.1226 27 18.2356 27ZM18.2356 35.1307C16.6319 35.1307 15.3269 33.828 15.3269 32.2269C15.3269 30.6256 16.6319 29.3231 18.2356 29.3231C19.8395 29.3231 21.1442 30.6256 21.1442 32.2269C21.1442 33.8282 19.8393 35.1307 18.2356 35.1307Z" fill="white"/>
<path d="M115.144 6C110.654 6 107 9.6477 107 14.131C107 18.6143 110.654 22.2618 115.144 22.2618C119.635 22.2618 123.288 18.6143 123.288 14.131C123.288 9.6477 119.635 6 115.144 6ZM115.144 19.9387C111.937 19.9387 109.327 17.3334 109.327 14.131C109.327 10.9286 111.937 8.32331 115.144 8.32331C118.352 8.32331 120.962 10.9286 120.962 14.131C120.962 17.3334 118.352 19.9387 115.144 19.9387Z" fill="white"/>
<path d="M35.4854 3.48461C36.4493 3.48461 37.2306 2.70455 37.2306 1.7423C37.2306 0.780056 36.4493 0 35.4854 0C34.5216 0 33.7402 0.780056 33.7402 1.7423C33.7402 2.70455 34.5216 3.48461 35.4854 3.48461Z" fill="white"/>
<path d="M96.9864 6.00024C97.9502 6.00024 98.7316 5.22019 98.7316 4.25793C98.7316 3.29568 97.9502 2.51562 96.9864 2.51562C96.0226 2.51562 95.2412 3.29568 95.2412 4.25793C95.2412 5.22019 96.0226 6.00024 96.9864 6.00024Z" fill="white"/>
<path d="M98.7452 53.4846C99.709 53.4846 100.49 52.7046 100.49 51.7423C100.49 50.7801 99.709 50 98.7452 50C97.7813 50 97 50.7801 97 51.7423C97 52.7046 97.7813 53.4846 98.7452 53.4846Z" fill="white"/>
<path d="M34.3218 81.3079C35.2857 81.3079 36.067 80.5278 36.067 79.5656C36.067 78.6033 35.2857 77.8232 34.3218 77.8232C33.358 77.8232 32.5767 78.6033 32.5767 79.5656C32.5767 80.5278 33.358 81.3079 34.3218 81.3079Z" fill="white"/>
<path d="M1.74519 49.946C2.70903 49.946 3.49038 49.166 3.49038 48.2037C3.49038 47.2415 2.70903 46.4614 1.74519 46.4614C0.781349 46.4614 0 47.2415 0 48.2037C0 49.166 0.781349 49.946 1.74519 49.946Z" fill="white"/>
</svg>
