<svg width="85" height="107" viewBox="0 0 85 107" fill="none" xmlns="http://www.w3.org/2000/svg">
<g clip-path="url(#clip0)" filter="url(#filter0_d)">
<path d="M81.5 67.9963C81.5 67.3063 80.94 66.7463 80.25 66.7463H78.9137C78.72 64.9688 78.105 63.2601 77.1 61.7601C77.5312 60.5563 77.75 59.2926 77.75 57.9963C77.75 51.7938 72.7025 46.7463 66.5 46.7463C66.3763 46.7463 66.2537 46.7488 66.1338 46.7551C63.7438 44.0851 60.2738 42.7101 56.6975 43.0513C56.0588 43.1101 55.46 43.2163 54.9188 43.3663C54.3775 43.5163 54 44.0101 54 44.5713V49.2463C54 49.9363 54.56 50.4963 55.25 50.4963H56.5C56.8338 50.4963 57.1413 50.6238 57.39 50.8801C57.6225 51.1051 57.75 51.4126 57.75 51.7463C57.75 52.4351 57.1888 52.9963 56.5 52.9963H55.25C54.56 52.9963 54 53.5563 54 54.2463V57.9963H49V57.3713C49 56.1988 48.5463 55.1001 47.7213 54.2738C46.8963 53.4501 45.7962 52.9963 44.625 52.9963C42.2125 52.9963 40.25 54.9588 40.25 57.3713V57.9963H35.25V54.2463C35.25 53.5563 34.69 52.9963 34 52.9963H32.75C32.4163 52.9963 32.1087 52.8688 31.86 52.6138C31.6275 52.3876 31.5 52.0801 31.5 51.7463C31.5 51.0576 32.0613 50.4963 32.75 50.4963H34C34.69 50.4963 35.25 49.9363 35.25 49.2463V44.5713C35.25 44.0038 34.8675 43.5076 34.3187 43.3626C33.0662 43.0313 31.7638 42.9276 30.4487 43.0501C27.5888 43.3088 24.9288 44.6826 23.04 46.8526C22.5263 46.7813 22.01 46.7463 21.4987 46.7463C15.2962 46.7463 10.2488 51.7938 10.2488 57.9963C10.2488 59.2938 10.4675 60.5563 10.8988 61.7601C9.88875 63.2688 9.28875 64.9663 9.09125 66.7463H7.75C7.06 66.7463 6.5 67.3063 6.5 67.9963V81.7463H9V69.2463H79V81.7463H81.5V67.9963ZM13.4587 61.4376C12.9887 60.3501 12.75 59.1926 12.75 57.9963C12.75 53.1713 16.675 49.2463 21.5 49.2463C22.095 49.2463 22.6987 49.3088 23.2975 49.4326C23.7687 49.5301 24.2575 49.3476 24.5475 48.9626C26.025 47.0076 28.2587 45.7601 30.68 45.5413C31.3787 45.4776 32.0725 45.4913 32.75 45.5913V47.9976C30.6825 47.9976 29 49.6801 29 51.7476C29 52.7613 29.3962 53.7051 30.0925 54.3826C30.7925 55.1013 31.7362 55.4976 32.75 55.4976V59.2476C32.75 59.9376 33.31 60.4976 34 60.4976H41.5C42.19 60.4976 42.75 59.9376 42.75 59.2476V57.3726C42.75 56.3388 43.5913 55.4976 44.625 55.4976C45.1213 55.4976 45.6063 55.6976 45.9538 56.0438C46.3063 56.3951 46.5 56.8663 46.5 57.3713V59.2463C46.5 59.9363 47.06 60.4963 47.75 60.4963H55.25C55.94 60.4963 56.5 59.9363 56.5 59.2463V55.4963C58.5675 55.4963 60.25 53.8138 60.25 51.7463C60.25 50.7326 59.8537 49.7888 59.1575 49.1126C58.4562 48.3926 57.5137 47.9963 56.5 47.9963V45.5913C56.64 45.5713 56.785 45.5551 56.9325 45.5413C59.875 45.2476 62.7475 46.4838 64.6087 48.8251C64.8687 49.1526 65.275 49.3338 65.6912 49.2926C65.9562 49.2701 66.2225 49.2463 66.5 49.2463C71.325 49.2463 75.25 53.1713 75.25 57.9963C75.25 59.1926 75.0112 60.3501 74.5412 61.4363C74.3613 61.8526 74.42 62.3326 74.695 62.6926C75.6137 63.8938 76.1813 65.2926 76.3875 66.7463H61.3212C60.7612 64.5976 58.8213 63.0001 56.5 63.0001V65.5001C57.42 65.5001 58.2163 66.0051 58.65 66.7463H11.6025C11.8137 65.2851 12.385 63.9001 13.3063 62.6913C13.5813 62.3326 13.6388 61.8526 13.4587 61.4376Z" fill="white"/>
<path d="M32.75 23V26.75C32.75 27.44 33.31 28 34 28H41.5C42.19 28 42.75 27.44 42.75 26.75V23H46.5V26.75C46.5 27.44 47.06 28 47.75 28H55.25C55.94 28 56.5 27.44 56.5 26.75V23C58.5675 23 60.25 21.3175 60.25 19.25C60.25 17.1825 58.5675 15.5 56.5 15.5H55.25V18H56.5C57.1887 18 57.75 18.5612 57.75 19.25C57.75 19.9387 57.1887 20.5 56.5 20.5H55.25C54.56 20.5 54 21.06 54 21.75V25.5H49V21.75C49 21.06 48.44 20.5 47.75 20.5H41.5C40.81 20.5 40.25 21.06 40.25 21.75V25.5H35.25V21.75C35.25 21.06 34.69 20.5 34 20.5H32.75C32.0612 20.5 31.5 19.9387 31.5 19.25C31.5 18.5612 32.0612 18 32.75 18H34C34.69 18 35.25 17.44 35.25 16.75V11.75H39C39.69 11.75 40.25 11.19 40.25 10.5C40.25 8.4325 41.9325 6.75 44 6.75H45.25C47.3175 6.75 49 8.4325 49 10.5H51.5C51.5 7.05375 48.6963 4.25 45.25 4.25H44C40.9812 4.25 38.4562 6.40125 37.8762 9.25H34C33.31 9.25 32.75 9.81 32.75 10.5V15.5C30.6825 15.5 29 17.1825 29 19.25C29 21.3175 30.6825 23 32.75 23Z" fill="white"/>
<path d="M65.25 6.75H62.75V9.25H65.25V6.75Z" fill="#62F8B2"/>
<path d="M72.75 4.25H70.25V6.75H72.75V4.25Z" fill="#62F8B2"/>
<path d="M70.25 10.5H67.75V13H70.25V10.5Z" fill="#DB4843"/>
<path d="M81.5 9.25H79V11.75H81.5V9.25Z" fill="#62F8B2"/>
<path d="M76.5 14.25H74V16.75H76.5V14.25Z" fill="#62F8B2"/>
<path d="M66.5 15.5H64V18H66.5V15.5Z" fill="#62F8B2"/>
<path d="M59 9.25H56.5V11.75H59V9.25Z" fill="#DB4843"/>
<path d="M54 13H51.5V15.5H54V13Z" fill="#62F8B2"/>
<path d="M46.5 49.2498V35.4998L48 37.4998L50 35.9998L46.25 30.9998C45.7787 30.3698 44.7213 30.3698 44.25 30.9998L40.5 35.9998L42.5 37.4998L44 35.4998V49.2498H46.5Z" fill="#62F8B2"/>
<path d="M32.75 76.75H20.25V79.25H32.75V76.75Z" fill="#62F8B2"/>
<path d="M69 76.75H56.5V79.25H69V76.75Z" fill="#62F8B2"/>
<path d="M25.25 54.25H22.75C22.75 57.6963 19.9462 60.5 16.5 60.5V63C21.325 63 25.25 59.075 25.25 54.25Z" fill="white"/>
<path d="M70.25 55.5V53C66.1137 53 62.75 56.3637 62.75 60.5H65.25C65.25 57.7425 67.4925 55.5 70.25 55.5Z" fill="white"/>
</g>
<defs>
<filter id="filter0_d" x="0.5" y="-0.5" width="87" height="107" filterUnits="userSpaceOnUse" color-interpolation-filters="sRGB">
<feFlood flood-opacity="0" result="BackgroundImageFix"/>
<feColorMatrix in="SourceAlpha" type="matrix" values="0 0 0 0 0 0 0 0 0 0 0 0 0 0 0 0 0 0 127 0"/>
<feOffset/>
<feGaussianBlur stdDeviation="1.75"/>
<feColorMatrix type="matrix" values="0 0 0 0 0.0204166 0 0 0 0 0.816667 0 0 0 0 0.526211 0 0 0 0.87 0"/>
<feBlend mode="normal" in2="BackgroundImageFix" result="effect1_dropShadow"/>
<feBlend mode="normal" in="SourceGraphic" in2="effect1_dropShadow" result="shape"/>
</filter>
<clipPath id="clip0">
<rect width="80" height="100" fill="white" transform="translate(4 3)"/>
</clipPath>
</defs>
</svg>
