<svg width="140" height="155" viewBox="0 0 140 155" fill="none" xmlns="http://www.w3.org/2000/svg">
<path d="M68.3088 -5.69515L68.2911 -4.69531C72.8082 -4.60798 77.0426 -2.62542 80.0955 0.706589L144.85 71.3832C147.902 74.7139 149.648 79.4057 149.565 84.0639L150.565 84.0832C149.565 84.0639 149.565 84.064 149.565 84.0644L149.565 84.066L149.565 84.0686L149.565 84.0724L149.565 84.0771L149.565 84.0829L149.565 84.0898L149.564 84.0977L149.564 84.1067L149.564 84.1166L149.564 84.1276L149.564 84.1397L149.564 84.1528L149.563 84.1668L149.563 84.182L149.563 84.1981L149.562 84.2152L149.562 84.2334L149.562 84.2525L149.561 84.2727L149.561 84.2939L149.561 84.316L149.56 84.3392L149.56 84.3633L149.559 84.3884L149.559 84.4145L149.558 84.4416L149.558 84.4697L149.557 84.4987L149.557 84.5287L149.556 84.5596L149.556 84.5916L149.555 84.6245L149.555 84.6583L149.554 84.6931L149.553 84.7288L149.553 84.7655L149.552 84.8032L149.551 84.8417L149.551 84.8812L149.55 84.9217L149.549 84.963L149.548 85.0053L149.548 85.0485L149.547 85.0926L149.546 85.1377L149.545 85.1836L149.544 85.2305L149.544 85.2783L149.543 85.3269L149.542 85.3765L149.541 85.427L149.54 85.4783L149.539 85.5305L149.538 85.5837L149.537 85.6377L149.536 85.6926L149.535 85.7483L149.534 85.8049L149.533 85.8624L149.532 85.9208L149.531 85.98L149.53 86.0401L149.529 86.101L149.528 86.1628L149.527 86.2254L149.526 86.2889L149.525 86.3532L149.523 86.4184L149.522 86.4844L149.521 86.5512L149.52 86.6188L149.519 86.6873L149.517 86.7566L149.516 86.8267L149.515 86.8976L149.514 86.9694L149.512 87.0419L149.511 87.1152L149.51 87.1894L149.508 87.2643L149.507 87.34L149.506 87.4166L149.504 87.4939L149.503 87.572L149.502 87.6508L149.5 87.7305L149.499 87.8109L149.497 87.8921L149.496 87.974L149.494 88.0568L149.493 88.1402L149.491 88.2245L149.49 88.3095L149.488 88.3952L149.487 88.4817L149.485 88.5689L149.484 88.6569L149.482 88.7456L149.481 88.835L149.479 88.9252L149.477 89.0161L149.476 89.1077L149.474 89.2L149.473 89.2931L149.471 89.3868L149.469 89.4813L149.468 89.5765L149.466 89.6724L149.464 89.7689L149.462 89.8662L149.461 89.9642L149.459 90.0628L149.457 90.1622L149.455 90.2622L149.454 90.3629L149.452 90.4643L149.45 90.5663L149.448 90.669L149.446 90.7724L149.445 90.8765L149.443 90.9812L149.441 91.0865L149.439 91.1925L149.437 91.2992L149.435 91.4065L149.433 91.5144L149.431 91.623L149.429 91.7322L149.427 91.8421L149.425 91.9526L149.424 92.0637L149.422 92.1754L149.42 92.2877L149.418 92.4007L149.416 92.5142L149.414 92.6284L149.411 92.7432L149.409 92.8586L149.407 92.9746L149.405 93.0911L149.403 93.2083L149.401 93.3261L149.399 93.4444L149.397 93.5633L149.395 93.6828L149.393 93.8029L149.391 93.9235L149.388 94.0447L149.386 94.1665L149.384 94.2888L149.382 94.4117L149.38 94.5351L149.378 94.6591L149.375 94.7837L149.373 94.9088L149.371 95.0344L149.369 95.1606L149.366 95.2872L149.364 95.4145L149.362 95.5422L149.36 95.6705L149.357 95.7993L149.355 95.9286L149.353 96.0584L149.35 96.1888L149.348 96.3196L149.346 96.451L149.344 96.5828L149.341 96.7152L149.339 96.848L149.336 96.9813L149.334 97.1151L149.332 97.2494L149.329 97.3842L149.327 97.5195L149.325 97.6552L149.322 97.7914L149.32 97.928L149.317 98.0652L149.315 98.2027L149.312 98.3408L149.31 98.4793L149.307 98.6182L149.305 98.7576L149.303 98.8974L149.3 99.0377L149.298 99.1784L149.295 99.3195L149.293 99.4611L149.29 99.6031L149.288 99.7455L149.285 99.8883L149.282 100.032L149.28 100.175L149.277 100.319L149.275 100.464L149.272 100.609L149.27 100.754L149.267 100.9L149.265 101.046L149.262 101.192L149.259 101.339L149.257 101.486L149.254 101.634L149.252 101.782L149.249 101.93L149.246 102.079L149.244 102.228L149.241 102.377L149.238 102.527L149.236 102.677L149.233 102.828L149.23 102.979L149.228 103.13L149.225 103.281L149.222 103.433L149.22 103.585L149.217 103.738L149.214 103.891L149.211 104.044L149.209 104.198L149.206 104.351L149.203 104.506L149.201 104.66L149.198 104.815L149.195 104.97L149.192 105.125L149.19 105.281L149.187 105.437L149.184 105.593L149.181 105.75L149.178 105.907L149.176 106.064L149.173 106.221L149.17 106.379L149.167 106.537L149.165 106.695L149.162 106.853L149.159 107.012L149.156 107.171L149.153 107.33L149.15 107.49L149.148 107.649L149.145 107.809L149.142 107.97L149.139 108.13L149.136 108.291L149.133 108.452L149.131 108.613L149.128 108.774L149.125 108.936L149.122 109.098L149.119 109.26L149.116 109.422L149.113 109.584L149.111 109.747L149.108 109.91L149.105 110.073L149.102 110.236L149.099 110.399L149.096 110.563L149.093 110.727L149.09 110.891L149.087 111.055L149.084 111.219L149.082 111.384L149.079 111.548L149.076 111.713L149.073 111.878L149.07 112.043L149.067 112.208L149.064 112.374L149.061 112.539L149.058 112.705L149.055 112.871L149.052 113.037L149.049 113.203L149.046 113.369L149.043 113.536L149.041 113.702L149.038 113.869L149.035 114.036L149.032 114.202L149.029 114.369L149.026 114.536L149.023 114.704L149.02 114.871L149.017 115.038L149.014 115.206L149.011 115.373L149.008 115.541L149.005 115.708L149.002 115.876L148.999 116.044L148.996 116.212L148.993 116.38L148.99 116.548L148.987 116.716L148.984 116.884L148.981 117.053L148.978 117.221L148.975 117.389L148.972 117.558L148.969 117.726L148.966 117.894L148.963 118.063L148.96 118.231L148.957 118.4L148.954 118.568L148.951 118.737L148.948 118.906L148.945 119.074L148.942 119.243L148.939 119.412L148.936 119.58L148.933 119.749L148.931 119.918L148.928 120.086L148.925 120.255L148.922 120.423L148.919 120.592L148.916 120.761L148.913 120.929L148.91 121.098L148.907 121.266L148.904 121.435L148.901 121.603L148.898 121.771L148.895 121.94L148.892 122.108L148.889 122.276L148.886 122.445L148.883 122.613L148.88 122.781L148.877 122.949L148.874 123.117L148.871 123.285L148.868 123.452L148.865 123.62L148.862 123.788L148.859 123.955L148.856 124.123L148.853 124.29L148.85 124.458L148.847 124.625L148.844 124.792L148.841 124.959L148.838 125.126L148.835 125.292L148.832 125.459L148.829 125.626L148.827 125.792L148.824 125.958L148.821 126.125L148.818 126.291L148.815 126.457L148.812 126.622L148.809 126.788L148.806 126.953L148.803 127.119L148.8 127.284L148.797 127.449L148.794 127.614L148.791 127.779L148.788 127.943L148.786 128.107L148.783 128.272L148.78 128.436L148.777 128.6L148.774 128.763L148.771 128.927L148.768 129.09L148.765 129.253L148.762 129.416L148.76 129.579L148.757 129.741L148.754 129.904L148.751 130.066L148.748 130.228L148.745 130.389L148.742 130.551L148.739 130.712L148.737 130.873L148.734 131.034L148.731 131.194L148.728 131.355L148.725 131.515L148.722 131.674L148.72 131.834L148.717 131.993L148.714 132.152L148.711 132.311L148.708 132.47L148.706 132.628L148.703 132.786L148.7 132.944L148.697 133.102L148.694 133.259L148.692 133.416L148.689 133.572L148.686 133.729L148.683 133.885L148.681 134.041L148.678 134.196L148.675 134.351L148.672 134.506L148.67 134.661L148.667 134.815L148.664 134.969L148.661 135.123L148.659 135.276L148.656 135.429L148.653 135.582L148.651 135.734L148.648 135.886L148.645 136.038L148.643 136.189L148.64 136.34L148.637 136.491L148.635 136.641L148.632 136.791L148.629 136.941L148.627 137.09L148.624 137.239L148.621 137.387L148.619 137.535L148.616 137.683L148.613 137.83L148.611 137.977L148.608 138.124L148.606 138.27L148.603 138.416L148.601 138.561L148.598 138.707L148.595 138.851L148.593 138.995L148.59 139.139L148.588 139.283L148.585 139.426L148.583 139.568L148.58 139.71L148.578 139.852L148.575 139.993L148.573 140.134L148.57 140.275L148.568 140.415L148.565 140.554L148.563 140.694L148.56 140.832L148.558 140.97L148.555 141.108L148.553 141.245L148.551 141.382L148.548 141.519L148.546 141.655L148.543 141.79L148.541 141.925L148.539 142.06L148.536 142.194L148.534 142.327L148.532 142.46L148.529 142.593L148.527 142.725L148.525 142.856L148.522 142.987L148.52 143.118L148.518 143.248L148.515 143.377L148.513 143.506L148.511 143.635L148.508 143.763L148.506 143.89L148.504 144.017L148.502 144.144L148.499 144.27L148.497 144.395L148.495 144.52L148.493 144.644L148.491 144.767L148.489 144.891L148.486 145.013L148.484 145.135L148.482 145.257L148.48 145.377L148.478 145.498L148.476 145.618L148.474 145.737L148.471 145.855L148.469 145.973L148.467 146.091L148.465 146.207L148.463 146.324L148.461 146.439L148.459 146.554L148.457 146.669L148.455 146.783L148.453 146.896L148.451 147.008L148.449 147.12L148.447 147.232L148.445 147.342L148.443 147.453L148.441 147.562L148.439 147.671L148.437 147.779L148.435 147.887L148.434 147.994L148.432 148.1L148.43 148.206L148.428 148.31L148.426 148.415C148.4 149.917 147.794 151.274 146.856 152.269C146.946 151.921 146.98 151.548 146.94 151.155L146.935 151.097L146.922 151.041C146.915 151.009 146.908 150.974 146.9 150.937C146.845 150.683 146.769 150.324 146.642 149.982C146.496 149.59 146.26 149.142 145.839 148.778L122.447 124.274L122.433 124.259L29.0171 22.3002L29.0151 22.298L5.99356 -2.68173L68.3088 -5.69515ZM68.3088 -5.69515C68.2911 -4.69531 68.2909 -4.69531 68.2905 -4.69532L68.2888 -4.69536L68.2858 -4.69541L68.2817 -4.69549L68.2764 -4.69559L68.2699 -4.69572L68.2623 -4.69587L68.2535 -4.69604L68.2436 -4.69623L68.2325 -4.69644L68.2202 -4.69668L68.2068 -4.69694L68.1923 -4.69722L68.1767 -4.69752L68.1599 -4.69785L68.142 -4.69819L68.123 -4.69856L68.1028 -4.69895L68.0815 -4.69936L68.0592 -4.69979L68.0357 -4.70025L68.0111 -4.70072L67.9855 -4.70122L67.9587 -4.70174L67.9308 -4.70228L67.9019 -4.70283L67.8719 -4.70342L67.8408 -4.70402L67.8086 -4.70464L67.7753 -4.70528L67.741 -4.70594L67.7057 -4.70663L67.6693 -4.70733L67.6318 -4.70806L67.5932 -4.7088L67.5537 -4.70957L67.5131 -4.71035L67.4714 -4.71116L67.4287 -4.71198L67.385 -4.71283L67.3403 -4.71369L67.2945 -4.71458L67.2478 -4.71548L67.2 -4.7164L67.1512 -4.71735L67.1014 -4.71831L67.0506 -4.71929L66.9988 -4.72029L66.946 -4.72131L66.8923 -4.72235L66.8375 -4.72341L66.7818 -4.72449L66.7251 -4.72559L66.6674 -4.7267L66.6088 -4.72783L66.5492 -4.72899L66.4886 -4.73016L66.4271 -4.73135L66.3646 -4.73256L66.3012 -4.73378L66.2368 -4.73503L66.1715 -4.73629L66.1053 -4.73757L66.0381 -4.73887L65.97 -4.74018L65.901 -4.74152L65.8311 -4.74287L65.7602 -4.74424L65.6885 -4.74563L65.6158 -4.74703L65.5422 -4.74845L65.4678 -4.74989L65.3924 -4.75135L65.3162 -4.75283L65.239 -4.75432L65.161 -4.75582L65.0821 -4.75735L65.0023 -4.75889L64.9217 -4.76045L64.8402 -4.76203L64.7578 -4.76362L64.6746 -4.76523L64.5905 -4.76685L64.5056 -4.7685L64.4198 -4.77015L64.3332 -4.77183L64.2458 -4.77352L64.1575 -4.77523L64.0684 -4.77695L63.9784 -4.77869L63.8877 -4.78044L63.7961 -4.78221L63.7037 -4.784L63.6105 -4.7858L63.5165 -4.78762L63.4217 -4.78945L63.3261 -4.7913L63.2297 -4.79316L63.1325 -4.79504L63.0346 -4.79694L62.9358 -4.79884L62.8363 -4.80077L62.736 -4.80271L62.635 -4.80466L62.5331 -4.80663L62.4305 -4.80861L62.3272 -4.81061L62.2231 -4.81262L62.1183 -4.81465L62.0127 -4.81669L61.9064 -4.81875L61.7993 -4.82082L61.6915 -4.8229L61.583 -4.825L61.4738 -4.82711L61.3638 -4.82924L61.2531 -4.83138L61.1417 -4.83353L61.0296 -4.8357L60.9168 -4.83788L60.8033 -4.84007L60.6892 -4.84228L60.5743 -4.8445L60.4587 -4.84674L60.3425 -4.84898L60.2255 -4.85124L60.1079 -4.85352L59.9896 -4.8558L59.8707 -4.8581L59.7511 -4.86042L59.6308 -4.86274L59.5099 -4.86508L59.3884 -4.86743L59.2661 -4.86979L59.1433 -4.87217L59.0198 -4.87455L58.8957 -4.87695L58.7709 -4.87937L58.6455 -4.88179L58.5195 -4.88423L58.3929 -4.88667L58.2657 -4.88913L58.1378 -4.89161L58.0094 -4.89409L57.8803 -4.89658L57.7507 -4.89909L57.6204 -4.90161L57.4896 -4.90414L57.3582 -4.90668L57.2262 -4.90923L57.0936 -4.91179L56.9605 -4.91437L56.8268 -4.91695L56.6925 -4.91955L56.5576 -4.92216L56.4223 -4.92477L56.2863 -4.9274L56.1498 -4.93004L56.0128 -4.93269L55.8752 -4.93535L55.7371 -4.93802L55.5984 -4.9407L55.4592 -4.94339L55.3195 -4.94609L55.1793 -4.9488L55.0386 -4.95152L54.8973 -4.95426L54.7555 -4.957L54.6133 -4.95975L54.4705 -4.96251L54.3273 -4.96528L54.1835 -4.96806L54.0393 -4.97084L53.8945 -4.97364L53.7494 -4.97645L53.6037 -4.97927L53.4575 -4.98209L53.3109 -4.98493L53.1638 -4.98777L53.0163 -4.99062L52.8683 -4.99348L52.7199 -4.99635L52.571 -4.99923L52.4216 -5.00212L52.2719 -5.00501L52.1217 -5.00792L51.971 -5.01083L51.82 -5.01375L51.6685 -5.01668L51.5166 -5.01962L51.3643 -5.02256L51.2115 -5.02551L51.0584 -5.02847L50.9049 -5.03144L50.7509 -5.03442L50.5966 -5.0374L50.4419 -5.04039L50.2868 -5.04339L50.1313 -5.0464L49.9754 -5.04941L49.8192 -5.05243L49.6626 -5.05546L49.5056 -5.0585L49.3483 -5.06154L49.1906 -5.06459L49.0325 -5.06764L48.8741 -5.0707L48.7154 -5.07377L48.5563 -5.07685L48.3969 -5.07993L48.2371 -5.08302L48.0771 -5.08611L47.9166 -5.08921L47.7559 -5.09232L47.5949 -5.09544L47.4335 -5.09856L47.2719 -5.10168L47.1099 -5.10481L46.9476 -5.10795L46.7851 -5.11109L46.6222 -5.11424L46.4591 -5.11739L46.2956 -5.12055L46.1319 -5.12372L45.9679 -5.12689L45.8037 -5.13007L45.6391 -5.13325L45.4743 -5.13643L45.3093 -5.13962L45.144 -5.14282L44.9784 -5.14602L44.8126 -5.14923L44.6466 -5.15244L44.4803 -5.15565L44.3138 -5.15887L44.147 -5.16209L43.98 -5.16532L43.8128 -5.16856L43.6454 -5.17179L43.4778 -5.17503L43.3099 -5.17828L43.1418 -5.18153L42.9736 -5.18478L42.8051 -5.18804L42.6365 -5.1913L42.4676 -5.19456L42.2986 -5.19783L42.1294 -5.2011L41.96 -5.20438L41.7904 -5.20766L41.6207 -5.21094L41.4508 -5.21422L41.2807 -5.21751L41.1105 -5.2208L40.9401 -5.22409L40.7696 -5.22739L40.5989 -5.23069L40.4281 -5.23399L40.2571 -5.2373L40.086 -5.24061L39.9148 -5.24392L39.7435 -5.24723L39.572 -5.25054L39.4004 -5.25386L39.2287 -5.25718L39.0569 -5.2605L38.885 -5.26383L38.713 -5.26715L38.5409 -5.27048L38.3687 -5.27381L38.1964 -5.27714L38.024 -5.28047L37.8516 -5.28381L37.679 -5.28714L37.5064 -5.29048L37.3337 -5.29382L37.161 -5.29716L36.9882 -5.3005L36.8153 -5.30384L36.6424 -5.30718L36.4695 -5.31053L36.2965 -5.31387L36.1234 -5.31722L35.9503 -5.32056L35.7772 -5.32391L35.6041 -5.32726L35.4309 -5.33061L35.2577 -5.33395L35.0845 -5.3373L34.9113 -5.34065L34.7381 -5.344L34.5649 -5.34735L34.3916 -5.3507L34.2184 -5.35405L34.0452 -5.3574L33.872 -5.36074L33.6988 -5.36409L33.5257 -5.36744L33.3525 -5.37079L33.1794 -5.37413L33.0064 -5.37748L32.8333 -5.38083L32.6603 -5.38417L32.4874 -5.38751L32.3145 -5.39086L32.1416 -5.3942L31.9688 -5.39754L31.7961 -5.40088L31.6234 -5.40422L31.4508 -5.40755L31.2783 -5.41089L31.1059 -5.41422L30.9335 -5.41755L30.7612 -5.42089L30.589 -5.42421L30.417 -5.42754L30.245 -5.43087L30.0731 -5.43419L29.9013 -5.43751L29.7296 -5.44083L29.558 -5.44415L29.3866 -5.44746L29.2153 -5.45077L29.0441 -5.45408L28.873 -5.45739L28.7021 -5.4607L28.5313 -5.464L28.3606 -5.4673L28.1901 -5.47059L28.0198 -5.47389L27.8496 -5.47718L27.6795 -5.48046L27.5097 -5.48375L27.34 -5.48703L27.1704 -5.49031L27.0011 -5.49358L26.8319 -5.49685L26.6629 -5.50012L26.4941 -5.50338L26.3255 -5.50664L26.157 -5.5099L25.9888 -5.51315L25.8208 -5.5164L25.653 -5.51964L25.4854 -5.52288L25.318 -5.52612L25.1508 -5.52935L24.9839 -5.53258L24.8172 -5.5358L24.6507 -5.53902L24.4844 -5.54224L24.3184 -5.54545L24.1527 -5.54865L23.9871 -5.55185L23.8219 -5.55505L23.6569 -5.55824L23.4921 -5.56142L23.3277 -5.5646L23.1635 -5.56778L22.9995 -5.57094L22.8359 -5.57411L22.6725 -5.57727L22.5094 -5.58042L22.3466 -5.58357L22.1841 -5.58671L22.0218 -5.58985L21.8599 -5.59298L21.6983 -5.5961L21.537 -5.59922L21.376 -5.60233L21.2154 -5.60544L21.055 -5.60854L20.895 -5.61163L20.7353 -5.61472L20.576 -5.6178L20.4169 -5.62087L20.2583 -5.62394L20.0999 -5.627L19.9419 -5.63006L19.7843 -5.6331L19.627 -5.63615L19.4701 -5.63918L19.3136 -5.64221L19.1574 -5.64522L19.0016 -5.64824L18.8462 -5.65124L18.6912 -5.65424L18.5365 -5.65723L18.3823 -5.66021L18.2284 -5.66319L18.0749 -5.66615L17.9219 -5.66911L17.7692 -5.67206L17.617 -5.67501L17.4652 -5.67794L17.3137 -5.68087L17.1628 -5.68379L17.0122 -5.6867L16.8621 -5.6896L16.7124 -5.6925L16.5631 -5.69538L16.4143 -5.69826L16.266 -5.70113L16.118 -5.70399L15.9706 -5.70684L15.8236 -5.70968L15.6771 -5.71251L15.531 -5.71534L15.3854 -5.71815L15.2403 -5.72096L15.0957 -5.72375L14.9515 -5.72654L14.8079 -5.72932L14.6647 -5.73208L14.522 -5.73484L14.3798 -5.73759L14.2382 -5.74033L14.097 -5.74306L13.9564 -5.74578L13.8162 -5.74849L13.6766 -5.75119L13.5375 -5.75388L13.399 -5.75655L13.261 -5.75922L13.1235 -5.76188L12.9865 -5.76453L12.8501 -5.76717L12.7143 -5.76979L12.579 -5.77241L12.4442 -5.77501L12.3101 -5.77761L12.1765 -5.78019L12.0434 -5.78276L11.9109 -5.78532L11.7791 -5.78787L11.6477 -5.79041L11.517 -5.79294L11.3869 -5.79545L11.2573 -5.79796L11.1284 -5.80045L11.0001 -5.80293L10.8723 -5.8054L10.7452 -5.80786L10.6187 -5.81031L10.4928 -5.81274L10.3675 -5.81516L10.2429 -5.81757L10.1189 -5.81997L9.9955 -5.82235L9.87276 -5.82473L9.75067 -5.82709L9.62922 -5.82944L9.50842 -5.83177L9.38828 -5.83409L9.2688 -5.8364L9.14998 -5.8387L9.03183 -5.84099L8.91434 -5.84326L8.79754 -5.84552L8.68141 -5.84776L8.56595 -5.84999L8.4512 -5.85221L8.33715 -5.85442L8.22376 -5.85661L8.1111 -5.85879L7.99914 -5.86095L7.88787 -5.8631L7.77733 -5.86524L7.6675 -5.86736L7.55839 -5.86947L7.45 -5.87157L7.34235 -5.87365L7.23542 -5.87572L7.12923 -5.87777L7.02378 -5.87981L6.91908 -5.88183L6.81512 -5.88384L6.71192 -5.88584L6.60947 -5.88782L6.50778 -5.88978L6.40686 -5.89174L6.3067 -5.89367L6.20733 -5.89559L6.10873 -5.8975L6.01091 -5.89939L5.91386 -5.90127L5.81761 -5.90313L5.72216 -5.90497L5.62751 -5.9068L5.53364 -5.90862L5.44059 -5.91042L5.34836 -5.9122L5.25693 -5.91397L5.16631 -5.91572L5.07652 -5.91745L4.98757 -5.91917L4.89943 -5.92088L4.81212 -5.92257L4.72567 -5.92424L4.64005 -5.92589L4.55528 -5.92753L4.47135 -5.92915L4.38828 -5.93076L4.30607 -5.93235L4.22472 -5.93392L4.14423 -5.93548L4.06463 -5.93702L3.98589 -5.93854L3.90803 -5.94005L3.83106 -5.94153L3.75496 -5.943L3.67977 -5.94446C2.8649 -5.96021 2.03853 -5.34937 1.81891 -4.40764C2.18253 -4.49624 2.55114 -4.50079 2.8968 -4.45285C4.11601 -4.28375 5.29543 -3.44285 5.99158 -2.68389L68.3088 -5.69515Z" fill="#121212" fill-opacity="0.7" stroke="white" stroke-width="2"/>
</svg>
