<svg width="142" height="156" viewBox="0 0 142 156" fill="none" xmlns="http://www.w3.org/2000/svg">
<path d="M151.426 148.721C151.74 131.74 152.565 87.1492 152.565 87.1492C152.652 82.4554 150.818 77.7261 147.587 74.3519L82.8323 6.72796C79.6012 3.35379 75.1101 1.33731 70.3088 1.24849C70.3088 1.24849 18.4551 0.28929 5.69747 0.0532957C4.1885 0.0253823 2.79372 1.24248 2.76308 2.89912L2.71711 5.38407L2.72222 5.10796C3.32456 2.219 6.04516 3.51223 7.25678 4.77754L30.2803 28.6804C61.3787 61.1568 92.6118 93.7738 123.71 126.25L147.153 149.747C147.694 150.171 147.818 150.864 147.945 151.418C148.062 152.525 147.221 153.477 146.253 153.873L144.038 154.937L144.998 154.955C148.428 155.018 151.362 152.172 151.426 148.721Z" fill="#616161" fill-opacity="0.7"/>
</svg>
