<svg width="79" height="74" viewBox="0 0 79 74" fill="none" xmlns="http://www.w3.org/2000/svg">
<path d="M69.9712 21.7224L71.5605 19.8736L73.1094 21.2053C73.3179 21.3847 73.5834 21.4823 73.8566 21.4823C73.8853 21.4823 73.914 21.4813 73.9427 21.4791C74.2458 21.4562 74.5274 21.3139 74.7256 21.0834L77.1862 18.2214C77.5987 17.7414 77.5442 17.0179 77.0642 16.6053L68.6015 9.32972C68.3709 9.13154 68.0713 9.03191 67.7681 9.0559C67.4651 9.07867 67.1835 9.22108 66.9853 9.45151L64.5247 12.3135C64.1121 12.7935 64.1667 13.517 64.6466 13.9296L66.1955 15.2612L64.4845 17.2514C60.9798 15.0128 56.9915 13.4673 52.7141 12.811V9.34821H56.661C58.5032 9.34821 60.0017 7.84952 60.0017 6.00732V3.3409C60.0017 1.4987 58.503 0 56.661 0H39.4426C37.6004 0 36.1017 1.4987 36.1017 3.3409V6.00732C36.1017 7.84952 37.6004 9.34821 39.4426 9.34821H43.3897V12.811C39.0279 13.4803 34.9673 15.075 31.413 17.3854L29.5868 15.2612L31.1358 13.9296C31.3662 13.7314 31.5085 13.4498 31.5314 13.1468C31.5541 12.8437 31.4557 12.5439 31.2576 12.3134L28.797 9.45135C28.3842 8.97155 27.6609 8.91685 27.1808 9.32957L18.7182 16.6052C18.4878 16.8033 18.3455 17.085 18.3226 17.388C18.2998 17.691 18.3982 17.9908 18.5964 18.2214L21.057 21.0834C21.2836 21.347 21.6042 21.4822 21.9265 21.4822C22.191 21.4822 22.4568 21.3911 22.6731 21.2052L24.2219 19.8736L25.9618 21.8974C24.4561 23.4677 23.1162 25.1982 21.9694 27.0597C21.9307 27.0557 21.8915 27.0537 21.8516 27.0537H14.6143C13.9814 27.0537 13.4683 27.5668 13.4683 28.1997C13.4683 28.8326 13.9814 29.3458 14.6143 29.3458H20.6927C20.0893 30.5437 19.5624 31.7863 19.1182 33.0674H7.53894C6.90602 33.0674 6.39291 33.5806 6.39291 34.2135C6.39291 34.8464 6.90602 35.3595 7.53894 35.3595H18.4225C18.0087 36.948 17.7215 38.5869 17.5682 40.264H2.09134C1.45843 40.264 0.945312 40.7771 0.945312 41.41C0.945312 42.043 1.45843 42.5561 2.09134 42.5561H17.4449C17.442 42.7274 17.4383 42.8984 17.4383 43.0704C17.4383 44.561 17.5476 46.0264 17.7545 47.4606H6.46931C5.8364 47.4606 5.32329 47.9737 5.32329 48.6066C5.32329 49.2396 5.8364 49.7527 6.46931 49.7527H18.175C18.4592 51.0246 18.8221 52.267 19.2597 53.4742H13.5447C12.9118 53.4742 12.3987 53.9873 12.3987 54.6202C12.3987 55.2531 12.9118 55.7662 13.5447 55.7662H20.1978C25.031 66.3279 35.698 73.684 48.052 73.684C54.5045 73.684 60.6757 71.7 65.8989 67.9465C66.4128 67.5772 66.5301 66.861 66.1608 66.3471C65.791 65.8329 65.0751 65.716 64.5612 66.0854C59.7303 69.5571 54.0215 71.3921 48.052 71.3921C32.4354 71.3921 19.7304 58.6871 19.7304 43.0706C19.7304 27.4539 32.4354 14.7489 48.052 14.7489C55.6117 14.7489 62.4891 17.7263 67.5733 22.5698C67.5837 22.5808 67.5953 22.5909 67.6061 22.6016C73.0055 27.7618 76.3736 35.0302 76.3736 43.0706C76.3736 50.6447 73.4214 57.7632 68.0607 63.1144C67.6127 63.5617 67.6121 64.2872 68.0594 64.7352C68.5065 65.1831 69.2321 65.1838 69.68 64.7366C75.4745 58.9522 78.6656 51.2578 78.6656 43.0704C78.6656 34.775 75.3478 27.2413 69.9712 21.7224ZM67.9764 11.8148L74.7011 17.5961L73.7348 18.72L67.0101 12.9386L67.9764 11.8148ZM67.9338 16.7555L69.8226 18.3794L68.3098 20.139C67.6879 19.5889 67.0446 19.0624 66.3793 18.5635L67.9338 16.7555ZM42.9837 7.05616V2.29205H44.8344V7.05616H42.9837ZM47.1265 2.29205H48.9773V7.05616H47.1265V2.29205ZM51.2693 7.05616V2.29205H53.1202V7.05616H51.2693ZM57.71 3.3409V6.00732C57.71 6.58568 57.2395 7.05616 56.6613 7.05616H55.4124V2.29205H56.6613C57.2395 2.29205 57.71 2.76253 57.71 3.3409ZM38.3939 6.00732V3.3409C38.3939 2.76253 38.8644 2.29205 39.4428 2.29205H40.6916V7.05616H39.4428C38.8644 7.05616 38.3939 6.58568 38.3939 6.00732ZM22.0478 18.7201L21.0815 17.5962L27.806 11.8149L28.7724 12.9388L27.2237 14.2703C27.2237 14.2703 27.2235 14.2705 27.2234 14.2705L23.5966 17.3886C23.5964 17.3887 23.5964 17.3887 23.5963 17.3889L22.0478 18.7201ZM25.9942 18.3499L27.8487 16.7555L29.5309 18.7122C28.8697 19.2161 28.2293 19.7459 27.6118 20.3009L25.9599 18.3795L25.9942 18.3499ZM45.6817 12.5476V9.34821H50.4222V12.5478C49.6398 12.4876 48.8494 12.4567 48.0519 12.4567C47.2544 12.4567 46.4641 12.4876 45.6817 12.5476Z" fill="white"/>
<path d="M38.4538 22.1911C38.1606 21.6302 37.4681 21.4132 36.9073 21.7063C29.9398 25.3482 25.1744 32.1709 24.1598 39.9568C22.4431 53.1309 31.7644 65.2457 44.9385 66.9622C45.991 67.0995 47.0347 67.1661 48.0688 67.1659C59.9797 67.1649 70.3643 58.3052 71.9439 46.1836C72.7755 39.8017 71.0722 33.4781 67.1474 28.3774C63.2228 23.2768 57.5469 20.0097 51.1649 19.178C48.0514 18.7721 44.9463 18.9679 41.9352 19.7591C41.323 19.92 40.9572 20.5467 41.118 21.1588C41.2789 21.7709 41.9058 22.1364 42.5176 21.976C43.9598 21.597 45.4266 21.3707 46.9057 21.2948V24.3058C46.9057 24.9387 47.4187 25.4518 48.0517 25.4518C48.6848 25.4518 49.1978 24.9387 49.1978 24.3058V21.2975C49.7541 21.3276 50.3112 21.3781 50.869 21.4506C55.332 22.0322 59.413 23.9313 62.6764 26.8943L60.6009 28.9696C60.1532 29.4172 60.1532 30.1427 60.6007 30.5903C60.8246 30.8141 61.1178 30.926 61.4112 30.926C61.7044 30.926 61.9978 30.8141 62.2215 30.5903L64.2911 28.5207C64.6511 28.9238 64.9981 29.342 65.3311 29.7748C68.0713 33.3362 69.6134 37.5566 69.8297 41.9515H66.987C66.3539 41.9515 65.841 42.4646 65.841 43.0975C65.841 43.7305 66.3539 44.2436 66.987 44.2436H69.8235C69.7932 44.7903 69.7426 45.3384 69.6711 45.887C69.0807 50.4174 67.1305 54.4435 64.2862 57.6099L62.3228 55.6465C61.8751 55.199 61.1496 55.199 60.702 55.6465C60.2545 56.0941 60.2545 56.8198 60.702 57.2672L62.6675 59.2327C59.0579 62.492 54.3837 64.5374 49.3409 64.8342V62.0325C49.3409 61.3996 48.828 60.8865 48.1949 60.8865C47.5618 60.8865 47.0489 61.3996 47.0489 62.0325V64.8482C46.4473 64.8201 45.8423 64.7683 45.2348 64.689C40.7541 64.1051 36.7663 62.1917 33.6159 59.3982L35.6458 57.3683C36.0933 56.9208 36.0933 56.1952 35.6458 55.7477C35.1982 55.3001 34.4725 55.3001 34.0251 55.7477L31.9837 57.789C28.6755 54.1718 26.5946 49.4669 26.2891 44.3864H29.2598C29.8927 44.3864 30.4058 43.8733 30.4058 43.2404C30.4058 42.6075 29.8927 42.0944 29.2598 42.0944H26.2723C26.3001 41.4838 26.3522 40.8695 26.4326 40.2526C27.0064 35.8502 28.9056 31.7879 31.7881 28.5555L33.924 30.6913C34.1477 30.9151 34.4411 31.027 34.7343 31.027C35.0275 31.027 35.3209 30.9151 35.5446 30.6913C35.9922 30.2437 35.9922 29.5181 35.5446 29.0706L33.4029 26.9289C34.7681 25.6883 36.2976 24.6108 37.969 23.7372C38.5299 23.4444 38.7471 22.7519 38.4538 22.1911Z" fill="white"/>
<path d="M48.052 32.5579C47.4189 32.5579 46.906 33.071 46.906 33.7039V40.5113C45.9288 40.9507 45.2456 41.9313 45.2456 43.0704C45.2456 44.6179 46.5046 45.8768 48.052 45.8768C48.4762 45.8768 48.8771 45.7795 49.2381 45.6102L56.8839 53.256C57.1077 53.4799 57.401 53.5917 57.6944 53.5917C57.9876 53.5917 58.281 53.4799 58.5048 53.256C58.9524 52.8085 58.9524 52.0828 58.5048 51.6354L50.7406 43.871C50.8164 43.617 50.8584 43.3487 50.8584 43.0704C50.8584 41.9314 50.1752 40.9507 49.1982 40.5114V33.704C49.198 33.071 48.6849 32.5579 48.052 32.5579ZM47.5377 43.0703C47.5377 42.7867 47.7684 42.556 48.052 42.556C48.3354 42.556 48.5662 42.7867 48.5662 43.0703C48.5662 43.3539 48.3354 43.5846 48.052 43.5846C47.7682 43.5846 47.5377 43.3539 47.5377 43.0703Z" fill="white"/>
</svg>
