<svg width="19" height="23" viewBox="0 0 19 23" fill="none" xmlns="http://www.w3.org/2000/svg">
<path d="M9.46427 22.3794L9.32351 22.2838C8.42097 21.6867 7.34454 21.2806 6.30123 20.8904C5.48149 20.5799 4.63691 20.2614 3.87513 19.8553C1.97897 18.8441 0.869421 17.164 0.0331208 15.6512L0 15.5955V15.4123L0.0496812 15.3486C1.41591 13.5412 2.07005 11.8611 2.17769 9.90238C2.3019 7.52163 1.24203 5.49123 0.43057 4.16948L0.356049 4.05004L0.42229 3.93061C0.621015 3.56434 0.82802 3.19011 1.03503 2.82384C1.44904 2.06741 1.87961 1.2871 2.29362 0.514755L2.35986 0.387357H7.1955L7.25346 0.419206C7.35282 0.46698 7.45218 0.522717 7.55982 0.578454C8.12288 0.881023 8.70249 1.19952 9.41459 1.23137C10.1101 1.25525 10.6897 0.93676 11.2528 0.626228C11.3853 0.554566 11.5178 0.482905 11.642 0.411244L11.6999 0.379395H16.5521L16.6266 0.506792C16.9496 1.07212 17.2642 1.65337 17.5706 2.21074C17.877 2.77606 18.1999 3.35732 18.5228 3.92264L18.5891 4.04208L18.5145 4.16152C17.612 5.65048 16.6598 7.44201 16.7674 9.982C16.8419 11.8054 17.5375 13.5491 18.8954 15.3327L18.9451 15.3964V15.5795L18.9203 15.6353C17.8438 17.6498 16.6515 18.9397 15.0534 19.8235C14.2833 20.2534 13.4139 20.5799 12.5776 20.9064C11.5592 21.2965 10.4993 21.7026 9.61331 22.2838L9.46427 22.3794ZM1.13439 15.5079C1.10955 15.5397 1.10955 15.5875 1.13439 15.6273C2.07005 17.2835 3.11336 18.3504 4.48787 19.075C5.17513 19.4333 5.95347 19.7279 6.69868 20.0066C7.61779 20.349 8.57001 20.7073 9.41459 21.2089C9.45599 21.2328 9.49739 21.2328 9.53879 21.2089C10.3917 20.6993 11.3522 20.341 12.2795 19.9907C13.0165 19.712 13.7783 19.4254 14.4655 19.075C15.8317 18.3664 16.8668 17.2994 17.819 15.6114C17.8438 15.5716 17.8356 15.5318 17.8107 15.492C16.8585 14.1384 15.9063 12.4264 15.7903 9.98996C15.6744 7.56144 16.4942 5.70621 17.4298 4.08189C17.4464 4.05004 17.4464 4.01023 17.4298 3.97042C17.1897 3.55638 16.9661 3.14233 16.7343 2.71237C16.5935 2.44961 16.4528 2.18685 16.3037 1.91613C16.2789 1.86836 16.2458 1.81262 16.2126 1.74096C16.1712 1.64541 16.0719 1.45431 16.0056 1.3508C15.9891 1.31895 15.9559 1.30303 15.9228 1.30303C15.7821 1.2871 15.5419 1.30303 15.3763 1.31895C15.2439 1.32692 15.1279 1.33488 15.0286 1.33488H12.9006C12.7681 1.33488 12.6356 1.32692 12.5031 1.31895C12.263 1.30303 12.0394 1.29507 11.8655 1.32692C11.7993 1.34284 11.6585 1.42246 11.5592 1.4782C11.5012 1.51005 11.4515 1.5419 11.4018 1.56579L11.3522 1.58967C10.8388 1.86039 10.1929 2.19481 9.39803 2.17093C8.72733 2.14704 8.02352 1.83651 7.4853 1.56579C7.41906 1.53394 7.35282 1.49412 7.28658 1.45431C7.18722 1.39858 7.08785 1.33488 7.02161 1.32692C6.83945 1.29507 6.61588 1.30303 6.37576 1.31895C6.25155 1.32692 6.11907 1.33488 6.00315 1.33488H4.91016C4.28086 1.33488 3.67641 1.33488 3.05539 1.33488C3.01399 1.33488 2.97259 1.35876 2.94775 1.39061C2.4261 2.2824 1.93757 3.19807 1.51528 4.00227C1.49872 4.03412 1.49872 4.07393 1.52356 4.10578C2.69107 6.00878 3.23756 7.96752 3.1382 9.9183C3.07195 11.248 2.85667 12.2513 2.45094 13.1749C2.06177 14.0508 1.5898 14.8152 1.13439 15.5079ZM11.6006 20.763C11.2859 20.8825 10.9795 21.0178 10.6732 21.1532C10.9795 21.0178 11.2942 20.8825 11.6006 20.763ZM3.21272 18.8521C3.49425 19.0591 3.79233 19.2582 4.11526 19.4254C4.13182 19.4333 4.1401 19.4413 4.15666 19.4492C3.82545 19.2741 3.51081 19.075 3.21272 18.8521ZM2.3847 11.7974C2.29362 12.1637 2.17769 12.5061 2.05349 12.8325C2.19425 12.5061 2.3019 12.1637 2.3847 11.7974ZM0.935663 4.04208L0.952223 4.01023C0.943943 4.01819 0.935663 4.03412 0.935663 4.04208ZM2.66623 0.873061C2.62482 0.960647 2.57514 1.04027 2.53374 1.12786C2.55858 1.08008 2.5917 1.03231 2.61654 0.984534L2.68279 0.881023H2.66623V0.873061ZM16.163 0.873061C16.2126 0.888986 16.254 0.920835 16.2954 0.952684C16.2789 0.928797 16.2623 0.896948 16.2458 0.873061H16.163Z" fill="white"/>
<path fill-rule="evenodd" clip-rule="evenodd" d="M9.45596 3.36526C9.72092 3.49266 9.96105 3.64394 10.2177 3.77134C10.2757 3.80319 10.3005 3.86689 10.2674 3.92263C10.1018 4.23316 9.91137 4.52777 9.74576 4.83034C9.72092 4.87811 9.7292 4.94181 9.77888 4.97366C9.85341 5.02143 9.93621 5.05328 10.0107 5.10106C10.0604 5.1329 10.1349 5.11698 10.1681 5.06921C10.2509 4.95773 10.3088 4.82237 10.3751 4.70294C10.4082 4.65516 10.4744 4.63128 10.5241 4.65516C10.9547 4.84626 11.3273 5.08513 11.733 5.30011C11.791 5.33196 11.8075 5.39566 11.7827 5.44344C11.7247 5.5788 11.6419 5.69027 11.5674 5.80971C11.5343 5.86544 11.5508 5.92914 11.6088 5.96099C11.6916 6.01673 11.7827 6.05654 11.8738 6.09635C11.9235 6.12024 11.9897 6.10431 12.0228 6.05654C12.2133 5.76989 12.3789 5.45936 12.561 5.15679C12.5942 5.10106 12.6604 5.08513 12.7184 5.11698C12.8674 5.18864 12.9916 5.27623 13.1489 5.34789C13.1986 5.37178 13.2648 5.34789 13.298 5.30011C13.3808 5.16475 13.4553 5.02939 13.5381 4.89403C13.5712 4.84626 13.6375 4.82237 13.6871 4.84626C14.0349 4.99754 14.3413 5.1966 14.6642 5.37178C14.7222 5.40362 14.7387 5.46732 14.7139 5.52306C13.2897 8.02324 11.8158 10.4597 10.3751 12.9519C10.3502 12.9918 10.3502 13.0395 10.3833 13.0714C10.5738 13.2943 10.5324 13.7243 10.2343 13.8198C10.1681 13.8437 10.1432 13.9154 10.1681 13.9711C10.2343 14.1065 10.2757 14.2976 10.2012 14.4409C10.1763 14.4807 10.1846 14.5365 10.226 14.5683C10.7808 15.1097 11.319 15.6353 11.2445 16.7261C11.1451 18.1673 9.94449 19.1228 8.22221 19.0352C6.27636 18.9396 4.28911 17.387 4.29739 15.484C4.30567 13.9393 6.01967 12.6255 7.82476 13.2545C7.86616 13.2704 7.91584 13.2625 7.94896 13.2227C8.0566 13.1112 8.18908 12.9918 8.37953 12.9918C8.45405 12.9918 8.50373 12.936 8.49545 12.8644C8.46233 12.5857 8.71902 12.2751 9.04195 12.3627C9.09163 12.3787 9.14131 12.3548 9.17443 12.315C9.605 11.6382 10.0107 10.9215 10.4165 10.2209C10.4496 10.1731 10.433 10.1094 10.3833 10.0775C10.2591 9.99791 10.1101 9.92625 9.96933 9.85458C9.91137 9.82273 9.88653 9.75904 9.91965 9.7033C10.0935 9.40073 10.2674 9.10612 10.4413 8.79559C10.4661 8.74782 10.4496 8.68412 10.4082 8.64431C10.3254 8.58857 10.2343 8.54876 10.1432 8.50895C10.0935 8.48506 10.0273 8.50098 9.99417 8.54876C9.91965 8.66023 9.84513 8.78763 9.77888 8.90706C9.74576 8.9628 9.67952 8.98669 9.62156 8.95484C9.20755 8.75578 8.82666 8.51691 8.42093 8.30192C8.36297 8.27007 8.34641 8.19841 8.37953 8.14268C8.44577 8.02324 8.51201 7.90381 8.58653 7.79233C8.61966 7.74456 8.61138 7.6729 8.56169 7.64105C8.48717 7.58531 8.40437 7.55346 8.32157 7.51365C8.26361 7.48976 8.20564 7.50569 8.17252 7.55346C7.99036 7.84011 7.8082 8.12675 7.65087 8.42932C7.62603 8.48506 7.55151 8.50894 7.49355 8.48506C7.2203 8.36562 6.98017 8.21434 6.72349 8.07898C6.66553 8.04713 6.64897 7.98343 6.68209 7.92769C7.54323 6.39892 8.46233 4.92588 9.32347 3.38915C9.33175 3.3573 9.39799 3.34137 9.45596 3.36526ZM10.5738 5.54695C10.4413 5.75397 10.3337 5.98488 10.1929 6.1919C10.1598 6.24764 10.077 6.26356 10.0273 6.22375C10.019 6.22375 10.019 6.21579 10.0107 6.21579C9.95277 6.17597 9.86997 6.19986 9.83685 6.26356C9.71264 6.49447 9.5636 6.70149 9.44768 6.94036C9.42283 6.9961 9.43939 7.0598 9.49736 7.09164C9.50564 7.09961 9.5222 7.10757 9.53048 7.10757C9.58844 7.13942 9.605 7.21108 9.57188 7.25885C9.44768 7.46588 9.32347 7.68086 9.19927 7.89584C9.16615 7.95158 9.18271 8.01528 9.24067 8.04713C9.29863 8.07898 9.34831 8.11083 9.40627 8.14268C9.46424 8.17453 9.53048 8.15064 9.5636 8.0949C9.6878 7.87992 9.80372 7.66494 9.93621 7.45791C9.96933 7.40218 10.0521 7.38625 10.1101 7.42606C10.1681 7.47384 10.2591 7.44995 10.2923 7.38625C10.4165 7.15534 10.5655 6.94832 10.6814 6.70945C10.7063 6.65372 10.6814 6.59002 10.6235 6.55817C10.6152 6.5502 10.6069 6.5502 10.5903 6.54224C10.5324 6.51039 10.5158 6.43873 10.5489 6.39096C10.6731 6.18394 10.7973 5.96895 10.9216 5.75397C10.9547 5.69823 10.9298 5.63453 10.8802 5.60268C10.8222 5.57083 10.7725 5.53899 10.7145 5.50714C10.6649 5.48325 10.5986 5.49917 10.5738 5.54695ZM7.41075 14.7116C7.33622 14.4807 7.0133 14.3613 6.74005 14.3772C6.10247 14.425 5.66362 15.2292 5.74642 16.0015C5.89547 17.3233 8.04832 18.3982 9.23239 17.4905C9.48908 17.2994 9.86997 16.8774 9.85341 16.3598C9.84513 16.0891 9.63812 15.5477 9.09163 15.6751C8.7687 15.7467 8.71074 16.2324 8.91774 16.4793C8.96742 16.535 8.94258 16.6226 8.87634 16.6465C8.43749 16.8376 7.90756 16.5669 7.70883 16.2245C7.68399 16.1847 7.65087 16.1608 7.60947 16.1608C7.07126 16.1448 6.71521 15.8821 6.68209 15.4203C6.67381 15.3486 6.74833 15.2849 6.82285 15.3088C7.19546 15.3805 7.51011 15.0301 7.41075 14.7116Z" fill="white"/>
</svg>
