<svg width="16" height="13" viewBox="0 0 16 13" fill="none" xmlns="http://www.w3.org/2000/svg">
<path d="M15.5859 6.53125L14 5.21875V2.59375C14 2.48438 13.8906 2.375 13.7812 2.375H12.9062C12.7695 2.40234 12.6875 2.48438 12.6875 2.59375V4.15234L8.83203 0.980469C8.61328 0.789062 8.17578 0.652344 7.875 0.652344C7.54688 0.652344 7.10938 0.789062 6.89062 0.980469L0.136719 6.53125C0.0546875 6.61328 0 6.75 0 6.85938C0 6.94141 0.0273438 7.07812 0.0820312 7.13281L0.382812 7.48828C0.4375 7.57031 0.601562 7.625 0.710938 7.625C0.792969 7.625 0.929688 7.59766 0.984375 7.54297L1.75 6.91406V12C1.75 12.4922 2.13281 12.875 2.625 12.875H6.125C6.58984 12.875 6.97266 12.4922 7 12V9.15625H8.75V12C8.75 12.4922 9.13281 12.875 9.625 12.875H13.125C13.5898 12.875 13.9727 12.4922 14 12.0273V6.91406L14.7383 7.54297C14.793 7.59766 14.9297 7.65234 15.0117 7.65234C15.1211 7.65234 15.2852 7.57031 15.3672 7.48828L15.6406 7.13281C15.6953 7.07812 15.75 6.94141 15.75 6.85938C15.75 6.75 15.668 6.61328 15.5859 6.53125ZM12.6602 11.5625H10.0625V8.71875C10.0352 8.25391 9.65234 7.87109 9.1875 7.84375H6.5625C6.07031 7.87109 5.6875 8.25391 5.6875 8.71875V11.5625H3.0625V5.84766L7.875 1.88281L12.6875 5.84766L12.6602 11.5625Z" fill="white"/>
</svg>
