<svg width="19" height="17" viewBox="0 0 19 17" fill="none" xmlns="http://www.w3.org/2000/svg">
<g clip-path="url(#clip0)">
<path d="M13.8162 17C13.6826 17 13.5453 16.9856 13.4117 16.9493L1.17305 13.7507C0.33438 13.5262 -0.166596 12.6749 0.052349 11.8562L1.5961 6.23785C1.65176 6.03137 1.87071 5.91184 2.08223 5.96255C2.29376 6.01689 2.41993 6.23061 2.36426 6.43709L0.816802 12.0555C0.705474 12.4648 0.957818 12.8922 1.37715 13.0045L13.6121 16.2031C14.0315 16.3118 14.4656 16.0655 14.577 15.6598L15.1967 13.4247C15.2523 13.2182 15.4713 13.0951 15.6828 13.153C15.8943 13.2074 16.0168 13.4211 15.9611 13.6276L15.3451 15.8626C15.1596 16.5436 14.5176 17 13.8162 17Z" fill="white"/>
<path d="M17.415 12.3633H4.74961C3.87754 12.3633 3.16504 11.6714 3.16504 10.8165V1.54315C3.16504 0.691881 3.87754 0 4.74961 0H17.415C18.2908 0 18.9996 0.691882 18.9996 1.54677V10.8202C18.9996 11.6714 18.2908 12.3633 17.415 12.3633ZM4.74961 0.771575C4.31172 0.771575 3.95918 1.11933 3.95918 1.54315V10.8165C3.95918 11.244 4.31543 11.5881 4.74961 11.5881H17.415C17.8529 11.5881 18.2055 11.2404 18.2055 10.8165V1.54315C18.2055 1.1157 17.8492 0.771575 17.415 0.771575H4.74961Z" fill="white"/>
<path d="M7.12461 5.40828C6.25254 5.40828 5.54004 4.7164 5.54004 3.86151C5.54004 3.00662 6.25254 2.31836 7.12461 2.31836C7.99668 2.31836 8.70918 3.01024 8.70918 3.86513C8.70918 4.72002 7.99668 5.40828 7.12461 5.40828ZM7.12461 3.08993C6.68672 3.08993 6.33418 3.43769 6.33418 3.86151C6.33418 4.28533 6.68672 4.63671 7.12461 4.63671C7.5625 4.63671 7.91504 4.28895 7.91504 3.86513C7.91504 3.44131 7.55879 3.08993 7.12461 3.08993Z" fill="white"/>
<path d="M3.61768 11.5373C3.51748 11.5373 3.41357 11.501 3.33564 11.425C3.17979 11.2728 3.17979 11.0301 3.33564 10.878L7.07627 7.2266C7.52529 6.78829 8.3083 6.78829 8.75361 7.2266L9.86689 8.31332L12.947 4.7054C13.1696 4.44458 13.4999 4.29244 13.8524 4.28882H13.8599C14.205 4.28882 14.5353 4.43734 14.7616 4.69453L18.903 9.41091C19.044 9.57392 19.0255 9.81663 18.8585 9.95428C18.6915 10.0919 18.4429 10.0738 18.3019 9.91081L14.1642 5.19442C14.0862 5.10748 13.9823 5.06039 13.8636 5.06039C13.7819 5.05315 13.6372 5.10748 13.5593 5.19804L10.2009 9.13199C10.1304 9.2153 10.0265 9.26602 9.91514 9.26964C9.80381 9.27689 9.69619 9.23342 9.61826 9.15735L8.19697 7.76996C8.04853 7.62506 7.78506 7.62506 7.63662 7.76996L3.896 11.425C3.81807 11.501 3.71787 11.5373 3.61768 11.5373Z" fill="white"/>
</g>
<defs>
<clipPath id="clip0">
<rect width="19" height="17" fill="white"/>
</clipPath>
</defs>
</svg>
