<svg width="22" height="22" viewBox="0 0 22 22" fill="none" xmlns="http://www.w3.org/2000/svg">
<path d="M17.5797 2.72534C15.8223 0.967873 13.4856 0 11.0002 0C8.51481 0 6.17808 0.967873 4.42065 2.72534C2.66319 4.48285 1.69531 6.8195 1.69531 9.30486C1.69531 14.3327 6.4493 18.5147 9.00332 20.7613C9.35824 21.0735 9.66474 21.3432 9.90893 21.5713C10.2149 21.857 10.6076 22 11.0002 22C11.3929 22 11.7855 21.857 12.0914 21.5713C12.3356 21.3431 12.6421 21.0735 12.9971 20.7613C15.5511 18.5146 20.3051 14.3327 20.3051 9.30486C20.305 6.8195 19.3372 4.48285 17.5797 2.72534ZM12.1458 19.7938C11.7831 20.1128 11.4699 20.3884 11.2117 20.6296C11.0931 20.7403 10.9073 20.7403 10.7886 20.6296C10.5304 20.3883 10.2171 20.1128 9.85445 19.7937C7.45335 17.6816 2.98395 13.75 2.98395 9.3049C2.98395 4.88478 6.57997 1.28876 11.0001 1.28876C15.4202 1.28876 19.0163 4.88478 19.0163 9.3049C19.0163 13.75 14.5469 17.6816 12.1458 19.7938Z" fill="white"/>
<path d="M11 4.85266C8.73891 4.85266 6.89941 6.69212 6.89941 8.95318C6.89941 11.2142 8.73891 13.0537 11 13.0537C13.261 13.0537 15.1005 11.2142 15.1005 8.95318C15.1005 6.69212 13.261 4.85266 11 4.85266ZM11 11.7649C9.44953 11.7649 8.18813 10.5035 8.18813 8.95314C8.18813 7.40274 9.44953 6.14134 11 6.14134C12.5504 6.14134 13.8118 7.40274 13.8118 8.95314C13.8118 10.5035 12.5504 11.7649 11 11.7649Z" fill="white"/>
</svg>
