<svg width="42" height="49" viewBox="0 0 42 49" fill="none" xmlns="http://www.w3.org/2000/svg">
<path fill-rule="evenodd" clip-rule="evenodd" d="M7.82949 3.48218H16.2807C16.3116 3.48218 16.3581 3.49774 16.389 3.5133C17.5808 4.16694 18.8965 5.06958 20.5682 5.13183C22.3327 5.19409 23.7103 4.16694 24.9176 3.5133C24.9485 3.49774 24.9795 3.48218 25.0259 3.48218H33.5081C33.5854 3.48218 33.6628 3.52887 33.7093 3.59112C34.8701 5.72322 35.9691 7.91757 37.13 10.0497C37.1609 10.1119 37.1609 10.2053 37.13 10.2676C35.3345 13.3801 33.6628 16.8506 33.864 21.7996C34.0498 26.1572 35.8608 29.6588 37.842 32.4134C37.8575 32.5224 37.8575 32.6157 37.8575 32.7247C36.1394 36.0551 34.0807 38.7475 30.8767 40.5994C27.7346 42.4203 23.8496 43.2918 20.8003 45.3461C20.7229 45.3928 20.6301 45.3928 20.5682 45.3461C17.5189 43.2918 13.6493 42.4359 10.4608 40.6461C7.27227 38.8564 5.27557 36.0084 3.54199 32.7402C3.54199 32.6313 3.55747 32.5068 3.55747 32.4134C5.58513 29.581 7.30323 26.1883 7.5354 21.644C7.76758 17.1619 6.04948 13.3334 4.26947 10.2831C4.23852 10.2209 4.22304 10.1431 4.26947 10.0652C5.38391 7.91757 6.52931 5.78547 7.64375 3.60668C7.67471 3.52887 7.7521 3.48218 7.82949 3.48218ZM5.29104 10.1119C5.26009 10.1742 5.26009 10.252 5.30652 10.3298C7.10201 13.3179 8.60341 17.193 8.40219 21.644C8.29384 24.0406 7.93784 26.0171 7.14844 27.8535C6.40548 29.581 5.52322 31.0906 4.57904 32.5535C4.53261 32.6157 4.53261 32.7091 4.56356 32.7714C6.18879 35.8372 8.12358 38.2806 11.1573 39.9458C14.1292 41.5799 17.7201 42.3892 20.5836 44.2567C20.661 44.3034 20.7539 44.3034 20.8158 44.2567C23.6793 42.3892 27.2548 41.5643 30.2421 39.9458C33.2914 38.2961 35.2107 35.8061 36.8359 32.7247C36.8668 32.6469 36.8668 32.569 36.8204 32.4912C34.8856 29.6588 33.183 26.3906 32.9663 21.7529C32.7496 16.9129 34.4058 13.2867 36.1084 10.2209C36.1394 10.1586 36.1394 10.0808 36.1084 10.003C35.3345 8.63346 34.6534 7.21725 33.8795 5.76991C33.6938 5.42753 33.3223 4.4782 33.0592 4.38482C32.6103 4.21363 31.6352 4.38482 31.0779 4.38482C29.623 4.38482 28.4776 4.38482 27.1 4.38482C26.4035 4.38482 25.6451 4.26032 25.0724 4.38482C24.7783 4.44707 24.3604 4.74276 24.0817 4.91395C23.1221 5.44309 21.9767 6.09673 20.5836 6.03448C19.3918 5.98779 18.1226 5.38084 17.2094 4.91395C16.8688 4.7272 16.5283 4.44707 16.2187 4.38482C15.6151 4.27588 14.9031 4.38482 14.2375 4.38482C12.2253 4.38482 10.3679 4.38482 8.44862 4.38482C8.37123 4.38482 8.29384 4.43151 8.24741 4.49376C7.21036 6.33017 6.2507 8.21327 5.29104 10.1119Z" fill="#62F8B2"/>
<g filter="url(#filter0_d)">
<path d="M20.6917 46L20.4286 45.8132C18.7415 44.646 16.7293 43.8523 14.779 43.0898C13.2467 42.4828 11.6679 41.8603 10.2439 41.0666C6.69932 39.0901 4.62522 35.8064 3.06191 32.8494L3 32.7405V32.3826L3.09287 32.2581C5.64679 28.7253 6.86958 25.4415 7.0708 21.6131C7.30298 16.9598 5.32175 12.9913 3.80487 10.4079L3.66557 10.1744L3.78939 9.94101C4.16087 9.22512 4.54783 8.49367 4.93479 7.77778C5.70871 6.29931 6.51358 4.77416 7.2875 3.26457L7.41132 3.01556H16.4507L16.559 3.07781C16.7448 3.17119 16.9305 3.28013 17.1317 3.38907C18.1842 3.98046 19.2677 4.60297 20.5989 4.66522C21.899 4.71191 22.9825 4.0894 24.0351 3.48245C24.2827 3.34238 24.5304 3.20232 24.7625 3.06225L24.8709 3H33.9412L34.0805 3.249C34.6841 4.35396 35.2723 5.49005 35.845 6.57944C36.4177 7.6844 37.0214 8.82048 37.625 9.92544L37.7489 10.1589L37.6096 10.3923C35.9224 13.3026 34.1424 16.8042 34.3436 21.7687C34.4829 25.3326 35.7831 28.7409 38.3216 32.2269L38.4144 32.3514V32.7094L38.368 32.8183C36.3558 36.7557 34.1269 39.2769 31.1396 41.0043C29.7001 41.8447 28.0749 42.4828 26.5116 43.1209C24.6078 43.8835 22.6265 44.6772 20.9703 45.8132L20.6917 46ZM5.12053 32.5693C5.0741 32.6316 5.0741 32.7249 5.12053 32.8027C6.86958 36.0398 8.81985 38.1252 11.3893 39.5414C12.674 40.2418 14.1289 40.8176 15.522 41.3623C17.2401 42.0315 19.0201 42.7318 20.5989 43.7123C20.6763 43.759 20.7536 43.759 20.831 43.7123C22.4253 42.7163 24.2208 42.0159 25.9544 41.3312C27.3319 40.7865 28.7559 40.2262 30.0406 39.5414C32.5946 38.1564 34.5294 36.0709 36.3094 32.7716C36.3558 32.6938 36.3403 32.616 36.2939 32.5382C34.5139 29.8925 32.7339 26.5465 32.5172 21.7843C32.3005 17.0376 33.8328 13.4115 35.5819 10.2367C35.6128 10.1744 35.6128 10.0966 35.5819 10.0188C35.133 9.20955 34.7151 8.40029 34.2817 7.5599C34.0186 7.04633 33.7554 6.53275 33.4768 6.00362C33.4304 5.91024 33.3685 5.8013 33.3066 5.66124C33.2292 5.47448 33.0434 5.10098 32.9196 4.89866C32.8887 4.83641 32.8267 4.80528 32.7648 4.80528C32.5017 4.77416 32.0528 4.80528 31.7433 4.83641C31.4956 4.85197 31.2789 4.86754 31.0932 4.86754H27.1152C26.8676 4.86754 26.6199 4.85197 26.3723 4.83641C25.9234 4.80528 25.5055 4.78972 25.1805 4.85197C25.0566 4.8831 24.7935 5.03873 24.6078 5.14767C24.4994 5.20992 24.4065 5.27217 24.3137 5.31886L24.2208 5.36554C23.2611 5.89468 22.0538 6.54832 20.5679 6.50163C19.3142 6.45494 17.9985 5.84799 16.9924 5.31886C16.8686 5.25661 16.7448 5.17879 16.6209 5.10098C16.4352 4.99204 16.2495 4.86754 16.1256 4.85197C15.7851 4.78972 15.3672 4.80528 14.9183 4.83641C14.6861 4.85197 14.4385 4.86754 14.2218 4.86754H12.1787C11.0023 4.86754 9.87238 4.86754 8.7115 4.86754C8.63411 4.86754 8.55672 4.91422 8.51029 4.97647C7.53515 6.71951 6.62193 8.50923 5.83253 10.0811C5.80158 10.1433 5.80158 10.2211 5.84801 10.2834C8.03046 14.0029 9.05203 17.8313 8.86629 21.6442C8.74246 24.2432 8.34002 26.2041 7.58159 28.0094C6.8541 29.7213 5.97184 31.2153 5.12053 32.5693ZM24.6851 42.8408C24.097 43.0742 23.5243 43.3388 22.9516 43.6033C23.5243 43.3388 24.1124 43.0742 24.6851 42.8408ZM9.00559 39.1057C9.53186 39.5103 10.0891 39.8994 10.6927 40.2262C10.7237 40.2418 10.7392 40.2573 10.7701 40.2729C10.151 39.9305 9.56281 39.5414 9.00559 39.1057ZM7.45776 25.317C7.2875 26.0329 7.0708 26.7021 6.83863 27.3402C7.10176 26.7021 7.30298 26.0329 7.45776 25.317ZM4.74905 10.1589L4.78001 10.0966C4.76453 10.1122 4.74905 10.1433 4.74905 10.1589ZM7.98402 3.96489C7.90663 4.13608 7.81376 4.29171 7.73637 4.4629C7.7828 4.36953 7.84472 4.27615 7.89115 4.18277L8.01498 3.98046H7.98402V3.96489ZM33.2137 3.96489C33.3066 3.99602 33.384 4.05827 33.4614 4.12052C33.4304 4.07383 33.3994 4.01158 33.3685 3.96489H33.2137Z" fill="#62F8B2"/>
</g>
<g filter="url(#filter1_d)">
<path fill-rule="evenodd" clip-rule="evenodd" d="M20.6763 8.83608C21.1716 9.08508 21.6204 9.38078 22.1003 9.62978C22.2086 9.69203 22.255 9.81653 22.1931 9.92547C21.8836 10.5324 21.5276 11.1082 21.218 11.6996C21.1716 11.793 21.187 11.9175 21.2799 11.9798C21.4192 12.0731 21.574 12.1354 21.7133 12.2288C21.8062 12.291 21.9455 12.2599 22.0074 12.1665C22.1622 11.9486 22.2705 11.6841 22.3944 11.4506C22.4563 11.3573 22.5801 11.3106 22.673 11.3573C23.4778 11.7308 24.1744 12.1976 24.9328 12.6178C25.0411 12.6801 25.0721 12.8046 25.0257 12.898C24.9173 13.1625 24.7625 13.3804 24.6232 13.6139C24.5613 13.7228 24.5923 13.8473 24.7006 13.9095C24.8554 14.0185 25.0257 14.0963 25.1959 14.1741C25.2888 14.2208 25.4126 14.1897 25.4745 14.0963C25.8305 13.536 26.1401 12.9291 26.4806 12.3377C26.5425 12.2288 26.6664 12.1976 26.7747 12.2599C27.0533 12.4 27.2855 12.5711 27.5796 12.7112C27.6725 12.7579 27.7963 12.7112 27.8582 12.6178C28.013 12.3533 28.1523 12.0887 28.3071 11.8241C28.369 11.7308 28.4928 11.6841 28.5857 11.7308C29.2358 12.0265 29.8085 12.4155 30.4121 12.7579C30.5205 12.8202 30.5514 12.9447 30.505 13.0536C27.8427 17.9403 25.0876 22.7025 22.3944 27.5737C22.3479 27.6515 22.3479 27.7449 22.4098 27.8071C22.7658 28.2429 22.6884 29.0833 22.1312 29.27C22.0074 29.3167 21.961 29.4568 22.0074 29.5657C22.1312 29.8303 22.2086 30.2038 22.0693 30.4839C22.0229 30.5617 22.0383 30.6707 22.1157 30.7329C23.1528 31.7912 24.1589 32.8183 24.0196 34.9504C23.8338 37.7673 21.5895 39.6348 18.37 39.4637C14.7326 39.2769 11.0178 36.2422 11.0333 32.5227C11.0487 29.5035 14.2527 26.9356 17.627 28.1651C17.7044 28.1962 17.7973 28.1806 17.8592 28.1028C18.0604 27.8849 18.3081 27.6515 18.6641 27.6515C18.8034 27.6515 18.8962 27.5426 18.8808 27.4025C18.8189 26.8578 19.2987 26.2508 19.9023 26.422C19.9952 26.4532 20.0881 26.4065 20.15 26.3287C20.9549 25.0058 21.7133 23.6052 22.4717 22.2356C22.5337 22.1423 22.5027 22.0178 22.4098 21.9555C22.1777 21.7999 21.899 21.6598 21.6359 21.5198C21.5276 21.4575 21.4811 21.333 21.543 21.2241C21.8681 20.6327 22.1931 20.0569 22.5182 19.4499C22.5646 19.3565 22.5337 19.232 22.4563 19.1542C22.3015 19.0453 22.1312 18.9675 21.961 18.8896C21.8681 18.843 21.7443 18.8741 21.6823 18.9675C21.543 19.1853 21.4037 19.4343 21.2799 19.6678C21.218 19.7767 21.0942 19.8234 20.9858 19.7612C20.2119 19.3721 19.4999 18.9052 18.7415 18.485C18.6331 18.4228 18.6022 18.2827 18.6641 18.1738C18.7879 17.9403 18.9117 17.7069 19.051 17.489C19.1129 17.3956 19.0975 17.2555 19.0046 17.1933C18.8653 17.0844 18.7105 17.0221 18.5557 16.9443C18.4474 16.8976 18.339 16.9287 18.2771 17.0221C17.9366 17.5824 17.5961 18.1426 17.302 18.734C17.2555 18.843 17.1162 18.8896 17.0079 18.843C16.4971 18.6095 16.0482 18.3138 15.5684 18.0493C15.4601 17.987 15.4291 17.8625 15.491 17.7536C17.1008 14.7655 18.8189 11.8864 20.4286 8.88277C20.4441 8.82052 20.5679 8.78939 20.6763 8.83608ZM22.7658 13.1003C22.5182 13.5049 22.317 13.9562 22.0538 14.3609C21.9919 14.4698 21.8371 14.5009 21.7443 14.4231C21.7288 14.4231 21.7288 14.4076 21.7133 14.4076C21.605 14.3297 21.4502 14.3764 21.3883 14.5009C21.1561 14.9523 20.8775 15.3569 20.6608 15.8238C20.6143 15.9327 20.6453 16.0572 20.7536 16.1195C20.7691 16.135 20.8001 16.1506 20.8156 16.1506C20.9239 16.2128 20.9549 16.3529 20.893 16.4463C20.6608 16.8509 20.4286 17.2711 20.1964 17.6913C20.1345 17.8002 20.1655 17.9247 20.2738 17.987C20.3822 18.0493 20.475 18.1115 20.5834 18.1738C20.6917 18.236 20.8156 18.1893 20.8775 18.0804C21.1096 17.6602 21.3263 17.24 21.574 16.8354C21.6359 16.7264 21.7907 16.6953 21.899 16.7731C22.0074 16.8665 22.1777 16.8198 22.2396 16.6953C22.4717 16.244 22.7504 15.8393 22.967 15.3725C23.0135 15.2635 22.967 15.139 22.8587 15.0768C22.8432 15.0612 22.8277 15.0612 22.7968 15.0456C22.6884 14.9834 22.6575 14.8433 22.7194 14.7499C22.9516 14.3453 23.1837 13.9251 23.4159 13.5049C23.4778 13.396 23.4314 13.2715 23.3385 13.2092C23.2302 13.147 23.1373 13.0847 23.029 13.0225C22.9361 12.9758 22.8123 13.0069 22.7658 13.1003ZM16.8531 31.0131C16.7138 30.5617 16.1101 30.3283 15.5994 30.3594C14.4075 30.4528 13.5872 32.0246 13.742 33.5342C14.0206 36.1177 18.0449 38.2186 20.2583 36.4445C20.7382 36.071 21.4502 35.2461 21.4192 34.2346C21.4037 33.7054 21.0168 32.6472 19.9952 32.8962C19.3916 33.0362 19.2832 33.9856 19.6702 34.468C19.763 34.5769 19.7166 34.7481 19.5928 34.7948C18.7724 35.1683 17.7818 34.6392 17.4103 33.97C17.3639 33.8922 17.302 33.8455 17.2246 33.8455C16.2185 33.8144 15.5529 33.3008 15.491 32.3981C15.4755 32.2581 15.6148 32.1336 15.7541 32.1803C16.4507 32.3203 17.0388 31.6356 16.8531 31.0131Z" fill="#62F8B2"/>
</g>
<defs>
<filter id="filter0_d" x="0" y="0" width="41.4144" height="49" filterUnits="userSpaceOnUse" color-interpolation-filters="sRGB">
<feFlood flood-opacity="0" result="BackgroundImageFix"/>
<feColorMatrix in="SourceAlpha" type="matrix" values="0 0 0 0 0 0 0 0 0 0 0 0 0 0 0 0 0 0 127 0"/>
<feOffset/>
<feGaussianBlur stdDeviation="1.5"/>
<feColorMatrix type="matrix" values="0 0 0 0 0 0 0 0 0 1 0 0 0 0 0.58 0 0 0 0.87 0"/>
<feBlend mode="normal" in2="BackgroundImageFix" result="effect1_dropShadow"/>
<feBlend mode="normal" in="SourceGraphic" in2="effect1_dropShadow" result="shape"/>
</filter>
<filter id="filter1_d" x="9.0332" y="6.8136" width="23.4927" height="34.6609" filterUnits="userSpaceOnUse" color-interpolation-filters="sRGB">
<feFlood flood-opacity="0" result="BackgroundImageFix"/>
<feColorMatrix in="SourceAlpha" type="matrix" values="0 0 0 0 0 0 0 0 0 0 0 0 0 0 0 0 0 0 127 0"/>
<feOffset/>
<feGaussianBlur stdDeviation="1"/>
<feColorMatrix type="matrix" values="0 0 0 0 0 0 0 0 0 1 0 0 0 0 0.58 0 0 0 0.87 0"/>
<feBlend mode="normal" in2="BackgroundImageFix" result="effect1_dropShadow"/>
<feBlend mode="normal" in="SourceGraphic" in2="effect1_dropShadow" result="shape"/>
</filter>
</defs>
</svg>
