<svg xmlns="http://www.w3.org/2000/svg" xmlns:xlink="http://www.w3.org/1999/xlink" version="1.1" baseProfile="tiny" x="0px" y="0px" viewBox="0 0 100 125" xml:space="preserve"><g><g><path d="M39.991,73.075c-19.457,0-35.286-15.833-35.286-35.29S20.535,2.5,39.991,2.5c19.461,0,35.29,15.829,35.29,35.286    S59.452,73.075,39.991,73.075z M39.991,8.436c-16.184,0-29.35,13.166-29.35,29.35s13.166,29.346,29.35,29.346    c16.185,0,29.347-13.162,29.347-29.346S56.176,8.436,39.991,8.436z"/></g><g><path d="M92.327,97.5c-0.79,0-1.58-0.319-2.167-0.942L59.438,63.82c-1.116-1.196-1.059-3.074,0.138-4.197    c1.188-1.119,3.065-1.065,4.196,0.138l30.723,32.738c1.116,1.196,1.059,3.073-0.138,4.196C93.784,97.231,93.06,97.5,92.327,97.5z"/></g></g><text x="0" y="115" fill="#000000" font-size="5px" font-weight="bold" font-family="'Helvetica Neue', Helvetica, Arial-Unicode, Arial, Sans-serif">Created by Wing</text><text x="0" y="120" fill="#000000" font-size="5px" font-weight="bold" font-family="'Helvetica Neue', Helvetica, Arial-Unicode, Arial, Sans-serif">from the Noun Project</text></svg>