<svg width="18" height="18" viewBox="0 0 18 18" fill="none" xmlns="http://www.w3.org/2000/svg">
<path d="M10.7789 7.22099L10.3113 6.75342C9.58711 6.0292 8.62031 5.62842 7.59375 5.62842C6.56719 5.62842 5.60391 6.0292 4.87617 6.75342L1.125 10.5011C0.400781 11.2288 0 12.1921 0 13.2186C0 14.2452 0.400781 15.2085 1.125 15.9362L2.06367 16.8749C2.78789 17.5991 3.75469 17.9999 4.78125 17.9999C5.80781 17.9999 6.77109 17.5991 7.49883 16.8749L8.90508 15.4686C9.1125 15.2612 9.1125 14.9272 8.90508 14.7233C8.69766 14.5159 8.36367 14.5159 8.15977 14.7233L6.75352 16.1296C6.22617 16.6569 5.52656 16.9452 4.78125 16.9452C4.03594 16.9452 3.33633 16.6569 2.80898 16.1296L1.87031 15.1909C1.34297 14.6636 1.05469 13.964 1.05469 13.2186C1.05469 12.4733 1.34297 11.7737 1.87031 11.2464L5.62148 7.49521C6.14883 6.96787 6.84844 6.67959 7.59375 6.67959C8.33906 6.67959 9.03867 6.96787 9.56602 7.49521L10.0336 7.96279C10.241 8.17021 10.575 8.17021 10.7789 7.96279C10.9863 7.75888 10.9863 7.4249 10.7789 7.22099Z" fill="white"/>
<path d="M16.8755 2.06367L15.9369 1.125C15.2127 0.400781 14.2459 0 13.2193 0C12.1927 0 11.2294 0.400781 10.5017 1.125L9.09546 2.53125C8.88804 2.73867 8.88804 3.07266 9.09546 3.27656C9.30289 3.48398 9.63687 3.48398 9.84078 3.27656L11.247 1.87031C11.7744 1.34297 12.474 1.05469 13.2193 1.05469C13.9646 1.05469 14.6642 1.34297 15.1916 1.87031L16.1302 2.80898C16.6576 3.33633 16.9459 4.03594 16.9459 4.78125C16.9459 5.52656 16.6576 6.22617 16.1302 6.75352L12.3791 10.5012C11.8517 11.0285 11.1521 11.3168 10.4068 11.3168C9.66148 11.3168 8.96187 11.0285 8.43453 10.5012L7.96695 10.0336C7.75953 9.82617 7.42554 9.82617 7.22163 10.0336C7.01773 10.241 7.01421 10.575 7.22163 10.7789L7.68921 11.2465C8.41343 11.9707 9.38023 12.3715 10.4068 12.3715C11.4334 12.3715 12.3966 11.9707 13.1244 11.2465L16.8755 7.49883C17.5998 6.77461 18.0005 5.80781 18.0005 4.78125C18.0005 3.75469 17.5998 2.78789 16.8755 2.06367Z" fill="white"/>
</svg>
