<svg width="7" height="11" viewBox="0 0 7 11" fill="none" xmlns="http://www.w3.org/2000/svg">
<path d="M4.58424 0.00248688C4.56128 0.00689751 4.53958 0.0163117 4.52068 0.03006C4.50177 0.0438084 4.48613 0.0615532 4.47486 0.0820323L0.0203167 7.87749C0.00505197 7.90472 -0.00186393 7.93584 0.000430292 7.96697L0.159521 10.0352C0.16181 10.0595 0.169656 10.0829 0.182453 10.1037C0.195249 10.1244 0.212653 10.142 0.233318 10.155C0.253983 10.168 0.277356 10.176 0.301628 10.1785C0.325901 10.181 0.350424 10.1779 0.3733 10.1694L2.44148 9.37393C2.477 9.36146 2.50695 9.3368 2.526 9.30433L6.98054 1.50888C7.00041 1.4725 7.00529 1.4298 6.99414 1.38987C6.983 1.34994 6.95672 1.31594 6.92088 1.2951L4.69361 0.0223732C4.66073 0.00280903 4.6219 -0.00425101 4.58424 0.00248688ZM4.67373 0.375356L6.62259 1.48899L5.79233 2.94567L3.84347 1.83203L4.67373 0.375356ZM3.68438 2.10547L5.63324 3.22408L2.27245 9.1005L0.462788 9.80149L0.323584 7.99183L3.68438 2.10547Z" fill="white"/>
</svg>
