<svg width="25" height="25" viewBox="0 0 25 25" fill="none" xmlns="http://www.w3.org/2000/svg">
<path d="M17.8829 11.7368C16.8194 11.7368 15.957 10.8747 15.957 9.81098C15.957 8.74746 16.8194 7.88513 17.8829 7.88513C18.9466 7.88513 19.8087 8.74746 19.8087 9.81098C19.8075 10.8742 18.9461 11.7356 17.8829 11.7368ZM17.8829 8.65553C17.2448 8.65553 16.7274 9.1729 16.7274 9.81098C16.7274 10.4494 17.2448 10.9664 17.8829 10.9664C18.5213 10.9664 19.0383 10.4494 19.0383 9.81098C19.0383 9.1729 18.5213 8.65553 17.8829 8.65553Z" fill="white"/>
<path d="M7.0987 11.7368C6.03518 11.7368 5.17285 10.8747 5.17285 9.81098C5.17285 8.74746 6.03518 7.88513 7.0987 7.88513C8.16237 7.88513 9.02455 8.74746 9.02455 9.81098C9.02335 10.8742 8.16192 11.7356 7.0987 11.7368ZM7.0987 8.65553C6.46062 8.65553 5.94325 9.1729 5.94325 9.81098C5.94325 10.4494 6.46062 10.9664 7.0987 10.9664C7.73709 10.9664 8.25415 10.4494 8.25415 9.81098C8.25415 9.1729 7.73709 8.65553 7.0987 8.65553Z" fill="white"/>
<path d="M20.1942 14.2182L23.866 10.8804C24.2955 10.4805 24.3256 9.81006 23.9335 9.37347C23.5414 8.93688 22.8716 8.89483 22.4283 9.27913L19.6627 11.7368H15.775L12.876 15.2803V5.57422H16.7277V7.11487H23.074L22.1498 4.80382L23.074 2.49292H18.6536V0.952271H12.1058V15.2803L9.20714 11.7368H5.31943L2.55385 9.27868C2.11018 8.89363 1.4397 8.93537 1.04726 9.37226C0.654529 9.80931 0.68482 10.4802 1.11538 10.8804L4.78774 14.2182V23.2916H0.936044V24.062H24.0458V23.2916H20.1942V14.2182ZM18.6536 3.26317H21.9362L21.3201 4.80382L21.9362 6.34447H17.498V5.57422H18.6536V3.26317ZM12.876 1.72252H17.8832V4.80382H12.876V1.72252ZM8.63929 23.2916H7.48384V17.8994H6.71344V23.2916H5.55799V13.8776L1.63396 10.3118C1.52349 10.209 1.5039 10.0412 1.58739 9.9154C1.63622 9.84216 1.71428 9.79363 1.80154 9.78233C1.8888 9.77088 1.97681 9.79785 2.04266 9.85617L5.02661 12.5071H8.84198L11.706 16.0076C11.817 16.1402 11.7996 16.3377 11.6671 16.4489C11.5343 16.5598 11.3367 16.5423 11.2258 16.4097L8.63929 13.3931V23.2916ZM15.5723 23.2916H9.40969V15.4729L10.6423 16.9096C10.9996 17.3258 11.6113 17.4095 12.0672 17.1044C12.0815 17.0948 12.0939 17.0826 12.1079 17.072V20.2103H12.8781V17.0728C12.8926 17.0838 12.9054 17.0968 12.9208 17.1069C13.3764 17.4098 13.9863 17.3258 14.3428 16.9108L15.5723 15.4729V23.2916ZM19.4238 23.2916H18.2684V17.8994H17.498V23.2916H16.3425V13.3931L13.7563 16.4109C13.6528 16.5309 13.4758 16.5545 13.3446 16.4659C13.271 16.4175 13.2216 16.3399 13.2089 16.2528C13.1957 16.1656 13.2199 16.0768 13.276 16.0087L16.14 12.5071H19.9555L22.9389 9.85497C23.0043 9.79574 23.0927 9.76847 23.18 9.78067C23.2686 9.79182 23.3476 9.84141 23.3961 9.91631C23.479 10.0415 23.4586 10.2085 23.3479 10.3102L19.4238 13.8776V23.2916Z" fill="white"/>
</svg>
