<svg width="60" height="59" viewBox="0 0 60 59" fill="none" xmlns="http://www.w3.org/2000/svg">
<path d="M45 27.625C45 26.9219 44.2969 26.2187 43.5938 26.2187H33.2812V15.9062C33.2812 15.2031 32.5781 14.5 31.875 14.5H28.125C27.3047 14.5 26.7188 15.2031 26.7188 15.9062V26.2188H16.4062C15.5859 26.2188 15 26.9219 15 27.625V31.375C15 32.1953 15.5859 32.7812 16.4063 32.7812H26.7188V43.0938C26.7188 43.9141 27.3047 44.5 28.125 44.5H31.875C32.5781 44.5 33.2812 43.9141 33.2812 43.0938V32.7812H43.5938C44.2969 32.7812 45 32.1953 45 31.375V27.625ZM59.0625 29.5C59.0625 13.4453 46.0547 0.4375 30 0.4375C13.9453 0.4375 0.9375 13.4453 0.9375 29.5C0.9375 45.5547 13.9453 58.5625 30 58.5625C46.0547 58.5625 59.0625 45.5547 59.0625 29.5ZM53.4375 29.5C53.4375 42.5078 42.8906 52.9375 30 52.9375C16.9922 52.9375 6.5625 42.5078 6.5625 29.5C6.5625 16.6094 16.9922 6.0625 30 6.0625C42.8906 6.0625 53.4375 16.6094 53.4375 29.5Z" fill="#23925F"/>
</svg>
