<svg width="13" height="13" viewBox="0 0 13 13" fill="none" xmlns="http://www.w3.org/2000/svg">
<path d="M0 5.875H5.25V0.625H0V5.875ZM1.09375 1.71875H4.15625V4.78125H1.09375V1.71875ZM7 0.625V5.875H12.25V0.625H7ZM11.1562 4.78125H8.09375V1.71875H11.1562V4.78125ZM0 12.875H5.25V7.625H0V12.875ZM1.09375 8.71875H4.15625V11.7812H1.09375V8.71875ZM1.96875 9.59375V10.9062H3.28125V9.59375H1.96875ZM1.96875 2.59375V3.90625H3.28125V2.59375H1.96875ZM10.2812 3.90625V2.59375H8.96875V3.90625H10.2812ZM11.375 7.625V8.5H9.625V7.625H7V12.875H7.875V10.25H8.75V11.125H12.25V7.625H11.375ZM11.375 12V12.875H12.25V12H11.375ZM9.625 12V12.875H10.5V12H9.625Z" fill="white"/>
</svg>
