<svg width="18" height="21" viewBox="0 0 18 21" fill="none" xmlns="http://www.w3.org/2000/svg">
<path d="M15.625 3H13.75V0.96875C13.75 0.734375 13.5156 0.5 13.2812 0.5H11.7188C11.4453 0.5 11.25 0.734375 11.25 0.96875V3H6.25V0.96875C6.25 0.734375 6.01562 0.5 5.78125 0.5H4.21875C3.94531 0.5 3.75 0.734375 3.75 0.96875V3H1.875C0.820312 3 0 3.85938 0 4.875V18.625C0 19.6797 0.820312 20.5 1.875 20.5H15.625C16.6406 20.5 17.5 19.6797 17.5 18.625V4.875C17.5 3.85938 16.6406 3 15.625 3ZM15.3906 18.625H2.10938C1.95312 18.625 1.875 18.5469 1.875 18.3906V6.75H15.625V18.3906C15.625 18.5469 15.5078 18.625 15.3906 18.625Z" fill="white"/>
</svg>
