<svg width="24" height="19" viewBox="0 0 24 19" fill="none" xmlns="http://www.w3.org/2000/svg">
<path d="M22.8047 16.6993H21.975V9.61256C21.975 8.91919 21.3891 8.3564 20.6719 8.3564H16.875V5.77204C16.875 5.58294 16.7156 5.42986 16.5187 5.42986C16.3219 5.42986 16.1625 5.58294 16.1625 5.77204V8.3609H12.9703C12.5953 8.3609 12.2578 8.51398 12.0187 8.75711C11.7797 8.51398 11.4422 8.3609 11.0672 8.3609H7.27031V1.25616C7.27031 0.940995 7.5375 0.68436 7.86563 0.68436H9.46875V1.93152C9.46875 2.35924 9.82969 2.70592 10.275 2.70592H13.0359C13.4813 2.70592 13.8422 2.35924 13.8422 1.93152V0.679858H15.5672C15.8953 0.679858 16.1625 0.936493 16.1625 1.25166V4.16919C16.1625 4.35829 16.3219 4.51137 16.5187 4.51137C16.7156 4.51137 16.875 4.35829 16.875 4.16919V1.25616C16.875 0.562796 16.2891 0 15.5719 0H7.86563C7.14844 0 6.5625 0.562796 6.5625 1.25616V8.3564H3.37031C2.64844 8.3564 2.06719 8.91919 2.06719 9.61256V16.7038H1.19531C0.534375 16.6993 0 17.2171 0 17.8519C0 18.4822 0.534375 19 1.19531 19H22.8047C23.4656 19 24 18.4822 24 17.8519C24 17.2171 23.4656 16.6993 22.8047 16.6993ZM13.1344 1.92701C13.1344 1.97654 13.0922 2.02156 13.0359 2.02156H10.275C10.2234 2.02156 10.1766 1.97654 10.1766 1.92701V0.679858H13.1297V1.92701H13.1344ZM15.2859 9.03626H18.2391V10.2834C18.2391 10.3329 18.1969 10.378 18.1406 10.378H15.3844C15.3328 10.378 15.2859 10.3374 15.2859 10.2834V9.03626ZM12.9703 9.03626H14.5781V10.2834C14.5781 10.7111 14.9391 11.0578 15.3844 11.0578H18.1406C18.5859 11.0578 18.9469 10.7111 18.9469 10.2834V9.03626H20.6719C21 9.03626 21.2672 9.29289 21.2672 9.60806V16.6993H12.375V9.61256C12.375 9.29289 12.6422 9.03626 12.9703 9.03626ZM5.68594 9.03626H8.63906V10.2834C8.63906 10.3329 8.59688 10.378 8.54062 10.378H5.77969C5.72813 10.378 5.68125 10.3374 5.68125 10.2834V9.03626H5.68594ZM22.8047 18.3201H1.19531C0.928125 18.3201 0.707813 18.1085 0.707813 17.8519C0.707813 17.5953 0.928125 17.3836 1.19531 17.3836H6.18281C6.37969 17.3836 6.53906 17.2306 6.53906 17.0415C6.53906 16.8524 6.37969 16.6993 6.18281 16.6993H2.775V9.61256C2.775 9.29739 3.04219 9.04076 3.37031 9.04076H4.97812V10.2879C4.97812 10.7156 5.33906 11.0623 5.78438 11.0623H8.54531C8.99063 11.0623 9.35156 10.7156 9.35156 10.2879V9.04076H11.0766C11.4047 9.04076 11.6719 9.29739 11.6719 9.61256V16.7038H7.81406C7.61719 16.7038 7.45781 16.8569 7.45781 17.046C7.45781 17.2351 7.61719 17.3882 7.81406 17.3882H22.8094C23.0766 17.3882 23.2969 17.5998 23.2969 17.8564C23.2922 18.1085 23.0719 18.3201 22.8047 18.3201Z" fill="white"/>
</svg>
