<svg width="23" height="23" viewBox="0 0 23 23" fill="none" xmlns="http://www.w3.org/2000/svg">
<g clip-path="url(#clip0)">
<path d="M5.99479 11.0105C2.68267 11.0105 0 13.6932 0 17.0053C0 20.3174 2.68267 23.0001 5.99479 23.0001C9.30691 23.0001 11.9896 20.3174 11.9896 17.0053C11.9846 13.6982 9.30191 11.0155 5.99479 11.0105ZM5.99479 22.2008C3.12728 22.2008 0.799305 19.8728 0.799305 17.0053C0.799305 14.1378 3.12728 11.8098 5.99479 11.8098C8.86229 11.8098 11.1903 14.1378 11.1903 17.0053C11.1853 19.8728 8.86229 22.2008 5.99479 22.2008Z" fill="white"/>
<path d="M5.59473 12.6091H6.39403V13.4084H5.59473V12.6091Z" fill="white"/>
<path d="M3.45215 13.3984L4.14654 12.9988L4.5462 13.6932L3.8518 14.0928L3.45215 13.3984Z" fill="white"/>
<path d="M1.98828 15.1568L2.38793 14.4624L3.08233 14.8621L2.68268 15.5564L1.98828 15.1568Z" fill="white"/>
<path d="M1.59863 16.6057H2.39794V17.405H1.59863V16.6057Z" fill="white"/>
<path d="M1.98828 18.8586L2.68268 18.459L3.08233 19.1534L2.38793 19.553L1.98828 18.8586Z" fill="white"/>
<path d="M3.45215 20.6121L3.8518 19.9177L4.5462 20.3174L4.14654 21.0118L3.45215 20.6121Z" fill="white"/>
<path d="M5.59473 20.6022H6.39403V21.4015H5.59473V20.6022Z" fill="white"/>
<path d="M7.44824 20.3223L8.14264 19.9226L8.54229 20.617L7.84789 21.0167L7.44824 20.3223Z" fill="white"/>
<path d="M8.90723 19.1534L9.30688 18.459L10.0013 18.8586L9.60162 19.553L8.90723 19.1534Z" fill="white"/>
<path d="M9.5918 16.6057H10.3911V17.405H9.5918V16.6057Z" fill="white"/>
<path d="M8.90723 14.8621L9.60162 14.4624L10.0013 15.1568L9.30688 15.5564L8.90723 14.8621Z" fill="white"/>
<path d="M7.44824 13.6932L7.84789 12.9988L8.54229 13.3984L8.14264 14.0928L7.44824 13.6932Z" fill="white"/>
<path d="M6.39403 16.8405V14.6074H5.59473V17.0053C5.59473 17.1102 5.63469 17.2152 5.70963 17.2901L7.30824 18.8887L7.87275 18.3242L6.39403 16.8405Z" fill="white"/>
<path d="M15.5867 11.0105C15.5817 12.719 14.3828 14.1877 12.7092 14.5374L12.8691 15.3218C15.247 14.8372 16.7857 12.5142 16.2961 10.1363C15.8115 7.75833 13.4885 6.21967 11.1106 6.70925C9.38212 7.06394 8.03329 8.41277 7.68359 10.1363L8.46791 10.2961C8.86756 8.34782 10.7659 7.09391 12.7142 7.49357C14.3828 7.82827 15.5867 9.30199 15.5867 11.0105Z" fill="white"/>
<path d="M6.05469 10.1562L6.844 10.2711C7.25365 7.43355 9.89135 5.46027 12.7289 5.87491C15.5664 6.28955 17.5397 8.92226 17.1251 11.7598C16.7954 14.0378 15.0069 15.8263 12.7289 16.156L12.8438 16.9453C16.1209 16.4707 18.394 13.4333 17.9194 10.1562C17.4448 6.87903 14.4074 4.60601 11.1303 5.0806C8.50256 5.46027 6.43436 7.52847 6.05469 10.1562Z" fill="white"/>
<path d="M8.1582 3.08731L8.89256 2.77258L9.20729 3.50694L8.47293 3.82167L8.1582 3.08731Z" fill="white"/>
<path d="M3.67188 8.11802L3.96662 7.37866L4.70598 7.67341L4.41123 8.41276L3.67188 8.11802Z" fill="white"/>
<path d="M14.7725 18.5139L15.5068 18.1992L15.8215 18.9336L15.0872 19.2483L14.7725 18.5139Z" fill="white"/>
<path d="M19.248 14.3575L19.5428 13.6182L20.2821 13.9129L19.9874 14.6523L19.248 14.3575Z" fill="white"/>
<path d="M19.1787 7.49356L19.9131 7.17883L20.2278 7.91319L19.4934 8.22792L19.1787 7.49356Z" fill="white"/>
<path d="M22.7847 13.1835L20.7115 12.1045C20.8114 11.3102 20.8014 10.5059 20.6815 9.71156L22.7247 8.58254C22.9046 8.48263 22.9795 8.26282 22.8996 8.07299L21.6407 5.13554C21.5607 4.94571 21.3509 4.85079 21.1511 4.91074L18.923 5.61512C18.4335 4.98567 17.854 4.42116 17.2095 3.94657L17.859 1.70352C17.9139 1.50869 17.814 1.29888 17.6242 1.22394L14.6617 0.0299803C14.4719 -0.0449545 14.2521 0.034976 14.1572 0.21482L13.0781 2.28802C12.2838 2.1881 11.4795 2.1981 10.6852 2.31799L9.55618 0.269772C9.45626 0.0899282 9.23646 0.0149933 9.04662 0.0949238L6.10917 1.35383C5.91934 1.43376 5.82442 1.64358 5.88437 1.8434L6.58876 4.07147C5.9593 4.56104 5.3948 5.14054 4.92021 5.78498L2.67716 5.13554C2.48233 5.08059 2.27251 5.1805 2.19758 5.37034L1.00361 8.34275C0.928678 8.53259 1.00861 8.7524 1.18845 8.84731L3.26165 9.92637C3.23168 10.1512 3.21669 10.376 3.2017 10.5958L4.00101 10.6358C4.01599 10.346 4.04597 10.0513 4.09093 9.76651C4.11591 9.59666 4.03098 9.42681 3.88111 9.35187L1.87785 8.30778L2.79705 6.00978L4.96517 6.63424C5.13003 6.68419 5.30487 6.61925 5.40479 6.47937C5.91934 5.73502 6.55379 5.08059 7.28815 4.55105C7.42803 4.45114 7.48798 4.27129 7.43302 4.10644L6.75861 1.94831L9.03163 0.974159L10.1257 2.94744C10.2106 3.09731 10.3805 3.17724 10.5453 3.14727C11.4345 2.98741 12.3488 2.97242 13.243 3.1123C13.4128 3.13728 13.5777 3.05235 13.6576 2.90248L14.7017 0.899224L16.9997 1.81843L16.3752 3.98654C16.3253 4.1514 16.3902 4.32624 16.5301 4.42616C17.2745 4.94071 17.9289 5.57516 18.4584 6.30952C18.5584 6.4494 18.7382 6.50935 18.9031 6.45439L21.0562 5.77498L22.0303 8.04801L20.057 9.13706C19.9072 9.22199 19.8272 9.39184 19.8572 9.5567C20.0171 10.4459 20.0321 11.3601 19.8922 12.2544C19.8672 12.4242 19.9521 12.5941 20.102 12.669L22.1053 13.7131L21.1861 16.0111L19.018 15.3866C18.8531 15.3367 18.6782 15.4016 18.5783 15.5415C18.0638 16.2858 17.4293 16.9403 16.695 17.4698C16.5551 17.5697 16.4951 17.7496 16.5501 17.9144L17.2295 20.0676L14.9565 21.0417L13.8674 19.0684C13.7825 18.9186 13.6127 18.8386 13.4478 18.8686C13.0981 18.9335 12.7434 18.9735 12.3837 18.9885L12.4237 19.7878C12.7184 19.7728 13.0132 19.7428 13.3079 19.7029L14.4369 21.7461C14.5368 21.9259 14.7567 22.0009 14.9465 21.9209L17.8839 20.662C18.0738 20.5821 18.1687 20.3723 18.1087 20.1725L17.4044 17.9444C18.0338 17.4548 18.5983 16.8753 19.0729 16.2309L21.316 16.8803C21.5108 16.9353 21.7206 16.8354 21.7955 16.6455L22.9845 13.6781C23.0494 13.4933 22.9695 13.2785 22.7847 13.1835Z" fill="white"/>
<path d="M14.5771 3.44712L14.8719 2.70776L15.6112 3.00251L15.3215 3.74686L14.5771 3.44712Z" fill="white"/>
</g>
<defs>
<clipPath id="clip0">
<rect width="23" height="23" fill="white"/>
</clipPath>
</defs>
</svg>
