<svg width="21" height="7" viewBox="0 0 21 7" fill="none" xmlns="http://www.w3.org/2000/svg">
<path d="M0 2.02353C0.317361 2.26857 0.541836 2.4646 0.789532 2.63613C1.5481 3.17522 2.34537 3.19973 3.11943 2.69331C3.60708 2.37476 4.04055 1.95002 4.50498 1.59063C5.03133 1.18222 5.54994 0.749318 6.12274 0.406261C7.0516 -0.157333 8.00369 -0.116493 8.90933 0.487942C9.37376 0.798327 9.81496 1.15772 10.2484 1.51711C10.4574 1.68864 10.6122 1.69681 10.8212 1.52528C11.2315 1.17406 11.6572 0.839167 12.0984 0.528782C13.0195 -0.100156 13.9948 -0.198173 14.9469 0.398093C15.5894 0.798327 16.1699 1.29658 16.7737 1.76215C17.1143 2.02353 17.4316 2.33392 17.7877 2.57896C18.6933 3.20789 19.5216 3.19156 20.4117 2.53812C20.613 2.39109 20.7987 2.22773 21 2.0562C20.9226 3.99203 19.0571 6.21373 17.0756 6.77732C14.9237 7.38993 11.8739 6.59763 10.5735 4.0247C8.81644 6.71198 6.42462 7.59413 3.52193 6.57312C1.52488 5.90334 0.518614 4.19623 0 2.02353Z" fill="white"/>
</svg>
