<svg width="24" height="24" viewBox="0 0 24 24" fill="none" xmlns="http://www.w3.org/2000/svg">
<path d="M4.52053 7.86715H19.4805C19.7098 7.86715 19.8955 7.68624 19.8955 7.46287C19.8955 7.23951 19.7087 7.05859 19.4805 7.05859H4.52053C4.29121 7.05859 4.10547 7.23951 4.10547 7.46287C4.10547 7.68624 4.29121 7.86715 4.52053 7.86715Z" fill="white"/>
<path d="M22.5473 2.39232H20.4823V1.37253C20.4823 0.615514 19.8504 0 19.0732 0C18.296 0 17.663 0.615514 17.663 1.37253V2.35796H13.4107V1.37253C13.4107 0.615514 12.7788 0 12.0016 0C11.2243 0 10.5914 0.615514 10.5914 1.37253V2.35796H6.33698V1.37253C6.33698 0.615514 5.70401 0 4.9268 0C4.1496 0 3.51766 0.615514 3.51766 1.37253V2.39232H1.45272C0.652687 2.39232 0 3.02704 0 3.80729V22.585C0 23.3643 0.652687 24 1.45272 24H22.5473C23.3473 24 24 23.3643 24 22.585V3.80729C24 3.02704 23.3473 2.39232 22.5473 2.39232ZM18.4921 2.76223V1.37253C18.4921 1.06123 18.7515 0.807547 19.0722 0.807547C19.3918 0.807547 19.6512 1.06022 19.6512 1.37253V2.76223V4.15194C19.6512 4.46324 19.3918 4.71591 19.0722 4.71591C18.7515 4.71591 18.4921 4.46324 18.4921 4.15194V2.76223ZM11.4205 2.76223V1.37253C11.4205 1.06123 11.6799 0.807547 12.0005 0.807547C12.3201 0.807547 12.5795 1.06022 12.5795 1.37253V2.76223V4.15194C12.5795 4.46324 12.3201 4.71591 12.0005 4.71591C11.6799 4.71591 11.4205 4.46324 11.4205 4.15194V2.76223ZM4.34779 2.76223V1.37253C4.34779 1.06123 4.6072 0.807547 4.9268 0.807547C5.24744 0.807547 5.50685 1.06022 5.50685 1.37253V2.76223V4.15194C5.50685 4.46324 5.24744 4.71591 4.9268 4.71591C4.6072 4.71591 4.34779 4.46324 4.34779 4.15194V2.76223ZM23.1688 22.585C23.1688 22.9196 22.8897 23.1914 22.5462 23.1914H1.45168C1.10822 23.1914 0.829089 22.9196 0.829089 22.585V3.80729C0.829089 3.47275 1.10822 3.20088 1.45168 3.20088H3.51662V4.15194C3.51662 4.90895 4.14856 5.52447 4.92576 5.52447C5.70297 5.52447 6.33594 4.90895 6.33594 4.15194V3.16651H10.5883V4.15194C10.5883 4.90895 11.2212 5.52447 11.9984 5.52447C12.7756 5.52447 13.4076 4.90895 13.4076 4.15194V3.16651H17.6599V4.15194C17.6599 4.90895 18.2929 5.52447 19.0701 5.52447C19.8473 5.52447 20.4792 4.90895 20.4792 4.15194V3.20088H22.5442C22.8876 3.20088 23.1668 3.47275 23.1668 3.80729V22.585H23.1688Z" fill="white"/>
<path d="M19.7227 10.48H16.8037C16.5744 10.48 16.3887 10.6609 16.3887 10.8843V12.653C16.3887 12.8763 16.5755 13.0573 16.8037 13.0573H19.7227C19.952 13.0573 20.1377 12.8763 20.1377 12.653V10.8843C20.1377 10.6609 19.952 10.48 19.7227 10.48ZM19.3066 12.2487H17.2188V11.2885H19.3066V12.2487Z" fill="white"/>
<path d="M19.7227 13.9111H16.8037C16.5744 13.9111 16.3887 14.0931 16.3887 14.3154V16.0841C16.3887 16.3075 16.5755 16.4884 16.8037 16.4884H19.7227C19.952 16.4884 20.1377 16.3065 20.1377 16.0841V14.3154C20.1377 14.0931 19.952 13.9111 19.7227 13.9111ZM19.3066 15.6799H17.2188V14.7207H19.3066V15.6799Z" fill="white"/>
<path d="M13.459 17.3435H10.5401C10.3107 17.3435 10.125 17.5254 10.125 17.7478V19.5165C10.125 19.7399 10.3118 19.9208 10.5401 19.9208H13.459C13.6883 19.9208 13.8741 19.7389 13.8741 19.5165V17.7478C13.8741 17.5254 13.6873 17.3435 13.459 17.3435ZM13.0429 19.1122H10.9551V18.1531H13.0429V19.1122Z" fill="white"/>
<path d="M13.459 13.9111H10.5401C10.3107 13.9111 10.125 14.0931 10.125 14.3154V16.0841C10.125 16.3075 10.3118 16.4884 10.5401 16.4884H13.459C13.6883 16.4884 13.8741 16.3065 13.8741 16.0841V14.3154C13.8741 14.0931 13.6873 13.9111 13.459 13.9111ZM13.0429 15.6799H10.9551V14.7207H13.0429V15.6799Z" fill="white"/>
<path d="M13.459 10.48H10.5401C10.3107 10.48 10.125 10.6609 10.125 10.8843V12.653C10.125 12.8763 10.3118 13.0573 10.5401 13.0573H13.459C13.6883 13.0573 13.8741 12.8763 13.8741 12.653V10.8843C13.8741 10.6609 13.6873 10.48 13.459 10.48ZM13.0429 12.2487H10.9551V11.2885H13.0429V12.2487Z" fill="white"/>
<path d="M7.19532 10.48H4.27639C4.04707 10.48 3.86133 10.6609 3.86133 10.8843V12.653C3.86133 12.8763 4.04811 13.0573 4.27639 13.0573H7.19532C7.42465 13.0573 7.61039 12.8763 7.61039 12.653V10.8843C7.61039 10.6609 7.42361 10.48 7.19532 10.48ZM6.77922 12.2487H4.69249V11.2885H6.78026V12.2487H6.77922Z" fill="white"/>
<path d="M7.19532 13.9111H4.27639C4.04707 13.9111 3.86133 14.0931 3.86133 14.3154V16.0841C3.86133 16.3075 4.04811 16.4884 4.27639 16.4884H7.19532C7.42465 16.4884 7.61039 16.3065 7.61039 16.0841V14.3154C7.61039 14.0931 7.42361 13.9111 7.19532 13.9111ZM6.77922 15.6799H4.69249V14.7207H6.78026V15.6799H6.77922Z" fill="white"/>
<path d="M7.19532 17.3435H4.27639C4.04707 17.3435 3.86133 17.5254 3.86133 17.7478V19.5165C3.86133 19.7399 4.04811 19.9208 4.27639 19.9208H7.19532C7.42465 19.9208 7.61039 19.7389 7.61039 19.5165V17.7478C7.61039 17.5254 7.42361 17.3435 7.19532 17.3435ZM6.77922 19.1122H4.69249V18.1531H6.78026V19.1122H6.77922Z" fill="white"/>
<path d="M19.4452 17.481C19.2833 17.3234 19.0197 17.3234 18.8578 17.481L18.2633 18.0602L17.6687 17.481C17.5068 17.3234 17.2432 17.3234 17.0814 17.481C16.9195 17.6387 16.9195 17.8954 17.0814 18.0531L17.6759 18.6322L17.0814 19.2114C16.9195 19.369 16.9195 19.6257 17.0814 19.7834C17.1623 19.8622 17.2692 19.9017 17.375 19.9017C17.4809 19.9017 17.5877 19.8622 17.6687 19.7834L18.2633 19.2043L18.8578 19.7834C18.9388 19.8622 19.0457 19.9017 19.1515 19.9017C19.2573 19.9017 19.3642 19.8622 19.4452 19.7834C19.607 19.6257 19.607 19.369 19.4452 19.2114L18.8506 18.6322L19.4452 18.0531C19.6081 17.8954 19.6081 17.6387 19.4452 17.481Z" fill="white"/>
</svg>
