<svg width="11" height="21" viewBox="0 0 11 21" fill="none" xmlns="http://www.w3.org/2000/svg">
<path d="M1.67056 3.45774C1.56205 3.45774 1.53492 3.45774 1.48067 3.43061C1.23651 3.40348 1.10087 3.26784 1.10087 3.05081C1.10087 2.83379 1.26364 2.69815 1.50779 2.69815C1.91472 2.69815 2.32164 2.69815 2.72856 2.69815C2.80995 2.69815 2.89133 2.69815 2.97272 2.69815C2.97272 2.31835 2.97272 1.96569 2.97272 1.64015C2.97272 0.98907 3.46103 0.473633 4.08498 0.473633C4.70892 0.473633 5.22436 0.989069 5.22436 1.66727C5.22436 2.01994 5.22436 2.34548 5.22436 2.72528C5.30575 2.72528 5.41426 2.72528 5.49564 2.72528C6.6079 2.72528 7.69303 2.72528 8.80529 2.72528C8.88667 2.72528 8.94093 2.72528 9.02231 2.72528C9.23934 2.7524 9.34785 2.86092 9.37498 3.07794C9.40211 3.26784 9.23934 3.43061 9.04944 3.45774C8.99519 3.45774 8.94093 3.45774 8.83242 3.48486C9.13083 3.8104 9.40211 4.08169 9.67339 4.3801C9.75478 4.48861 9.89042 4.54287 9.94467 4.65138C10.0261 4.75989 10.1074 4.89553 10.1074 5.03117C10.1074 9.61584 10.1074 14.1734 10.1074 18.7581C10.1074 18.948 10.0532 19.0836 9.89042 19.165C9.2936 19.5176 8.77816 19.9246 8.39836 20.5214C8.34411 20.6028 8.18134 20.6842 8.07283 20.6842C6.20098 20.6842 4.32913 20.6842 2.43015 20.6842C2.32164 20.6842 2.13174 20.6028 2.07749 20.5214C1.72482 19.9517 1.20938 19.5448 0.639691 19.2192C0.449793 19.1107 0.368408 18.9751 0.368408 18.7581C0.368408 14.2005 0.368408 9.64297 0.368408 5.08543C0.368408 4.94979 0.449792 4.78702 0.531177 4.67851C0.883844 4.21733 1.26364 3.86466 1.67056 3.45774ZM1.10087 5.32958C1.10087 9.69723 1.10087 14.0377 1.10087 18.4054C3.84082 18.4054 6.58077 18.4054 9.2936 18.4054C9.2936 14.0377 9.2936 9.69723 9.2936 5.32958C6.58077 5.32958 3.86795 5.32958 1.10087 5.32958ZM8.75103 4.54287C8.47975 4.21733 8.20847 3.91892 7.99144 3.59338C7.88293 3.45774 7.80154 3.43061 7.63877 3.43061C6.09246 3.43061 4.54615 3.43061 2.99985 3.43061C2.67431 3.43061 2.45728 3.48487 2.29451 3.78328C2.13174 4.05456 1.88759 4.29871 1.64343 4.56999C4.03072 4.54287 6.39088 4.54287 8.75103 4.54287ZM8.47975 19.165C6.28236 19.165 4.1121 19.165 1.91472 19.165C2.13174 19.382 2.29451 19.599 2.51154 19.8161C2.53867 19.8703 2.62005 19.8974 2.70144 19.8974C4.38339 19.8974 6.03821 19.8974 7.72016 19.8974C7.77442 19.8974 7.8558 19.8974 7.88293 19.8432C8.09995 19.6262 8.28985 19.4091 8.47975 19.165ZM4.84457 2.67102C4.84457 2.31835 4.84457 1.96569 4.84457 1.61302C4.84457 1.55876 4.84457 1.5045 4.84457 1.45025C4.79031 1.07045 4.51903 0.799173 4.1121 0.799173C3.70518 0.799173 3.37964 1.04333 3.35251 1.42312C3.32539 1.83004 3.35251 2.23697 3.35251 2.67102C3.84082 2.67102 4.32913 2.67102 4.84457 2.67102Z" fill="white"/>
</svg>
