<svg width="131" height="38" viewBox="0 0 131 38" fill="none" xmlns="http://www.w3.org/2000/svg">
<path d="M13.3 15C15.34 15.06 16.4 15 17.26 14.4C17.6 14.16 17.82 13.94 17.92 13.8C18.34 13.32 18.76 12.62 18.76 11.26C18.76 9.58 18.38 8.9 17.74 8.44C17.16 8 16.5 7.9 15.8 7.8C16.3 7.66 16.84 7.52 17.28 7.16C17.86 6.7 18.22 6.04 18.22 4.48C18.22 3.02 17.72 2.22 17.2 1.8C16.18 0.899999 14.74 0.879999 13.46 0.879999H0.42V15H13.3ZM4.68 9.26H12.46C13.12 9.24 13.7 9.22 14.14 9.8C14.3 10.04 14.4 10.26 14.4 10.58C14.4 10.82 14.34 10.98 14.32 11.06C14.12 11.6 13.7 11.72 13.14 11.82H4.68V9.26ZM4.7 3.96H12.16C12.76 3.98 13.24 3.98 13.62 4.5C13.78 4.7 13.88 4.96 13.88 5.22C13.88 5.6 13.7 5.86 13.62 5.96C13.24 6.48 12.7 6.46 12.06 6.44H4.7V3.96ZM21.8405 0.879999V15H37.6205V11.8H26.1405V9.32H37.0005V6.36H26.1405V4H37.6205V0.879999H21.8405ZM58.7906 5.9C58.7706 4.6 58.7506 2.86 57.6906 1.88C56.8906 1.14 55.8906 0.979999 54.8906 0.819999C53.2306 0.76 51.5706 0.68 49.9106 0.68C48.2706 0.68 46.6306 0.779999 45.0106 0.899999C44.5506 0.979999 42.8506 1.18 41.7706 2.46C41.1706 3.22 41.0306 3.9 40.9106 4.84C40.8506 5.88 40.7706 6.9 40.7706 7.94C40.7706 8.94 40.8506 9.94 40.9306 10.92C41.0706 12.08 41.2306 13 42.1306 13.84C43.0306 14.68 44.3306 14.88 45.6306 15.08C47.2906 15.14 48.9506 15.18 50.6106 15.18C52.1306 15.18 53.6506 15.12 55.1706 15.02C56.1106 14.88 56.9906 14.76 57.7706 14.12C58.7706 13.32 58.8906 12.16 58.9306 10.94C58.9506 10.5 58.9706 10.08 58.9706 9.66H54.6706C54.6306 10.18 54.6106 10.72 54.3106 11.06C53.8706 11.58 52.8706 11.6 52.7906 11.62H47.6106C47.4306 11.6 46.3906 11.58 45.7506 11C45.1906 10.5 45.1706 9.66 45.1506 8.88V7.84C45.1506 6.8 45.1906 5.96 45.3106 5.54C45.6306 4.44 46.6306 4.32 46.9906 4.28C47.2106 4.26 47.4506 4.24 47.6706 4.24C48.5706 4.2 49.4306 4.18 50.3106 4.18C51.1506 4.18 51.9906 4.22 52.8106 4.26C53.3906 4.32 53.9306 4.36 54.2706 4.78C54.5706 5.14 54.5706 5.46 54.5706 5.88L58.7906 5.9ZM62.1605 0.879999V15H66.5405V9.64H68.8005L75.2205 15H81.4205L72.3805 7.86C73.4805 6.92 74.5805 5.96 75.6805 5.02C76.4805 4.3 77.3005 3.6 78.1205 2.9C78.9205 2.2 79.7605 1.54 80.6005 0.879999H74.6405L68.7605 6.1H66.5605V0.879999H62.1605ZM84.6303 0.719999L79.7303 2.7L80.1103 4.14L85.3903 3.18L84.6303 0.719999ZM89.1698 10.36C89.1698 11.42 89.1498 13 89.9498 13.86C90.6498 14.62 91.7098 14.8 92.6498 14.94C94.5498 15.04 96.4298 15.16 98.3098 15.16C100.05 15.16 101.77 15.08 103.51 14.98C104.39 14.84 105.25 14.7 105.91 14.22C106.15 14.04 106.31 13.86 106.49 13.62C106.93 13 107.21 12.24 107.21 10.64C107.21 8.58 106.57 7.66 105.85 7.14C105.35 6.78 104.91 6.62 103.75 6.5L95.2698 6.2C94.7298 6.16 94.2498 6.14 93.8698 5.66C93.7898 5.58 93.6298 5.34 93.6298 5.04C93.6298 4.74 93.8098 4.48 93.8698 4.4C94.2098 3.96 94.7098 3.94 95.2498 3.92C96.0698 3.9 96.8698 3.86 97.6898 3.86C98.7298 3.86 99.7898 3.9 100.83 3.96C101.97 4.08 102.17 4.22 102.43 5.3L106.71 5.32C106.75 4.08 106.75 2.82 105.77 1.92C105.01 1.22 104.03 1.04 103.73 0.999999L102.95 0.879999C101.25 0.799999 99.5498 0.699999 97.8498 0.699999C96.3098 0.699999 94.7698 0.76 93.2298 0.819999C92.0498 0.96 90.9698 1.1 90.1498 1.98C89.9098 2.24 89.7098 2.54 89.5698 2.88C89.2098 3.78 89.2098 5.32 89.2098 5.42C89.2098 6.86 89.6098 7.72 90.0498 8.2C90.7298 8.94 91.7098 9.1 91.9898 9.14C92.1898 9.18 92.4098 9.2 92.6098 9.24C93.2698 9.28 93.9298 9.34 94.5898 9.38C96.6498 9.5 98.7298 9.52 100.81 9.56C101.81 9.7 102.25 9.68 102.59 10.16C102.77 10.42 102.79 10.66 102.79 10.78C102.79 11.26 102.41 11.7 101.97 11.86C101.53 12.04 100.91 11.98 100.77 11.98C99.7898 12 98.8298 12.04 97.8698 12.02C96.9698 12 96.0898 11.96 95.1898 11.92C94.2698 11.84 93.8498 11.66 93.6898 11.2C93.5898 10.96 93.5898 10.7 93.5898 10.38L89.1698 10.36ZM0.08 32.36C0.08 33.42 0.0600001 35 0.86 35.86C1.56 36.62 2.62 36.8 3.56 36.94C5.46 37.04 7.34 37.16 9.22 37.16C10.96 37.16 12.68 37.08 14.42 36.98C15.3 36.84 16.16 36.7 16.82 36.22C17.06 36.04 17.22 35.86 17.4 35.62C17.84 35 18.12 34.24 18.12 32.64C18.12 30.58 17.48 29.66 16.76 29.14C16.26 28.78 15.82 28.62 14.66 28.5L6.18 28.2C5.64 28.16 5.16 28.14 4.78 27.66C4.7 27.58 4.54 27.34 4.54 27.04C4.54 26.74 4.72 26.48 4.78 26.4C5.12 25.96 5.62 25.94 6.16 25.92C6.98 25.9 7.78 25.86 8.6 25.86C9.64 25.86 10.7 25.9 11.74 25.96C12.88 26.08 13.08 26.22 13.34 27.3L17.62 27.32C17.66 26.08 17.66 24.82 16.68 23.92C15.92 23.22 14.94 23.04 14.64 23L13.86 22.88C12.16 22.8 10.46 22.7 8.76 22.7C7.22 22.7 5.68 22.76 4.14 22.82C2.96 22.96 1.88 23.1 1.06 23.98C0.82 24.24 0.62 24.54 0.48 24.88C0.12 25.78 0.12 27.32 0.12 27.42C0.12 28.86 0.52 29.72 0.96 30.2C1.64 30.94 2.62 31.1 2.9 31.14C3.1 31.18 3.32 31.2 3.52 31.24C4.18 31.28 4.84 31.34 5.5 31.38C7.56 31.5 9.64 31.52 11.72 31.56C12.72 31.7 13.16 31.68 13.5 32.16C13.68 32.42 13.7 32.66 13.7 32.78C13.7 33.26 13.32 33.7 12.88 33.86C12.44 34.04 11.82 33.98 11.68 33.98C10.7 34 9.74 34.04 8.78 34.02C7.88 34 7 33.96 6.1 33.92C5.18 33.84 4.76 33.66 4.6 33.2C4.5 32.96 4.5 32.7 4.5 32.38L0.08 32.36ZM21.0498 30.98C21.0498 32.78 21.0898 34.98 22.7898 36.16C23.8898 36.92 25.1098 37 26.3698 37.08C27.9898 37.12 29.5898 37.16 31.2098 37.16C32.6298 37.16 34.0498 37.12 35.4498 37.1C37.0098 36.98 38.6698 36.8 39.7498 35.48C40.4498 34.62 40.5898 33.8 40.7298 32.76C40.7698 32.08 40.8298 31.42 40.8498 30.76C40.8898 29.74 40.8498 28.74 40.8098 27.72C40.7498 26.7 40.6698 25.8 40.1698 24.88C39.3098 23.36 37.8498 23.08 37.2698 22.98C37.0498 22.94 36.8298 22.9 36.6098 22.88C34.5498 22.78 32.5098 22.7 30.4698 22.7C28.7298 22.7 27.0098 22.78 25.2898 22.88C24.4498 23 23.7698 23.12 23.0298 23.56C22.0298 24.14 21.5098 25.08 21.2898 26.18C21.2498 26.4 21.2098 26.62 21.1898 26.84L21.0498 30.98ZM28.1698 33.66C26.9698 33.56 26.2498 33.4 25.8898 32.9C25.5698 32.44 25.4898 31.58 25.4498 30.38C25.4698 29.28 25.4898 28.52 25.5498 28.02C25.5698 27.92 25.6298 27.54 25.7898 27.24C25.8498 27.12 25.9698 26.92 26.2498 26.72C26.6498 26.42 27.0298 26.3 28.0098 26.24H34.0498C35.1698 26.32 35.9898 26.42 36.3298 27.54C36.4298 27.84 36.4498 28.08 36.4698 28.4V31.46C36.3898 32.14 36.3098 32.44 36.1298 32.74C35.6898 33.5 34.8498 33.58 33.9298 33.66H28.1698ZM61.7398 27.9C61.7198 26.6 61.6998 24.86 60.6398 23.88C59.8398 23.14 58.8398 22.98 57.8398 22.82C56.1798 22.76 54.5198 22.68 52.8598 22.68C51.2198 22.68 49.5798 22.78 47.9598 22.9C47.4998 22.98 45.7998 23.18 44.7198 24.46C44.1198 25.22 43.9798 25.9 43.8598 26.84C43.7998 27.88 43.7198 28.9 43.7198 29.94C43.7198 30.94 43.7998 31.94 43.8798 32.92C44.0198 34.08 44.1798 35 45.0798 35.84C45.9798 36.68 47.2798 36.88 48.5798 37.08C50.2398 37.14 51.8998 37.18 53.5598 37.18C55.0798 37.18 56.5998 37.12 58.1198 37.02C59.0598 36.88 59.9398 36.76 60.7198 36.12C61.7198 35.32 61.8398 34.16 61.8798 32.94C61.8998 32.5 61.9198 32.08 61.9198 31.66H57.6198C57.5798 32.18 57.5598 32.72 57.2598 33.06C56.8198 33.58 55.8198 33.6 55.7398 33.62H50.5598C50.3798 33.6 49.3398 33.58 48.6998 33C48.1398 32.5 48.1198 31.66 48.0998 30.88V29.84C48.0998 28.8 48.1398 27.96 48.2598 27.54C48.5798 26.44 49.5798 26.32 49.9398 26.28C50.1598 26.26 50.3998 26.24 50.6198 26.24C51.5198 26.2 52.3798 26.18 53.2598 26.18C54.0998 26.18 54.9398 26.22 55.7598 26.26C56.3398 26.32 56.8798 26.36 57.2198 26.78C57.5198 27.14 57.5198 27.46 57.5198 27.88L61.7398 27.9ZM65.1297 22.88V37H69.6097V22.88H65.1297ZM73.1694 22.88V37H88.9494V33.8H77.4694V31.32H88.3294V28.36H77.4694V26H88.9494V22.88H73.1694ZM91.4995 22.88V26.16H97.7395V37H102.18V26.14H108.54V22.88H91.4995ZM115.129 22.88H109.669L117.689 32.06V37H122.109V32.06L130.269 22.88H124.629L119.869 28.64L115.129 22.88Z" fill="#038259"/>
</svg>
