<svg width="28" height="29" viewBox="0 0 28 29" fill="none" xmlns="http://www.w3.org/2000/svg">
<g filter="url(#filter0_d)">
<path d="M10.6559 14.022H17.3444" stroke="#62F8B2" stroke-opacity="0.87" stroke-linecap="round" stroke-linejoin="round"/>
<path d="M16.5709 19.4996C16.8085 19.757 16.9544 20.1004 16.9563 20.4783V20.4783V23.614C16.9566 24.2934 17.5002 24.8478 18.1796 24.8617H20.1409C22.0865 24.873 23.673 23.3048 23.6842 21.3591V21.357V12.4639C23.6714 11.7021 23.31 10.9882 22.7036 10.527L15.996 5.17217C14.8177 4.24079 13.1538 4.24079 11.9755 5.17217L5.29648 10.5321C4.68662 10.9923 4.3245 11.7091 4.3158 12.473V21.356C4.31981 22.1662 4.59697 22.9112 5.05961 23.5041" stroke="#62F8B2" stroke-opacity="0.87" stroke-linecap="round" stroke-linejoin="round"/>
</g>
<defs>
<filter id="filter0_d" x="0.815788" y="0.973633" width="26.3685" height="27.3881" filterUnits="userSpaceOnUse" color-interpolation-filters="sRGB">
<feFlood flood-opacity="0" result="BackgroundImageFix"/>
<feColorMatrix in="SourceAlpha" type="matrix" values="0 0 0 0 0 0 0 0 0 0 0 0 0 0 0 0 0 0 127 0"/>
<feOffset/>
<feGaussianBlur stdDeviation="1.5"/>
<feColorMatrix type="matrix" values="0 0 0 0 0.384314 0 0 0 0 0.972549 0 0 0 0 0.698039 0 0 0 1 0"/>
<feBlend mode="normal" in2="BackgroundImageFix" result="effect1_dropShadow"/>
<feBlend mode="normal" in="SourceGraphic" in2="effect1_dropShadow" result="shape"/>
</filter>
</defs>
</svg>
