<svg width="22" height="20" viewBox="0 0 22 20" fill="none" xmlns="http://www.w3.org/2000/svg">
<path d="M8.75455 10.704C11.3895 10.704 13.5276 8.56769 13.5276 5.931C13.5276 3.29601 11.3895 1.15796 8.75455 1.15796C6.11785 1.15796 3.98151 3.29601 3.98151 5.931C3.98151 7.8163 5.07273 9.44546 6.65919 10.2225L8.75455 10.704ZM20.6573 16.0816C20.6573 17.9481 19.1442 19.4629 17.276 19.4629C15.4095 19.4629 13.8947 17.9481 13.8947 16.0816C13.8947 14.2134 15.4095 12.7003 17.276 12.7003C19.1442 12.7003 20.6573 14.2134 20.6573 16.0816ZM14.4429 13.6737C13.1007 11.9438 11.0053 10.8304 8.64696 10.8304C4.5997 10.8304 1.31578 14.1126 1.31578 18.1616H14.1953C13.7957 17.569 13.56 16.8518 13.56 16.0782C13.56 15.1577 13.8947 14.3192 14.4429 13.6737ZM17.5475 14.2988V16.0048H19.1886V16.4402H17.5475V18.1616H17.083V16.4402H15.4419V16.0048H17.083V14.2988H17.5475Z" stroke="white"/>
</svg>
