<svg width="19" height="15" viewBox="0 0 19 15" fill="none" xmlns="http://www.w3.org/2000/svg">
<path d="M5.99 6.59063C5.99 6.26156 6.24594 6.00563 6.575 6.00563H11.84V2.56875C11.84 2.31281 12.1325 2.16656 12.3153 2.34938L17.5072 7.57781C17.7266 7.79719 17.7266 8.16281 17.5072 8.41875L12.3153 13.6472C12.1325 13.83 11.84 13.6838 11.84 13.4278V9.99094H6.575C6.24594 9.99094 5.99 9.735 5.99 9.40594V6.59063ZM4.82 6.59063V9.40594C4.82 10.3931 5.58781 11.1609 6.575 11.1609H10.67V13.4278C10.67 14.7441 12.2422 15.4022 13.1562 14.4516L18.3116 9.22313C19.0062 8.565 19.0062 7.43156 18.3116 6.73688L13.1562 1.50844C12.2422 0.594376 10.67 1.2525 10.67 2.56875V4.83563H6.575C5.58781 4.83563 4.82 5.60344 4.82 6.59063ZM0.14 2.715V13.245C0.14 14.2322 0.907813 15 1.895 15H6.72125C6.94063 15 7.16 14.8172 7.16 14.5613V14.2688C7.16 14.0494 6.94063 13.83 6.72125 13.83H1.895C1.56594 13.83 1.31 13.5741 1.31 13.245V2.715C1.31 2.4225 1.56594 2.13 1.895 2.13H6.72125C6.94063 2.13 7.16 1.94719 7.16 1.69125V1.39875C7.16 1.17938 6.94063 0.960001 6.72125 0.960001H1.895C0.907813 0.960001 0.14 1.76438 0.14 2.715Z" fill="#62F8B2"/>
</svg>
