<svg width="34" height="26" viewBox="0 0 34 26" fill="none" xmlns="http://www.w3.org/2000/svg">
<path d="M10.625 10.7266C10.625 10.1289 11.0898 9.66406 11.6875 9.66406H21.25V3.42188C21.25 2.95703 21.7812 2.69141 22.1133 3.02344L31.543 12.5195C31.9414 12.918 31.9414 13.582 31.543 14.0469L22.1133 23.543C21.7812 23.875 21.25 23.6094 21.25 23.1445V16.9023H11.6875C11.0898 16.9023 10.625 16.4375 10.625 15.8398V10.7266ZM8.5 10.7266V15.8398C8.5 17.6328 9.89453 19.0273 11.6875 19.0273H19.125V23.1445C19.125 25.5352 21.9805 26.7305 23.6406 25.0039L33.0039 15.5078C34.2656 14.3125 34.2656 12.2539 33.0039 10.9922L23.6406 1.49609C21.9805 -0.164062 19.125 1.03125 19.125 3.42188V7.53906H11.6875C9.89453 7.53906 8.5 8.93359 8.5 10.7266ZM0 3.6875V22.8125C0 24.6055 1.39453 26 3.1875 26H11.9531C12.3516 26 12.75 25.668 12.75 25.2031V24.6719C12.75 24.2734 12.3516 23.875 11.9531 23.875H3.1875C2.58984 23.875 2.125 23.4102 2.125 22.8125V3.6875C2.125 3.15625 2.58984 2.625 3.1875 2.625H11.9531C12.3516 2.625 12.75 2.29297 12.75 1.82812V1.29688C12.75 0.898438 12.3516 0.5 11.9531 0.5H3.1875C1.39453 0.5 0 1.96094 0 3.6875Z" fill="#62F8B2"/>
</svg>
