<svg width="16" height="15" viewBox="0 0 16 15" fill="none" xmlns="http://www.w3.org/2000/svg">
<path d="M14.875 5.80859V1.65234C14.875 1.40625 14.6836 0.75 14 0.75C13.7812 0.75 13.5898 0.832031 13.4531 0.96875L11.1016 2.82812C9.95312 3.75781 8.47656 4.25 7 4.25H1.75C0.765625 4.25 0 5.04297 0 6V8.625C0 9.60938 0.765625 10.375 1.75 10.375L1.72266 11.25C1.72266 12.3438 1.96875 13.3828 2.43359 14.2852C2.57031 14.5859 2.87109 14.75 3.19922 14.75H6.09766C6.80859 14.75 7.24609 13.957 6.80859 13.3828C6.37109 12.7812 6.09766 12.0703 6.09766 11.25C6.09766 10.9492 6.15234 10.6758 6.20703 10.375H7C8.47656 10.375 9.95312 10.8945 11.1016 11.8242L13.4531 13.6836C13.5625 13.793 13.8086 13.875 13.9727 13.875C14.6562 13.875 14.8477 13.2734 14.8477 13V8.84375C15.3945 8.54297 15.7227 7.96875 15.7227 7.33984C15.75 6.68359 15.3945 6.10938 14.875 5.80859ZM3.47266 13.4375C3.17188 12.7539 3.03516 12.0156 3.03516 11.25C3.03516 10.8672 3.08984 10.5664 3.11719 10.375H4.89453C4.8125 10.6758 4.78516 10.9766 4.78516 11.25C4.78516 12.043 4.97656 12.7812 5.30469 13.4375H3.47266ZM6.5625 9.0625H1.75C1.50391 9.0625 1.3125 8.87109 1.3125 8.625V6C1.3125 5.78125 1.50391 5.5625 1.75 5.5625H6.5625V9.0625ZM13.5625 12.0977L11.9219 10.8125C10.7734 9.88281 9.35156 9.30859 7.875 9.14453V5.50781C9.35156 5.34375 10.7734 4.76953 11.9219 3.83984L13.5625 2.55469V12.0977Z" fill="white"/>
</svg>
