<svg width="15" height="17" viewBox="0 0 15 17" fill="none" xmlns="http://www.w3.org/2000/svg">
<path d="M8.69922 13.075H9.44922C9.63672 13.075 9.82422 12.9187 9.82422 12.7V5.95C9.82422 5.7625 9.63672 5.575 9.44922 5.575H8.69922C8.48047 5.575 8.32422 5.7625 8.32422 5.95V12.7C8.32422 12.9187 8.48047 13.075 8.69922 13.075ZM13.8242 2.575H11.2305L10.168 0.824997C9.91797 0.418747 9.35547 0.0749969 8.88672 0.0749969H5.73047C5.26172 0.0749969 4.69922 0.418747 4.44922 0.824997L3.38672 2.575H0.824219C0.542969 2.575 0.324219 2.825 0.324219 3.075V3.575C0.324219 3.85625 0.542969 4.075 0.824219 4.075H1.32422V14.575C1.32422 15.4187 1.98047 16.075 2.82422 16.075H11.8242C12.6367 16.075 13.3242 15.4187 13.3242 14.575V4.075H13.8242C14.0742 4.075 14.3242 3.85625 14.3242 3.575V3.075C14.3242 2.825 14.0742 2.575 13.8242 2.575ZM5.66797 1.66875C5.69922 1.6375 5.79297 1.575 5.82422 1.575H5.85547H8.79297C8.82422 1.575 8.91797 1.6375 8.94922 1.66875L9.48047 2.575H5.13672L5.66797 1.66875ZM11.8242 14.575H2.82422V4.075H11.8242V14.575ZM5.19922 13.075H5.94922C6.13672 13.075 6.32422 12.9187 6.32422 12.7V5.95C6.32422 5.7625 6.13672 5.575 5.94922 5.575H5.19922C4.98047 5.575 4.82422 5.7625 4.82422 5.95V12.7C4.82422 12.9187 4.98047 13.075 5.19922 13.075Z" fill="#2DAF73"/>
</svg>
