<svg width="125" height="53" viewBox="0 0 125 53" fill="none" xmlns="http://www.w3.org/2000/svg">
<path d="M59.4852 26.0033C60.7327 26.4852 62.003 26.9902 63.3639 27.9082L63.5 28L63.6361 27.9082C64.997 27.0131 66.2899 26.5082 67.5148 26.0033C70.146 24.9705 72.641 23.9836 74.932 19.3934L75 19.2787L74.932 19.1639C73.072 16.2951 72.3008 14.6197 72.3235 11.5672C72.3462 8.92787 73.14 7 74.4556 4.75082L74.5237 4.63607L72.0966 0H66.2219L66.1538 0.0459016C66.1312 0.0459016 64.5888 1.05574 63.5227 1.07869H63.5C62.3886 1.07869 60.7781 0.0688525 60.7554 0.0459016L60.7327 0H54.9034L52.4763 4.61311L52.5444 4.72787C53.86 6.97705 54.6765 8.90492 54.6765 11.5443C54.6992 14.0459 54.3363 15.6525 52.068 19.141L52 19.2557L52.068 19.3705C54.3817 23.9836 56.854 24.9705 59.4852 26.0033ZM55.7199 11.5443C55.6972 8.62951 54.7446 6.49508 53.6785 4.59016L55.5385 1.05574H60.5966C60.9142 1.2623 62.4112 2.13443 63.568 2.11148C64.6568 2.08852 66.0858 1.23934 66.3807 1.05574H71.4842L73.3215 4.59016C72.2554 6.47213 71.2801 8.62951 71.2801 11.5443C71.2574 14.7574 72.074 16.6164 73.7978 19.3246C71.7564 23.1803 69.8057 23.9377 67.356 24.9016C66.2219 25.3377 64.929 25.8426 63.5 26.7148C62.071 25.8426 60.7781 25.3377 59.644 24.9016C57.1943 23.9377 55.2436 23.1803 53.2022 19.3246C54.926 16.6164 55.7426 14.7344 55.7199 11.5443Z" fill="#038259"/>
<path d="M59.5604 23.2938C61.865 24.5694 64.2847 24 65.1374 22.5193C66.1975 20.6514 65.3909 19.1936 64.2617 18.2369C64.4921 17.918 64.4 17.5991 64.1234 17.394C64.2386 17.394 64.4921 17.4168 64.6535 17.0979C64.7687 16.9157 64.7456 16.574 64.4691 16.3918L70 6.7107L68.5481 5.89066L68.1103 6.66514L67.3498 6.23234L66.5432 7.62186L65.967 7.30295L66.3819 6.5968L64.6535 5.64009L64.2386 6.34624L63.6855 6.05011L64.4691 4.66059L63.2938 4L59.86 9.99087L61.0353 10.6515L61.8189 9.26195L62.3489 9.55807L61.9341 10.2642L63.6625 11.2209L64.0773 10.5148L64.6535 10.8337L63.8469 12.2232L64.6074 12.656L62.9481 15.5489C62.6255 15.4123 62.3489 15.5717 62.2337 15.754C62.0493 16.0501 62.2106 16.2551 62.2567 16.3462C61.9341 16.2323 61.6115 16.3234 61.4501 16.6651C60.0444 16.2095 58.362 16.2779 57.302 18.123C56.5184 19.6492 57.2559 21.9954 59.5604 23.2938ZM64.4 9.28473L64.1004 9.12527L63.5012 10.1731L63.0403 9.92254L63.6395 8.8747L63.3399 8.71525L63.9851 7.59908L64.2847 7.75853L64.8839 6.7107L65.3448 6.96127L64.7456 8.0091L65.0452 8.16856L64.4 9.28473ZM59.0995 18.7608C59.5604 17.9407 60.2518 17.9635 60.5975 18.1458C60.897 18.3052 61.0123 18.6013 60.8279 18.8975C60.6205 19.2391 60.2748 19.2847 59.9983 19.148C59.9522 19.3303 59.9752 19.8314 60.4822 20.1275C60.897 20.3553 61.1045 20.287 61.2658 20.2642C61.3119 20.4009 61.381 20.6059 61.7958 20.8565C62.3259 21.1526 62.7637 20.902 62.902 20.7653C62.6255 20.6059 62.4872 20.287 62.6715 19.9225C62.8329 19.6264 63.1555 19.5808 63.4551 19.7403C63.8008 19.9225 64.1695 20.492 63.7086 21.312C63.2246 22.1549 62.0263 22.9066 60.2979 21.9498C58.5925 21.0159 58.6155 19.6036 59.0995 18.7608Z" fill="#038259"/>
<path d="M118.248 40.3622H115.529C114.31 40.3622 113.7 39.6653 113.7 38.8754C113.7 38.0856 114.31 37.3886 115.529 37.3886H121.296C122.468 37.3886 123.453 38.0391 123.922 38.829V32.9282H110.747C106.949 32.9282 104.886 35.9018 104.886 38.5037C104.886 41.1056 106.902 44.0792 110.747 44.0792H113.56C114.685 44.0792 116.045 44.4509 116.045 45.8913C116.045 47.2851 114.591 47.7033 113.56 47.7033H108.121C106.949 47.7033 106.245 47.1922 105.495 46.3094V53H117.498C122.328 53 125 50.0264 125 46.6811C125 43.2429 122.796 40.3622 118.248 40.3622Z" fill="#038259"/>
<path d="M99.8687 34.7403H105.167L110.231 28.3749H102.823C103.76 29.3506 103.62 30.6515 102.588 31.7202L99.8687 34.7403Z" fill="#038259"/>
<path d="M100.291 32.8818H88.6159C89.413 33.3465 89.7412 34.6939 88.8503 35.6696L82.755 42.3602V35.3908C82.755 34.3222 83.4115 33.3465 84.0679 32.8818H73.3308C73.9872 33.3465 74.6436 34.3686 74.6436 35.3908V50.4446C74.6436 51.5133 73.9872 52.489 73.3308 52.9536H84.0679C83.4115 52.489 82.755 51.4668 82.755 50.4446V43.3824L88.4752 50.2123C89.3192 51.2345 88.7097 52.5355 87.8657 52.9536H101.369L91.8511 41.9885L100.291 32.8818Z" fill="#038259"/>
<path d="M51.5754 39.433V45.8448C51.5754 50.4911 54.1542 53.0001 59.3586 53.0001H71.3616V46.7741C70.8928 47.5175 69.9081 48.168 68.736 48.168H63.2502C61.1872 48.168 60.0619 47.0529 60.0619 44.8227V40.641C60.0619 38.4573 61.1872 37.3422 63.2971 37.3422H68.736C69.9081 37.3422 70.8928 37.9462 71.3616 38.7361V32.8353H59.3586C54.67 32.8818 51.5754 34.7403 51.5754 39.433Z" fill="#038259"/>
<path d="M21.8961 42.3137C22.8807 41.8491 24.5218 40.2693 24.5218 37.8533C24.5218 35.3443 22.7869 32.8353 18.8953 32.8353H0C0.656414 33.3 1.31283 34.3221 1.31283 35.3443V50.4446C1.31283 51.5133 0.656414 52.489 0 52.9536H18.8953C22.6932 52.9536 25.1782 50.4446 25.1782 47.471C25.1782 44.358 22.9745 42.7318 21.8961 42.3137ZM9.23668 36.7846H14.1129C15.5195 36.7846 16.2228 37.8533 16.2228 38.8755C16.2228 39.8976 15.5195 40.9663 14.1129 40.9663H9.23668V36.7846ZM14.2067 48.8184H9.23668V44.2186H14.2067C15.7539 44.2186 16.5041 45.3802 16.5041 46.4953C16.5041 47.6569 15.7071 48.8184 14.2067 48.8184Z" fill="#038259"/>
<path d="M46.2772 48.2145H36.8061V44.451H45.0113V40.9198H36.8061V37.3887H46.2772C47.4494 37.3887 48.4809 37.9927 48.9029 38.7826V32.8818H27.1943C27.8507 33.3465 28.5072 34.3686 28.5072 35.3908V50.4911C28.5072 51.5597 27.8507 52.5355 27.1943 53.0001H48.9498V46.7741C48.4809 47.564 47.4494 48.2145 46.2772 48.2145Z" fill="#038259"/>
</svg>
