<svg width="104" height="127" viewBox="0 0 104 127" fill="none" xmlns="http://www.w3.org/2000/svg">
<path d="M90.917 44.8733H84.5353V35.7608C89.3895 35.0932 93.1548 30.9591 93.1548 25.9244C93.1548 20.424 88.6791 15.9463 83.1786 15.9463C83.1088 15.9463 83.0408 15.9483 82.9749 15.9541C79.8326 9.71414 73.4024 5.71979 66.3977 5.71979C65.7068 5.71979 64.9828 5.76637 64.2084 5.86536C62.6014 2.32712 59.0573 0 55.1542 0C52.0371 0 49.1355 1.4479 47.249 3.91089C44.652 2.95791 41.9464 2.47657 39.1943 2.47657C31.9586 2.47657 25.2975 5.73144 20.8121 11.4318C19.4652 11.0883 18.0891 10.9155 16.7149 10.9155C7.49764 10.9155 0 18.4151 0 27.6324C0 35.4251 5.36655 41.9678 12.5905 43.8116V126.03C12.5905 126.565 13.0253 127 13.561 127H83.5629C84.0986 127 84.5334 126.565 84.5334 126.03V95.3791H90.915C97.7256 95.3791 103.267 89.8378 103.267 83.0234V57.2251C103.271 50.4145 97.7295 44.8733 90.917 44.8733ZM1.94089 27.6305C1.94089 19.4826 8.56901 12.8545 16.7149 12.8545C18.124 12.8545 19.535 13.0602 20.9111 13.4698C21.3032 13.5843 21.7205 13.4445 21.965 13.1185C26.0778 7.58692 32.3565 4.41552 39.1943 4.41552C41.9523 4.41552 44.6579 4.94344 47.2412 5.98763C47.6701 6.15843 48.165 6.0051 48.4174 5.61692C49.9118 3.31503 52.4292 1.94089 55.1522 1.94089C58.5061 1.94089 61.5319 4.07974 62.6809 7.26474C62.8382 7.70338 63.2787 7.96346 63.7465 7.89359C64.7169 7.73831 65.5826 7.66262 66.3939 7.66262C72.8784 7.66262 78.8116 11.4862 81.5114 17.402C81.6803 17.7727 82.0471 17.9998 82.476 17.9668L82.8273 17.926C82.9438 17.9105 83.0583 17.8911 83.1767 17.8911C87.6077 17.8911 91.212 21.4953 91.212 25.9283C91.212 30.3574 87.6077 33.9616 83.1767 33.9616C82.4916 33.9616 81.7831 33.8471 80.9447 33.6026C80.5487 33.4861 80.1256 33.6356 79.885 33.9675C76.7621 38.3112 71.7177 40.9042 66.3939 40.9042C63.3564 40.9042 60.3655 40.058 57.7453 38.4567C57.3144 38.1967 56.7574 38.3034 56.4585 38.7071C52.3457 44.2522 46.0514 47.4353 39.1904 47.4353C33.5075 47.4353 28.139 45.2168 24.0709 41.1876C23.8846 41.0032 23.6381 40.9061 23.3877 40.9061C23.2479 40.9061 23.1063 40.9372 22.9762 40.9974C20.9849 41.9329 18.8771 42.4064 16.711 42.4064C8.57096 42.4045 1.94089 35.7764 1.94089 27.6305ZM14.5334 125.057V44.1862C15.2495 44.2794 15.9754 44.3454 16.7169 44.3454C18.9489 44.3454 21.1246 43.9009 23.1917 43.0256C27.5625 47.1228 33.2202 49.3723 39.1962 49.3723C46.3911 49.3723 53.0095 46.1679 57.4949 40.549C60.2335 42.0513 63.2943 42.8431 66.3997 42.8431C72.1234 42.8431 77.554 40.1608 81.0631 35.6386C81.6007 35.7647 82.1034 35.8288 82.5964 35.8637V125.059H14.5334V125.057ZM101.33 83.0253C101.33 88.7665 96.66 93.4401 90.9189 93.4401H84.5373V46.8142H90.9189C96.66 46.8142 101.33 51.484 101.33 57.2251V83.0253Z" fill="white"/>
</svg>
