<svg width="17" height="26" viewBox="0 0 17 26" fill="none" xmlns="http://www.w3.org/2000/svg">
<path d="M11.1331 0.00632756C11.0774 0.0175499 11.0247 0.041503 10.9788 0.076484C10.9329 0.111465 10.8949 0.156614 10.8675 0.208721L0.0493404 20.0433C0.0122691 20.1126 -0.00452668 20.1918 0.001045 20.271L0.387409 25.5332C0.392968 25.595 0.412023 25.6547 0.4431 25.7075C0.474177 25.7604 0.516443 25.8051 0.56663 25.8381C0.616817 25.8711 0.673578 25.8916 0.732526 25.8979C0.791474 25.9043 0.851029 25.8964 0.906585 25.8747L5.92931 23.8508C6.01557 23.8191 6.0883 23.7563 6.13457 23.6737L16.9527 3.83915C17.001 3.74658 17.0128 3.63794 16.9858 3.53635C16.9587 3.43476 16.8949 3.34825 16.8079 3.29522L11.3988 0.0569259C11.3189 0.00714722 11.2246 -0.0108162 11.1331 0.00632756ZM11.3505 0.955047L16.0834 3.78856L14.0671 7.49489L9.33414 4.66138L11.3505 0.955047ZM8.94778 5.35711L13.6807 8.20327L5.5188 23.1551L1.12391 24.9387L0.785846 20.3342L8.94778 5.35711Z" fill="white"/>
</svg>
