<svg width="36" height="36" viewBox="0 0 36 36" fill="none" xmlns="http://www.w3.org/2000/svg">
<path fill-rule="evenodd" clip-rule="evenodd" d="M18 36C27.9209 36 36 27.9209 36 18C36 8.07907 27.9209 0 18 0C8.07907 0 0 8.07907 0 18C0 27.9209 8.07907 36 18 36Z" fill="#DADADA"/>
<path d="M23.0651 19.8419C23.0233 22.6465 20.7628 24.907 18 24.907C15.1953 24.907 12.9349 22.6465 12.9349 19.8419C12.9349 17.0372 15.1953 14.7767 18 14.7767C20.8047 14.7767 23.0651 17.0372 23.0651 19.8419ZM36 18C36 27.9209 27.9209 36 18 36C8.07907 36 0 27.9209 0 18C0 8.07907 8.07907 0 18 0C27.9209 0 36 8.07907 36 18ZM14.107 9C14.107 9.71163 14.6512 10.2558 15.3628 10.2558H20.6372C21.3488 10.2558 21.9349 9.71163 21.9349 9C21.9349 8.28837 21.3907 7.74419 20.6791 7.74419H15.3628C14.6512 7.74419 14.107 8.28837 14.107 9ZM28.8419 14.1488C28.8419 12.6419 27.6698 11.4279 26.1628 11.4279H9.83721C8.33023 11.4279 7.11628 12.6419 7.11628 14.1488V25.5767C7.11628 27.0837 8.33023 28.2558 9.83721 28.2558H26.1628C27.6279 28.2558 28.8419 27.0419 28.8419 25.5767V14.1488Z" fill="#038259"/>
</svg>
