<svg width="29" height="35" viewBox="0 0 29 35" fill="none" xmlns="http://www.w3.org/2000/svg">
<path d="M14.821 35L14.6105 34.848C13.2607 33.8979 11.6509 33.2519 10.0906 32.6312C8.86459 32.1372 7.60148 31.6305 6.4622 30.9844C3.62639 29.3757 1.96701 26.7029 0.716282 24.2961L0.666748 24.2074V23.916L0.741049 23.8147C2.78432 20.9392 3.76261 18.2664 3.9236 15.1502C4.10935 11.3626 2.52427 8.13246 1.31069 6.02968L1.19924 5.83967L1.2983 5.64966C1.59551 5.06696 1.90509 4.47159 2.21468 3.88889C2.83385 2.68549 3.47779 1.44408 4.09696 0.215346L4.19603 0.0126674H11.428L11.5147 0.0633369C11.6633 0.139341 11.8119 0.228013 11.9728 0.316685C12.8149 0.798046 13.6818 1.30474 14.7467 1.35541C15.7869 1.39341 16.6538 0.886717 17.4959 0.392689C17.694 0.278683 17.8921 0.164676 18.0779 0.0506696L18.1646 0H25.4213L25.5327 0.202678C26.0157 1.10206 26.4862 2.02678 26.9444 2.9135C27.4026 3.81288 27.8856 4.7376 28.3685 5.63699L28.4676 5.827L28.3561 6.01701C27.0063 8.38581 25.5822 11.236 25.7432 15.2769C25.8547 18.1777 26.8949 20.9519 28.9258 23.7894L29.0001 23.8907V24.182L28.9629 24.2707C27.3531 27.4756 25.5699 29.5277 23.1799 30.9338C22.0282 31.6178 20.7279 32.1372 19.4772 32.6565C17.954 33.2772 16.369 33.9233 15.0439 34.848L14.821 35ZM2.36328 24.068C2.32613 24.1187 2.32613 24.1947 2.36328 24.2581C3.76261 26.8929 5.32293 28.5903 7.37858 29.743C8.4064 30.3131 9.57045 30.7818 10.685 31.2251C12.0595 31.7698 13.4836 32.3398 14.7467 33.1379C14.8086 33.1759 14.8706 33.1759 14.9325 33.1379C16.208 32.3272 17.6445 31.7571 19.0314 31.1998C20.1335 30.7564 21.2728 30.3004 22.3006 29.743C24.3439 28.6156 25.8918 26.9182 27.3159 24.2327C27.3531 24.1694 27.3407 24.106 27.3035 24.0427C25.8795 21.8892 24.4554 19.1658 24.282 15.2895C24.1086 11.426 25.3346 8.47448 26.7339 5.89034C26.7587 5.83967 26.7587 5.77633 26.7339 5.71299C26.3748 5.05429 26.0404 4.39558 25.6937 3.71155C25.4832 3.29352 25.2727 2.8755 25.0498 2.44481C25.0126 2.3688 24.9631 2.28013 24.9135 2.16612C24.8516 2.01411 24.703 1.7101 24.604 1.54542C24.5792 1.49475 24.5297 1.46942 24.4801 1.46942C24.2696 1.44408 23.9105 1.46942 23.6628 1.49475C23.4647 1.50742 23.2913 1.52009 23.1427 1.52009H19.9602C19.762 1.52009 19.5639 1.50742 19.3658 1.49475C19.0066 1.46942 18.6723 1.45675 18.4122 1.50742C18.3132 1.53275 18.1026 1.65943 17.954 1.7481C17.8674 1.79877 17.7931 1.84944 17.7188 1.88744L17.6445 1.92544C16.8767 2.35613 15.9108 2.88816 14.722 2.85016C13.7189 2.81216 12.6663 2.31813 11.8614 1.88744C11.7623 1.83677 11.6633 1.77343 11.5642 1.7101C11.4156 1.62143 11.267 1.52009 11.1679 1.50742C10.8955 1.45675 10.5611 1.46942 10.202 1.49475C10.0163 1.50742 9.81812 1.52009 9.64475 1.52009H8.01013C7.06899 1.52009 6.165 1.52009 5.23624 1.52009C5.17432 1.52009 5.11241 1.55809 5.07526 1.60876C4.2951 3.02751 3.56448 4.48426 2.93292 5.76366C2.90815 5.81433 2.90815 5.87767 2.9453 5.92834C4.69137 8.95584 5.50868 12.072 5.36008 15.1755C5.26101 17.291 4.93904 18.8871 4.33225 20.3565C3.75023 21.7499 3.04437 22.966 2.36328 24.068ZM18.016 32.4285C17.5454 32.6185 17.0872 32.8339 16.629 33.0492C17.0872 32.8339 17.5578 32.6185 18.016 32.4285ZM5.47153 29.3883C5.89256 29.7177 6.33837 30.0344 6.82132 30.3004C6.84609 30.3131 6.85847 30.3257 6.88324 30.3384C6.3879 30.0597 5.91733 29.743 5.47153 29.3883ZM4.23318 18.165C4.09696 18.7477 3.9236 19.2924 3.73784 19.8118C3.94836 19.2924 4.10935 18.7477 4.23318 18.165ZM2.06608 5.827L2.09084 5.77633C2.07846 5.789 2.06608 5.81433 2.06608 5.827ZM4.65422 0.785378C4.5923 0.924719 4.518 1.05139 4.45608 1.19073C4.49323 1.11473 4.54277 1.03873 4.57992 0.962722L4.67899 0.798046H4.65422V0.785378ZM24.8392 0.785378C24.9135 0.810713 24.9755 0.861382 25.0374 0.912052C25.0126 0.87405 24.9878 0.82338 24.9631 0.785378H24.8392Z" fill="#038259"/>
<path fill-rule="evenodd" clip-rule="evenodd" d="M14.8087 4.75023C15.2049 4.95291 15.5641 5.19359 15.948 5.39627C16.0346 5.44694 16.0718 5.54828 16.0223 5.63695C15.7746 6.13098 15.4898 6.59967 15.2421 7.08103C15.2049 7.15703 15.2173 7.25837 15.2916 7.30904C15.4031 7.38505 15.5269 7.43572 15.6384 7.51172C15.7127 7.56239 15.8241 7.53706 15.8737 7.46105C15.9975 7.28371 16.0842 7.06836 16.1832 6.87835C16.2328 6.80235 16.3318 6.76435 16.4061 6.80235C17.0501 7.10637 17.6073 7.48639 18.2141 7.82841C18.3008 7.87908 18.3256 7.98042 18.2884 8.05642C18.2017 8.27177 18.0779 8.44911 17.9665 8.63912C17.9169 8.72779 17.9417 8.82913 18.0284 8.8798C18.1522 8.96847 18.2884 9.03181 18.4246 9.09515C18.4989 9.13315 18.598 9.10781 18.6475 9.03181C18.9324 8.57578 19.18 8.08175 19.4525 7.60039C19.502 7.51172 19.6011 7.48639 19.6878 7.53706C19.9107 7.65106 20.0964 7.7904 20.3317 7.90441C20.406 7.94241 20.5051 7.90441 20.5546 7.82841C20.6784 7.61306 20.7899 7.39772 20.9137 7.18237C20.9633 7.10637 21.0623 7.06836 21.1366 7.10637C21.6567 7.34705 22.1149 7.66373 22.5979 7.94241C22.6846 7.99308 22.7093 8.09442 22.6722 8.18309C20.5422 12.1607 18.338 16.0369 16.1832 20.0018C16.1461 20.0651 16.1461 20.1411 16.1956 20.1918C16.4804 20.5465 16.4185 21.2305 15.9727 21.3825C15.8737 21.4205 15.8365 21.5345 15.8737 21.6232C15.9727 21.8385 16.0346 22.1426 15.9232 22.3706C15.886 22.4339 15.8984 22.5226 15.9603 22.5732C16.79 23.4346 17.595 24.2707 17.4835 26.0061C17.3349 28.2989 15.5393 29.819 12.9635 29.6797C10.0534 29.5276 7.08141 27.0575 7.09379 24.03C7.10617 21.5725 9.66955 19.4824 12.3691 20.4831C12.4311 20.5085 12.5054 20.4958 12.5549 20.4325C12.7159 20.2551 12.914 20.0651 13.1988 20.0651C13.3103 20.0651 13.3846 19.9764 13.3722 19.8624C13.3227 19.4191 13.7066 18.925 14.1895 19.0644C14.2638 19.0897 14.3381 19.0517 14.3876 18.9884C15.0316 17.9117 15.6384 16.7716 16.2452 15.6569C16.2947 15.5808 16.2699 15.4795 16.1956 15.4288C16.0099 15.3022 15.787 15.1882 15.5765 15.0742C15.4898 15.0235 15.4526 14.9221 15.5022 14.8335C15.7622 14.3521 16.0223 13.8834 16.2823 13.3894C16.3195 13.3134 16.2947 13.212 16.2328 13.1487C16.1089 13.06 15.9727 12.9967 15.8365 12.9334C15.7622 12.8954 15.6631 12.9207 15.6136 12.9967C15.5022 13.174 15.3907 13.3767 15.2916 13.5667C15.2421 13.6554 15.143 13.6934 15.0563 13.6427C14.4372 13.3261 13.8675 12.946 13.2607 12.604C13.1741 12.5533 13.1493 12.4393 13.1988 12.3507C13.2979 12.1607 13.397 11.9706 13.5084 11.7933C13.558 11.7173 13.5456 11.6033 13.4713 11.5526C13.3598 11.4639 13.236 11.4133 13.1121 11.3499C13.0255 11.3119 12.9388 11.3373 12.8892 11.4133C12.6168 11.8693 12.3444 12.3253 12.1091 12.8067C12.0719 12.8954 11.9605 12.9334 11.8738 12.8954C11.4651 12.7054 11.106 12.4647 10.7221 12.2493C10.6355 12.1987 10.6107 12.0973 10.6602 12.0086C11.9481 9.57651 13.3227 7.23304 14.6105 4.78823C14.6229 4.73756 14.722 4.71223 14.8087 4.75023ZM16.4804 8.2211C16.2823 8.55045 16.1213 8.9178 15.9108 9.24715C15.8613 9.33583 15.7374 9.36116 15.6631 9.29782C15.6508 9.29782 15.6508 9.28516 15.6384 9.28516C15.5517 9.22182 15.4279 9.25982 15.3783 9.36116C15.1926 9.72852 14.9697 10.0579 14.7963 10.4379C14.7591 10.5266 14.7839 10.6279 14.8706 10.6786C14.883 10.6912 14.9077 10.7039 14.9201 10.7039C15.0068 10.7546 15.0316 10.8686 14.982 10.9446C14.7963 11.2739 14.6105 11.616 14.4248 11.958C14.3753 12.0466 14.4 12.148 14.4867 12.1987C14.5734 12.2493 14.6477 12.3 14.7344 12.3507C14.8211 12.4013 14.9201 12.3633 14.9697 12.2747C15.1554 11.9326 15.3288 11.5906 15.5269 11.2613C15.5765 11.1726 15.7003 11.1473 15.787 11.2106C15.8737 11.2866 16.0099 11.2486 16.0594 11.1473C16.2452 10.7799 16.4681 10.4506 16.6414 10.0705C16.6786 9.98186 16.6414 9.88052 16.5547 9.82985C16.5424 9.81719 16.53 9.81719 16.5052 9.80452C16.4185 9.75385 16.3938 9.63984 16.4433 9.56384C16.629 9.23449 16.8148 8.89247 17.0005 8.55045C17.0501 8.46178 17.0129 8.36044 16.9386 8.30977C16.8519 8.2591 16.7776 8.20843 16.691 8.15776C16.6167 8.11976 16.5176 8.14509 16.4804 8.2211ZM11.75 22.8013C11.6385 22.4339 11.1556 22.2439 10.7469 22.2692C9.79338 22.3452 9.13706 23.6246 9.26089 24.8534C9.48379 26.9562 12.7035 28.6663 14.4743 27.2222C14.8582 26.9182 15.4279 26.2468 15.4031 25.4234C15.3907 24.9927 15.0811 24.1313 14.2638 24.334C13.7809 24.448 13.6942 25.2207 14.0038 25.6134C14.0781 25.7021 14.0409 25.8414 13.9418 25.8794C13.2855 26.1835 12.493 25.7528 12.1958 25.2081C12.1586 25.1447 12.1091 25.1067 12.0472 25.1067C11.2422 25.0814 10.7098 24.6634 10.6602 23.9287C10.6478 23.8147 10.7593 23.7133 10.8707 23.7513C11.428 23.8653 11.8986 23.308 11.75 22.8013Z" fill="#038259"/>
</svg>
