<svg width="32" height="38" viewBox="0 0 32 38" fill="none" xmlns="http://www.w3.org/2000/svg">
<g filter="url(#filter0_d)">
<path d="M12.99 10.5906C12.99 10.2616 13.2459 10.0056 13.575 10.0056H18.84V6.56875C18.84 6.31281 19.1325 6.16656 19.3153 6.34938L24.5072 11.5778C24.7266 11.7972 24.7266 12.1628 24.5072 12.4188L19.3153 17.6472C19.1325 17.83 18.84 17.6838 18.84 17.4278V13.9909H13.575C13.2459 13.9909 12.99 13.735 12.99 13.4059V10.5906ZM11.82 10.5906V13.4059C11.82 14.3931 12.5878 15.1609 13.575 15.1609H17.67V17.4278C17.67 18.7441 19.2422 19.4022 20.1562 18.4516L25.3116 13.2231C26.0062 12.565 26.0062 11.4316 25.3116 10.7369L20.1562 5.50844C19.2422 4.59438 17.67 5.2525 17.67 6.56875V8.83563H13.575C12.5878 8.83563 11.82 9.60344 11.82 10.5906ZM7.14 6.715V17.245C7.14 18.2322 7.90781 19 8.895 19H13.7213C13.9406 19 14.16 18.8172 14.16 18.5613V18.2688C14.16 18.0494 13.9406 17.83 13.7213 17.83H8.895C8.56594 17.83 8.31 17.5741 8.31 17.245V6.715C8.31 6.4225 8.56594 6.13 8.895 6.13H13.7213C13.9406 6.13 14.16 5.94719 14.16 5.69125V5.39875C14.16 5.17938 13.9406 4.96 13.7213 4.96H8.895C7.90781 4.96 7.14 5.76438 7.14 6.715Z" fill="#62F8B2"/>
<path d="M4.71414 29.77V30.06C4.71414 31.38 5.35414 32.14 6.98414 32.14C8.54414 32.14 9.46414 31.46 9.46414 29.95C9.46414 29.08 9.18414 28.53 8.10414 28.06L6.99414 27.58C6.38414 27.32 6.25414 27.05 6.25414 26.61C6.25414 26.19 6.42414 25.78 7.07414 25.78C7.62414 25.78 7.85414 26.17 7.85414 26.84H9.23414V26.64C9.23414 25.27 8.30414 24.72 7.02414 24.72C5.66414 24.72 4.81414 25.43 4.81414 26.82C4.81414 28.01 5.40414 28.54 6.68414 28.98C7.63414 29.31 7.96414 29.55 7.96414 30.2C7.96414 30.8 7.54414 31.08 7.10414 31.08C6.34414 31.08 6.15414 30.65 6.15414 29.98V29.77H4.71414ZM9.67969 32H11.1797L11.5097 30.49H13.4097L13.7397 32H15.2397L13.3497 24.86H11.5697L9.67969 32ZM12.4497 26.1H12.4697L13.1597 29.31H11.7597L12.4497 26.1ZM19.7263 32V30.82H17.1763V24.86H15.7363V32H19.7263ZM21.8752 32V24.86H20.4352V32H21.8752ZM24.3834 25.92H25.0634C25.7134 25.92 26.0634 26.25 26.0634 26.91C26.0634 27.68 25.6734 27.98 24.9834 27.98H24.3834V25.92ZM22.9434 32H24.3834V28.98H25.1534C25.7334 28.98 25.9834 29.32 26.0034 29.88L26.0434 31.25C26.0534 31.53 26.0834 31.8 26.2234 32H27.7834V31.94C27.5134 31.8 27.4734 31.41 27.4634 30.66C27.4434 29.15 27.2934 28.61 26.3134 28.48V28.46C27.1234 28.29 27.5034 27.65 27.5034 26.7C27.5034 25.48 26.7834 24.86 25.6034 24.86H22.9434V32Z" fill="#62F8B2"/>
</g>
<defs>
<filter id="filter0_d" x="0.714111" y="0.959961" width="31.0692" height="35.18" filterUnits="userSpaceOnUse" color-interpolation-filters="sRGB">
<feFlood flood-opacity="0" result="BackgroundImageFix"/>
<feColorMatrix in="SourceAlpha" type="matrix" values="0 0 0 0 0 0 0 0 0 0 0 0 0 0 0 0 0 0 127 0"/>
<feOffset/>
<feGaussianBlur stdDeviation="2"/>
<feColorMatrix type="matrix" values="0 0 0 0 0.384288 0 0 0 0 0.970833 0 0 0 0 0.697648 0 0 0 1 0"/>
<feBlend mode="normal" in2="BackgroundImageFix" result="effect1_dropShadow"/>
<feBlend mode="normal" in="SourceGraphic" in2="effect1_dropShadow" result="shape"/>
</filter>
</defs>
</svg>
