<svg width="28" height="33" viewBox="0 0 28 33" fill="none" xmlns="http://www.w3.org/2000/svg">
<path fill-rule="evenodd" clip-rule="evenodd" d="M3.70612 0.370239H10.1919C10.2157 0.370239 10.2513 0.382183 10.2751 0.394126C11.1897 0.895755 12.1994 1.58848 13.4823 1.63625C14.8365 1.68403 15.8937 0.895755 16.8202 0.394126C16.844 0.382183 16.8677 0.370239 16.9034 0.370239H23.4129C23.4723 0.370239 23.5317 0.40607 23.5673 0.453844C24.4582 2.09011 25.3016 3.77415 26.1925 5.41041C26.2163 5.45819 26.2163 5.52985 26.1925 5.57762C24.8146 7.96633 23.5317 10.6297 23.6861 14.4278C23.8287 17.772 25.2185 20.4593 26.739 22.5733C26.7508 22.6569 26.7508 22.7285 26.7508 22.8121C25.4323 25.3681 23.8524 27.4343 21.3935 28.8556C18.9822 30.253 16.0006 30.9218 13.6605 32.4984C13.6011 32.5342 13.5298 32.5342 13.4823 32.4984C11.1422 30.9218 8.17252 30.2649 5.7255 28.8914C3.27848 27.5179 1.74613 25.3322 0.41571 22.8241C0.41571 22.7405 0.427589 22.6449 0.427589 22.5733C1.9837 20.3996 3.30224 17.7959 3.48042 14.3083C3.6586 10.8686 2.34006 7.9305 0.97401 5.58957C0.950253 5.54179 0.938374 5.48207 0.97401 5.42236C1.82928 3.77415 2.7083 2.13788 3.56357 0.465788C3.58733 0.40607 3.64672 0.370239 3.70612 0.370239ZM1.75801 5.45819C1.73425 5.50596 1.73425 5.56568 1.76988 5.6254C3.14782 7.91856 4.30005 10.8925 4.14563 14.3083C4.06248 16.1477 3.78927 17.6645 3.18345 19.0738C2.61327 20.3996 1.93619 21.5581 1.21158 22.6808C1.17595 22.7285 1.17595 22.8002 1.19971 22.848C2.44697 25.2009 3.93181 27.076 6.26004 28.354C8.54076 29.608 11.2966 30.2291 13.4942 31.6623C13.5536 31.6981 13.6248 31.6981 13.6724 31.6623C15.8699 30.2291 18.6139 29.5961 20.9065 28.354C23.2466 27.0879 24.7196 25.177 25.9668 22.8121C25.9906 22.7524 25.9906 22.6927 25.955 22.633C24.4701 20.4593 23.1635 17.9511 22.9972 14.392C22.8309 10.6775 24.1019 7.89467 25.4085 5.54179C25.4323 5.49402 25.4323 5.4343 25.4085 5.37458C24.8146 4.32355 24.2919 3.23669 23.698 2.12594C23.5555 1.86318 23.2704 1.13463 23.0684 1.06296C22.7239 0.931586 21.9756 1.06296 21.548 1.06296C20.4314 1.06296 19.5523 1.06296 18.4951 1.06296C17.9606 1.06296 17.3785 0.967416 16.939 1.06296C16.7133 1.11074 16.3926 1.33767 16.1788 1.46904C15.4423 1.87513 14.5633 2.37675 13.4942 2.32898C12.5795 2.29315 11.6055 1.82735 10.9046 1.46904C10.6433 1.32572 10.382 1.11074 10.1444 1.06296C9.68111 0.97936 9.13469 1.06296 8.62391 1.06296C7.07967 1.06296 5.65423 1.06296 4.18127 1.06296C4.12187 1.06296 4.06248 1.0988 4.02684 1.14657C3.23097 2.55591 2.49449 4.00108 1.75801 5.45819Z" fill="white"/>
<path d="M13.5774 33L13.3754 32.8567C12.0807 31.9609 10.5364 31.3518 9.03971 30.7666C7.86371 30.3008 6.65208 29.823 5.55924 29.2139C2.83901 27.6971 1.24727 25.177 0.0475149 22.9077L0 22.8241V22.5494L0.0712723 22.4539C2.03126 19.7427 2.96968 17.2226 3.1241 14.2845C3.30228 10.7134 1.78181 7.66775 0.617693 5.68512L0.510785 5.50597L0.605815 5.32682C0.890904 4.77742 1.18787 4.21607 1.48484 3.66667C2.07878 2.53203 2.69647 1.36156 3.29041 0.20304L3.38543 0.0119435H10.3226L10.4058 0.0597177C10.5483 0.131379 10.6908 0.214984 10.8453 0.298588C11.653 0.752443 12.4845 1.23018 13.5061 1.27796C14.5039 1.31379 15.3354 0.836048 16.1432 0.37025C16.3332 0.262758 16.5233 0.155266 16.7015 0.0477742L16.7846 0H23.7456L23.8525 0.191097C24.3157 1.03909 24.7671 1.91097 25.2066 2.74701C25.6462 3.59501 26.1094 4.46688 26.5727 5.31487L26.6677 5.49403L26.5608 5.67318C25.266 7.90662 23.9 10.5939 24.0544 14.4039C24.1613 17.139 25.1591 19.7546 27.1072 22.43L27.1785 22.5255V22.8002L27.1429 22.8838C25.5986 25.9055 23.8881 27.8404 21.5955 29.1661C20.4908 29.8111 19.2435 30.3008 18.0438 30.7904C16.5827 31.3757 15.0622 31.9848 13.7912 32.8567L13.5774 33ZM1.62738 22.6927C1.59175 22.7405 1.59175 22.8122 1.62738 22.8719C2.96968 25.3561 4.4664 26.9566 6.43827 28.0434C7.4242 28.5809 8.5408 29.0228 9.60988 29.4408C10.9284 29.9544 12.2945 30.4919 13.5061 31.2443C13.5655 31.2801 13.6249 31.2801 13.6843 31.2443C14.9078 30.4799 16.2857 29.9425 17.6161 29.4169C18.6733 28.9989 19.7662 28.5689 20.7521 28.0434C22.7121 26.9805 24.197 25.38 25.563 22.848C25.5986 22.7883 25.5868 22.7286 25.5511 22.6688C24.1851 20.6384 22.819 18.0706 22.6527 14.4159C22.4864 10.7731 23.6624 7.99023 25.0047 5.55375C25.0285 5.50597 25.0285 5.44625 25.0047 5.38654C24.6602 4.76547 24.3395 4.14441 24.0069 3.49946C23.805 3.10532 23.603 2.71118 23.3892 2.3051C23.3536 2.23344 23.306 2.14984 23.2585 2.04235C23.1991 1.89902 23.0566 1.61238 22.9616 1.45711C22.9378 1.40934 22.8903 1.38545 22.8428 1.38545C22.6408 1.36156 22.2964 1.38545 22.0588 1.40934C21.8687 1.42128 21.7024 1.43322 21.5599 1.43322H18.507C18.317 1.43322 18.1269 1.42128 17.9369 1.40934C17.5924 1.38545 17.2717 1.37351 17.0222 1.42128C16.9272 1.44517 16.7252 1.5646 16.5827 1.64821C16.4995 1.69598 16.4283 1.74376 16.357 1.77959L16.2857 1.81542C15.5492 2.2215 14.6227 2.72313 13.4823 2.6873C12.5202 2.65147 11.5105 2.18567 10.7384 1.77959C10.6433 1.73181 10.5483 1.6721 10.4533 1.61238C10.3107 1.52877 10.1682 1.43322 10.0732 1.42128C9.81182 1.37351 9.4911 1.38545 9.14661 1.40934C8.96843 1.42128 8.77837 1.43322 8.61207 1.43322H7.04408C6.1413 1.43322 5.27415 1.43322 4.38325 1.43322C4.32385 1.43322 4.26446 1.46906 4.22882 1.51683C3.48046 2.85451 2.77962 4.22801 2.17381 5.43431C2.15005 5.48208 2.15005 5.5418 2.18568 5.58958C3.86058 8.44408 4.64458 11.3822 4.50203 14.3084C4.407 16.3029 4.09816 17.8078 3.5161 19.1933C2.9578 20.5071 2.28071 21.6536 1.62738 22.6927ZM16.6421 30.5755C16.1907 30.7546 15.7512 30.9577 15.3117 31.1607C15.7512 30.9577 16.2026 30.7546 16.6421 30.5755ZM4.60894 27.709C5.01282 28.0195 5.44045 28.3181 5.90372 28.5689C5.92748 28.5809 5.93936 28.5928 5.96312 28.6048C5.48797 28.342 5.03658 28.0434 4.60894 27.709ZM3.42107 17.127C3.29041 17.6764 3.1241 18.19 2.94592 18.6797C3.14786 18.19 3.30228 17.6764 3.42107 17.127ZM1.3423 5.49403L1.36605 5.44625C1.35417 5.4582 1.3423 5.48208 1.3423 5.49403ZM3.82495 0.740499C3.76555 0.871878 3.69428 0.991314 3.63489 1.12269C3.67052 1.05103 3.71804 0.97937 3.75368 0.907709L3.84871 0.752443H3.82495V0.740499ZM23.1873 0.740499C23.2585 0.764386 23.3179 0.812161 23.3773 0.859935C23.3536 0.824104 23.3298 0.77633 23.306 0.740499H23.1873Z" fill="white"/>
<path fill-rule="evenodd" clip-rule="evenodd" d="M13.5654 4.4788C13.9455 4.6699 14.29 4.89682 14.6582 5.08792C14.7414 5.13569 14.777 5.23124 14.7295 5.31485C14.4919 5.78065 14.2187 6.22256 13.9812 6.67641C13.9455 6.74807 13.9574 6.84362 14.0287 6.89139C14.1356 6.96306 14.2544 7.01083 14.3613 7.08249C14.4325 7.13027 14.5395 7.10638 14.587 7.03472C14.7058 6.86751 14.7889 6.66447 14.8839 6.48531C14.9315 6.41365 15.0265 6.37782 15.0978 6.41365C15.7154 6.7003 16.25 7.0586 16.832 7.38108C16.9152 7.42885 16.939 7.5244 16.9033 7.59606C16.8202 7.7991 16.7014 7.96631 16.5945 8.14547C16.547 8.22907 16.5707 8.32462 16.6539 8.37239C16.7727 8.456 16.9033 8.51572 17.034 8.57543C17.1053 8.61126 17.2003 8.58738 17.2478 8.51572C17.521 8.08575 17.7586 7.61995 18.0199 7.1661C18.0674 7.08249 18.1625 7.0586 18.2456 7.10638C18.4594 7.21387 18.6376 7.34525 18.8633 7.45274C18.9346 7.48857 19.0296 7.45274 19.0771 7.38108C19.1959 7.17804 19.3028 6.975 19.4216 6.77196C19.4691 6.7003 19.5642 6.66447 19.6354 6.7003C20.1343 6.92723 20.5738 7.22581 21.0371 7.48857C21.1203 7.53635 21.144 7.63189 21.1084 7.7155C19.0652 11.4658 16.9508 15.1205 14.8839 18.8588C14.8483 18.9185 14.8483 18.9902 14.8958 19.038C15.169 19.3724 15.1096 20.0173 14.682 20.1607C14.587 20.1965 14.5513 20.304 14.587 20.3876C14.682 20.5906 14.7414 20.8773 14.6345 21.0923C14.5988 21.152 14.6107 21.2356 14.6701 21.2834C15.466 22.0955 16.2381 22.8838 16.1312 24.5201C15.9887 26.6818 14.2662 28.1151 11.7955 27.9837C9.00397 27.8404 6.15308 25.5114 6.16495 22.6569C6.17683 20.3398 8.63573 18.3691 11.2253 19.3127C11.2847 19.3366 11.356 19.3246 11.4035 19.2649C11.5579 19.0977 11.748 18.9185 12.0212 18.9185C12.1281 18.9185 12.1993 18.8349 12.1875 18.7274C12.14 18.3094 12.5082 17.8436 12.9715 17.975C13.0427 17.9989 13.114 17.9631 13.1615 17.9033C13.7792 16.8881 14.3613 15.8132 14.9433 14.7622C14.9908 14.6905 14.9671 14.595 14.8958 14.5472C14.7176 14.4278 14.5038 14.3203 14.3019 14.2128C14.2187 14.165 14.1831 14.0695 14.2306 13.9859C14.4801 13.532 14.7295 13.0901 14.979 12.6243C15.0146 12.5526 14.9908 12.4571 14.9315 12.3974C14.8127 12.3138 14.682 12.254 14.5513 12.1943C14.4801 12.1585 14.385 12.1824 14.3375 12.254C14.2306 12.4213 14.1237 12.6124 14.0287 12.7915C13.9812 12.8751 13.8861 12.9109 13.803 12.8632C13.209 12.5646 12.6626 12.2063 12.0806 11.8838C11.9974 11.836 11.9736 11.7285 12.0212 11.6449C12.1162 11.4658 12.2112 11.2866 12.3181 11.1194C12.3656 11.0477 12.3538 10.9403 12.2825 10.8925C12.1756 10.8089 12.0568 10.7611 11.938 10.7014C11.8549 10.6656 11.7717 10.6894 11.7242 10.7611C11.4629 11.1911 11.2015 11.621 10.9758 12.0749C10.9402 12.1585 10.8333 12.1943 10.7501 12.1585C10.3581 11.9793 10.0137 11.7524 9.64542 11.5494C9.56227 11.5016 9.53851 11.4061 9.58603 11.3224C10.8214 9.02929 12.14 6.81973 13.3753 4.51463C13.3872 4.46686 13.4822 4.44297 13.5654 4.4788ZM15.169 7.75133C14.979 8.06186 14.8245 8.40822 14.6226 8.71876C14.5751 8.80236 14.4563 8.82625 14.385 8.76653C14.3732 8.76653 14.3732 8.75459 14.3613 8.75459C14.2781 8.69487 14.1593 8.7307 14.1118 8.82625C13.9336 9.17261 13.7198 9.48314 13.5535 9.84145C13.5179 9.92505 13.5416 10.0206 13.6248 10.0684C13.6367 10.0803 13.6604 10.0923 13.6723 10.0923C13.7555 10.14 13.7792 10.2475 13.7317 10.3192C13.5535 10.6297 13.3753 10.9522 13.1972 11.2747C13.1496 11.3583 13.1734 11.4538 13.2566 11.5016C13.3397 11.5494 13.411 11.5971 13.4941 11.6449C13.5773 11.6927 13.6723 11.6569 13.7198 11.5733C13.898 11.2508 14.0643 10.9283 14.2544 10.6178C14.3019 10.5342 14.4207 10.5103 14.5038 10.57C14.587 10.6417 14.7176 10.6058 14.7651 10.5103C14.9433 10.1639 15.1571 9.85339 15.3234 9.49509C15.3591 9.41148 15.3234 9.31593 15.2403 9.26816C15.2284 9.25622 15.2165 9.25622 15.1928 9.24427C15.1096 9.1965 15.0859 9.08901 15.1334 9.01734C15.3116 8.70681 15.4897 8.38434 15.6679 8.06186C15.7154 7.97826 15.6798 7.88271 15.6085 7.83493C15.5254 7.78716 15.4541 7.73939 15.371 7.69161C15.2997 7.65578 15.2047 7.67967 15.169 7.75133ZM10.6314 21.4983C10.5244 21.152 10.0612 20.9728 9.66918 20.9967C8.75452 21.0684 8.12494 22.2747 8.24373 23.4332C8.45755 25.4158 11.546 27.0282 13.2447 25.6666C13.6129 25.38 14.1593 24.747 14.1356 23.9707C14.1237 23.5646 13.8267 22.7524 13.0427 22.9435C12.5795 23.051 12.4963 23.7796 12.7933 24.1498C12.8646 24.2334 12.8289 24.3648 12.7339 24.4006C12.1043 24.6873 11.3441 24.2812 11.059 23.7676C11.0234 23.7079 10.9758 23.6721 10.9164 23.6721C10.1443 23.6482 9.63354 23.254 9.58603 22.5613C9.57415 22.4538 9.68106 22.3583 9.78796 22.3941C10.3225 22.5016 10.7739 21.9761 10.6314 21.4983Z" fill="white"/>
</svg>
