<svg width="34" height="39" viewBox="0 0 34 39" fill="none" xmlns="http://www.w3.org/2000/svg">
<path fill-rule="evenodd" clip-rule="evenodd" d="M6.70618 3.37018H13.192C13.2157 3.37018 13.2514 3.38212 13.2751 3.39407C14.1898 3.89569 15.1995 4.58842 16.4824 4.63619C17.8365 4.68397 18.8937 3.89569 19.8203 3.39407C19.844 3.38212 19.8678 3.37018 19.9034 3.37018H26.413C26.4724 3.37018 26.5318 3.40601 26.5674 3.45378C27.4583 5.09005 28.3017 6.77409 29.1926 8.41035C29.2164 8.45813 29.2164 8.52979 29.1926 8.57756C27.8147 10.9663 26.5318 13.6297 26.6862 17.4277C26.8287 20.7719 28.2185 23.4592 29.739 25.5732C29.7509 25.6568 29.7509 25.7285 29.7509 25.8121C28.4324 28.368 26.8525 30.4342 24.3936 31.8555C21.9822 33.2529 19.0007 33.9218 16.6605 35.4983C16.6012 35.5341 16.5299 35.5341 16.4824 35.4983C14.1423 33.9218 11.1726 33.2649 8.72556 31.8913C6.27854 30.5178 4.74619 28.3322 3.41577 25.824C3.41577 25.7404 3.42765 25.6449 3.42765 25.5732C4.98376 23.3995 6.3023 20.7958 6.48048 17.3083C6.65866 13.8685 5.34012 10.9304 3.97407 8.58951C3.95031 8.54173 3.93844 8.48201 3.97407 8.4223C4.82934 6.77409 5.70836 5.13782 6.56363 3.46573C6.58739 3.40601 6.64678 3.37018 6.70618 3.37018ZM4.75807 8.45813C4.73431 8.5059 4.73431 8.56562 4.76995 8.62534C6.14788 10.9185 7.30011 13.8924 7.14569 17.3083C7.06254 19.1476 6.78933 20.6644 6.18351 22.0738C5.61333 23.3995 4.93625 24.558 4.21165 25.6807C4.17601 25.7285 4.17601 25.8001 4.19977 25.8479C5.44703 28.2008 6.93187 30.0759 9.2601 31.3539C11.5408 32.608 14.2967 33.229 16.4942 34.6623C16.5536 34.6981 16.6249 34.6981 16.6724 34.6623C18.87 33.229 21.614 32.596 23.9066 31.3539C26.2467 30.0879 27.7196 28.1769 28.9669 25.8121C28.9907 25.7524 28.9907 25.6927 28.955 25.6329C27.4702 23.4592 26.1635 20.9511 25.9972 17.3919C25.8309 13.6775 27.1019 10.8946 28.4086 8.54173C28.4324 8.49396 28.4324 8.43424 28.4086 8.37452C27.8147 7.32349 27.292 6.23663 26.6981 5.12588C26.5555 4.86312 26.2704 4.13456 26.0685 4.0629C25.724 3.93152 24.9757 4.0629 24.548 4.0629C23.4314 4.0629 22.5524 4.0629 21.4952 4.0629C20.9606 4.0629 20.3786 3.96736 19.9391 4.0629C19.7134 4.11068 19.3927 4.3376 19.1788 4.46898C18.4424 4.87506 17.5633 5.37669 16.4942 5.32892C15.5796 5.29309 14.6055 4.82729 13.9047 4.46898C13.6434 4.32566 13.382 4.11068 13.1444 4.0629C12.6812 3.9793 12.1348 4.0629 11.624 4.0629C10.0797 4.0629 8.65429 4.0629 7.18133 4.0629C7.12193 4.0629 7.06254 4.09873 7.0269 4.14651C6.23103 5.55585 5.49455 7.00101 4.75807 8.45813Z" fill="#62F8B2"/>
<g filter="url(#filter0_d)">
<path d="M16.5774 36L16.3754 35.8567C15.0807 34.9609 13.5364 34.3518 12.0397 33.7666C10.8637 33.3008 9.65208 32.823 8.55924 32.2139C5.83901 30.6971 4.24727 28.177 3.04751 25.9077L3 25.8241V25.5494L3.07127 25.4539C5.03126 22.7427 5.96968 20.2226 6.1241 17.2845C6.30228 13.7134 4.78181 10.6678 3.61769 8.68512L3.51078 8.50597L3.60581 8.32682C3.8909 7.77742 4.18787 7.21607 4.48484 6.66667C5.07878 5.53203 5.69647 4.36156 6.29041 3.20304L6.38543 3.01194H13.3226L13.4058 3.05972C13.5483 3.13138 13.6908 3.21498 13.8453 3.29859C14.653 3.75244 15.4845 4.23018 16.5061 4.27796C17.5039 4.31379 18.3354 3.83605 19.1432 3.37025C19.3332 3.26276 19.5233 3.15527 19.7015 3.04777L19.7846 3H26.7456L26.8525 3.1911C27.3157 4.03909 27.7671 4.91097 28.2066 5.74701C28.6462 6.59501 29.1094 7.46688 29.5727 8.31487L29.6677 8.49403L29.5608 8.67318C28.266 10.9066 26.9 13.5939 27.0544 17.4039C27.1613 20.139 28.1591 22.7546 30.1072 25.43L30.1785 25.5255V25.8002L30.1429 25.8838C28.5986 28.9055 26.8881 30.8404 24.5955 32.1661C23.4908 32.8111 22.2435 33.3008 21.0438 33.7904C19.5827 34.3757 18.0622 34.9848 16.7912 35.8567L16.5774 36ZM4.62738 25.6927C4.59175 25.7405 4.59175 25.8122 4.62738 25.8719C5.96968 28.3561 7.4664 29.9566 9.43827 31.0434C10.4242 31.5809 11.5408 32.0228 12.6099 32.4408C13.9284 32.9544 15.2945 33.4919 16.5061 34.2443C16.5655 34.2801 16.6249 34.2801 16.6843 34.2443C17.9078 33.4799 19.2857 32.9425 20.6161 32.4169C21.6733 31.9989 22.7662 31.5689 23.7521 31.0434C25.7121 29.9805 27.197 28.38 28.563 25.848C28.5986 25.7883 28.5868 25.7286 28.5511 25.6688C27.1851 23.6384 25.819 21.0706 25.6527 17.4159C25.4864 13.7731 26.6624 10.9902 28.0047 8.55375C28.0285 8.50597 28.0285 8.44625 28.0047 8.38654C27.6602 7.76547 27.3395 7.14441 27.0069 6.49946C26.805 6.10532 26.603 5.71118 26.3892 5.3051C26.3536 5.23344 26.306 5.14984 26.2585 5.04235C26.1991 4.89902 26.0566 4.61238 25.9616 4.45711C25.9378 4.40934 25.8903 4.38545 25.8428 4.38545C25.6408 4.36156 25.2964 4.38545 25.0588 4.40934C24.8687 4.42128 24.7024 4.43322 24.5599 4.43322H21.507C21.317 4.43322 21.1269 4.42128 20.9369 4.40934C20.5924 4.38545 20.2717 4.37351 20.0222 4.42128C19.9272 4.44517 19.7252 4.5646 19.5827 4.64821C19.4995 4.69598 19.4283 4.74376 19.357 4.77959L19.2857 4.81542C18.5492 5.2215 17.6227 5.72313 16.4823 5.6873C15.5202 5.65147 14.5105 5.18567 13.7384 4.77959C13.6433 4.73181 13.5483 4.6721 13.4533 4.61238C13.3107 4.52877 13.1682 4.43322 13.0732 4.42128C12.8118 4.37351 12.4911 4.38545 12.1466 4.40934C11.9684 4.42128 11.7784 4.43322 11.6121 4.43322H10.0441C9.1413 4.43322 8.27415 4.43322 7.38325 4.43322C7.32385 4.43322 7.26446 4.46906 7.22882 4.51683C6.48046 5.85451 5.77962 7.22801 5.17381 8.43431C5.15005 8.48208 5.15005 8.5418 5.18568 8.58958C6.86058 11.4441 7.64458 14.3822 7.50203 17.3084C7.407 19.3029 7.09816 20.8078 6.5161 22.1933C5.9578 23.5071 5.28071 24.6536 4.62738 25.6927ZM19.6421 33.5755C19.1907 33.7546 18.7512 33.9577 18.3117 34.1607C18.7512 33.9577 19.2026 33.7546 19.6421 33.5755ZM7.60894 30.709C8.01282 31.0195 8.44045 31.3181 8.90372 31.5689C8.92748 31.5809 8.93936 31.5928 8.96312 31.6048C8.48797 31.342 8.03658 31.0434 7.60894 30.709ZM6.42107 20.127C6.29041 20.6764 6.1241 21.19 5.94592 21.6797C6.14786 21.19 6.30228 20.6764 6.42107 20.127ZM4.3423 8.49403L4.36605 8.44625C4.35417 8.4582 4.3423 8.48208 4.3423 8.49403ZM6.82495 3.7405C6.76555 3.87188 6.69428 3.99131 6.63489 4.12269C6.67052 4.05103 6.71804 3.97937 6.75368 3.90771L6.84871 3.75244H6.82495V3.7405ZM26.1873 3.7405C26.2585 3.76439 26.3179 3.81216 26.3773 3.85993C26.3536 3.8241 26.3298 3.77633 26.306 3.7405H26.1873Z" fill="#62F8B2"/>
</g>
<g filter="url(#filter1_d)">
<path fill-rule="evenodd" clip-rule="evenodd" d="M16.5654 7.47886C16.9455 7.66996 17.29 7.89688 17.6582 8.08798C17.7414 8.13576 17.777 8.2313 17.7295 8.31491C17.4919 8.78071 17.2187 9.22262 16.9812 9.67647C16.9455 9.74813 16.9574 9.84368 17.0287 9.89146C17.1356 9.96312 17.2544 10.0109 17.3613 10.0826C17.4325 10.1303 17.5395 10.1064 17.587 10.0348C17.7058 9.86757 17.7889 9.66453 17.8839 9.48538C17.9315 9.41371 18.0265 9.37788 18.0978 9.41371C18.7154 9.70036 19.25 10.0587 19.832 10.3811C19.9152 10.4289 19.939 10.5245 19.9033 10.5961C19.8202 10.7992 19.7014 10.9664 19.5945 11.1455C19.547 11.2291 19.5707 11.3247 19.6539 11.3725C19.7727 11.4561 19.9033 11.5158 20.034 11.5755C20.1053 11.6113 20.2003 11.5874 20.2478 11.5158C20.521 11.0858 20.7586 10.62 21.0199 10.1662C21.0674 10.0826 21.1625 10.0587 21.2456 10.1064C21.4594 10.2139 21.6376 10.3453 21.8633 10.4528C21.9346 10.4886 22.0296 10.4528 22.0771 10.3811C22.1959 10.1781 22.3028 9.97506 22.4216 9.77202C22.4691 9.70036 22.5642 9.66453 22.6354 9.70036C23.1343 9.92729 23.5738 10.2259 24.0371 10.4886C24.1203 10.5364 24.144 10.632 24.1084 10.7156C22.0652 14.4658 19.9508 18.1206 17.8839 21.8589C17.8483 21.9186 17.8483 21.9903 17.8958 22.038C18.169 22.3725 18.1096 23.0174 17.682 23.1607C17.587 23.1966 17.5513 23.3041 17.587 23.3877C17.682 23.5907 17.7414 23.8773 17.6345 24.0923C17.5988 24.152 17.6107 24.2356 17.6701 24.2834C18.466 25.0956 19.2381 25.8839 19.1312 27.5201C18.9887 29.6819 17.2662 31.1151 14.7955 30.9837C12.004 30.8404 9.15308 28.5114 9.16495 25.6569C9.17683 23.3399 11.6357 21.3692 14.2253 22.3127C14.2847 22.3366 14.356 22.3247 14.4035 22.265C14.5579 22.0978 14.748 21.9186 15.0212 21.9186C15.1281 21.9186 15.1993 21.835 15.1875 21.7275C15.14 21.3095 15.5082 20.8437 15.9715 20.9751C16.0427 20.9989 16.114 20.9631 16.1615 20.9034C16.7792 19.8882 17.3613 18.8133 17.9433 17.7622C17.9908 17.6906 17.9671 17.595 17.8958 17.5473C17.7176 17.4278 17.5038 17.3203 17.3019 17.2128C17.2187 17.1651 17.1831 17.0695 17.2306 16.9859C17.4801 16.5321 17.7295 16.0902 17.979 15.6244C18.0146 15.5527 17.9908 15.4571 17.9315 15.3974C17.8127 15.3138 17.682 15.2541 17.5513 15.1944C17.4801 15.1586 17.385 15.1824 17.3375 15.2541C17.2306 15.4213 17.1237 15.6124 17.0287 15.7916C16.9812 15.8752 16.8861 15.911 16.803 15.8632C16.209 15.5646 15.6626 15.2063 15.0806 14.8839C14.9974 14.8361 14.9736 14.7286 15.0212 14.645C15.1162 14.4658 15.2112 14.2867 15.3181 14.1195C15.3656 14.0478 15.3538 13.9403 15.2825 13.8925C15.1756 13.8089 15.0568 13.7612 14.938 13.7014C14.8549 13.6656 14.7717 13.6895 14.7242 13.7612C14.4629 14.1911 14.2015 14.6211 13.9758 15.075C13.9402 15.1586 13.8333 15.1944 13.7501 15.1586C13.3581 14.9794 13.0137 14.7525 12.6454 14.5494C12.5623 14.5017 12.5385 14.4061 12.586 14.3225C13.8214 12.0293 15.14 9.81979 16.3753 7.51469C16.3872 7.46692 16.4822 7.44303 16.5654 7.47886ZM18.169 10.7514C17.979 11.0619 17.8245 11.4083 17.6226 11.7188C17.5751 11.8024 17.4563 11.8263 17.385 11.7666C17.3732 11.7666 17.3732 11.7546 17.3613 11.7546C17.2781 11.6949 17.1593 11.7308 17.1118 11.8263C16.9336 12.1727 16.7198 12.4832 16.5535 12.8415C16.5179 12.9251 16.5416 13.0207 16.6248 13.0684C16.6367 13.0804 16.6604 13.0923 16.6723 13.0923C16.7555 13.1401 16.7792 13.2476 16.7317 13.3193C16.5535 13.6298 16.3753 13.9523 16.1972 14.2747C16.1496 14.3583 16.1734 14.4539 16.2566 14.5017C16.3397 14.5494 16.411 14.5972 16.4941 14.645C16.5773 14.6928 16.6723 14.6569 16.7198 14.5733C16.898 14.2508 17.0643 13.9284 17.2544 13.6178C17.3019 13.5342 17.4207 13.5103 17.5038 13.5701C17.587 13.6417 17.7176 13.6059 17.7651 13.5103C17.9433 13.164 18.1571 12.8535 18.3234 12.4951C18.3591 12.4115 18.3234 12.316 18.2403 12.2682C18.2284 12.2563 18.2165 12.2563 18.1928 12.2443C18.1096 12.1966 18.0859 12.0891 18.1334 12.0174C18.3116 11.7069 18.4897 11.3844 18.6679 11.0619C18.7154 10.9783 18.6798 10.8828 18.6085 10.835C18.5254 10.7872 18.4541 10.7394 18.371 10.6917C18.2997 10.6558 18.2047 10.6797 18.169 10.7514ZM13.6314 24.4984C13.5244 24.152 13.0612 23.9729 12.6692 23.9968C11.7545 24.0684 11.1249 25.2747 11.2437 26.4333C11.4575 28.4159 14.546 30.0283 16.2447 28.6667C16.6129 28.3801 17.1593 27.747 17.1356 26.9707C17.1237 26.5646 16.8267 25.7525 16.0427 25.9436C15.5795 26.0511 15.4963 26.7796 15.7933 27.1499C15.8646 27.2335 15.8289 27.3649 15.7339 27.4007C15.1043 27.6873 14.3441 27.2812 14.059 26.7677C14.0234 26.708 13.9758 26.6721 13.9164 26.6721C13.1443 26.6482 12.6335 26.2541 12.586 25.5614C12.5741 25.4539 12.6811 25.3583 12.788 25.3942C13.3225 25.5017 13.7739 24.9761 13.6314 24.4984Z" fill="#62F8B2"/>
</g>
<defs>
<filter id="filter0_d" x="0" y="0" width="33.1785" height="39" filterUnits="userSpaceOnUse" color-interpolation-filters="sRGB">
<feFlood flood-opacity="0" result="BackgroundImageFix"/>
<feColorMatrix in="SourceAlpha" type="matrix" values="0 0 0 0 0 0 0 0 0 0 0 0 0 0 0 0 0 0 127 0"/>
<feOffset/>
<feGaussianBlur stdDeviation="1.5"/>
<feColorMatrix type="matrix" values="0 0 0 0 0 0 0 0 0 1 0 0 0 0 0.58 0 0 0 0.87 0"/>
<feBlend mode="normal" in2="BackgroundImageFix" result="effect1_dropShadow"/>
<feBlend mode="normal" in="SourceGraphic" in2="effect1_dropShadow" result="shape"/>
</filter>
<filter id="filter1_d" x="7.16492" y="5.46161" width="18.9595" height="27.5305" filterUnits="userSpaceOnUse" color-interpolation-filters="sRGB">
<feFlood flood-opacity="0" result="BackgroundImageFix"/>
<feColorMatrix in="SourceAlpha" type="matrix" values="0 0 0 0 0 0 0 0 0 0 0 0 0 0 0 0 0 0 127 0"/>
<feOffset/>
<feGaussianBlur stdDeviation="1"/>
<feColorMatrix type="matrix" values="0 0 0 0 0 0 0 0 0 1 0 0 0 0 0.58 0 0 0 0.87 0"/>
<feBlend mode="normal" in2="BackgroundImageFix" result="effect1_dropShadow"/>
<feBlend mode="normal" in="SourceGraphic" in2="effect1_dropShadow" result="shape"/>
</filter>
</defs>
</svg>
